<?xml version="1.0" encoding="UTF-8"?>
<svg width="15px" height="15px" viewBox="0 0 15 15" version="1.1" xmlns="http://www.w3.org/2000/svg" xmlns:xlink="http://www.w3.org/1999/xlink">
    <!-- Generator: Sketch 43.2 (39069) - http://www.bohemiancoding.com/sketch -->
    <title>icon-search</title>
    <desc>Created with Sketch.</desc>
    <defs></defs>
    <g id="Dashboard_v2" stroke="none" stroke-width="1" fill="none" fill-rule="evenodd">
        <g id="2_Services" transform="translate(-870.000000, -218.000000)" fill-rule="nonzero" fill="#FFFFFF">
            <path d="M880.714286,227.428571 L880.032857,227.428571 L879.797143,227.192857 C880.637143,226.22 881.142857,224.955714 881.142857,223.571429 C881.142857,220.494286 878.648571,218 875.571429,218 C872.494286,218 870,220.494286 870,223.571429 C870,226.648571 872.494286,229.142857 875.571429,229.142857 C876.955714,229.142857 878.22,228.637143 879.192857,227.801429 L879.428571,228.037143 L879.428571,228.714286 L883.714286,232.991429 L884.991429,231.714286 L880.714286,227.428571 Z M875.571429,227.428571 C873.441429,227.428571 871.714286,225.701429 871.714286,223.571429 C871.714286,221.441429 873.441429,219.714286 875.571429,219.714286 C877.701429,219.714286 879.428571,221.441429 879.428571,223.571429 C879.428571,225.701429 877.701429,227.428571 875.571429,227.428571 Z" id="icon-search"></path>
        </g>
    </g>
</svg>