<?xml version="1.0" encoding="UTF-8"?>
<svg width="60px" height="60px" viewBox="0 0 60 60" version="1.1" xmlns="http://www.w3.org/2000/svg" xmlns:xlink="http://www.w3.org/1999/xlink">
    <!-- Generator: Sketch 43.2 (39069) - http://www.bohemiancoding.com/sketch -->
    <title>icon-create@1.5x</title>
    <desc>Created with Sketch.</desc>
    <defs>
        <linearGradient x1="50%" y1="-23.8026534%" x2="50%" y2="100%" id="linearGradient-1">
            <stop stop-color="#D6026F" offset="0%"></stop>
            <stop stop-color="#FF329C" offset="100%"></stop>
        </linearGradient>
        <path d="M51.2905024,42.4217824 L29.6508256,20.7821056 C31.7793184,15.3426241 30.5968224,8.83889606 26.2215872,4.46366087 C21.4916032,-0.266323122 14.3966273,-1.21231992 8.72064646,1.50742088 L19.0083616,11.7951361 L11.7951361,19.0083616 L1.50742088,8.72064646 C-1.21231992,14.3966273 -0.266323122,21.4916032 4.46366087,26.2215872 C8.83889606,30.5968224 15.3426241,31.7793184 20.7821056,29.6508256 L42.4217824,51.2905024 C43.3677792,52.2364992 44.905024,52.2364992 45.7327712,51.2905024 L51.2905024,45.7327712 C52.2364992,44.905024 52.2364992,43.3677792 51.2905024,42.4217824 L51.2905024,42.4217824 Z" id="path-2"></path>
        <filter x="-13.5%" y="-9.6%" width="126.9%" height="126.9%" filterUnits="objectBoundingBox" id="filter-3">
            <feOffset dx="0" dy="2" in="SourceAlpha" result="shadowOffsetOuter1"></feOffset>
            <feGaussianBlur stdDeviation="2" in="shadowOffsetOuter1" result="shadowBlurOuter1"></feGaussianBlur>
            <feColorMatrix values="0 0 0 0 0   0 0 0 0 0   0 0 0 0 0  0 0 0 0.147616621 0" type="matrix" in="shadowBlurOuter1"></feColorMatrix>
        </filter>
    </defs>
    <g id="Dashboard_v2" stroke="none" stroke-width="1" fill="none" fill-rule="evenodd">
        <g id="0_Landing" transform="translate(-280.000000, -701.000000)" fill-rule="nonzero">
            <g id="ic_build_48px" transform="translate(284.000000, 703.000000)">
                <g id="icon-create">
                    <use fill="black" fill-opacity="1" filter="url(#filter-3)" xlink:href="#path-2"></use>
                    <use fill="url(#linearGradient-1)" fill-rule="evenodd" xlink:href="#path-2"></use>
                </g>
            </g>
        </g>
    </g>
</svg>