<?xml version="1.0" encoding="UTF-8"?>
<svg width="28px" height="25px" viewBox="0 0 28 25" version="1.1" xmlns="http://www.w3.org/2000/svg" xmlns:xlink="http://www.w3.org/1999/xlink">
    <!-- Generator: Sketch 53.1 (72631) - https://sketchapp.com -->
    <title>Group 5</title>
    <desc>Created with Sketch.</desc>
    <g id="Page-1" stroke="none" stroke-width="1" fill="none" fill-rule="evenodd">
        <g id="jazz-1.0-Createservice_2019-0412" transform="translate(-902.000000, -505.000000)">
            <g id="Group-5" transform="translate(902.000000, 505.000000)">
                <g id="aws-api-gateway" opacity="0.6" transform="translate(3.414634, 0.000000)" fill-rule="nonzero">
                    <polyline id="Path" fill="#634B1E" points="20.4878049 10.911469 15.5157408 11.1111111 12.2926829 10.9118566 17.6237801 10.4166667 20.4878049 10.911469"></polyline>
                    <polyline id="Path" fill="#D9A740" points="17.9508918 10.835119 20.4878049 11.1111111 20.4878049 5.54777983 17.9508918 4.16666667 17.7560976 4.39563564 17.7560976 10.5983897 17.9508918 10.835119"></polyline>
                    <polyline id="Path" fill="#886A2A" points="12.2926829 5.54841533 17.7560976 4.16666667 17.7560976 10.8349456 12.2926829 11.1111111 12.2926829 5.54841533"></polyline>
                    <polyline id="Path" fill="#634B1E" points="0.682926829 10.9265138 5.65499094 11.1111111 8.87804878 10.9268722 3.5621513 10.4166667 0.682926829 10.9265138"></polyline>
                    <polyline id="Path" fill="#886A2A" points="2.6114686 10.8438991 0 11.1111111 0 5.5425975 2.6114686 4.16666667 2.73170732 4.40366874 2.73170732 10.6358802 2.6114686 10.8438991"></polyline>
                    <polyline id="Path" fill="#D9A740" points="8.19512195 5.54841533 2.73170732 4.16666667 2.73170732 10.8349456 8.19512195 11.1111111 8.19512195 5.54841533"></polyline>
                    <g id="Group" transform="translate(12.975610, 13.888889)">
                        <polyline id="Path" fill="#FAD791" points="8.13303769 0.220953415 3.22542062 0.00984130204 0.0441394958 0.220543648 5.28323708 0.770205503 8.13303769 0.220953415"></polyline>
                        <polyline id="Path" fill="#D9A740" points="5.29476546 0.515330243 8.13303769 0.220953415 8.13303769 6.15479368 5.29476546 7.62790713 5.14568609 7.29099645 5.14568609 0.818066324 5.29476546 0.515330243"></polyline>
                        <polyline id="Path" fill="#886A2A" points="0.0441394958 6.15831768 5.29476546 7.6332341 5.29476546 0.515330243 0.0441394958 0.220543648 0.0441394958 6.15831768"></polyline>
                    </g>
                    <g id="Group" transform="translate(0.682927, 13.888889)">
                        <polyline id="Path" fill="#FAD791" points="0 0.220953415 4.9450798 0.00984130204 8.15064551 0.220543648 2.82532797 0.817820464 0 0.220953415"></polyline>
                        <polyline id="Path" fill="#886A2A" points="2.85993843 0.515330243 0 0.220953415 0 6.15479368 2.85993843 7.62790713 3.03330902 7.36237792 3.03330902 0.817820464 2.85993843 0.515330243"></polyline>
                        <polyline id="Path" fill="#D9A740" points="8.15064551 6.15831768 2.85993843 7.6332341 2.85993843 0.515330243 8.15064551 0.220543648 8.15064551 6.15831768"></polyline>
                    </g>
                    <g id="Group" transform="translate(4.780488, 0.000000)">
                        <polyline id="Path" fill="#634B1E" points="3.19668394 8.5991129 5.84659694 8.13290323 11.1369377 8.88443548 11.5926302 9.14741935 9.02310036 9.42951613 3.19668394 8.5991129"></polyline>
                        <polyline id="Path" fill="#634B1E" points="8.41307216 8.5991129 5.76315916 8.13290323 0.245012355 8.99193548 0.017125946 9.14741935 2.58665573 9.42951613 8.41307216 8.5991129"></polyline>
                        <polyline id="Path" fill="#FAD791" points="3.19668394 16.5241129 5.84659694 16.9903226 11.1235941 16.25 11.5926302 15.9758065 9.02310036 15.6937097 3.19668394 16.5241129"></polyline>
                        <polyline id="Path" fill="#FAD791" points="8.41307216 16.5241129 5.76315916 16.9903226 0.204820748 16.1962097 0.017125946 15.9758065 2.58665573 15.6937097 8.41307216 16.5241129"></polyline>
                        <polyline id="Path" fill="#D9A740" points="11.5926302 9.14741935 11.5926302 6.26137097 8.88267089 5.37225806 8.88267089 1.59483871 5.80487805 0.0511290323 5.80487805 0.0512096774 5.67650606 0.256290323 5.65311454 24.6585484 5.80487805 24.9723387 8.88267089 23.428629 8.88267089 19.7509677 11.5926302 18.8618548 11.5926302 15.9758065 8.88267089 16.4544355 8.88267089 8.66879032 11.5926302 9.14741935"></polyline>
                        <polyline id="Path" fill="#886A2A" points="2.72708521 1.59483871 2.72708521 5.37225806 0.017125946 6.26137097 0.017125946 9.14741935 2.72708521 8.66879032 2.72708521 16.4544355 0.017125946 15.9758065 0.017125946 18.8618548 2.72708521 19.7509677 2.72708521 23.428629 5.80487805 24.9723387 5.80487805 0.0511290323 2.72708521 1.59483871"></polyline>
                    </g>
                </g>
                <rect id="Rectangle" fill="#FFFFFF" style="mix-blend-mode: color;" x="0" y="0" width="28" height="25"></rect>
            </g>
        </g>
    </g>
</svg>