<?xml version="1.0" encoding="UTF-8"?>
<svg width="18px" height="22px" viewBox="0 0 18 22" version="1.1" xmlns="http://www.w3.org/2000/svg" xmlns:xlink="http://www.w3.org/1999/xlink">
    <!-- Generator: Sketch 53.1 (72631) - https://sketchapp.com -->
    <title>Shape</title>
    <desc>Created with Sketch.</desc>
    <g id="Page-1" stroke="none" stroke-width="1" fill="none" fill-rule="evenodd">
        <g id="jazz-1.0-Createservice_2019-0412" transform="translate(-1174.000000, -219.000000)" fill="#E5E5E5" fill-rule="nonzero">
            <g id="Build-Custom" transform="translate(1153.000000, 208.000000)">
                <g id="noun_Server_2196015" transform="translate(21.000000, 11.000000)">
                    <g id="Group">
                        <path d="M8.86960448,0 C6.54779752,0 4.43957439,0.36778792 2.84522048,1.00980422 C2.04804352,1.33081238 1.37471204,1.71368505 0.864265956,2.19965106 C0.35382013,2.68561708 0.000145956134,3.31617077 0.000145956134,4.00790514 C0.000145956134,5.39137387 1.20207926,6.44678305 2.79630796,7.22518836 C4.39053691,8.00359368 6.51732378,8.51679842 8.86960448,8.51679842 C11.2218849,8.51679842 13.348672,8.00359368 14.942901,7.22518836 C15.3912779,7.00626156 15.8055622,6.76890339 16.1738644,6.50501791 L16.1738644,8.76729249 C16.1738644,9.02142875 16.0786013,9.2262327 15.7825647,9.49529088 C15.4865281,9.76434907 14.9879913,10.0459445 14.3233431,10.2780773 C12.9940473,10.7423932 11.0368282,11.0217441 8.86960448,11.0217441 C6.70238074,11.0217441 4.7451617,10.7423932 3.41586561,10.2780773 C2.7512177,10.0459445 2.25268083,9.76434907 1.95664422,9.49529088 C1.66060735,9.2262327 1.56534456,9.02142875 1.56534456,8.76729249 L1.56534456,7.51482213 C1.57119326,7.11780406 1.19624491,6.7526338 0.78274526,6.7526338 C0.369245608,6.7526338 -0.00570352213,7.11780406 0.000145956134,7.51482213 L0.000145956134,8.76729249 C0.000145956134,9.47441721 0.358171956,10.1164085 0.880570043,10.5911949 C1.40296813,11.0660064 2.08719509,11.4159467 2.88598083,11.694947 C4.48355204,12.2529726 6.57057952,12.5247086 8.86960448,12.5247086 C11.1686294,12.5247086 13.2556569,12.2529726 14.8532281,11.694947 C15.6520139,11.4159467 16.3362408,11.0660064 16.8586387,10.5911949 C17.3810367,10.1164085 17.739063,9.47441721 17.739063,8.76729249 L17.739063,4.00790514 C17.7351787,3.92289497 17.7251404,3.83566542 17.7178439,3.75726578 C17.644502,3.16509028 17.322226,2.62548597 16.8749417,2.19965106 C16.3644956,1.71368505 15.6911641,1.33081238 14.8939872,1.00980422 C13.2996343,0.36778792 11.1914112,0 8.86960422,0 L8.86960448,0 Z M8.86960448,1.50296443 C11.0140462,1.50296443 12.9500696,1.85877122 14.2825827,2.39534956 C14.9488397,2.66363873 15.4582718,2.97886046 15.7662607,3.2720788 C16.0742495,3.56529714 16.1738644,3.80040336 16.1738644,4.00790514 C16.1738644,4.42290869 15.5663088,5.23592978 14.2336705,5.88661067 C12.9010319,6.53729157 10.9835725,7.01383399 8.86960448,7.01383399 C6.75563622,7.01383399 4.83817709,6.53729157 3.50553848,5.88661067 C2.17290013,5.23592978 1.56534456,4.42290869 1.56534456,4.00790514 C1.56534456,3.80040336 1.66495943,3.56529714 1.9729483,3.2720788 C2.28093717,2.97886046 2.79036926,2.66363873 3.45662622,2.39534956 C4.78913935,1.85877122 6.72516274,1.50296443 8.86960448,1.50296443 Z M0.774593087,11.2565823 C0.36207013,11.2605902 -0.0084285656,11.6276642 0.000145956134,12.0237204 L0.000145956134,13.0256967 C0.000145956134,13.7431869 0.348292565,14.40136 0.864265956,14.9044022 C1.38023935,15.4074444 2.0608183,15.7854901 2.86152456,16.0942491 C4.46293735,16.7117671 6.5599517,17.0336018 8.86960448,17.0336018 C11.179257,17.0336018 13.2762716,16.7117671 14.8776844,16.0942491 C15.6783907,15.7854901 16.3589696,15.4074444 16.874943,14.9044022 C17.3909164,14.40136 17.739063,13.7431869 17.739063,13.0256967 L17.739063,12.0237204 C17.7449091,11.6266873 17.369962,11.2615421 16.9564637,11.2615421 C16.5429653,11.2615421 16.168017,11.6266873 16.1738644,12.0237204 L16.1738644,13.0256967 C16.1738644,13.3073522 16.068722,13.5527613 15.7662607,13.8476179 C15.4637993,14.1424995 14.9616142,14.4453218 14.2988871,14.7008758 C12.9734323,15.2119839 11.0262004,15.5306374 8.86960448,15.5306374 C6.7130083,15.5306374 4.76577665,15.2119839 3.44032187,14.7008758 C2.77759474,14.4453218 2.27540961,14.1424995 1.9729483,13.8476179 C1.670487,13.5527613 1.56534456,13.3073522 1.56534456,13.0256967 L1.56534456,12.0237204 C1.57403413,11.622454 1.19255022,11.252349 0.774593087,11.2565823 L0.774593087,11.2565823 Z M0.774593087,15.5149815 C0.36207013,15.5189894 -0.0084285656,15.8860635 0.000145956134,16.2821196 L0.000145956134,17.0336018 C0.000145956134,17.7527453 0.347983956,18.4082632 0.864265956,18.9123074 C1.38054796,19.4163516 2.06060856,19.8019371 2.86152456,20.1099696 C4.46335656,20.7260598 6.56066622,21.041507 8.86960448,21.041507 C11.1785409,21.041507 13.2758513,20.7260598 14.8776844,20.1099696 C15.6786009,19.8019371 16.3586602,19.4163516 16.874943,18.9123074 C17.3912258,18.4082632 17.739063,17.7527453 17.739063,17.0336018 L17.739063,16.2821196 C17.7449091,15.8850865 17.369962,15.5199413 16.9564637,15.5199413 C16.5429653,15.5199413 16.168017,15.8850865 16.1738644,16.2821196 L16.1738644,17.0336018 C16.1738644,17.3194907 16.0684126,17.5683816 15.7662607,17.8633635 C15.4641087,18.1583453 14.9614042,18.4617687 14.2988871,18.7165964 C12.9738526,19.2262015 11.0269165,19.5385426 8.86960448,19.5385426 C6.71229378,19.5385426 4.76535717,19.2262015 3.44032187,18.7165964 C2.77780422,18.4617687 2.275101,18.1583453 1.9729483,17.8633635 C1.67079561,17.5683816 1.56534456,17.3194907 1.56534456,17.0336018 L1.56534456,16.2821196 C1.57403413,15.8808532 1.19255022,15.5107482 0.774593087,15.5149815 L0.774593087,15.5149815 Z" id="Shape"></path>
                    </g>
                </g>
            </g>
        </g>
    </g>
</svg>