<?xml version="1.0" encoding="UTF-8"?>
<svg width="23px" height="23px" viewBox="0 0 23 23" version="1.1" xmlns="http://www.w3.org/2000/svg" xmlns:xlink="http://www.w3.org/1999/xlink">
    <!-- Generator: Sketch 53.1 (72631) - https://sketchapp.com -->
    <title>Shape</title>
    <desc>Created with Sketch.</desc>
    <g id="Page-1" stroke="none" stroke-width="1" fill="none" fill-rule="evenodd">
        <g id="jazz-1.0-Createservice_2019-0412" transform="translate(-1060.000000, -222.000000)" fill="#E5E5E5" fill-rule="nonzero">
            <g id="Group-28" transform="translate(1041.000000, 208.000000)">
                <path d="M30.49425,14 C24.1405,14 19,19.14625 19,25.5 C19,31.85375 24.1405,37 30.49425,37 C36.848,37 42,31.85375 42,25.5 C42,19.14625 36.848,14 30.49425,14 Z M38,21 L34.5935335,21 C34.2182448,19.5955056 33.6928406,18.247191 33,17 C35.1247113,17.7078652 36.891455,19.1404494 38,21 L38,21 Z M30.5,16 C31.5929319,17.5132409 32.4437173,19.1967213 33,21 L28,21 C28.5562827,19.1967213 29.4070681,17.5132409 30.5,16 Z M21.2857143,28 C21.1043956,27.2 21,26.3625 21,25.5 C21,24.6375 21.1043956,23.8 21.2857143,23 L24.9945055,23 C24.9065934,23.81875 24.8461538,24.65 24.8461538,25.5 C24.8461538,26.35 24.9065934,27.18125 25,28 L21.2857143,28 Z M23,30 L26.4064665,30 C26.7817552,31.4025245 27.3071594,32.7489481 28,34 C25.8752887,33.2931276 24.108545,31.8569425 23,30 L23,30 Z M26.4064665,21 L23,21 C24.108545,19.1430575 25.8752887,17.7068724 28,17 C27.3071594,18.2510519 26.7817552,19.5974755 26.4064665,21 Z M30.5,35 C29.4136126,33.4867591 28.5628272,31.8032787 28,30 L33,30 C32.4371728,31.8032787 31.5863874,33.4867591 30.5,35 Z M32.84,28 L28.16,28 C28.065,27.18125 28,26.35 28,25.5 C28,24.65 28.065,23.81875 28.16,23 L32.84,23 C32.935,23.81875 33,24.65 33,25.5 C33,26.35 32.935,27.18125 32.84,28 Z M33,34 C33.6928406,32.747191 34.2182448,31.4044944 34.5935335,30 L38,30 C36.8856813,31.8595506 35.1189376,33.2921348 33,34 Z M36,28 C36.0879121,27.18125 36.1538462,26.35 36.1538462,25.5 C36.1538462,24.65 36.0934066,23.81875 36,23 L39.7087912,23 C39.8901099,23.8 40,24.6375 40,25.5 C40,26.3625 39.8956044,27.2 39.7087912,28 L36,28 Z" id="Shape"></path>
            </g>
        </g>
    </g>
</svg>