<svg xmlns="http://www.w3.org/2000/svg" viewBox="0 0 250.38 250.49"><defs><style>.cls-1{fill:#ccc;}.cls-2{fill:#ccc;}</style></defs><title>logo-azure</title><g id="Layer_2" data-name="Layer 2"><g id="Layer_1-2" data-name="Layer 1"><g id="_Group_" data-name="&lt;Group&gt;"><path id="_Compound_Path_" data-name="&lt;Compound Path&gt;" class="cls-1" d="M104.19,131.25H.36V218l103.83,13.33Zm9.76,0V232.61L250,250.08V131.25Zm-9.76-9.76V20.58L.36,34.94v86.56ZM114,19.23,250,.41V121.49H114V19.23Z"/><path id="_Compound_Path_2" data-name="&lt;Compound Path&gt;" class="cls-2" d="M104.19,131.25v-.36H0v87.44l104.56,13.42V130.89h-.36v.36h-.36v99.69L.72,217.7V131.62H104.19v-.36h0Zm9.76,0h-.36V232.92l136.79,17.56V130.89H113.59v.36H114v.36H249.66V249.67L114.32,232.29v-101H114v0Zm-9.76-9.76h.36V20.16L0,34.62v87.23H104.56v-.36h-.36v-.36H.72V35.25L103.83,21v100.5h.36v0ZM114,19.23l0,.36L249.66.83v120.3H114.32V19.23H114l0,.36,0-.36h-.36V121.86H250.38V0L113.59,18.91v.31Z"/></g></g></g></svg>