<?xml version="1.0" standalone="no"?>
<!DOCTYPE svg PUBLIC "-//W3C//DTD SVG 1.1//EN" "http://www.w3.org/Graphics/SVG/1.1/DTD/svg11.dtd" >
<svg xmlns="http://www.w3.org/2000/svg">
<metadata>
<json>
<![CDATA[
{
	"fontFamily": "icomoon",
	"majorVersion": 1,
	"minorVersion": 0,
	"version": "Version 1.0",
	"fontId": "icomoon",
	"psName": "icomoon",
	"subFamily": "Regular",
	"fullName": "icomoon",
	"description": "Font generated by IcoMoon."
}
]]>
</json>
</metadata>
<defs>
<font id="icomoon" horiz-adv-x="1024">
<font-face units-per-em="1024" ascent="960" descent="-64" />
<missing-glyph horiz-adv-x="1024" />
<glyph unicode="&#x20;" horiz-adv-x="512" d="" />
<glyph unicode="&#xe900;" glyph-name="uniE903" horiz-adv-x="853" d="M11.093 153.966l52.907-26.453 93.501 320-93.501 320.975-52.907-26.453z" />
<glyph unicode="&#xe901;" glyph-name="uniE904" horiz-adv-x="853" d="M166.4 744.107l-102.4 24.015v-640.61l102.4 24.015z" />
<glyph unicode="&#xe902;" glyph-name="uniE905" horiz-adv-x="853" d="M127.634 800.305l77.653 38.888 96.914-391.68-96.914-390.705-77.653 38.888z" />
<glyph unicode="&#xe903;" glyph-name="uniE906" horiz-adv-x="853" d="M364.373 108.983l-159.086-50.712v780.922l159.086-50.834z" />
<glyph unicode="&#xe904;" glyph-name="uniE907" horiz-adv-x="853" d="M725.577 701.928h63.634v-487.010l-63.634 3.535z" />
<glyph unicode="&#xe905;" glyph-name="uniE908" horiz-adv-x="853" d="M478.72 694.857l71.436 36.815 234.057-29.745 6.949-62.293-64.122-9.021z" />
<glyph unicode="&#xe906;" glyph-name="uniE909" horiz-adv-x="853" d="M480.792 201.143l71.314-36.815 241.006 92.16-64 8.899z" />
<glyph unicode="&#xe907;" glyph-name="uniE90A" horiz-adv-x="853" d="M498.834 304.518l127.39-17.067v321.097l-127.39-16.945z" />
<glyph unicode="&#xe908;" glyph-name="uniE90B" horiz-adv-x="853" d="M302.202 8.411l124.343-62.171 106.789 502.491-106.789 501.029-124.343-62.171z" />
<glyph unicode="&#xe909;" glyph-name="uniE90C" horiz-adv-x="853" d="M426.667 949.76v-1003.52l415.695 207.848v587.825l-415.695 207.848zM789.211 255.756l-238.324-71.558v527.604l238.202-71.436 0.122-384.61z" />
<glyph unicode="&#xe90a;" glyph-name="uniE90D" horiz-adv-x="853" d="M626.225 608.549v-322.072l132.51 161.036z" />
<glyph unicode="&#xe90b;" glyph-name="uniE90E" horiz-adv-x="853" d="M52.785 762.88l-41.691-20.846v-588.069l41.691-20.846 168.716 299.642z" />
<glyph unicode="&#xe90c;" glyph-name="uniE90F" horiz-adv-x="853" d="M149.943 155.916l-97.158-22.796v629.76l97.158-22.187z" />
<glyph unicode="&#xe90d;" glyph-name="uniE910" horiz-adv-x="853" d="M98.743 785.92l51.2 25.478 243.2-389.851-243.2-336.945-51.2 25.478z" />
<glyph unicode="&#xe90e;" glyph-name="uniE911" horiz-adv-x="853" d="M271.116 118.857l-121.173-34.255v726.796l121.173-34.377z" />
<glyph unicode="&#xe90f;" glyph-name="uniE912" horiz-adv-x="853" d="M206.994 840.046l64.122 32.061 358.766-493.227-358.766-354.987-64.122 32.061z" />
<glyph unicode="&#xe910;" glyph-name="uniE913" horiz-adv-x="853" d="M426.545 80.701l-155.429-56.808v848.213l155.429-56.93z" />
<glyph unicode="&#xe911;" glyph-name="uniE914" horiz-adv-x="853" d="M343.65 908.312l82.895 41.448 388.145-530.164-388.145-473.356-82.895 41.448z" />
<glyph unicode="&#xe912;" glyph-name="uniE915" horiz-adv-x="853" d="M842.24 154.088l-415.695-207.848v1003.52l415.695-207.848z" />
<glyph unicode="&#xe913;" glyph-name="uniE916" horiz-adv-x="849" d="M69.182 782.299l-68.183-34.092v-599.040l68.183-34.092 167.337 333.674z" />
<glyph unicode="&#xe914;" glyph-name="uniE917" horiz-adv-x="849" d="M424.585 201.241l-355.403-86.041v667.099l355.403-86.041 167.961-248.507z" />
<glyph unicode="&#xe915;" glyph-name="uniE918" horiz-adv-x="849" d="M424.585 201.241l355.278-86.041 61.44 325.058-61.44 342.041-355.278-86.041z" />
<glyph unicode="&#xe916;" glyph-name="uniE919" horiz-adv-x="849" d="M779.863 782.299l68.308-34.092v-599.040l-68.308-34.092z" />
<glyph unicode="&#xe917;" glyph-name="uniE91A" horiz-adv-x="849" d="M269.612 338.357l154.974-19.856 122.88 129.249-122.88 129.124-154.974-19.481z" />
<glyph unicode="&#xe918;" glyph-name="uniE91B" horiz-adv-x="849" d="M579.559 663.415l-154.974-28.222-154.974 28.222 154.974 296.585z" />
<glyph unicode="&#xe919;" glyph-name="uniE91C" horiz-adv-x="849" d="M579.559 232.585l-154.974 28.472-154.974-28.472 154.974-296.585z" />
<glyph unicode="&#xe91a;" glyph-name="uniE91D" horiz-adv-x="849" d="M579.559 663.415l-154.974 38.338v258.248l154.974-77.424z" />
<glyph unicode="&#xe91b;" glyph-name="uniE91E" horiz-adv-x="849" d="M269.612 663.415l154.974 38.338v258.248l-154.974-77.424z" />
<glyph unicode="&#xe91c;" glyph-name="uniE91F" horiz-adv-x="849" d="M424.585-64l154.974 77.424v219.161l-154.974-38.338z" />
<glyph unicode="&#xe91d;" glyph-name="uniE920" horiz-adv-x="849" d="M424.585-64l-154.974 77.424v219.161l154.974-38.338z" />
<glyph unicode="&#xe91e;" glyph-name="uniE921" horiz-adv-x="849" d="M579.559 338.357l-154.974-19.856v258.373l154.974-19.481z" />
<glyph unicode="&#xe91f;" glyph-name="uniE922" horiz-adv-x="853" d="M842.362 385.219l-201.874 8.29-130.804-8.29 215.893-293.547z" />
<glyph unicode="&#xe920;" glyph-name="uniE923" horiz-adv-x="853" d="M842.362 506.758l-201.874-8.29-130.804 8.29 215.893 293.547z" />
<glyph unicode="&#xe921;" glyph-name="uniE924" horiz-adv-x="853" d="M10.971 507.124l201.874-8.655 130.804 8.29-215.893 292.084z" />
<glyph unicode="&#xe922;" glyph-name="uniE925" horiz-adv-x="853" d="M10.971 385.219l201.874 8.29 130.804-8.29-215.893-293.79z" />
<glyph unicode="&#xe923;" glyph-name="uniE926" horiz-adv-x="853" d="M725.577 518.461l116.785-11.703v235.154l-116.785 58.392z" />
<glyph unicode="&#xe924;" glyph-name="uniE927" horiz-adv-x="853" d="M509.684 742.034l215.893 58.27v-281.844l-215.893-11.703z" />
<glyph unicode="&#xe925;" glyph-name="uniE928" horiz-adv-x="853" d="M426.667 776.168l233.813-76.434v-116.297l-233.813 41.204z" />
<glyph unicode="&#xe926;" glyph-name="uniE929" horiz-adv-x="853" d="M321.341 605.501l107.032 18.895 232.107-40.96-103.741-11.337z" />
<glyph unicode="&#xe927;" glyph-name="uniE92A" horiz-adv-x="853" d="M127.756 518.461l-116.785-11.337v235.886l116.785 57.539z" />
<glyph unicode="&#xe928;" glyph-name="uniE92B" horiz-adv-x="853" d="M343.65 742.034l-215.893 58.514v-282.088l215.893-11.703z" />
<glyph unicode="&#xe929;" glyph-name="uniE92C" horiz-adv-x="853" d="M426.667 776.168l-233.813-76.434v-116.297l233.813 41.204z" />
<glyph unicode="&#xe92a;" glyph-name="uniE92D" horiz-adv-x="853" d="M531.992 605.501l-107.032 18.895-232.107-40.96 103.741-11.337z" />
<glyph unicode="&#xe92b;" glyph-name="uniE92E" horiz-adv-x="853" d="M725.577 373.516l116.785 11.703v-235.154l-116.785-58.392z" />
<glyph unicode="&#xe92c;" glyph-name="uniE92F" horiz-adv-x="853" d="M509.684 149.943l215.893-58.27v281.844l-215.893 11.703z" />
<glyph unicode="&#xe92d;" glyph-name="uniE930" horiz-adv-x="853" d="M426.667 115.81l233.813 76.434v116.297l-233.813-41.204z" />
<glyph unicode="&#xe92e;" glyph-name="uniE931" horiz-adv-x="853" d="M321.341 286.476l107.032-18.773 232.107 40.838-103.741 11.337z" />
<glyph unicode="&#xe92f;" glyph-name="uniE932" horiz-adv-x="853" d="M127.756 373.516l-116.785 11.703v-235.154l116.785-58.636z" />
<glyph unicode="&#xe930;" glyph-name="uniE933" horiz-adv-x="853" d="M343.65 149.943l-215.893-58.514v282.088l215.893 11.703z" />
<glyph unicode="&#xe931;" glyph-name="uniE934" horiz-adv-x="853" d="M426.667 115.81l-233.813 76.434v116.297l233.813-41.204z" />
<glyph unicode="&#xe932;" glyph-name="uniE935" horiz-adv-x="853" d="M531.992 286.476l-107.032-18.773-232.107 40.838 103.741 11.337z" />
<glyph unicode="&#xe933;" glyph-name="uniE936" horiz-adv-x="853" d="M302.324 8.411l124.343-62.171 68.998 34.499 55.345 906.85-124.343 62.171-124.343-62.171z" />
<glyph unicode="&#xe934;" glyph-name="uniE937" horiz-adv-x="853" d="M551.010 8.411l-124.343-62.171v1003.52l124.343-62.171z" />
<glyph unicode="&#xe935;" glyph-name="uniE938" d="M585.197 629.665c-7.206 21.618-30.341 33.375-51.959 26.548-21.618-7.206-33.375-30.341-26.548-51.959l106.572-327.68c7.206-20.101 29.203-31.479 50.062-25.41 21.997 6.447 35.271 29.582 28.065 50.821 0 0.759-106.193 327.68-106.193 327.68z" />
<glyph unicode="&#xe936;" glyph-name="uniE939" d="M420.219 576.19c-7.206 21.618-30.341 33.375-51.959 26.548-21.618-7.206-33.375-30.341-26.548-51.959l106.572-327.68c7.206-20.101 29.203-31.479 50.062-25.41 21.997 6.447 35.271 29.582 28.065 50.821 0 0.759-106.193 327.68-106.193 327.68z" />
<glyph unicode="&#xe937;" glyph-name="uniE93A" d="M719.455 358.495c21.618 7.206 33.375 30.341 26.548 51.959-7.206 21.618-30.341 33.375-51.959 26.548l-328.059-106.951c-20.101-7.206-31.479-29.203-25.41-50.062 6.447-21.997 29.582-35.271 50.821-28.065 0.759 0 328.059 106.572 328.059 106.572z" />
<glyph unicode="&#xe938;" glyph-name="uniE93B" d="M434.252 265.576c21.239 6.827 48.924 15.929 78.507 25.41-6.827 21.239-15.929 48.924-25.41 78.507l-78.507-25.41 25.41-78.507z" />
<glyph unicode="&#xe939;" glyph-name="uniE93C" d="M599.609 319.431c29.582 9.481 57.268 18.584 78.507 25.41-6.827 21.239-15.929 48.924-25.41 78.507l-78.507-25.41 25.41-78.507z" />
<glyph unicode="&#xe93a;" glyph-name="uniE93D" d="M665.6 523.473c21.618 7.206 33.375 30.341 26.548 51.959-7.206 21.618-30.341 33.375-51.959 26.548l-327.68-106.572c-20.101-7.206-31.479-29.203-25.41-50.062 6.447-21.997 29.582-35.271 50.821-28.065 0.759 0 327.68 106.193 327.68 106.193z" />
<glyph unicode="&#xe93b;" glyph-name="uniE93E" d="M380.776 430.933c21.239 6.827 48.924 15.929 78.507 25.41-9.481 29.582-18.584 57.268-25.41 78.507l-78.507-25.41 25.41-78.507z" />
<glyph unicode="&#xe93c;" glyph-name="uniE93F" d="M545.754 484.409c29.582 9.481 57.268 18.584 78.507 25.41-9.481 29.582-18.584 57.268-25.41 78.507l-78.507-25.41 25.41-78.507z" />
<glyph unicode="&#xe93d;" glyph-name="uniE940" horiz-adv-x="2185" d="M537.79 629.665c-7.206 21.618-30.341 33.375-51.959 26.548-21.618-7.206-33.375-30.341-26.548-51.959l106.572-327.68c7.206-20.101 29.203-31.479 50.062-25.41 21.997 6.447 35.271 29.582 28.065 50.821 0 0.759-106.193 327.68-106.193 327.68z" />
<glyph unicode="&#xe93e;" glyph-name="uniE941" horiz-adv-x="2185" d="M372.812 576.19c-7.206 21.618-30.341 33.375-51.959 26.548-21.618-7.206-33.375-30.341-26.548-51.959l106.572-327.68c7.206-20.101 29.203-31.479 50.062-25.41 21.997 6.447 35.271 29.582 28.065 50.821 0 0.759-106.193 327.68-106.193 327.68z" />
<glyph unicode="&#xe93f;" glyph-name="uniE942" horiz-adv-x="2185" d="M672.047 358.495c21.618 7.206 33.375 30.341 26.548 51.959-7.206 21.618-30.341 33.375-51.959 26.548l-328.059-106.951c-20.101-7.206-31.479-29.203-25.41-50.062 6.447-21.997 29.582-35.271 50.821-28.065 0.759 0 328.059 106.572 328.059 106.572z" />
<glyph unicode="&#xe940;" glyph-name="uniE943" horiz-adv-x="2185" d="M386.844 265.576c21.239 6.827 48.924 15.929 78.507 25.41-6.827 21.239-15.929 48.924-25.41 78.507l-78.507-25.41 25.41-78.507z" />
<glyph unicode="&#xe941;" glyph-name="uniE944" horiz-adv-x="2185" d="M552.201 319.431c29.582 9.481 57.268 18.584 78.507 25.41-6.827 21.239-15.929 48.924-25.41 78.507l-78.507-25.41 25.41-78.507z" />
<glyph unicode="&#xe942;" glyph-name="uniE945" horiz-adv-x="2185" d="M618.193 523.473c21.618 7.206 33.375 30.341 26.548 51.959-7.206 21.618-30.341 33.375-51.959 26.548l-327.68-106.572c-20.101-7.206-31.479-29.203-25.41-50.062 6.447-21.997 29.582-35.271 50.821-28.065 0.759 0 327.68 106.193 327.68 106.193z" />
<glyph unicode="&#xe943;" glyph-name="uniE946" horiz-adv-x="2185" d="M333.369 430.933c21.239 6.827 48.924 15.929 78.507 25.41-9.481 29.582-18.584 57.268-25.41 78.507l-78.507-25.41 25.41-78.507z" />
<glyph unicode="&#xe944;" glyph-name="uniE947" horiz-adv-x="2185" d="M498.347 484.409c29.582 9.481 57.268 18.584 78.507 25.41-9.481 29.582-18.584 57.268-25.41 78.507l-78.507-25.41 25.41-78.507z" />
<glyph unicode="&#xe945;" glyph-name="uniE948" horiz-adv-x="2185" d="M1004.279 543.573c14.412-6.447 15.55-10.999 4.172-32.616-11.757-21.997-14.412-23.514-28.824-17.825-17.825 7.585-40.96 13.274-55.751 13.274-24.273 0-40.201-8.723-40.201-21.997 0-43.615 138.809-20.101 138.809-112.64 0-46.649-40.201-77.748-100.124-77.748-31.479 0-70.542 10.619-97.47 24.273-13.274 6.827-14.412 10.619-2.655 32.996 9.861 19.342 13.274 21.618 27.686 15.55 22.756-9.861 51.959-17.825 71.301-17.825 21.997 0 36.788 9.102 36.788 21.997 0 42.098-141.464 21.997-141.464 111.881 0 47.787 39.822 79.644 99.366 79.644 28.824 0.379 64.095-7.964 88.367-18.963z" />
<glyph unicode="&#xe946;" glyph-name="uniE949" horiz-adv-x="2185" d="M1116.539 653.559v-345.884c0-5.31-5.689-10.619-13.274-10.619h-36.409c-7.964 0-13.274 5.689-13.274 10.619v345.884c0 17.067 4.93 18.584 31.479 18.584 30.341 0.379 31.479-1.896 31.479-18.584z" />
<glyph unicode="&#xe947;" glyph-name="uniE94A" horiz-adv-x="2185" d="M1375.194 459.378v-149.049c0-7.964-5.689-13.274-13.274-13.274h-36.030c-8.344 0-14.033 6.068-13.274 14.412l0.379 15.929c-19.342-21.618-47.407-32.996-75.473-32.996-54.234 0-90.643 31.479-90.643 78.127 0 49.683 40.96 83.437 102.779 83.437 23.514 0 44.753-4.172 62.199-11.378v17.067c0 27.307-21.618 43.615-58.406 43.615-17.067 0-38.305-6.827-54.993-16.687-12.895-7.206-15.929-6.827-29.961 14.033-13.653 20.859-13.274 24.652 0 33.375 25.41 16.308 59.544 26.927 91.022 26.927 70.921 0 115.674-38.305 115.674-103.538zM1207.561 372.907c0-17.825 15.17-29.582 37.547-29.582 27.307 0 52.338 13.274 66.75 35.65v23.135c-14.412 5.689-32.237 8.723-47.787 8.723-34.133 0-56.51-15.929-56.51-37.926z" />
<glyph unicode="&#xe948;" glyph-name="uniE94B" horiz-adv-x="2185" d="M1621.713 543.194c13.274-7.585 13.653-11.757-0.759-34.133-13.653-21.239-15.929-22.376-30.72-15.17-10.999 5.689-28.824 10.619-43.236 10.619-45.511 0-75.852-29.961-75.852-75.473 0-47.028 30.341-78.886 75.852-78.886 15.929 0 35.65 6.068 48.545 13.274 13.274 7.585 15.929 7.206 29.961-13.274 12.516-18.963 12.516-23.514 1.138-31.479-20.48-14.033-52.338-24.652-80.782-24.652-84.196 0-140.705 53.855-140.705 135.016 0 80.403 56.51 133.879 141.464 133.879 25.79 0 56.13-8.723 75.093-19.721z" />
<glyph unicode="&#xe949;" glyph-name="uniE94C" horiz-adv-x="2185" d="M1897.055 329.671c10.619-13.274 6.447-18.204-20.101-27.686-26.927-9.861-30.72-9.102-40.201 3.034l-75.473 100.504-33.754-32.616v-65.233c0-5.31-5.689-10.619-13.274-10.619h-36.409c-7.964 0-13.274 5.689-13.274 10.619v345.884c0 17.067 4.93 18.584 31.479 18.584 30.72 0 31.479-2.276 31.479-18.584v-196.456l103.159 98.987c11.378 10.619 17.825 9.861 37.926-3.413 22.376-14.412 23.893-18.584 13.274-28.824l-76.61-75.093 91.781-119.087z" />
<glyph unicode="&#xe94a;" glyph-name="uniE94D" horiz-adv-x="1264" d="M1183.594-64c-1.723 3.367-3.058 7.273-3.804 11.385l-0.039 0.26c-0.408 18.108 0 36.274 0 55.488h-47.046c-1.747-0.205-3.771-0.323-5.822-0.323s-4.075 0.117-6.066 0.345l0.243-0.023c-2.562 0.64-4.542 3.435-6.812 5.298 2.154 1.98 4.076 5.473 6.405 5.822 7.336 0.699 14.847 0 22.3 0h36.915v15.43c0 13.916 0 27.89 0.408 41.864 0 4.192 0.291 8.384 5.822 8.151s5.822-4.425 5.822-8.559l-0.349-48.851c0-2.504 0-5.007 0-8.21h57.701c4.134 0 7.744-0.873 7.86-5.822s-3.435-5.822-7.627-5.822c-16.536 0-33.013 0-49.549 0h-8.384v-28.472c0-8.85 0-17.467 0-26.492 0.061-0.461 0.095-0.994 0.095-1.535 0-4.156-2.044-7.834-5.182-10.085l-0.037-0.025z" />
<glyph unicode="&#xe94b;" glyph-name="uniE94E" horiz-adv-x="1498" d="M47.181 960c1.385-2.925 2.489-6.325 3.142-9.882l0.039-0.256c0.464-8.946 0-17.958 0-27.633 10.801 0 20.476 0 30.151 0 4.97 0 8.813-0.861 9.078-6.229s-3.976-6.627-8.681-6.627h-28.627c0-10.669 0-20.41 0-30.151 0-4.771-0.861-8.88-6.627-8.747s-6.627 4.042-6.627 8.813c0 9.41 0 18.886 0 28.494-11.331 0-20.807 0-30.283 0-4.771-0.795-8.747 0.861-8.747 5.831s4.108 6.627 8.946 6.627c9.211 0 18.422 0 28.494 0 0 10.404 0 19.548 0 28.627 0.691 4.172 1.868 7.912 3.492 11.402l-0.112-0.269z" />
<glyph unicode="&#xe94c;" glyph-name="uniE94F" horiz-adv-x="1326" d="M482.243 52.81h299.917l0.288-93.876-300.205 93.876z" />
<glyph unicode="&#xe94d;" glyph-name="icon-server-success" data-tags="icon-server-success" horiz-adv-x="1420" d="M583.902 811.139h338.22c12.765 0 24.47-2.814 34.054-12.235 7.738-7.104 12.577-17.259 12.602-28.544v-0.005c0-48.37 0-96.739 0-145.109 0.001-0.092 0.001-0.2 0.001-0.309 0-18.773-12.995-34.51-30.481-38.707l-0.271-0.055c-4.976-1.346-7.3-3.344-6.362-8.483 0.058-0.38 0.092-0.818 0.092-1.264s-0.033-0.884-0.098-1.313l0.006 0.048c-1.387-10.441 0-17.129 12.684-21.248 15.865-5.261 24.226-19.046 24.47-36.379q0-72.269 0-144.456c0.002-0.134 0.003-0.293 0.003-0.452 0-18.701-12.844-34.403-30.192-38.764l-0.276-0.059c-5.343-1.387-7.382-3.752-6.525-8.972 0.039-0.282 0.061-0.607 0.061-0.938s-0.022-0.656-0.065-0.975l0.004 0.037c-1.387-10.685 0.245-17.537 13.092-21.697 15.62-5.057 23.818-18.883 23.859-35.931q0.285-72.228 0-144.497c0.001-0.076 0.001-0.165 0.001-0.255 0-22.389-18.15-40.539-40.539-40.539-0.316 0-0.631 0.004-0.945 0.011l0.047-0.001h-306.694c-9.38 0-9.421 0-9.421-9.136 0-26.509 0-53.019 0-79.528 0-6.24 1.468-8.157 8.157-8.157q117.009 0.326 234.099 0c9.421 0 9.543 0 9.584-9.421 0-10.074-0.204-20.188 0-30.262 0-5.832-2.162-7.627-7.83-7.586-37.643 0.204-75.328 0-112.971 0h-427.333c-10.767 0-10.767 0-10.767 10.93q0 13.866 0 27.774c0 7.953 0.53 8.483 8.728 8.483h227.778c12.561 0 10.808-1.509 10.848 10.563 0 26.061-0.204 52.162 0 78.223 0 6.566-2.039 8.157-8.157 8.157-100.777 0-201.513 0-302.249-0.326-0.153-0.002-0.333-0.003-0.513-0.003-20.759 0-38.072 14.758-42.019 34.354l-0.046 0.274c-0.343 2.176-0.539 4.686-0.539 7.242 0 0.322 0.003 0.643 0.009 0.963l-0.001-0.048q0 70.352 0 140.704c-0.013 0.388-0.021 0.844-0.021 1.302 0 19.274 13.276 35.446 31.183 39.872l0.282 0.059c5.424 1.346 6.933 3.752 6.321 8.605-0.029 0.19-0.046 0.409-0.046 0.632s0.017 0.442 0.049 0.656l-0.003-0.024c1.55 11.012-0.245 18.026-13.336 22.35-16.314 5.424-24.47 19.943-24.47 37.603 0 47.105 0 94.211 0 141.316-0.011 0.361-0.018 0.785-0.018 1.211 0 19.518 13.548 35.872 31.753 40.17l0.28 0.056c4.894 1.224 6.158 3.426 5.751 7.749-0.039 0.282-0.061 0.607-0.061 0.938s0.022 0.656 0.065 0.975l-0.004-0.037c1.509 10.971 0 18.108-13.296 22.39-16.314 5.383-24.47 19.943-24.47 37.562 0 46.697 0 93.395 0 140.092 0 26.591 18.19 44.414 45.678 44.414q92.742 0 185.485 0zM583.535 593.965c113.542 0 227.125 0.408 340.667-0.408 0.183-0.003 0.399-0.005 0.615-0.005 19.709 0 35.686 15.977 35.686 35.686 0 0.174-0.001 0.348-0.004 0.521v-0.026c-0.571 45.433 0 90.826 0 136.259 0.012 0.354 0.018 0.77 0.018 1.188 0 2.464-0.229 4.874-0.667 7.21l0.038-0.241c-3.793 17.945-16.803 27.815-36.705 27.815h-683.904c-17.756-0.566-31.935-15.096-31.935-32.938 0-0.092 0-0.183 0.001-0.274v0.014c0-47.554 0-95.067 0-142.743-0.001-0.094-0.002-0.206-0.002-0.317 0-8.739 3.556-16.647 9.299-22.357l0.001-0.001c7.708-8.157 17.333-9.666 28.141-9.625q169.375 0.489 338.75 0.245zM583.943 297.059h-336.303c-2.936 0-5.914 0-8.85 0-17.367-0.755-31.192-14.893-31.444-32.317v-0.024c0-47.962 0-95.883 0-143.845 0.060-4.83 1.198-9.38 3.182-13.441l-0.082 0.186c6.892-14.030 19.005-19.168 34.136-19.168q186.015 0 372.112 0h306.653c23.084 0 36.991 13.907 36.991 36.705v134.505c0 23.859-13.581 37.399-37.603 37.399zM583.209 341.554c113.542 0 227.125 0.449 340.667-0.408 0.271-0.007 0.589-0.012 0.909-0.012 19.776 0 35.808 16.032 35.808 35.808 0 0.32-0.004 0.638-0.013 0.956l0.001-0.047c-0.612 45.188 0 90.418 0 135.606 0.015 0.412 0.023 0.896 0.023 1.383 0 2.392-0.201 4.738-0.587 7.020l0.034-0.246c-3.671 17.823-16.681 27.978-35.767 27.978h-681.008c-1.672 0-3.344 0-5.016 0-17.094-1.069-30.594-15.037-30.914-32.229v-0.031c0-47.962 0-95.883 0-143.845 0-0.063-0.001-0.137-0.001-0.212 0-8.327 3.314-15.879 8.695-21.411l-0.007 0.007c7.708-8.442 17.415-10.318 28.549-10.278q169.294 0.204 338.628-0.041zM313.342-25.867c0-8.442 0.326-15.783 0-23.124-0.326-5.139 1.713-6.852 6.485-6.444 1.468 0 2.936 0 4.405 0h517.954c1.468 0 2.936 0 4.405 0 4.731-0.408 7.056 1.346 6.689 6.444s0 9.666 0 14.519c0 8.565 0 8.565-8.565 8.605h-230.469c-11.827 0-12.235 0.326-12.235 11.827 0 28.997 0 58.035 0 87.033 0 5.669-1.713 7.3-7.178 7.096-8.85-0.408-17.7-0.449-26.509 0-5.954 0.285-8.157-1.55-7.912-7.749 0.326-29.242 0-58.443 0-87.685 0-10.074-0.449-10.522-10.767-10.522h-236.546zM583.902 306.317h324.272c14.397 0 14.519 0 14.356 14.601 0 10.971 2.488 11.175-11.216 11.175h-650.298c-19.168 0-16.314 2.773-16.314-16.803 0-8.932 0-8.932 8.932-8.932zM583.902 558.728h324.231c14.356 0 14.478 0 14.315 14.641 0 10.93 2.488 11.134-11.256 11.134h-649.686c-17.211 0-17.211 0-17.129-16.925 0-8.85 0-8.85 9.013-8.85zM1189.99 227.156c-1.842 1.246-3.438 2.479-4.953 3.802l0.059-0.050-125.002 124.88c-1.559 1.054-2.57 2.815-2.57 4.812s1.011 3.758 2.549 4.799l0.020 0.013c13.010 12.888 25.979 25.775 38.785 38.867 3.874 4.078 6.811 3.467 10.604 0 23.043-22.146 46.249-44.087 69.332-66.151 5.832-5.547 5.873-5.587 11.827 0.285l98.778 97.514c23.655 23.328 47.391 46.575 70.923 70.067 4.078 4.078 7.219 4.323 11.419 0q22.023-22.513 44.577-44.617c4.078-4.078 4.078-6.852 0-10.93q-81.568-80.63-163.135-161.422-27.774-27.529-55.548-55.058c-2.284-2.488-4.935-4.486-7.667-6.811zM1366.543 498.572c-2.243-2.039-3.671-3.263-4.976-4.568l-145.068-143.029c-8.157-8.157-16.721-16.558-25.123-24.797-5.628-5.547-7.056-5.547-13.051 0l-3.181 3.059c-22.186 21.167-44.454 42.293-66.559 63.582-3.385 3.303-5.506 3.1-8.687 0-8.728-9.095-17.578-18.108-26.795-26.713-4.078-4.078-4.078-6.362 0-10.441q55.955-55.548 111.585-111.421c1.591-1.591 3.344-3.018 5.139-4.609 1.713 1.468 3.018 2.488 4.078 3.671l84.3 83.321 67.905 66.478c19.739 19.495 39.52 38.949 59.096 58.606 1.305 1.305 2.325 5.098 1.591 5.914-13.092 13.744-26.469 27.080-40.254 40.947zM1255.897 111.289c-5.465 0-10.971-0.326-16.314 0-1.835 0.204-3.426 2.692-5.098 4.078 1.754 1.346 3.507 3.752 5.343 3.834 10.074 0.408 20.188 0.408 30.262 0 4.731 0 6.118 1.55 6.077 6.24 0 9.829 0.489 19.699 0.734 29.568 0 3.14 0.53 6.648 4.568 5.71 2.055-1.206 3.471-3.311 3.709-5.761l0.002-0.031c0.326-10.074 0.245-20.188 0-30.302 0-4.078 1.305-5.587 5.465-5.506 9.87 0.204 19.739 0 29.65 0 3.263 0 6.811 0 6.689-4.527s-3.467-4.649-6.852-4.649c-9.462 0-18.924-0.285-28.549 0-5.424 0.245-6.811-1.754-6.607-6.852 0.367-9.013 0-18.067 0-27.121 0-3.426 0.204-7.504-4.445-7.586s-4.731 4.078-4.731 7.871c0 9.462-0.204 18.964 0 28.549 0 4.282-1.264 6.199-5.71 5.995s-9.666 0-14.478 0zM43.516 944.135c-0.285-4.078-0.408-8.401-0.897-12.561s1.264-6.566 5.954-6.444c7.341 0 14.723 0.326 22.023 0 2.325 0 6.158-2.325 6.362-4.078 0.571-4.405-3.385-4.323-6.607-4.323-7.137 0-14.315-0.245-21.412 0-5.098 0.245-6.689-1.958-6.525-6.689 0-6.689 0-13.418 0-20.147 0-3.303 0.53-7.627-4.078-7.79s-4.078 4.078-4.078 7.504c0 6.933-0.204 13.866 0 20.8-0.041 4.731-1.631 6.485-6.362 6.362-7.137-0.245-14.274 0-21.412 0-3.222 0-7.341 0-6.321 4.405 1.303 2.479 3.719 4.219 6.566 4.564l0.041 0.004c1.456 0.041 3.169 0.065 4.888 0.065 5.558 0 11.059-0.246 16.492-0.727l-0.703 0.050c4.853-0.285 6.852 1.591 6.648 6.566-0.145 2.767-0.227 6.007-0.227 9.266 0 4.489 0.157 8.941 0.465 13.352l-0.033-0.594c0.204 2.202 2.814 4.201 4.323 6.281 1.798-1.823 3.289-3.954 4.387-6.305l0.058-0.139c0.186-1.414 0.292-3.050 0.292-4.711s-0.106-3.296-0.312-4.901l0.020 0.19zM38.092 710.974c-13.9 0.7-24.905 12.141-24.905 26.152 0 14.212 11.323 25.779 25.439 26.173l0.036 0.001c0.211 0.006 0.459 0.010 0.707 0.010 14.461 0 26.183-11.723 26.183-26.183s-11.723-26.183-26.183-26.183c-0.45 0-0.897 0.011-1.341 0.034l0.062-0.003zM55.588 737.239c0 0.001 0 0.001 0 0.002 0 9.509-7.64 17.234-17.116 17.372h-0.013c-0.048 0-0.106 0.001-0.163 0.001-9.731 0-17.619-7.888-17.619-17.619 0-9.674 7.796-17.526 17.447-17.619h0.009c9.647 0.021 17.459 7.846 17.459 17.496 0 0.129-0.001 0.258-0.004 0.386v-0.019zM1041.659 522.39c10.481 0 10.481 0 10.522 10.645-0.099 0.7-0.156 1.509-0.156 2.331 0 1.386 0.161 2.734 0.465 4.027l-0.024-0.119c0.734 1.754 2.692 3.018 4.078 4.486 1.346-1.55 3.589-2.896 3.834-4.609 0.228-2.163 0.358-4.674 0.358-7.214 0-1.666-0.056-3.319-0.166-4.958l0.012 0.222c0-3.426 1.468-4.976 4.935-4.935 1.368 0.097 2.965 0.153 4.575 0.153 2.598 0 5.162-0.144 7.685-0.425l-0.31 0.028c1.672-0.245 3.018-2.569 4.527-4.078-1.509-1.387-2.814-3.63-4.486-4.078-1.995-0.288-4.299-0.453-6.642-0.453-1.423 0-2.832 0.061-4.225 0.18l0.181-0.012c-4.486 0.204-6.689-1.468-6.281-6.24 0.234-1.41 0.368-3.034 0.368-4.69s-0.134-3.28-0.391-4.863l0.023 0.173c-0.489-2.080-2.733-3.752-4.078-5.628-1.346 1.754-3.467 3.344-3.874 5.302-0.266 1.764-0.417 3.799-0.417 5.87 0 1.48 0.078 2.943 0.229 4.383l-0.015-0.18c0.204 4.364-1.876 6.036-6.077 5.873-0.985-0.070-2.133-0.11-3.292-0.11-2.609 0-5.171 0.203-7.671 0.595l0.277-0.036c-1.713 0.367-3.018 2.569-4.527 4.078 1.509 1.387 2.733 3.344 4.527 4.078 1.094 0.228 2.35 0.359 3.638 0.359 0.846 0 1.678-0.056 2.494-0.166l-0.095 0.010zM197.638 901.312c0.006-0.171 0.010-0.371 0.010-0.572 0-9.212-7.468-16.681-16.681-16.681-0.075 0-0.15 0-0.225 0.001h0.011c-9.378 0.138-16.927 7.772-16.927 17.17 0 9.484 7.688 17.172 17.172 17.172 0.086 0 0.172-0.001 0.258-0.002h-0.013c9.082-0.111 16.402-7.5 16.402-16.598 0-0.173-0.003-0.344-0.008-0.516l0.001 0.025zM180.958 909.469c-4.609-0.653-7.627-2.896-7.667-8.157-0.008-0.134-0.013-0.291-0.013-0.449 0-4.257 3.451-7.708 7.708-7.708 0.019 0 0.038 0 0.057 0h-0.003c0.488-0.104 1.049-0.163 1.623-0.163 4.505 0 8.157 3.652 8.157 8.157s-3.652 8.157-8.157 8.157c-0.575 0-1.135-0.059-1.676-0.172l0.053 0.009zM1336.159 220.386c-0.011 0.208-0.017 0.451-0.017 0.696 0 8.064 6.537 14.601 14.601 14.601 0.106 0 0.212-0.001 0.318-0.003h-0.016c8.135-0.178 14.686-6.714 14.886-14.826v-0.019c0.006-0.161 0.010-0.35 0.010-0.54 0-8.041-6.519-14.56-14.56-14.56-0.19 0-0.379 0.004-0.567 0.011l0.027-0.001c-0.199-0.010-0.432-0.016-0.667-0.016-7.748 0-14.030 6.281-14.030 14.030 0 0.221 0.005 0.44 0.015 0.659l-0.001-0.031zM1357.53 218.958l0.204 2.569c-2.202 1.631-4.527 4.731-6.566 4.527s-4.078-3.385-6.362-5.261c1.917-2.121 3.589-5.506 5.832-5.914s4.568 2.569 6.892 4.078zM325.944 647.881c-13.459 0-26.917 0-40.376 0-0.327-0.026-0.707-0.042-1.091-0.042-7.929 0-14.356 6.427-14.356 14.356 0 0.33 0.011 0.658 0.033 0.983l-0.002-0.044q0 20.392 0 40.988c-0.037 0.38-0.058 0.823-0.058 1.27 0 7.726 6.263 13.989 13.989 13.989 0.135 0 0.27-0.002 0.404-0.006h-0.020q41.599 0.367 83.24 0c0.015 0 0.033 0 0.051 0 7.591 0 13.744-6.153 13.744-13.744 0-0.186-0.004-0.372-0.011-0.557l0.001 0.027c0-14.274 0-28.549 0-42.864 0.002-0.087 0.003-0.189 0.003-0.292 0-7.748-6.281-14.030-14.030-14.030-0.144 0-0.288 0.002-0.432 0.007l0.021-0.001c-13.785-0.122-27.448-0.041-41.11-0.041zM325.944 656.365c12.235 0 24.47 0 36.705 0 8.157 0 9.707 1.754 9.707 9.503 0 12.235 0 24.47 0 36.705 0 5.587-2.406 8.401-7.749 8.442-25.816 0-51.673 0-77.489 0-0.332 0.055-0.715 0.086-1.106 0.086-3.942 0-7.137-3.195-7.137-7.137 0-0.39 0.031-0.773 0.092-1.147l-0.005 0.041c0.204-12.235 0-24.47 0-36.705 0-7.79 1.713-9.625 9.584-9.707 12.725-0.163 25.123-0.082 37.725-0.082zM921.714 688.665c-0.848-24.899-21.236-44.762-46.264-44.762-25.143 0-45.604 20.046-46.273 45.027l-0.001 0.062c0 25.612 20.637 45.311 47.228 45.311 0.135 0.001 0.295 0.002 0.455 0.002 24.777 0 44.862-20.085 44.862-44.862 0-0.273-0.002-0.546-0.007-0.818l0.001 0.041zM912.538 688.665c0.012 0.341 0.018 0.741 0.018 1.143 0 19.866-16.105 35.971-35.971 35.971-0.092 0-0.185 0-0.277-0.001h0.014c-20.392-0.612-37.562-14.193-38.011-36.298s17.945-36.705 37.847-37.072c0.121-0.001 0.265-0.002 0.408-0.002 19.866 0 35.971 16.105 35.971 35.971 0 0.029 0 0.059 0 0.088v-0.005zM474.112 723.454c26.999 0.326 44.862-23.573 43.598-49.838 0-1.468-2.447-4.078-3.426-4.078-2.076 0.359-3.783 1.676-4.673 3.47l-0.017 0.037c-1.183 4.078-1.224 8.687-2.121 12.969-2.514 16.105-16.286 28.282-32.902 28.282-0.908 0-1.807-0.036-2.697-0.108l0.117 0.008c-18.671-1.015-33.601-15.733-34.945-34.22l-0.007-0.12c0.014-0.248 0.022-0.538 0.022-0.83 0-1.91-0.337-3.742-0.954-5.439l0.035 0.111c-1.342-1.724-2.903-3.194-4.661-4.4l-0.070-0.046c-1.224 1.631-3.344 3.181-3.467 4.935-0.039 0.718-0.062 1.558-0.062 2.404 0 21.013 13.855 38.79 32.928 44.695l0.331 0.088c3.604 0.858 8.023 1.592 12.525 2.044l0.444 0.036zM699.035 722.924c26.999 0.856 44.862-22.839 43.557-49.226 0-1.55-2.61-2.977-4.078-4.445-1.346 1.468-3.507 2.733-4.078 4.445-1.060 4.078-0.938 8.157-1.917 12.235-4.078 17.537-17.129 28.304-33.81 28.345-17.267-0.224-31.673-12.206-35.593-28.295l-0.052-0.254c-0.856-3.426-0.612-7.137-1.672-10.481-0.734-2.325-2.569-5.669-4.405-5.954-4.405-0.775-4.731 3.018-4.568 6.321 1.794 32.913 26.102 48.533 46.616 47.309zM376.598 143.059h-89.724c-11.46 0-16.925 5.506-16.966 16.966q0 18.924 0 37.807c0 11.256 5.547 16.721 17.292 16.762q60.197 0 120.435 0c19.535 0 39.112 0 58.647 0 12.602 0 17.374-4.976 17.374-17.7s0-25.245 0-37.847c0-10.522-5.383-15.946-15.783-15.946zM376.924 151.542q43.883 0 87.726 0c8.85 0 10.685 1.917 10.767 10.808q0 16.11 0 32.178c0 9.829-1.876 11.623-11.909 11.623h-173.943c-8.157 0-10.074-1.835-10.074-9.91 0-11.134 0-22.309 0-33.443 0-9.87 1.305-11.256 11.216-11.256q42.986-0.082 86.217 0zM876.322 234.415c24.568-0.812 44.175-20.923 44.175-45.614 0-24.762-19.721-44.918-44.314-45.618l-0.065-0.001c-0.375-0.011-0.816-0.017-1.258-0.017-25.205 0-45.637 20.432-45.637 45.637s20.432 45.637 45.637 45.637c0.514 0 1.026-0.009 1.537-0.025l-0.074 0.002zM912.538 189.186c0.003 0.184 0.005 0.401 0.005 0.618 0 19.664-15.941 35.604-35.604 35.604-0.231 0-0.462-0.002-0.692-0.007l0.035 0.001c-0.475 0.022-1.031 0.035-1.591 0.035-20.032 0-36.283-16.191-36.379-36.201v-0.009c-0.245-21.412 17.415-36.705 38.214-36.705 0.039 0 0.085 0 0.131 0 19.821 0 35.89 16.068 35.89 35.89 0 0.273-0.003 0.544-0.009 0.815l0.001-0.040zM343.237 395.47c-19.128 0-38.255 0-57.383 0-0.393-0.038-0.849-0.059-1.311-0.059-7.996 0-14.478 6.482-14.478 14.478 0 0.409 0.017 0.813 0.050 1.213l-0.003-0.052q0 20.392 0 40.376c-0.039 0.395-0.062 0.855-0.062 1.319 0 7.793 6.318 14.111 14.111 14.111 0.223 0 0.444-0.005 0.664-0.015l-0.031 0.001q58.688 0.285 117.294 0c0.212 0.011 0.461 0.018 0.711 0.018 7.771 0 14.070-6.3 14.070-14.070 0-0.451-0.021-0.898-0.063-1.339l0.004 0.056c0-13.459 0-26.917 0-40.335 0.044-0.421 0.069-0.91 0.069-1.404 0-7.929-6.427-14.356-14.356-14.356-0.455 0-0.905 0.021-1.349 0.063l0.057-0.004c-19.291-0.041-38.622 0-57.995 0zM343.237 403.953c18.475 0 36.991 0 55.466 0 7.096 0 8.85 1.998 8.891 9.095 0 12.235 0 24.47 0 36.705 0 6.689-1.917 8.85-8.524 8.891q-55.833 0-111.625 0c-0.355 0.061-0.764 0.096-1.181 0.096-4.032 0-7.3-3.268-7.3-7.3 0-0.467 0.044-0.923 0.127-1.365l-0.007 0.045c0.245-11.338 0-22.676 0-34.054s1.020-11.99 12.235-11.99zM578.478 467.005c23.94 0 47.921 0 71.861 0 2.74-0.406 5.211-1.176 7.498-2.27l-0.157 0.068c-0.66-2.836-1.788-5.333-3.31-7.536l0.048 0.073c-21.901-21.738-47.472-36.134-79.080-36.298-24.715 0-45.392 10.604-63.664 26.509-3.889 3.304-7.395 6.771-10.625 10.485l-0.101 0.119c-1.273 1.517-2.047 3.491-2.047 5.645 0 0.324 0.018 0.645 0.052 0.96l-0.003-0.039c0.285 1.142 3.711 2.284 5.751 2.284 24.593 0.082 49.185 0 73.778 0zM515.956 458.074l-0.612-1.713c18.883-17.374 40.498-28.549 67.13-26.183 22.39 1.876 41.232 11.868 57.791 26.346l-0.53 1.55zM876.281 486.908c24.589-0.759 44.233-20.873 44.233-45.576s-19.644-44.817-44.163-45.574l-0.070-0.002c-27.611 0.816-46.453 18.964-46.901 45.759-0.53 25.653 20.351 45.392 46.901 45.392zM912.538 441.556c0.005 0.219 0.007 0.476 0.007 0.734 0 19.866-16.105 35.971-35.971 35.971-0.031 0-0.063 0-0.094 0h0.005c-20.188-0.408-38.092-14.111-38.174-36.705 0-21.615 17.659-36.094 37.725-36.705 0.198-0.004 0.43-0.006 0.664-0.006 19.799 0 35.849 16.050 35.849 35.849 0 0.318-0.004 0.634-0.012 0.95l0.001-0.047z" />
<glyph unicode="&#xe94e;" glyph-name="uniE951" horiz-adv-x="917" d="M635.001 511.621c5.15-16.844 10.058-33.81 15.633-50.533 0.599-1.497 0.947-3.232 0.947-5.048 0-3.672-1.42-7.012-3.741-9.502l0.008 0.008c-23.207-29.569-45.989-59.319-69.196-88.888-1.855-2.118-2.987-4.91-2.987-7.967 0-1.154 0.161-2.271 0.463-3.328l-0.021 0.085c5.15-22.904 10.24-45.807 15.027-68.772 0.462-1.911 0.728-4.106 0.728-6.362s-0.265-4.451-0.766-6.554l0.039 0.192q-19.995-75.316-40.475-150.57c-4.241-15.814-4.241-15.693-20.238-15.511-14.724 0-29.448 0-44.838 0v-106.52h276.419c11.391 0 12.118-0.667 12.118-11.815s0-23.752 0-35.628c0-6.483-2.484-9.028-9.089-8.968q-313.017 0-626.034 0c-6.968 0-9.513 2.484-9.271 9.392q0.545 18.905 0 37.809c0 7.089 2.545 9.392 9.392 9.331 27.387 0 54.533 0 82.162 0h192.924v110.216l-238.489 8.059c-42.414 1.394-84.828 2.908-127.243 4.241-0.005 0-0.011 0-0.017 0-26.771 0-48.473 21.702-48.473 48.473 0 0.447 0.006 0.893 0.018 1.338l-0.001-0.066q2 82.768 5.332 165.476c0.727 24.903 16.542 40.839 45.020 47.625v25.873c-10.268 5.42-19.052 11.068-27.309 17.368l0.467-0.342c-11.452 10.301-14.603 24.237-14.057 39.809 1.939 52.715 3.575 105.43 5.453 158.144 0.969 27.933 20.238 47.383 49.079 49.261v27.872c-9.838 5.223-18.201 10.527-26.126 16.389l0.556-0.393c-9.191 7.829-14.982 19.413-14.982 32.349 0 0.898 0.028 1.789 0.083 2.673l-0.006-0.121c1.575 49.806 3.514 99.613 5.332 149.48 0 4.847 0 9.634 0.364 14.481 0 0.011 0 0.023 0 0.036 0 27.24 22.082 49.322 49.322 49.322 0.661 0 1.318-0.013 1.972-0.039l-0.094 0.003c63.379-2.181 126.758-4.666 190.076-6.907l429.595-15.39c52.957-1.939 105.914-4.060 158.871-5.756 16.602-0.545 32.356-2.424 44.535-15.39 8.643-8.437 14.003-20.204 14.003-33.223 0-0.27-0.002-0.54-0.007-0.809l0.001 0.041c-1.575-47.686-3.454-95.311-5.15-142.936 0-7.513 0-15.027-0.606-22.54-0.633-22.884-16.778-41.824-38.267-46.714l-0.33-0.063-6.604-1.575c-0.424-9.331-0.848-18.178-1.272-28.054 11.87-3.242 21.803-10.186 28.742-19.492l0.1-0.14c5.676-7.48 9.093-16.947 9.093-27.211 0-0.211-0.001-0.422-0.004-0.633v0.032c-1.818-56.593-3.514-113.185-5.756-169.657-1.997-21.922-18.325-39.509-39.45-43.399l-0.298-0.046c-1.394 0-2.787-0.485-4.908-0.848v-28.418c5.207-1.572 9.546-3.24 13.735-5.176l-0.647 0.268c16.446-7.581 27.656-23.924 27.656-42.886 0-1.006-0.032-2.005-0.094-2.996l0.007 0.136c-1.394-53.502-3.454-106.944-4.908-160.386 0.004-0.228 0.006-0.497 0.006-0.767 0-27.842-22.57-50.412-50.412-50.412-0.705 0-1.407 0.014-2.105 0.043l0.1-0.003c-57.804 2.605-115.609 4.181-173.413 6.059q-35.628 1.212-71.135 2c-11.088 0-12.724 2.181-10.482 13.148q15.693 77.8 31.387 155.781c0.24 1.331 0.378 2.862 0.378 4.426 0 2.193-0.27 4.323-0.779 6.358l0.038-0.18q-8.18 34.174-16.844 68.287c-0.352 1.196-0.554 2.571-0.554 3.993 0 3.842 1.478 7.339 3.895 9.953l-0.009-0.010q34.113 43.081 67.56 86.464c0.821 1.283 1.308 2.848 1.308 4.526 0 1.051-0.191 2.056-0.54 2.985l0.019-0.058c-9.876 20.419-20.177 40.657-30.296 60.955l-2.424 3.514-1.030-0.727zM473.888 933.703v0q-77.982 3.030-155.963 6.059l-235.762 8.119c-1.046 0.104-2.262 0.163-3.491 0.163-20.748 0-37.567-16.819-37.567-37.567 0-0.59 0.014-1.177 0.040-1.76l-0.003 0.083c-0.667-21.51-1.394-43.081-2.181-64.591-1.151-31.689-2.605-63.318-3.575-95.008-0.037-0.621-0.058-1.347-0.058-2.078 0-19.449 14.9-35.418 33.907-37.115l0.143-0.010c10.119-0.424 20.298-1.030 30.296-1.394l321.924-12.118c59.198-2.060 118.457-3.878 177.655-6.059 50.776-1.757 101.491-3.817 152.267-5.696 35.507-1.272 71.074-2.181 106.581-3.878 1.175-0.131 2.538-0.206 3.918-0.206 20.004 0 36.333 15.737 37.281 35.507l0.003 0.085c0.788 11.573 0.969 23.207 1.394 34.78 1.515 43.323 3.272 86.586 4.423 129.909 0.009 0.307 0.014 0.669 0.014 1.031 0 20.312-16.384 36.796-36.657 36.96h-0.015q-83.071 2.848-166.142 6.059zM646.938 400.011l0.606-2.727c11.028 0 22.116 0.303 33.144 0 55.563-1.818 111.186-3.938 166.809-5.635 0.47-0.022 1.022-0.034 1.576-0.034 20.151 0 36.505 16.259 36.657 36.374v0.014c0.848 22.722 1.697 45.504 2.484 68.226 1.091 32.174 2.484 64.348 2.969 96.523-0.386 19.711-16.093 35.63-35.682 36.353l-0.067 0.002c-47.443 0.909-94.826 3.333-142.209 5.090-44.050 1.636-88.040 3.090-132.090 4.605l-118.275 4.12-247.578 8.059c-49.806 1.636-99.613 3.575-149.48 4.969-0.569 0.032-1.235 0.049-1.905 0.049-19.785 0-35.915-15.648-36.689-35.244l-0.002-0.070c-0.848-12.118-0.909-24.237-1.272-36.355-1.394-43.323-3.090-86.646-4.060-129.969 0-0.001 0-0.003 0-0.005 0-19.865 15.933-36.009 35.717-36.35h0.032c27.569-0.909 55.078-2 82.647-2.908l304.655-10.422c48.473-1.515 96.947-2.848 145.117-4.605 0.302-0.030 0.652-0.047 1.007-0.047 3.816 0 7.169 1.982 9.086 4.973l0.026 0.043c11.755 15.39 23.57 30.781 35.628 45.929 1.64 1.85 2.642 4.298 2.642 6.981 0 1.53-0.326 2.983-0.912 4.295l0.027-0.067c-10.725 33.628-21.147 67.317-31.689 101.006-3.211 10.361-6.847 20.662-9.392 31.205-0.667 2.545 2 6.059 3.090 8.907 2.727-1.454 5.514-2.787 8.059-4.423 0.848-0.606 1.151-2.121 1.636-3.151q35.264-70.771 70.589-141.482c1.178-1.728 1.881-3.862 1.881-6.16 0-2.945-1.155-5.621-3.036-7.599l0.004 0.005c-10.785-13.33-21.207-26.963-31.75-40.475zM536.055 110.262c0.588 0.955 1.156 2.071 1.638 3.232l0.059 0.161q20.844 77.376 41.566 154.751c0.209 0.91 0.329 1.956 0.329 3.030s-0.12 2.119-0.347 3.124l0.018-0.094c-4.908 22.904-9.876 45.807-15.148 68.65-0.972 2.312-2.966 4.027-5.401 4.595l-0.052 0.010q-56.169 2.363-112.398 4.241c-49.564 1.636-99.128 2.908-148.692 4.544q-82.223 3.030-164.325 5.999c-25.388 0.909-50.776 1.697-76.164 2.908-0.48 0.022-1.043 0.034-1.609 0.034-20.418 0-37.075-16.108-37.954-36.31l-0.003-0.079c-0.424-12.845-0.909-25.63-1.333-38.476-1.394-41.869-3.090-83.677-4.12-125.546-0.014-0.386-0.023-0.839-0.023-1.294 0-20.007 15.87-36.307 35.709-36.999l0.063-0.002c26.6-1.212 53.2-1.939 79.799-2.787 37.506-1.151 75.013-2.181 112.519-3.454 63.864-2.181 127.667-4.544 191.53-6.665 16.178-0.545 32.356 0 48.473-0.606 18.602-0.424 37.324-1.878 55.866-2.969zM593.435 109.232l3.575-0.424 78.345-2.545c54.108-1.818 108.277-3.878 162.446-5.393 0.619-0.038 1.343-0.060 2.072-0.060 19.491 0 35.351 15.545 35.858 34.914l0.001 0.047c1.575 31.144 2.363 62.349 3.393 93.554 0.848 24.237 1.818 47.867 2.302 71.801 0.004 0.214 0.007 0.467 0.007 0.72 0 19.392-14.934 35.296-33.928 36.838l-0.131 0.009c-34.295 1.394-68.65 2.242-103.006 3.454-26.115 0.848-52.169 2.181-78.284 2.787-19.268 0.424-38.597 0-58.047 0 0.178-1.539 0.412-2.878 0.716-4.191l-0.049 0.253c5.211-21.631 10.604-43.202 15.633-64.833 0.408-1.821 0.642-3.913 0.642-6.059s-0.234-4.238-0.678-6.251l0.035 0.192c-9.937-51.321-20.359-102.703-30.902-154.812zM141.785-51.458h619.914v31.689h-278.419c-9.21 0-10.482 1.333-10.543 10.422v110.519h-45.686v-108.035c0-12.118-0.727-12.906-12.542-12.906h-272.663zM75.982 669.16l777.513-27.448v27.448l-776.24 28.054c-0.424-9.876-0.848-18.541-1.272-28.054zM63.379 375.351c23.267 0 46.413 0.545 69.62 0 49.503-1.454 99.007-3.757 148.571-5.393 37.446-1.272 74.952-2 112.398-3.272 55.805-1.878 111.61-4.12 167.476-6.059 0.246-0.033 0.531-0.052 0.82-0.052 1.448 0 2.784 0.474 3.863 1.276l-0.017-0.012c6.604 8.059 12.967 16.42 20.419 26.054l-523.149 17.329zM839.862 379.168c-19.086 0.727-38.355 1.575-57.683 2.181-22.48 0.727-45.020 1.091-67.499 1.757-24.237 0.788-48.837 1.818-73.255 2.605-2.060 0-5.029 0-6.059-1.030-6.907-8.119-13.33-16.602-20.601-25.873l225.098-7.392z" />
<glyph unicode="&#xe94f;" glyph-name="uniE952" horiz-adv-x="1326" d="M126.674 486.183v-114.262c0-5.97 4.84-10.81 10.81-10.81v0h290.669c0 0 0 0 0 0 5.947 0 10.769-4.821 10.769-10.769 0-0.014 0-0.029 0-0.043v0.002-118.166c0.019-5.956 4.851-10.776 10.81-10.776 2.885 0 5.506 1.13 7.444 2.972l-0.005-0.004 209.946 199.958c2.044 1.97 3.314 4.731 3.314 7.789s-1.27 5.819-3.311 7.786l-0.003 0.003-207.891 201.397c-1.943 1.884-4.597 3.046-7.522 3.046-5.957 0-10.789-4.819-10.81-10.771v-125.649c0-0.012 0-0.027 0-0.041 0-5.947-4.821-10.769-10.769-10.769 0 0 0 0 0 0h-292.642c-0.012 0-0.027 0-0.042 0-5.947 0-10.769-4.821-10.769-10.769 0-0.043 0-0.087 0.001-0.13v0.007z" />
<glyph unicode="&#xe950;" glyph-name="uniE953" horiz-adv-x="917" d="M173.595 768.348c-15.693 0-31.447 0-47.14 0-0.164-0.005-0.356-0.008-0.549-0.008-10.039 0-18.178 8.138-18.178 18.178 0 0.75 0.045 1.49 0.134 2.216l-0.009-0.087c0.485 15.209 0.969 30.296 1.575 45.686-0.005 0.166-0.009 0.361-0.009 0.557 0 10.039 8.138 18.178 18.178 18.178 0.772 0 1.532-0.048 2.279-0.141l-0.089 0.009c29.023-1.091 58.047-2.181 87.010-3.090 17.693-0.545 23.691-7.15 22.782-24.843-0.788-13.997-0.788-28.054-1.636-42.051-0.727-12.118-8.119-18.178-20.116-17.875-14.724 0-29.508 0-44.232 0zM174.080 780.164v-3.030c14.481 0 29.023 0 43.505 0 5.393 0 8.059 2 8.24 7.574 0.485 14.966 1.212 29.932 1.818 44.898 0 6.483-3.514 8.24-9.149 8.422-29.023 0.909-57.986 1.818-87.010 3.030-6.726 0.303-9.816-1.878-9.876-8.907 0-13.512-0.909-27.024-1.394-40.536-0.303-9.452 0.969-11.149 10.422-11.331 14.784-0.364 28.963-0.121 43.444-0.121z" />
<glyph unicode="&#xe951;" glyph-name="uniE954" horiz-adv-x="917" d="M806.173 845.542c28.698-0.998 51.583-24.502 51.583-53.351s-22.885-52.353-51.492-53.348l-0.091-0.003c-0.536-0.019-1.166-0.030-1.798-0.030-29.482 0-53.381 23.9-53.381 53.381s23.9 53.381 53.381 53.381c0.632 0 1.262-0.011 1.889-0.033l-0.091 0.003zM764.849 791.979c0.103-22.811 18.619-41.263 41.444-41.263 22.889 0 41.445 18.555 41.445 41.445s-18.555 41.445-41.445 41.445c-0.042 0-0.085 0-0.127 0h0.007c-22.832-0.239-41.256-18.77-41.324-41.62v-0.006z" />
<glyph unicode="&#xe952;" glyph-name="uniE955" horiz-adv-x="917" d="M338.102 823.305c9.392 8.725 18.48 17.087 27.448 25.57 3.211 3.030 6.726 5.635 10.604 1.697s1.333-7.271-2.060-10.422c-9.271-8.483-18.178-17.147-27.993-26.176 8.786-9.513 17.39-18.905 26.115-28.175 3.272-3.454 5.090-7.029 0.969-10.604s-7.089-0.727-9.937 2.363l-26.115 27.993c-7.21-6.604-14.178-12.906-20.965-19.329-3.393-3.211-7.15-6.059-11.088-1.818s-0.364 7.816 2.969 10.907c6.786 6.059 13.391 12.542 20.601 19.268l-23.207 25.146c-1.151 1.272-2.969 2.363-3.272 3.817-0.727 3.090-2.181 7.453-0.727 9.331 2.908 3.817 6.847 1.818 9.816-1.394 6.907-7.453 13.754-14.966 20.722-22.358 1.757-1.939 3.817-3.636 6.12-5.817z" />
<glyph unicode="&#xe953;" glyph-name="uniE956" horiz-adv-x="917" d="M602.888 813.307c9.755 9.028 18.965 17.572 28.115 26.176 3.393 3.211 7.029 5.029 10.604 1.091s0.969-7.029-2.121-9.876l-28.175-26.297c8.119-8.725 15.996-17.087 23.691-25.63 3.151-3.514 9.21-7.332 3.817-12.603s-9.271 0.848-12.724 4.423c-7.816 8.18-15.511 16.542-23.813 25.388-7.271-6.726-14.36-13.209-21.328-19.753-3.211-3.090-6.726-5.696-10.543-1.636s-1.333 7.332 2.121 10.422c7.15 6.483 14.057 13.209 21.328 20.056-8.968 9.695-17.753 18.965-26.236 28.539-1.666 1.815-2.687 4.246-2.687 6.915 0 0.232 0.008 0.462 0.023 0.69l-0.002-0.031c1.030 5.15 6.847 5.393 11.391 0.606 8.846-9.028 17.45-18.723 26.539-28.478z" />
<glyph unicode="&#xe954;" glyph-name="uniE957" horiz-adv-x="917" d="M179.836 474.236c-22.237 0.788-44.535 1.394-66.651 2.363-0.372-0.027-0.805-0.043-1.243-0.043-10.039 0-18.178 8.138-18.178 18.178 0 0.827 0.055 1.641 0.162 2.438l-0.010-0.093q0.364 22.904 1.454 45.686c0 0.010 0 0.023 0 0.035 0 10.407 8.437 18.844 18.844 18.844 0.855 0 1.696-0.057 2.52-0.167l-0.096 0.011q63.803-2.302 127.667-4.302c15.633-0.485 22.358-7.21 21.995-23.025-0.364-14.481-0.909-29.023-1.454-43.505 0.005-0.16 0.008-0.347 0.008-0.536 0-9.771-7.921-17.693-17.693-17.693-0.472 0-0.94 0.018-1.402 0.055l0.061-0.004c-21.995 0.182-43.99 1.091-65.984 1.757zM179.836 486.355v-1.878h62.955c8.362 0 9.816 1.454 10.119 9.513 0.424 13.512 0.969 27.024 1.454 40.536 0 8.059-1.515 10.119-9.392 10.422l-129 4.241c-5.15 0-8.24-1.757-8.422-7.453-0.424-14.724-0.848-29.448-1.454-44.171 0-6.059 2.121-8.725 8.422-8.846 21.752-0.606 43.505-1.333 65.197-2.424z" />
<glyph unicode="&#xe955;" glyph-name="uniE958" horiz-adv-x="917" d="M525.512 492.474l-124.637 3.999c-12.118 0.424-24.661 0.606-36.961 1.454-2.722 0.399-5.016 1.955-6.401 4.144l-0.022 0.037c-0.083 0.431-0.13 0.926-0.13 1.432 0 2.124 0.834 4.054 2.193 5.478l-0.003-0.003c30.296 28.418 65.015 46.413 108.156 39.627 30.962-4.847 54.169-23.146 73.922-46.292 0.81-1.242 1.292-2.762 1.292-4.394 0-1.011-0.185-1.979-0.523-2.872l0.019 0.056c-0.667-1.575-3.696-2.727-6.059-2.969-1.622-0.116-3.515-0.182-5.423-0.182s-3.801 0.066-5.676 0.196l0.253-0.014zM379.425 509.44l142.572-4.787c-41.324 43.687-97.856 43.323-142.572 4.787z" />
<glyph unicode="&#xe956;" glyph-name="uniE959" horiz-adv-x="917" d="M792.661 454.726c-0.090-0.001-0.196-0.001-0.303-0.001-29.549 0-53.502 23.954-53.502 53.502s23.954 53.502 53.502 53.502c29.527 0 53.467-23.919 53.502-53.438v-0.003c0-0.054 0-0.118 0-0.182 0-29.418-23.796-53.278-53.19-53.381h-0.010zM792.661 466.844c0.201-0.004 0.439-0.006 0.677-0.006 22.354 0 40.475 18.121 40.475 40.475 0 0.322-0.004 0.642-0.011 0.962l0.001-0.048c-0.064 22.631-18.203 41.003-40.737 41.444l-0.041 0.001c-22.907-0.23-41.452-18.584-41.989-41.395l-0.001-0.050c0.171-22.784 18.647-41.195 41.438-41.263h0.007z" />
<glyph unicode="&#xe957;" glyph-name="icon-nodata" data-tags="icon-nodata" horiz-adv-x="1420" d="M1419.783-3.498c-4.894-20.64-19.364-34.33-34.542-47.522-7.756-7.534-18.353-12.179-30.035-12.179-11.966 0-22.794 4.874-30.606 12.744l-0.003 0.003c-9.575 8.866-18.371 18.512-27.591 27.733q-45.749 45.749-91.427 91.498c-3.19 3.123-6.162 6.432-8.912 9.923l-0.167 0.219c-6.322 7.121-10.184 16.551-10.184 26.882s3.862 19.761 10.22 26.924l-0.036-0.042c2.199 2.979 4.61 5.674 7.093 9.008-5.036 5.32-9.93 10.639-15.108 15.817s-10.285 9.646-16.101 15.108c-65.609-56.743-141.858-74.121-227.824-53.339-0.922-8.086-2.057-15.746-2.695-23.477-1.348-16.101-2.766-32.202-3.617-48.303-1.477-24.951-13.804-46.751-32.288-60.925l-0.197-0.145c-26.427-21.876-59.914-36.089-96.598-38.834l-0.575-0.035c-39.72-3.688-79.653-6.313-119.515-7.093-70.929-1.206-141.858-0.355-212.787-0.709-57.594 0-115.118-0.993-172.712-1.631-34.542 0-69.227 0-103.698-1.773-4.572-0.4-9.892-0.628-15.265-0.628-16.968 0-33.405 2.274-49.023 6.534l1.303-0.303c-37.592 10.852-60.077 38.373-75.468 72.986s-20.853 72.631-23.903 110.578c-4.256 53.409-9.504 106.748-14.186 160.016-5.603 58.729-11.207 117.387-16.243 176.045-2.695 30.499-6.1 60.999-7.093 91.498-1.135 49.225 22.484 83.129 68.092 101.925 25.848 11.255 55.852 18.485 87.348 20.049l0.604 0.024c37.947 1.631 75.965 1.631 113.841 0.567 20.403-0.695 38.070-11.783 47.944-28.111l0.146-0.26c19.080-29.932 47.097-42.557 81.072-42.912q122.14-0.709 244.208 0c0.991 0.039 2.154 0.062 3.322 0.062 32.025 0 60.107-16.885 75.828-42.239l0.22-0.381c3.267-5.545 9.208-9.206 16.003-9.206 0.509 0 1.012 0.021 1.511 0.061l-0.066-0.004c39.436 0 78.802 0 118.238 0 0.338-0.004 0.737-0.006 1.136-0.006 17.193 0 33.405 4.198 47.668 11.626l-0.572-0.271c140.297 69.723 311.236-16.243 338.898-170.229 2.868-13.747 4.51-29.545 4.51-45.727 0-59.764-22.398-114.296-59.258-155.66l0.204 0.233c-1.844-2.128-3.617-4.327-6.029-7.093l28.017-30.499c5.887 3.050 11.774 6.242 17.803 9.079 5.698 3.423 12.573 5.447 19.921 5.447 11.87 0 22.506-5.282 29.686-13.623l0.043-0.051q53.977-53.764 107.954-107.457c13.547-13.406 28.372-25.889 31.28-46.458zM89.37-0.944h-2.624l0.567-1.915c20.711-32.769 51.636-46.458 89.158-46.671 30.358 0 60.644 0.922 91.002 1.277 57.807 0.638 115.685 1.419 173.492 1.702 94.761 0 189.522 0 284.283 0.922 29.246 0.36 57.621 2.719 85.38 6.95l-3.386-0.424c32.202 4.61 62.985 14.186 88.732 35.464 15.037 12.554 26.386 27.308 28.372 47.664 1.986 22.555 3.334 45.253 5.603 67.808 0.199 0.89 0.313 1.913 0.313 2.963 0 6.533-4.417 12.035-10.427 13.682l-0.1 0.023c-87.106 36.449-147.192 120.98-147.192 219.545 0 4.184 0.108 8.343 0.322 12.474l-0.024-0.579c2.219 64.644 30.53 122.269 74.67 162.991l0.16 0.145c4.965 4.752 9.646 9.788 15.462 15.675-4.043 0-7.093 0.426-9.434 0.426h-482.033c-16.952 0-34.046 0-50.927-1.773-44.756-3.901-81.001-23.265-104.124-62.701-7.967-13.373-14.945-28.824-20.13-45.076l-0.439-1.596c-14.186-46.529-17.094-94.69-17.094-142.993 0-64.9 1.064-129.871 1.56-194.771 0.066-1.653 0.103-3.593 0.103-5.543 0-22.833-5.138-44.466-14.32-63.807l0.386 0.903c-7.496-17.554-24.612-29.633-44.549-29.633-4.956 0-9.738 0.746-14.239 2.133l0.342-0.091c-6.313 1.135-12.554 3.121-18.867 4.823zM712.693 553.152c-16.314 21.279-34.33 36.103-60.148 37.238-27.449 0.78-54.97 0.78-82.49 0.78-58.729 0-117.387-0.851-176.116 0-35.11 0-64.262 13.689-84.263 44.26-10.673 16.639-29.075 27.507-50.016 27.507-0.919 0-1.833-0.021-2.742-0.062l0.129 0.005c-26.102 0-52.204 0-78.022-0.567-40.288-0.922-79.582-6.667-115.969-25.463-33.124-17.307-50.714-44.614-48.87-81.143 2.483-50.572 7.802-101.074 12.271-151.575 5.249-58.8 10.781-117.458 16.101-176.187 4.61-49.083 8.653-98.236 14.186-147.461 2.226-24.055 13.138-45.209 29.527-60.597l0.050-0.047c26.527-24.896 60.077-16.526 71.922 17.519 1.417 3.97 2.788 8.916 3.838 13.981l0.134 0.773c4.168 23.657 6.55 50.895 6.55 78.689 0 8.348-0.215 16.645-0.64 24.888l0.047-1.155c-0.851 57.24-0.709 114.55-0.922 171.861-0.010 0.992-0.016 2.164-0.016 3.338 0 36.776 5.659 72.231 16.154 105.541l-0.675-2.485c9.859 31.563 24.045 60.573 49.65 82.916 30.712 27.095 67.524 37.167 107.457 37.238q181.294 0 362.588 0zM786.317 350.012c0-123.345 101.712-226.263 223.497-225.838 123.842 0.497 225.979 101.428 226.121 223.568 0.035 1.478 0.055 3.218 0.055 4.963 0 124.178-100.666 224.844-224.844 224.844s-224.844-100.666-224.844-224.844c0-0.947 0.006-1.893 0.018-2.837l-0.001 0.144zM1390.206 28.066c-2.874 1.778-5.352 3.578-7.688 5.542l0.098-0.081-99.868 99.868c-5.036 4.965-10.001 10.072-15.321 14.753-4.199 4.438-10.13 7.2-16.706 7.2-3.651 0-7.103-0.851-10.168-2.366l0.134 0.060c-17.269-8.454-30.766-22.386-38.452-39.496l-0.204-0.508c-5.603-13.335 2.979-23.336 11.774-32.202 33.975-34.188 68.163-68.163 102.208-102.35 4.114-4.185 7.589-9.079 10.568-12.696zM1402.476 9.908l-56.743-56.743c3.058-1.801 6.737-2.865 10.664-2.865 5.894 0 11.229 2.397 15.083 6.269l0.001 0.001c9.774 8.804 18.777 17.785 27.308 27.203l0.283 0.318c3.609 3.964 5.82 9.257 5.82 15.067 0 3.801-0.946 7.381-2.616 10.517l0.059-0.121zM881.859 960l20.569-22.484c4.185 5.036 7.589 9.504 11.349 13.618 2.033 2.671 4.654 4.791 7.677 6.19l0.126 0.052c0.581 0.052 1.257 0.081 1.94 0.081 2.656 0 5.208-0.445 7.586-1.265l-0.164 0.049c-0.567-3.050 0-7.093-1.915-9.008-5.674-6.242-12.129-11.703-18.938-18.087l17.661-16.030c4.114-3.759 5.958-8.015 1.348-12.413s-8.37-0.851-11.561 2.483c-5.391 5.745-10.639 11.561-16.314 17.803-4.327-4.752-8.157-9.292-12.342-13.476-2.143-2.526-4.826-4.526-7.876-5.834l-0.139-0.053c-0.218-0.007-0.474-0.012-0.731-0.012-3.083 0-6.025 0.603-8.715 1.699l0.155-0.056c0.638 2.979 0.426 6.667 2.128 8.795 5.249 6.667 11.278 12.696 17.449 19.505-3.83 3.476-8.582 8.228-13.76 12.342-3.553 1.927-5.925 5.629-5.925 9.884 0 2.317 0.703 4.47 1.908 6.257l-0.025-0.040zM897.818 688.626c12.483-15.959 33.266-26.031 42.132-47.31-1.932-0.994-4.216-1.577-6.636-1.577-4.492 0-8.515 2.007-11.221 5.174l-0.017 0.020c-12.2 11.845-24.612 23.336-34.117 32.273l-36.812-32.414c-1.702-1.56-3.050-4.185-4.965-4.469-1.586-0.202-3.422-0.318-5.284-0.318s-3.698 0.115-5.499 0.339l0.215-0.022c0 3.334-0.709 7.731 1.064 9.717 7.093 8.299 15.392 15.888 23.336 23.619 5.816 5.745 11.916 11.207 17.732 16.668-12.342 18.867-35.89 26.953-43.196 49.65 1.846 1.097 4.069 1.746 6.444 1.746 3.927 0 7.441-1.773 9.783-4.563l0.016-0.020c12.058-11.916 24.258-23.69 36.457-35.464 17.236 11.561 27.024 33.62 48.941 41.422 1.136-1.94 1.807-4.272 1.807-6.761 0-4.132-1.85-7.833-4.767-10.317l-0.019-0.016c-11.845-12.2-23.407-24.683-35.394-37.38zM730.567 811.049l-23.052-24.4c-1.348-1.49-2.624-3.83-4.185-4.043-4.186-0.542-9.027-0.851-13.94-0.851-0.086 0-0.173 0-0.259 0h0.013c0.951 4.272 2.57 8.045 4.762 11.41l-0.081-0.133c9.221 9.504 19.222 18.371 28.372 27.166-9.221 16.101-30.216 21.279-32.060 40.997 1.672 0.995 3.687 1.583 5.839 1.583 3.866 0 7.288-1.897 9.387-4.811l0.023-0.034c8.866-9.079 17.803-18.087 25.534-25.889 8.724 8.157 17.307 15.179 24.754 23.265 3.474 3.932 8.529 6.398 14.16 6.398 1.75 0 3.445-0.238 5.053-0.684l-0.133 0.031c-2.057-5.44-4.443-10.115-7.271-14.479l0.178 0.293c-7.802-9.646-16.385-18.654-25.038-28.372l27.591-25.889c3.759-3.476 7.093-7.518 2.837-12.271s-9.15-1.277-12.98 2.412zM805.326 139.282c-1.678-5.402-3.946-10.106-6.794-14.389l0.127 0.203c-19.075-19.886-45.866-32.242-75.544-32.242-18.957 0-36.736 5.042-52.069 13.858l0.508-0.269c-12.2 7.093-23.761 15.392-35.464 23.052-23.974 15.462-43.763 15.037-65.467-2.979-15.25-12.625-29.932-26.102-44.047-39.933-18.512-18.229-38.585-20.428-59.367-4.752-6.931 5.293-13.056 10.946-18.619 17.116l-0.106 0.12c-13.493 14.947-32.937 24.301-54.565 24.301-3.52 0-6.982-0.248-10.369-0.727l0.389 0.045c-14.186-1.206-28.372-4.539-42.557-6.171-3.653 0.105-6.847 1.976-8.771 4.786l-0.024 0.038c-2.128 4.185 0.497 7.873 5.391 8.511 17.568 3.384 38.747 6.011 60.285 7.308l1.423 0.068c23.336 0 42.557-11.42 59.013-28.372 5.951-6.351 12.324-12.139 19.134-17.386l0.371-0.275c4.17-3.856 9.768-6.221 15.919-6.221 7.088 0 13.442 3.141 17.747 8.107l0.025 0.029c11.774 10.639 23.194 21.704 34.755 32.627l3.192 2.766c38.373 32.911 63.836 34.259 105.188 5.462 15.604-10.852 30.996-21.988 50.359-25.463 5.367-1.125 11.534-1.769 17.851-1.769 25.961 0 49.381 10.88 65.95 28.328l0.037 0.040c3.492 2.657 7.455 5.027 11.671 6.936l0.387 0.157zM446.001 383.277c0.021 0 0.046 0 0.071 0 30.907 0 55.963-25.055 55.963-55.963s-25.055-55.963-55.963-55.963c-30.882 0-55.922 25.015-55.963 55.888v0.004c-0.001 0.105-0.001 0.23-0.001 0.355 0 30.751 24.928 55.679 55.679 55.679 0.075 0 0.15 0 0.226 0h-0.012zM446.426 285.679c22.801 0.585 41.108 19.016 41.493 41.811v0.037c0 0.062 0.001 0.135 0.001 0.209 0 23.23-18.831 42.061-42.061 42.061s-42.061-18.831-42.061-42.061c0-23.23 18.831-42.061 42.061-42.061 0.199 0 0.398 0.001 0.597 0.004h-0.030zM662.334 383.206c0.022 0 0.048 0 0.074 0 30.477 0 55.183-24.706 55.183-55.183 0-0.2-0.001-0.399-0.003-0.598v0.030c-0.361-30.516-25.183-55.115-55.75-55.115-30.792 0-55.754 24.962-55.754 55.754 0 0.224 0.001 0.449 0.004 0.672v-0.034c0.313 30.159 24.835 54.487 55.038 54.487 0.425 0 0.849-0.005 1.271-0.014l-0.063 0.001zM662.334 285.679c22.728 0.397 41 18.915 41 41.7 0 0.177-0.001 0.353-0.003 0.529v-0.027c-0.508 22.862-18.968 41.247-41.811 41.635h-0.037c-22.796-0.909-41.026-19.238-41.775-41.99l-0.002-0.070c0.438-23.166 19.321-41.777 42.55-41.777 0.027 0 0.055 0 0.082 0h-0.004zM1010.453 169.214c-98.163 0.161-177.677 79.775-177.677 177.961 0 98.285 79.676 177.961 177.961 177.961 0.1 0 0.199 0 0.299 0h-0.015c96.676 0 175.904-78.022 177.322-171.79 2.057-97.102-69.581-182.996-177.89-184.131zM967.044 504.991c3.688-2.553 5.462-3.901 7.093-4.965 14.803-7.407 24.789-22.455 24.789-39.835 0-3.48-0.4-6.866-1.157-10.115l0.059 0.3c-1.783-10.346-3.151-22.841-3.798-35.525l-0.032-0.79q-4.043-68.73-7.589-137.389c-1.49-26.882-2.766-53.764-4.043-80.646 0-5.32 0-10.923 7.093-10.923 4.946-0.319 10.725-0.5 16.545-0.5 11.191 0 22.225 0.671 33.064 1.976l-1.307-0.128c64.687 12.342 109.585 49.65 128.878 112.99s4.469 120.579-43.905 166.399q-64.687 61.495-155.689 39.153zM968.534 187.868c0.851 20.215 1.277 38.585 2.483 56.743 4.114 65.893 8.582 131.715 12.696 197.608 2.199 34.4 1.915 34.259-28.372 50.643-2.735 1.704-6.055 2.715-9.611 2.715s-6.876-1.010-9.689-2.76l0.078 0.045c-56.743-31.776-88.874-80.15-88.519-145.404s30.145-115.047 89.016-145.617c9.93-5.107 20.498-9.008 31.918-13.973z" />
<glyph unicode="&#xe958;" glyph-name="uniE95B" horiz-adv-x="2630" d="M2294.523 960c7.63-0.812 15.342-1.867 22.972-2.435 78.58-6.534 149.218-36.065 206.37-81.759l-0.758 0.586c41.183-32.025 75.695-70.311 102.68-113.76l1.059-1.831c4.87-8.117 4.546-9.822-2.192-16.235q-90.833-85.881-181.341-171.763l-78.17-73.705c-1.623-1.542-3.409-3.003-6.25-5.52 3.409 0 5.195-0.487 7.062-0.487 24.352 0 48.217 0 72.407 0 4.642-0.065 8.934-1.512 12.498-3.947l-0.078 0.050c41.723-29.547 83.203-59.419 124.844-89.291 3.17-1.84 5.268-5.218 5.268-9.087 0-0.633-0.056-1.252-0.164-1.854l0.009 0.063c-0.097-1.106-0.153-2.393-0.153-3.693s0.055-2.587 0.164-3.859l-0.011 0.166v-432.247c0-11.689-1.623-13.231-13.231-13.231h-584.285c-11.364 0-13.231 1.867-13.231 13.312 0 143.839 0 287.759 0 431.598-0.059 0.635-0.093 1.374-0.093 2.121 0 9.264 5.173 17.32 12.789 21.437l0.129 0.064c43.428 27.355 86.206 55.847 129.877 83.527 4.63 2.855 10.218 4.591 16.202 4.708h0.032c23.621 0.487 47.243 0 73.056 0l-20.050 18.913-247.091 230.613c-9.984 9.335-10.309 9.578-2.76 21.186 65.263 100.817 155.447 165.512 274.203 188.241 20.050 3.815 40.587 4.627 61.042 6.9 1.608 0.369 2.991 0.815 4.319 1.364l-0.18-0.066zM2218.464 476.776c-29.466 0-58.932 0-88.479 0-3.694-0.075-7.128-1.121-10.076-2.892l0.092 0.051q-54.143-34.823-108.204-70.134c-1.758-1.283-3.292-2.534-4.758-3.859l0.050 0.044h211.456v-16.235h-231.831v-430.949h576.33v430.867h-232.886v16.235h215.677c-1.948 1.786-2.435 2.273-3.003 2.679q-50.165 36.041-100.492 71.919c-2.34 1.385-5.157 2.203-8.165 2.203-0.212 0-0.422-0.004-0.632-0.012l0.030 0.001c-34.499 0-68.916 0-103.415 0-1.055 5.682 1.867 12.825-5.844 16.235 0.78-0.109 1.682-0.172 2.598-0.172 6.605 0 12.451 3.246 16.031 8.23l0.040 0.059c4.546 4.952 9.741 9.335 14.692 13.962l238.243 225.093c1.367 1.38 2.668 2.836 3.892 4.355l0.085 0.109h-316.576q1.542-126.143 3.085-251.637h-16.235q0 27.031-0.649 54.061-0.974 77.358-1.705 154.716c0 14.124 0 28.248 0 42.454h-311.543c2.841-2.354 4.302-3.328 5.601-4.546l195.384-182.883c22.647-21.267 45.213-42.697 67.78-63.964-7.793-3.003-6.007-9.903-6.575-15.991zM2422.046 761.694c-0.355 2.735-0.81 5.103-1.392 7.42l0.093-0.439c-4.627 16.235-8.523 32.469-14.124 48.704-11.285 35.086-29.317 65.247-52.728 90.322l0.128-0.138c-28.816 29.304-63.315 41.236-103.902 32.063-27.538-7.343-50.346-24.158-65.248-46.664l-0.259-0.416c-21.456-30.913-37.416-67.376-45.534-106.705l-0.329-1.904c-1.705-7.224-3.003-14.611-4.465-22.241zM2346.88 936.866c15.497-12.448 28.778-26.786 39.744-42.833l0.436-0.676c23.664-35.906 41.274-78.065 50.204-123.342l0.367-2.233c1.218-5.601 3.409-6.575 8.117-6.494h161.616c-64.533 93.187-148.303 155.447-260.485 175.578zM1950.024 762.181c0.851-0.306 1.886-0.587 2.95-0.79l0.135-0.021h160.317c3.815 0 4.627 1.542 5.357 5.033 3.409 15.585 6.413 31.333 10.877 46.675 10.466 39.503 28.667 73.841 53.013 102.846l-0.331-0.406c5.682 6.494 11.445 12.907 16.722 18.832-105.282-23.459-187.104-82.472-249.039-172.168z" />
<glyph unicode="&#xe959;" glyph-name="uniE95C" horiz-adv-x="2630" d="M0 19.771h1.299c0-16.235 0-31.658 0-47.405h-1.299z" />
<glyph unicode="&#xe95a;" glyph-name="uniE95D" horiz-adv-x="2630" d="M1.136-27.634c0 15.748 0 31.576 0 47.405 1.822 3.24 5.238 5.393 9.157 5.393 0.55 0 1.089-0.042 1.616-0.124l-0.059 0.007c34.255 0 68.51 0 102.846 0h8.117v8.929q0 302.614 0 605.309c-0.015 0.498-0.023 1.084-0.023 1.673 0 16.778 6.733 31.983 17.645 43.061l-0.007-0.008c8.064 8.165 19.141 13.339 31.425 13.717l0.070 0.002c2.029 0 4.059 0 6.088 0q487.039 0 973.267 0c10.915-0.13 21.333-2.082 31.021-5.565l-0.662 0.208c21.016-6.61 35.993-25.918 35.993-48.725 0-0.649-0.012-1.295-0.036-1.939l0.003 0.093c0-2.029 0-4.059 0-6.088v-610.747h113.642c9.984 0 12.176-2.192 12.176-12.42 0-11.932 0.487-23.865 0-35.797-0.393-8.797-4.775-16.496-11.369-21.376l-0.076-0.054c-7.945-5.879-17.016-11.736-26.45-17.021l-1.311-0.675c-2.254-1.013-4.885-1.603-7.654-1.603-0.535 0-1.064 0.022-1.587 0.065l0.069-0.005h-1252.421c-0.235-0.005-0.512-0.008-0.79-0.008-13.744 0-25.742 7.474-32.152 18.58l-0.095 0.179c-2.705 4.73-5.535 10.494-8.031 16.432l-0.411 1.101zM1201.363 25.453v609.854c0 1.786 0 3.572 0 5.439 0.021 0.459 0.032 0.996 0.032 1.537 0 17.337-12.078 31.853-28.278 35.592l-0.246 0.048c-6.763 2.009-14.533 3.166-22.574 3.166-0.026 0-0.052 0-0.077 0h-975.454c-0.387 0.017-0.84 0.027-1.295 0.027-12.925 0-23.983-7.991-28.503-19.302l-0.073-0.207c-3.111-6.839-5.052-14.804-5.354-23.186l-0.003-0.111q0-303.020 0-606.039v-7.224zM1326.37 8.325h-1308.431v-24.352h1308.187zM1320.282-33.479h-1298.609c4.11-8.573 12.72-14.388 22.688-14.388 0.357 0 0.712 0.007 1.065 0.022l-0.050-0.002q621.543 0 1243.086 0c12.744 0 21.186 6.819 31.576 14.368z" />
<glyph unicode="&#xe95b;" glyph-name="uniE95E" horiz-adv-x="2630" d="M1818.686 517.687v-79.793c0-9.822-2.029-11.77-12.014-11.77h-160.236c-9.173 0-11.608 2.354-11.608 11.689q0 80.118 0 160.236c0 9.335 2.273 11.608 11.445 11.608h161.616c8.604 0 10.715-2.111 10.796-10.877zM1802.045 593.016h-150.252v-150.414h150.252z" />
<glyph unicode="&#xe95c;" glyph-name="uniE95F" horiz-adv-x="2630" d="M1602.521 280.661h71.027c8.117 0 10.796-2.516 10.796-10.958v-142.702c0-8.604-2.598-11.202-11.364-11.202h-142.053c-9.091 0-11.445 2.435-11.445 11.77v141.323c0 9.578 2.192 11.77 12.014 11.77zM1536.122 132.52h131.582v131.419h-131.582z" />
<glyph unicode="&#xe95d;" glyph-name="uniE960" horiz-adv-x="2630" d="M1302.992 326.2v49.353c0 9.66 2.516 12.176 11.77 12.176h100.087c9.173 0 11.851-2.435 11.932-11.445q0-50.409 0-100.736c0-8.604-2.679-11.202-11.527-11.283q-50.652 0-101.385 0c-8.117 0-10.796 2.841-10.877 11.202zM1409.816 371.17h-90.183v-90.102h90.183z" />
<glyph unicode="&#xe95e;" glyph-name="uniE961" horiz-adv-x="2630" d="M1847.177 351.201c11.77 0 23.459 0 35.148 0 7.63 0 10.147-2.516 10.147-10.147 0-23.459 0-46.837 0-70.296 0-7.062-2.841-9.903-9.822-9.984q-35.473 0-70.945 0c-7.062 0-9.66 2.841-9.66 9.984 0 23.621 0 47.324 0 70.945 0 6.819 2.598 9.416 9.335 9.497 11.932 0 23.865 0 35.797 0zM1875.832 277.252v56.821h-56.821v-56.821z" />
<glyph unicode="&#xe95f;" glyph-name="uniE962" horiz-adv-x="2630" d="M1451.62 476.695c0 11.689 0 23.459 0 35.148 0 7.062 2.679 9.741 9.822 9.822h70.296c7.468 0 10.228-2.76 10.228-10.228q0-35.067 0-70.296c0-7.387-2.76-10.065-10.228-10.065q-35.229 0-70.377 0c-7.062 0-9.741 2.76-9.741 9.822 0 11.932 0 23.946 0 35.797zM1467.855 447.635h56.821v57.795h-56.821z" />
<glyph unicode="&#xe960;" glyph-name="uniE963" horiz-adv-x="2630" d="M1498.457 624.268h91.807c6.332 0 10.39-3.409 9.903-8.117s-4.383-8.117-9.822-8.117h-186.049c-5.601 0-9.335 2.273-9.416 8.117s3.815 8.117 9.416 8.117h94.161z" />
<glyph unicode="&#xe961;" glyph-name="uniE964" horiz-adv-x="2630" d="M1787.19 684.011h-90.67c-7.549 0-10.877 2.435-10.958 8.117s3.49 8.117 10.634 8.117h183.046c7.306 0 10.715-2.76 10.553-8.117s-3.247-8.117-10.958-8.117z" />
<glyph unicode="&#xe962;" glyph-name="uniE965" horiz-adv-x="2630" d="M1643.839 357.938h-73.056c-6.819 0-10.228 2.76-10.309 8.117s3.49 8.117 10.065 8.117q73.624 0 147.329 0c6.575 0 10.147-3.085 9.822-8.117s-4.627-8.117-10.309-8.117c-24.433 0.081-49.029 0-73.543 0z" />
<glyph unicode="&#xe963;" glyph-name="uniE966" horiz-adv-x="2630" d="M1776.394 97.129c13.475 0 26.95 0 40.587 0 5.601 0 9.416-1.705 9.578-8.117s-3.815-8.117-9.173-8.117c-27.68 0-55.36 0-83.121 0-5.195 0-9.335 2.354-9.254 8.117s3.977 8.117 9.578 8.117c13.881-0.081 27.842 0 41.804 0z" />
<glyph unicode="&#xe964;" glyph-name="uniE967" horiz-adv-x="2630" d="M1433.681 175.055c-11.689 0-23.378 0-35.067 0-5.763 0-9.822 1.705-10.309 8.117s3.572 8.117 9.984 8.117h71.595c5.601 0 9.903-1.623 10.147-8.117s-3.085-8.117-9.903-8.117z" />
<glyph unicode="&#xe965;" glyph-name="uniE968" horiz-adv-x="2630" d="M1329.374 624.268c5.601 0 11.202 0 16.884 0 0.177 0.015 0.383 0.023 0.591 0.023 4.169 0 7.549-3.38 7.549-7.549 0-0.208-0.008-0.414-0.025-0.618l0.002 0.027c0.040-0.287 0.064-0.619 0.064-0.957 0-3.99-3.234-7.224-7.224-7.224-0.337 0-0.669 0.023-0.994 0.068l0.038-0.004c-11.283 0-22.566 0-33.768 0-4.483 0-8.117 3.634-8.117 8.117s3.634 8.117 8.117 8.117v0c6.007 0.162 11.445 0 16.884 0z" />
<glyph unicode="&#xe966;" glyph-name="uniE969" horiz-adv-x="2630" d="M1326.614 175.055h-14.855c-4.483 0-8.117 3.634-8.117 8.117s3.634 8.117 8.117 8.117v0q15.829 0 31.658 0c0.177 0.015 0.383 0.023 0.591 0.023 4.169 0 7.549-3.38 7.549-7.549 0-0.208-0.008-0.414-0.025-0.618l0.002 0.027c0-0.006 0-0.013 0-0.020 0-4.483-3.634-8.117-8.117-8.117-0.2 0-0.398 0.007-0.595 0.021l0.026-0.002z" />
<glyph unicode="&#xe967;" glyph-name="uniE96A" horiz-adv-x="2630" d="M2218.545 399.905c0 25.651 0 51.22 0 76.871 0.568 6.088-1.218 12.988 6.25 16.235h99.356c8.117-3.328 4.789-10.471 5.844-16.235v-179.555c0-10.065-2.111-12.095-12.338-12.095h-86.449c-10.39 0-12.42 2.192-12.501 12.825q0 42.859 0 85.719zM2313.436 399.905v76.384h-78.17v-174.522h78.17v98.138z" />
<glyph unicode="&#xe968;" glyph-name="uniE96B" horiz-adv-x="2630" d="M2235.185 399.905h78.251v-16.235h-78.17z" />
<glyph unicode="&#xe969;" glyph-name="uniE96C" horiz-adv-x="2630" d="M672.358 633.765h485.010c11.689 0 13.069-1.461 13.069-13.312v-552.627c0-11.932-1.218-13.15-13.15-13.15h-970.588c-11.608 0-13.231 1.623-13.231 13.231v552.708c0 11.445 1.705 13.15 13.312 13.15zM1153.796 71.235v545.727h-963.769v-545.727z" />
<glyph unicode="&#xe96a;" glyph-name="uniE96D" horiz-adv-x="2630" d="M924.319 349.821c-4.465 4.14-8.117 6.9-10.715 9.903l-125.331 125.331c-1.648 1.506-3.138 3.125-4.481 4.864l-0.065 0.088c-2.679 3.896-2.76 8.117 1.299 10.634 1.554 0.49 3.342 0.772 5.195 0.772s3.641-0.282 5.322-0.806l-0.127 0.034c1.38 0 2.598-2.354 3.896-3.572q68.997-69.16 137.994-137.994c7.549-7.63 7.549-10.39 0-17.858l-149.927-150.17c-1.461-1.38-2.841-3.734-4.465-3.896-1.106-0.256-2.376-0.402-3.68-0.402-2.425 0-4.731 0.506-6.82 1.419l0.11-0.043c-1.723 1.22-2.833 3.205-2.833 5.449 0 1.834 0.741 3.494 1.941 4.698v0c1.575 1.994 3.223 3.771 5.001 5.41l0.032 0.029 140.592 140.592c2.102 1.84 4.404 3.652 6.797 5.342l0.265 0.178z" />
<glyph unicode="&#xe96b;" glyph-name="uniE96E" horiz-adv-x="2630" d="M419.26 337.889c2.831-1.899 5.294-3.82 7.612-5.9l-0.063 0.055q64.939-64.452 129.147-129.065c1.623-1.623 4.221-3.166 4.383-4.952 0.223-0.956 0.35-2.054 0.35-3.181 0-2.585-0.671-5.014-1.85-7.121l0.038 0.074c-1.542-1.786-6.413-1.299-9.578-0.812-1.867 0-3.409 2.841-5.033 4.383l-138.4 138.887c-6.332 6.332-6.332 9.903 0 16.235l151.632 151.713c1.136 1.136 2.273 3.003 3.49 3.085 3.49 0 8.117 0.812 10.147-1.055s1.461-6.737 0.974-10.147c0-1.867-2.841-3.328-4.383-4.952l-141.16-141.079c-1.705-1.705-3.734-3.166-7.306-6.169z" />
<glyph unicode="&#xe96c;" glyph-name="uniE96F" horiz-adv-x="2630" d="M736.241 495.933c-1.136-3.328-1.705-5.276-2.354-7.143l-108.853-294.659c-0.812-2.273-1.623-5.52-3.409-6.25-1.808-0.916-3.941-1.452-6.2-1.452-1.288 0-2.536 0.174-3.72 0.501l0.098-0.023c-4.14 1.786-4.627 6.088-3.003 10.471 8.117 22.16 16.235 44.321 24.352 66.4q42.372 114.779 84.988 229.558c0.731 2.029 1.055 5.033 2.679 6.007 2.347 1.757 5.306 2.813 8.512 2.813 0.432 0 0.86-0.019 1.283-0.057l-0.055 0.004c2.111-0.487 3.896-4.302 5.682-6.169z" />
<glyph unicode="&#xe96d;" glyph-name="uniE970" horiz-adv-x="1793" d="M1792.632 614.658c-0.678-5.673-1.48-11.285-2.035-16.959-8.060-66.006-58.915-118.057-123.634-127.86l-0.812-0.101c-7.050-1.010-15.2-1.592-23.483-1.603h-0.012c-92.502 0-185.005 0.493-277.013 0-65.017 0.363-118.915 47.511-129.758 109.469l-0.115 0.794c-1.48 8.325 0.555 10.669 8.942 10.669 67.835 0 135.67 0 203.998 0 3.75-0.198 7.095-1.786 9.558-4.255v0c11.581-13.073 28.411-21.272 47.155-21.272 9.251 0 18.036 1.997 25.947 5.584l-0.395-0.16c22.675 10.964 38.038 33.79 38.038 60.204 0 2.82-0.175 5.599-0.515 8.326l0.033-0.326c-2.997 27.707-23.462 49.885-50.033 55.429l-0.412 0.072c-4.114 1.007-8.837 1.584-13.695 1.584-18.667 0-35.343-8.524-46.348-21.893l-0.083-0.103c-2.187-2.33-5.214-3.848-8.595-4.068l-0.038-0.002q-91.639-0.37-183.401 0c-0.080-0.002-0.174-0.004-0.268-0.004-3.097 0-5.871 1.384-7.737 3.566l-0.012 0.014c-0.129 0.619-0.203 1.331-0.203 2.060 0 2.496 0.867 4.789 2.316 6.595l-0.016-0.021c19.573 26.283 48.386 44.74 81.549 50.578l0.778 0.114c0.007 0 0.016 0 0.025 0 3.21 0 5.848 2.453 6.14 5.587l0.002 0.024c19.98 65.183 63.703 106.131 131.538 118.465 52.048 9.312 97.682-6.722 136.657-42.058 12.612-11.507 23.251-24.898 31.536-39.78l0.408-0.798c1.243-2.528 3.774-4.252 6.713-4.317h0.008c68.76-7.709 119.821-53.898 133.635-120.931 1.603-7.647 1.85-15.602 2.837-23.372 0.283-1.675 0.625-3.108 1.053-4.505l-0.066 0.25zM1249.336 576.362c0.088-1.32 0.241-2.526 0.461-3.708l-0.030 0.192c11.717-51.246 58.153-91.886 110.201-92.071 96.079-0.432 192.158 0 288.237 0 0.076 0 0.165 0 0.255 0 3.865 0 7.677 0.224 11.425 0.66l-0.456-0.043c67.94 8.063 120.126 65.325 120.126 134.777 0 7.61-0.627 15.074-1.831 22.342l0.108-0.79c-9.805 67.095-61.298 113.778-129.503 118.65-3.684 0.1-6.849 2.231-8.423 5.31l-0.026 0.055c-6.555 11.223-13.074 20.788-20.174 29.877l0.44-0.585c-27.439 33.258-68.659 54.296-114.794 54.296-32.381 0-62.342-10.364-86.745-27.957l0.439 0.301c-30.211-21.333-51.982-52.875-60.364-89.519l-0.194-1.010c-0.358-4.242-3.714-7.597-7.923-7.953l-0.032-0.002c-15.222-1.941-29.012-6.533-41.434-13.317l0.61 0.305c-12.94-6.737-23.929-15.363-33.076-25.661l-0.102-0.117c1.788 0 2.713-0.37 3.7-0.37q82.389 0 164.901 0c2.421 0.147 4.576 1.179 6.167 2.775v0c13.238 14.334 32.128 23.28 53.107 23.28 5.614 0 11.079-0.641 16.325-1.853l-0.487 0.095c35.249-7.025 61.445-37.714 61.445-74.522 0-3.469-0.233-6.885-0.683-10.231l0.043 0.39c-2.315-30.264-22.427-55.291-49.799-64.779l-0.522-0.158c-29.354-11.1-55.501-3.022-78.134 17.575-2.241 1.981-5.149 3.256-8.348 3.452l-0.039 0.002c-62.717 0-125.371 0-188.088 0z" />
<glyph unicode="&#xe96e;" glyph-name="uniE971" horiz-adv-x="1793" d="M712.391 960c3.268-1.295 6.167-2.837 9.744-3.947l56.981-18.5c3.577-1.172 6.969-2.467 6.845-7.092s-3.33-5.427-6.845-6.167c-21.091-6.845-42.181-13.629-63.272-19.795-1.118-0.323-2.403-0.509-3.731-0.509s-2.613 0.186-3.829 0.533l0.098-0.024c-22.324 6.167-44.709 12.704-66.91 19.487-2.467 0.74-5.797 4.070-5.797 6.167 0.797 2.84 2.841 5.086 5.488 6.145l0.062 0.022c20.844 7.215 41.811 13.999 62.717 20.967 1.71 0.691 3.15 1.415 4.524 2.239l-0.145-0.081zM759.135 930.708c-10.175 3.392-19.549 5.673-28.182 9.559-5.933 2.962-12.924 4.696-20.32 4.696s-14.387-1.734-20.589-4.817l0.269 0.121c-8.51-3.885-17.76-6.167-27.751-9.559 16.527-4.81 31.759-9.312 47.053-13.629 0.601-0.176 1.291-0.277 2.004-0.277s1.404 0.101 2.056 0.289l-0.052-0.013z" />
<glyph unicode="&#xe96f;" glyph-name="uniE972" horiz-adv-x="1793" d="M481.012 960c11.717-4.070 23.372-8.264 35.089-12.334s21.954-6.845 32.746-10.915c2.467-0.925 5.735-4.317 5.673-6.475s-3.453-5.365-6.167-6.167c-21.091-6.783-42.366-13.444-63.642-19.61-1.045-0.293-2.245-0.462-3.484-0.462s-2.439 0.168-3.578 0.484l0.094-0.022c-22.694 6.167-45.388 12.889-67.835 19.734-2.681 1.036-4.674 3.315-5.293 6.11l-0.011 0.057c0.623 2.802 2.533 5.056 5.062 6.145l0.056 0.022c20.967 7.339 42.119 14.184 63.148 21.214 1.671 0.692 3.090 1.436 4.433 2.289l-0.116-0.069zM431.061 930.831c16.589-4.81 31.821-9.25 47.114-13.567 0.674-0.205 1.449-0.322 2.251-0.322s1.577 0.118 2.308 0.337l-0.057-0.015c14.739 4.317 29.354 8.88 45.141 13.629l-46.806 15.479c-0.453 0.132-0.973 0.207-1.511 0.207s-1.058-0.076-1.55-0.217l0.040 0.010c-15.479-4.872-30.341-10.052-46.806-15.54z" />
<glyph unicode="&#xe970;" glyph-name="uniE973" horiz-adv-x="1793" d="M829.19-63.692c-47.978 0-95.894 0-143.872 0-0.314-0.032-0.678-0.050-1.047-0.050-4.342 0-8.098 2.507-9.901 6.152l-0.029 0.065q-71.782 124.631-143.995 249.201c-1.301 1.828-2.080 4.107-2.080 6.568s0.779 4.739 2.104 6.603l-0.024-0.035q72.398 124.693 144.304 249.509c1.646 3.676 5.271 6.19 9.484 6.19 0.243 0 0.485-0.008 0.724-0.025l-0.032 0.002q144.674 0 289.285 0c0.219 0.017 0.473 0.026 0.731 0.026 4.203 0 7.818-2.518 9.419-6.127l0.026-0.066q71.967-124.878 144.18-249.694c1.301-1.828 2.080-4.107 2.080-6.568s-0.779-4.739-2.104-6.603l0.024 0.035q-72.275-124.816-144.18-249.756c-1.784-3.274-5.201-5.458-9.127-5.458-0.282 0-0.562 0.011-0.838 0.033l0.036-0.002c-48.595 0-96.881 0-145.167 0zM829.19 51.751c27.442 0 54.823 0 82.204 0 0.151-0.013 0.328-0.021 0.506-0.021 2.522 0 4.69 1.513 5.645 3.681l0.016 0.039q41.071 71.412 82.389 142.638c0.77 1.018 1.233 2.305 1.233 3.7s-0.463 2.682-1.245 3.716l0.011-0.016q-41.133 70.98-82.080 141.837c-1.152 2.452-3.601 4.12-6.439 4.12-0.295 0-0.586-0.018-0.872-0.053l0.034 0.003q-81.402 0-162.866 0c-0.203 0.020-0.439 0.032-0.677 0.032-2.877 0-5.361-1.684-6.519-4.12l-0.019-0.044q-40.886-71.227-82.080-142.207c-0.756-1.012-1.21-2.288-1.21-3.669s0.454-2.657 1.222-3.685l-0.012 0.016q41.256-71.042 82.080-142.207c1.188-2.451 3.657-4.111 6.513-4.111 0.269 0 0.535 0.015 0.796 0.043l-0.032-0.003c27.381 0.185 54.453 0.123 81.464 0.123zM592.939 288.187c-0.617-0.493-0.987-0.678-1.11-0.925-16.712-28.922-33.486-57.783-50.013-86.705-0.284-0.684-0.45-1.478-0.45-2.312 0-1.173 0.328-2.27 0.897-3.204l-0.015 0.027q70.178-122.103 140.665-244.083c1.010-2.108 3.127-3.538 5.579-3.538 0.36 0 0.713 0.031 1.057 0.090l-0.037-0.005q80.169 0 160.337 0c0.189-0.019 0.408-0.029 0.63-0.029 2.739 0 5.103 1.609 6.197 3.934l0.018 0.042c16.589 28.367 33.362 56.611 50.013 84.917 0.577 1.017 1.157 2.235 1.655 3.495l0.072 0.205c-55.008 0-109.461 0-163.976 0-0.36-0.037-0.777-0.059-1.2-0.059-4.883 0-9.103 2.838-11.102 6.954l-0.032 0.073q-63.333 110.201-126.975 220.032c-3.947 6.969-8.079 13.999-12.21 21.091zM929.524 351.397c1.357-2.59 2.097-4.132 2.96-5.55q39.468-68.452 79.12-136.78c1.493-2.083 2.388-4.683 2.388-7.493s-0.895-5.41-2.414-7.532l0.027 0.039q-70.302-120.253-140.295-240.506l-3.207-5.797h5.427c31.882 0 63.703 0 95.586 0 0.175-0.014 0.378-0.022 0.583-0.022 3.081 0 5.734 1.837 6.921 4.476l0.019 0.048q69.87 121.116 139.555 242.479c0.466 0.986 0.739 2.142 0.739 3.361s-0.272 2.375-0.759 3.41l0.021-0.049c-27.874 48.656-55.995 97.189-83.93 145.845-1.194 2.482-3.69 4.165-6.578 4.165-0.246 0-0.489-0.012-0.729-0.036l0.030 0.002c-30.156 0-60.25 0-90.406 0zM1023.26 362.867c-0.74 1.542-1.048 2.282-1.48 3.022-15.294 26.517-30.526 53.035-46.066 79.429-1.592 1.853-3.922 3.033-6.528 3.083h-0.009q-139.678 0-279.418 0c-0.216 0.023-0.467 0.035-0.721 0.035-2.9 0-5.407-1.682-6.599-4.124l-0.019-0.043q-40.208-69.993-80.785-139.925c-0.835-1.155-1.336-2.601-1.336-4.163s0.501-3.007 1.35-4.184l-0.014 0.021c12.334-20.967 24.667-41.996 36.569-63.025 3.7-6.475 7.524-12.889 11.532-19.795l3.207 5.365q39.776 68.822 79.49 137.767c1.832 3.707 5.587 6.211 9.927 6.211 0.348 0 0.692-0.016 1.032-0.048l-0.044 0.003q136.472 0 272.82 0z" />
<glyph unicode="&#xe971;" glyph-name="uniE974" horiz-adv-x="1793" d="M1085.36 725.661c0.029 60.817 44.072 111.34 102.002 121.441l0.738 0.106c5.421 0.865 11.671 1.36 18.036 1.36 0.293 0 0.586-0.001 0.879-0.003h-0.045c0.122-0.009 0.265-0.014 0.408-0.014 2.612 0 4.845 1.624 5.744 3.918l0.014 0.042c22.632 45.018 58.030 74.68 108.104 82.697s94.846-2.22 130.552-40.516c5.243-5.99 10.144-12.597 14.49-19.586l0.372-0.641c3.638-5.488 1.665-9.312-4.502-11.1-10.114-2.898-20.289-6.167-30.279-9.497-1.074-0.576-2.35-0.915-3.704-0.915-2.733 0-5.144 1.378-6.576 3.478l-0.018 0.027c-15.691 19.918-39.533 32.81-66.411 33.606l-0.129 0.003c-2.851 0.297-6.161 0.466-9.51 0.466-26.233 0-50.042-10.38-67.543-27.258l0.029 0.028c-15.008-14.121-25.246-33.162-28.13-54.535l-0.052-0.473c-0.030-3.792-3.111-6.854-6.907-6.854-0.348 0-0.69 0.026-1.025 0.075l0.038-0.005h-34.966c-40.498-0.486-73.14-33.43-73.14-73.997 0-37.522 27.926-68.522 64.129-73.349l0.378-0.041c2.756-0.351 5.947-0.552 9.185-0.555h0.003q122.596 0 245.131 0c0.264-0.023 0.571-0.036 0.882-0.036 3.694 0 6.955 1.856 8.9 4.686l0.024 0.037c20.721 27.072 60.866 28.861 81.834 3.823 7-8.873 11.227-20.216 11.227-32.546 0-16.764-7.814-31.702-19.998-41.372l-0.109-0.083c-8.343-6.256-18.869-10.018-30.274-10.018-17.432 0-32.812 8.789-41.95 22.177l-0.113 0.175c-1.338 2.208-3.728 3.662-6.457 3.662-0.398 0-0.789-0.031-1.171-0.091l0.042 0.005h-248.584c-0.194-0.001-0.423-0.002-0.653-0.002-60.768 0-111.040 44.936-119.401 103.391l-0.076 0.645c-0.802 6.29-0.987 12.149-1.418 17.637zM1452.964 874.775c-6.791 7.94-13.742 15.145-21.098 21.916l-0.177 0.161c-31.821 26.641-69.377 33.054-108.721 26.147-46.744-8.017-79.367-35.829-99.594-78.257-1.62-5.050-6.275-8.642-11.768-8.642-0.635 0-1.258 0.048-1.867 0.14l0.068-0.009c-1.012 0.035-2.201 0.054-3.395 0.054-32.583 0-61.746-14.64-81.27-37.701l-0.128-0.156c-16.79-19.245-27.028-44.586-27.028-72.317 0-35.021 16.327-66.229 41.785-86.427l0.228-0.174c18.126-14.233 41.269-22.827 66.419-22.827 0.498 0 0.995 0.003 1.492 0.010l-0.075-0.001q126.605 0 253.333 0c0.339 0.039 0.733 0.061 1.131 0.061 4.271 0 7.952-2.524 9.633-6.162l0.027-0.066c6.045-11.74 18.080-19.631 31.958-19.631 1.538 0 3.054 0.097 4.541 0.285l-0.177-0.018c14.771 0.361 27.205 9.977 31.749 23.253l0.072 0.242c2.101 4.502 3.327 9.774 3.327 15.333 0 10.008-3.973 19.087-10.428 25.748l0.009-0.010c-17.699 18.5-47.978 14.369-63.087-8.634-2.045-3.723-5.939-6.204-10.413-6.204-0.329 0-0.655 0.013-0.977 0.040l0.042-0.003q-126.358 0-252.84 0c-6.609 0.090-12.973 0.962-19.059 2.527l0.559-0.122c-37.47 10.126-64.586 43.814-64.586 83.837 0 5.439 0.501 10.761 1.459 15.923l-0.082-0.535c5.897 36.699 34.714 65.223 71.073 70.615l0.462 0.056c7.636 0.774 16.501 1.215 25.469 1.215 4.381 0 8.738-0.105 13.068-0.314l-0.611 0.023c3.33 0 4.563 0.925 5.427 4.317 5.876 25.483 20.076 46.99 39.526 62.037l0.25 0.186c43.908 34.288 115.134 28.676 148.805-11.1 0.985-1.083 2.4-1.759 3.973-1.759 0.208 0 0.413 0.012 0.615 0.035l-0.025-0.002c6.475 1.973 12.827 4.378 20.906 7.215z" />
<glyph unicode="&#xe972;" glyph-name="uniE975" horiz-adv-x="1793" d="M477.682 823.282v-60.62c0-8.819-3.453-10.977-11.655-7.524-27.936 11.655-55.501 23.496-83.745 34.966-4.097 1.262-7.023 5.013-7.023 9.448 0 0.365 0.020 0.725 0.058 1.079l-0.004-0.044c0 35.459 0 70.918 0 106.378 0 8.264 2.837 10.36 10.854 8.264 28.182-7.277 56.303-14.615 84.485-21.707 3.991-0.533 7.038-3.917 7.038-8.011 0-0.372-0.025-0.737-0.074-1.096l0.005 0.042c0-20.412 0.062-40.763 0.062-61.175zM388.509 901.785c0-1.357-0.37-1.85-0.37-2.343 0-31.451 0-62.963 0-94.414 0.342-2.185 1.687-3.998 3.54-4.977l0.037-0.018c22.756-9.805 45.634-19.302 68.452-28.861 1.48-0.617 3.022-1.048 4.625-1.542 0.181 0.609 0.333 1.341 0.425 2.091l0.007 0.068q0 53.343 0 106.748c-0.453 1.918-1.754 3.463-3.476 4.239l-0.039 0.016c-12.827 3.638-25.716 6.907-38.666 10.237-11.655 2.96-23.064 5.797-34.534 8.757z" />
<glyph unicode="&#xe973;" glyph-name="uniE976" horiz-adv-x="1793" d="M709.184 822.788v-58.585c0-10.669-3.083-12.765-12.704-8.695-27.751 11.594-55.501 23.311-83.252 34.843-3.653 1.226-6.238 4.617-6.238 8.613 0 0.399 0.026 0.791 0.076 1.176l-0.005-0.045c0 35.768 0 71.535 0 107.364 0 7.585 2.898 9.805 10.36 7.894 27.936-7.154 55.933-14.492 83.93-21.522 4.587-0.525 8.117-4.386 8.117-9.071 0-0.477-0.037-0.945-0.107-1.402l0.006 0.051c-0.555-20.227-0.185-40.578-0.185-60.62zM695.987 769.445c0.262 0.717 0.458 1.553 0.551 2.419l0.004 0.048q0 53.405 0 106.748c-0.496 1.915-1.84 3.442-3.598 4.178l-0.041 0.015c-14.492 3.947-29.107 7.647-43.661 11.409l-29.169 7.462c-0.254-0.547-0.467-1.187-0.606-1.853l-0.010-0.059c0-31.821 0-63.642 0-95.462 0.436-2.027 1.823-3.658 3.659-4.425l0.041-0.015c21.461-9.189 43.168-18.192 64.69-27.196 2.343-1.11 4.995-2.158 7.894-3.268z" />
<glyph unicode="&#xe974;" glyph-name="uniE977" horiz-adv-x="1793" d="M353.297 631.864v-60.373c0-9.312-3.268-11.594-11.655-8.079-28.244 11.84-56.426 23.742-84.732 35.459-3.615 1.109-6.198 4.417-6.198 8.329 0 0.259 0.011 0.516 0.034 0.769l-0.002-0.033c0 35.953 0 71.905 0 107.919 0 7.339 3.022 9.744 9.99 7.955 28.676-7.339 57.29-14.8 85.965-22.077 3.566-0.635 6.238-3.712 6.238-7.413 0-0.365-0.026-0.724-0.076-1.076l0.005 0.040c0.37-20.35 0.432-40.886 0.432-61.421zM340.162 577.657c0.19 0.706 0.363 1.584 0.481 2.479l0.012 0.111c0 35.583 0 71.165 0 106.748 0 1.542-2.405 3.885-4.070 4.317-17.329 4.748-34.719 9.127-52.048 13.567l-20.597 5.303c-0.171-0.674-0.302-1.474-0.367-2.292l-0.003-0.051c0-31.451 0-62.963 0-94.414 0-3.392 1.727-4.317 4.255-5.427 15.602-6.167 31.204-13.012 46.806-19.549z" />
<glyph unicode="&#xe975;" glyph-name="uniE978" horiz-adv-x="1793" d="M126.173 632.234v-61.175c0-8.51-3.453-10.792-11.347-7.524-28.182 11.84-56.365 23.742-84.67 35.459-3.629 1.194-6.203 4.552-6.203 8.512 0 0.282 0.013 0.56 0.038 0.835l-0.003-0.035c0 35.953 0 71.905 0 107.919 0 7.277 3.022 9.62 10.052 7.77l85.472-21.954c3.87-0.449 6.845-3.707 6.845-7.66 0-0.343-0.022-0.681-0.066-1.012l0.004 0.039c-0.185-20.412-0.123-40.763-0.123-61.175zM36.631 710.491c0-1.357-0.308-1.85-0.308-2.343 0-31.512 0-63.025 0-94.476 0.353-2.199 1.692-4.025 3.541-5.039l0.036-0.018c23.064-9.867 46.251-19.487 69.377-29.169 1.024-0.375 2.266-0.716 3.542-0.961l0.158-0.025c0.196 0.57 0.348 1.238 0.428 1.929l0.004 0.045q0 53.466 0 106.809c-0.424 1.933-1.767 3.48-3.538 4.18l-0.039 0.014c-8.202 2.467-16.527 4.378-24.667 6.537z" />
<glyph unicode="&#xe976;" glyph-name="uniE979" horiz-adv-x="1793" d="M236.374 432.799c0-20.227 0-40.393 0-60.558 0-8.572-3.453-10.915-11.224-7.709q-42.798 17.945-85.595 35.768c-3.197 1.080-5.459 4.053-5.459 7.553 0 0.25 0.012 0.497 0.034 0.742l-0.002-0.031c0 36.446 0 72.892 0 109.338 0 6.537 3.268 8.942 9.62 7.277 28.429-7.277 56.858-14.739 85.349-21.954 4.154-0.475 7.35-3.971 7.35-8.213 0-0.388-0.027-0.769-0.078-1.142l0.005 0.043c-0.062-20.412 0-40.763 0-61.113zM223.547 378.777c0.188 0.734 0.34 1.616 0.426 2.517l0.006 0.073q0 53.343 0 106.809c0 1.48-2.405 3.823-4.070 4.317-13.999 3.885-28.059 7.462-42.119 11.1l-30.402 7.709c-0.221-0.863-0.396-1.893-0.488-2.946l-0.005-0.075c0-31.327 0-62.655 0-93.921 0.411-2.189 1.818-3.981 3.721-4.916l0.040-0.018c15.664-6.845 31.451-13.32 47.238-19.919z" />
<glyph unicode="&#xe977;" glyph-name="uniE97A" horiz-adv-x="1793" d="M1305.454 357.564h-222.499c-1.542 0-3.392-0.555-4.502 0s-4.872 3.083-4.872 4.687c0.495 2.558 1.927 4.716 3.918 6.147l0.029 0.020c1.233 0.925 3.638 0.432 5.488 0.432h444.998c1.665 0 3.947 0.555 4.995 0s4.378-3.947 4.502-6.167-3.022-3.638-4.995-4.995c-0.987-0.617-2.713 0-4.070 0z" />
<glyph unicode="&#xe978;" glyph-name="uniE97B" horiz-adv-x="1793" d="M249.016 433.477c0 20.227 0 40.454 0 60.681-0.059 0.386-0.092 0.831-0.092 1.283 0 4.35 3.085 7.98 7.187 8.82l0.058 0.010c23.126 7.277 46.189 14.862 69.253 22.324 6.66 2.158 10.052 0 10.052-7.030 0-38.728 0-77.394 0-116.121 0.021-0.222 0.033-0.479 0.033-0.739 0-3.661-2.399-6.762-5.71-7.817l-0.058-0.016-69.685-30.279c-7.4-3.268-11.039-0.925-11.039 7.277zM323.018 512.412c-2.158-0.555-3.453-0.802-4.748-1.233-17.39-5.612-34.719-11.285-52.171-16.712-2.801-0.621-4.865-3.083-4.865-6.028 0-0.288 0.020-0.572 0.058-0.85l-0.004 0.032c0-34.534 0-69.13 0-103.664 0-1.48 0-2.96 0-4.81 1.665 0.555 2.96 0.925 4.193 1.48 17.637 7.709 35.274 15.602 53.035 23.126 2.457 0.709 4.223 2.938 4.223 5.579 0 0.207-0.011 0.411-0.032 0.613l0.002-0.025c0 26.702 0 53.343 0 80.169z" />
<glyph unicode="&#xe979;" glyph-name="uniE97C" horiz-adv-x="1793" d="M721.518 823.96c0 20.536 0 41.071 0 61.668-0.054 0.348-0.086 0.75-0.086 1.159 0 3.778 2.654 6.936 6.2 7.711l0.052 0.010c23.311 7.4 46.498 14.985 69.747 22.509 6.907 2.22 10.114 0 10.114-7.339 0-38.481 0-76.962 0-115.504 0.019-0.211 0.029-0.457 0.029-0.706 0-3.888-2.588-7.171-6.135-8.221l-0.061-0.015c-23.187-9.99-46.313-20.165-69.5-30.279-7.277-3.207-10.792-0.925-10.792 6.969zM733.851 769.507c1.912 0.678 3.207 0.987 4.378 1.542 17.575 7.647 35.028 15.479 52.665 22.941 2.709 0.863 4.636 3.356 4.636 6.3 0 0.345-0.026 0.683-0.077 1.014l0.005-0.037c0 32.006 0 64.012 0 96.017v5.488c-2.467-0.555-4.255-0.925-6.167-1.48-16.959-5.488-33.794-11.039-50.753-16.342-2.853-0.579-4.97-3.067-4.97-6.050 0-0.237 0.013-0.471 0.039-0.7l-0.003 0.028c0-34.411 0-68.883 0-103.294z" />
<glyph unicode="&#xe97a;" glyph-name="uniE97D" horiz-adv-x="1793" d="M490.385 824.33c0 20.35 0 40.763 0 61.113-0.055 0.352-0.087 0.758-0.087 1.171 0 3.791 2.651 6.962 6.2 7.761l0.053 0.010c23.434 7.339 46.621 15.047 69.87 22.447 7.215 2.343 10.299 0 10.299-7.647 0-38.296 0-76.654 0-115.011 0.022-0.23 0.034-0.496 0.034-0.766 0-3.89-2.591-7.174-6.14-8.222l-0.061-0.015c-22.879-10.175-46.004-20.104-69.192-30.217-7.462-3.268-10.977-0.987-10.977 7.277zM502.719 769.322l5.18 2.035c17.39 7.585 34.719 15.294 52.171 22.756 2.613 0.755 4.491 3.126 4.491 5.935 0 0.278-0.018 0.551-0.054 0.819l0.003-0.031c0 32.314 0 64.69 0 97.066v4.933c-1.788-0.432-3.145-0.678-4.378-1.11-17.575-5.612-35.089-11.409-52.726-16.897-2.661-0.41-4.675-2.684-4.675-5.428 0-0.261 0.018-0.517 0.053-0.768l-0.003 0.029c0-29.477 0-58.955 0-88.37z" />
<glyph unicode="&#xe97b;" glyph-name="uniE97E" horiz-adv-x="1793" d="M366.001 632.604c0 20.35 0 40.763 0 61.113-0.045 0.327-0.070 0.705-0.070 1.089 0 4.080 2.892 7.484 6.738 8.275l0.055 0.009c23.002 7.277 45.881 14.862 68.822 22.201 7.955 2.59 10.915 0.432 10.915-7.832 0-37.988 0-76.037 0-114.024 0.042-0.332 0.067-0.715 0.067-1.105 0-4.017-2.578-7.432-6.169-8.681l-0.064-0.020c-23.064-9.867-46.066-20.104-69.068-30.156-7.339-3.207-11.039-0.678-11.039 7.462q-0.185 30.772-0.185 61.668zM440.002 711.539c-1.85-0.555-3.145-0.802-4.378-1.233-17.575-5.673-35.089-11.409-52.665-16.897-2.693-0.444-4.722-2.756-4.722-5.541 0-0.221 0.013-0.438 0.037-0.652l-0.002 0.026c0-34.966 0-69.87 0-104.836 0-1.295 0-2.59 0-4.44 19.364 8.449 38.234 16.774 57.228 24.667 2.565 0.786 4.398 3.133 4.398 5.908 0 0.353-0.030 0.699-0.087 1.035l0.005-0.036q0 48.286 0 96.511z" />
<glyph unicode="&#xe97c;" glyph-name="uniE97F" horiz-adv-x="1793" d="M138.877 632.665c0 20.35 0 40.763 0 61.113-0.043 0.32-0.068 0.691-0.068 1.067 0 4.089 2.926 7.495 6.799 8.237l0.053 0.008c22.941 7.339 45.881 14.862 68.76 22.262 7.955 2.528 10.854 0.37 10.854-7.955 0-37.988 0-76.037 0-114.024 0.041-0.327 0.065-0.705 0.065-1.088 0-4.005-2.579-7.407-6.168-8.636l-0.064-0.019c-22.941-9.805-45.758-19.98-68.637-29.971-7.77-3.392-11.47-1.048-11.47 7.339zM151.21 577.657c19.61 8.572 38.481 16.959 57.475 25.037 2.53 0.807 4.33 3.137 4.33 5.887 0 0.338-0.027 0.67-0.080 0.994l0.005-0.035c0 32.191 0 64.382 0 96.572v4.872c-0.802 0-1.172 0.308-1.48 0-19.179-6.167-38.419-12.334-57.536-18.5-1.409-0.867-2.373-2.342-2.527-4.050l-0.001-0.020c-0.185-36.754-0.185-73.2-0.185-110.756z" />
<glyph unicode="&#xe97d;" glyph-name="uniE980" horiz-adv-x="1793" d="M1294.107 260.93h-158.734c-1.542 0-3.453-0.555-4.502 0-2.035 1.418-4.81 3.515-4.81 5.365s2.59 4.193 4.502 5.673c0.987 0.802 3.022 0 4.563 0h319.009c1.542 0 3.577 0.555 4.502 0s4.255-3.947 4.132-5.858-2.837-3.885-4.872-5.18c-1.048-0.74-3.022 0-4.563 0z" />
<glyph unicode="&#xe97e;" glyph-name="uniE981" horiz-adv-x="1793" d="M682.112 638.4h-135.67c-1.542 0-3.515-0.493-4.502 0s-4.317 3.453-4.44 5.365 2.097 4.378 3.947 5.612c1.219 0.467 2.629 0.737 4.102 0.737 0.73 0 1.444-0.066 2.137-0.193l-0.072 0.011h269.305c4.625 0 10.36 0.617 10.422-6.167s-5.797-5.858-10.422-5.858z" />
<glyph unicode="&#xe97f;" glyph-name="uniE982" horiz-adv-x="1793" d="M315.679 540.656c-3.268-3.022-4.933-5.735-7.215-6.167q-33.301-10.36-66.787-20.104c-0.605-0.105-1.302-0.165-2.013-0.165-1.489 0-2.917 0.264-4.239 0.748l0.086-0.027-65.8 18.377c-3.7 1.048-6.969 2.282-7.030 6.845s3.33 5.55 6.722 6.66c21.522 7.092 43.168 14.307 64.69 21.276 1.181 0.367 2.539 0.579 3.947 0.579s2.766-0.211 4.044-0.604l-0.097 0.026q32.684-10.545 65.183-21.584c3.237-1.711 6.029-3.657 8.555-5.897l-0.044 0.039zM191.665 541.211v-1.11c15.294-4.44 30.526-8.88 45.758-13.197 0.527-0.146 1.133-0.229 1.758-0.229s1.23 0.084 1.806 0.241l-0.048-0.011 45.573 13.814c-11.162 3.7-21.337 6.167-30.834 10.422-5.164 2.495-11.23 3.953-17.637 3.953s-12.473-1.458-17.885-4.061l0.248 0.107c-9.127-4.317-19.117-6.907-28.737-10.114z" />
<glyph unicode="&#xe980;" glyph-name="uniE983" horiz-adv-x="1793" d="M128.023 768.212l4.933-1.357 63.333-20.906c3.515-1.11 7.092-2.343 7.092-6.845s-3.823-6.167-7.524-7.092c-20.597-6.167-41.194-12.334-61.668-18.5-1.34-0.382-2.88-0.602-4.471-0.602s-3.13 0.22-4.59 0.631l0.119-0.029c-21.707 6.167-43.168 12.334-65.060 18.5-3.7 1.048-7.462 2.035-7.4 7.030s3.7 5.673 7.092 6.845l63.457 20.967zM79.614 739.413c16.835-4.81 32.437-9.374 48.040-13.69 0.551-0.102 1.185-0.161 1.833-0.161 1.313 0 2.569 0.24 3.728 0.678l-0.073-0.024c12.765 3.762 25.531 7.709 38.296 11.594 1.295 0.37 2.528 0.925 4.625 1.727-15.787 5.18-30.526 10.114-45.326 14.862-0.803 0.249-1.726 0.392-2.683 0.392s-1.88-0.143-2.749-0.41l0.066 0.018c-14.8-4.687-29.539-9.62-45.758-14.985z" />
<glyph unicode="&#xe981;" glyph-name="uniE984" horiz-adv-x="1793" d="M356.627 712.217l-12.334 3.33-57.043 16.28c-3.638 1.048-7.524 1.973-7.524 6.969s3.577 5.735 7.030 6.907c21.091 6.969 42.119 13.999 63.333 20.721 1.476 0.469 3.173 0.739 4.933 0.739s3.458-0.27 5.053-0.771l-0.119 0.032q32.006-9.929 63.765-20.782c3.023-1.137 5.372-3.466 6.511-6.399l0.026-0.076c0.987-4.193-2.96-5.797-6.66-6.907l-62.84-18.932c-1.295-0.432-2.652-0.74-4.132-1.11zM306.799 739.413c16.774-4.81 32.376-9.374 47.978-13.69 0.551-0.102 1.185-0.161 1.833-0.161 1.313 0 2.569 0.24 3.728 0.678l-0.073-0.024c12.334 3.7 25.222 7.585 37.803 11.409 1.48 0.432 2.898 0.987 5.18 1.85-15.787 5.242-30.834 10.175-45.388 14.924-0.795 0.235-1.707 0.37-2.652 0.37s-1.857-0.135-2.72-0.387l0.068 0.017c-14.8-4.687-29.601-9.62-45.758-14.985z" />
<glyph unicode="&#xe982;" glyph-name="uniE985" horiz-adv-x="1793" d="M148.682 858.248h-142.885c-0.193-0.026-0.417-0.040-0.644-0.040-2.861 0-5.18 2.319-5.18 5.18 0 0.188 0.010 0.374 0.030 0.556l-0.002-0.023c-0.017 0.158-0.026 0.341-0.026 0.526 0 2.895 2.347 5.242 5.242 5.242 0.205 0 0.407-0.012 0.606-0.035l-0.024 0.002h281.577c4.563 0 10.422 0.987 10.422-5.797s-5.858-5.673-10.36-5.673z" />
<glyph unicode="&#xe983;" glyph-name="uniE986" horiz-adv-x="1793" d="M406.208 104.724c-44.833 0-89.727 0-134.56 0-2.87 0.025-5.46 1.199-7.338 3.083v0c-2.467 2.898 0 7.215 4.008 8.017 0.768 0.089 1.658 0.141 2.559 0.141s1.791-0.051 2.666-0.15l-0.107 0.010h269.243c4.008 0 7.030-1.603 7.092-5.735s-3.083-5.797-7.339-5.797z" />
<glyph unicode="&#xe984;" glyph-name="uniE987" horiz-adv-x="1793" d="M829.56 698.835h79.12c1.357 0 3.145 0.493 4.008 0 2.035-1.48 4.81-3.515 4.933-5.427s-2.467-4.378-4.44-5.735-3.638-0.493-5.488-0.493h-158.241c-4.317 0-7.832 1.357-7.647 6.167s3.453 5.673 7.647 5.612z" />
<glyph unicode="&#xe985;" glyph-name="uniE988" horiz-adv-x="1793" d="M282.379 897.16c-16.774 0-33.547 0-50.321 0-4.317 0-7.832 0.987-7.709 6.167s3.515 5.612 7.647 5.612h100.519c4.317 0 7.77-1.172 7.709-6.167s-3.577-5.488-7.585-5.488z" />
<glyph unicode="&#xe986;" glyph-name="uniE989" horiz-adv-x="1793" d="M1609.539 357.564c-11.594 0-23.187 0-34.843 0-4.132 0-6.907 1.542-6.845 5.673s2.837 6.167 6.845 6.167h69.747c4.008 0 6.722-1.912 6.598-6.167s-2.713-5.427-6.598-5.365c-11.532-0.247-23.126-0.308-34.904-0.308z" />
<glyph unicode="&#xe987;" glyph-name="uniE98A" horiz-adv-x="1793" d="M475.955 260.93c-11.1 0-22.201 0-33.301 0-4.317 0-7.894 0.863-7.77 6.167s3.823 5.735 8.017 5.735c22.201 0 44.463 0 66.663 0 4.378 0 8.325-0.617 8.325-6.167s-3.885-5.673-8.017-5.673c-11.285 0-22.694-0.062-33.917-0.062z" />
<glyph unicode="&#xe988;" glyph-name="uniE98B" horiz-adv-x="1793" d="M213.372 104.724c-7.154 0-14.369 0-21.522 0-4.070 0-6.969 1.172-7.092 5.488s2.652 6.167 6.66 6.167h44.216c4.008 0 6.722-1.788 6.537-6.167s-2.837-5.427-6.66-5.365c-7.339-0.062-14.739-0.123-22.139-0.123z" />
<glyph unicode="&#xe989;" glyph-name="uniE98C" horiz-adv-x="1793" d="M165.086 897.16h-19.487c-3.762 0-6.167 1.788-6.167 5.427-0.046 0.263-0.072 0.565-0.072 0.873 0 2.963 2.402 5.365 5.365 5.365 0.308 0 0.611-0.026 0.905-0.076l-0.032 0.004h39.036c3.823 0 6.167-1.973 6.167-5.797s-2.405-5.797-6.167-5.735c-6.537 0-13.012-0.062-19.549-0.062z" />
<glyph unicode="&#xe98a;" glyph-name="uniE98D" horiz-adv-x="1793" d="M911.826 198.398c0-0.072 0-0.158 0-0.243 0-47.035-38.129-85.164-85.164-85.164s-85.164 38.129-85.164 85.164c0 46.774 37.708 84.741 84.384 85.16h0.040c0.22 0.002 0.48 0.003 0.74 0.003 46.949 0 85.025-37.99 85.163-84.907v-0.013zM826.354 125.013c0.073 0 0.16 0 0.247 0 40.461 0 73.262 32.8 73.262 73.262s-32.8 73.262-73.262 73.262c-40.418 0-73.191-32.73-73.262-73.131v-0.007c0.343-40.261 32.784-72.833 72.963-73.385l0.052-0.001z" />
<glyph unicode="&#xe98b;" glyph-name="uniE98E" horiz-adv-x="1793" d="M592.939 222.202c0 0 0 0 0 0 12.397 0 22.447-10.050 22.447-22.447 0-0.043 0-0.087 0-0.13v0.007c0-0.037 0-0.080 0-0.124 0-12.533-10.16-22.694-22.694-22.694-0.043 0-0.087 0-0.13 0h0.007c-12.438 0.205-22.462 10.251-22.632 22.678v0.016c0 0.001 0 0.001 0 0.002 0 12.533 10.16 22.694 22.694 22.694 0.108 0 0.217-0.001 0.325-0.002h-0.016zM581.716 199.446c0.17-6.091 5.116-10.972 11.217-11.039h0.006c5.797 0.445 10.333 5.258 10.333 11.131s-4.536 10.686-10.295 11.129l-0.038 0.002c-6.185-0.035-11.189-5.039-11.224-11.22v-0.003z" />
<glyph unicode="&#xe98c;" glyph-name="uniE98F" horiz-adv-x="1793" d="M709.184-29.774c-0.056-0.001-0.121-0.001-0.187-0.001-12.261 0-22.201 9.94-22.201 22.201 0 0.109 0.001 0.217 0.002 0.326v-0.016c0 12.499 10.133 22.632 22.632 22.632s22.632-10.133 22.632-22.632v0c0.001-0.076 0.001-0.166 0.001-0.255 0-12.295-9.967-22.262-22.262-22.262-0.217 0-0.434 0.003-0.65 0.009l0.032-0.001zM720.593-7.327c-0.197 6.233-5.182 11.239-11.387 11.47l-0.021 0.001c-6.063-0.225-10.93-5.049-11.223-11.073l-0.001-0.027c0.445-5.797 5.258-10.333 11.131-10.333s10.686 4.536 11.129 10.295l0.002 0.038z" />
<glyph unicode="&#xe98d;" glyph-name="uniE990" horiz-adv-x="1793" d="M969.547-7.265c0.006-0.185 0.009-0.402 0.009-0.62 0-12.091-9.801-21.892-21.892-21.892-0.133 0-0.266 0.001-0.399 0.004h0.020c-0.11-0.002-0.24-0.003-0.37-0.003-12.479 0-22.599 10.099-22.632 22.57v0.003c0.139 12.529 10.328 22.633 22.878 22.633 0.066 0 0.131 0 0.196-0.001h-0.010c12.277-0.068 22.204-10.037 22.204-22.324 0-0.13-0.001-0.26-0.003-0.39v0.020zM958.077-7.265c-0.102 6.123-5.039 11.060-11.152 11.162h-0.010c-6.055-0.424-10.827-5.367-10.977-11.456v-0.015c0.356-5.897 5.117-10.572 11.018-10.791l0.021-0.001c0.019 0 0.040 0 0.062 0 6.096 0 11.039 4.942 11.039 11.039 0 0.043 0 0.087-0.001 0.13v-0.007z" />
<glyph unicode="&#xe98e;" glyph-name="uniE991" horiz-adv-x="1793" d="M1067.476 222.202c12.401-0.174 22.388-10.268 22.388-22.694 0-12.535-10.161-22.696-22.696-22.696-0.108 0-0.217 0.001-0.325 0.002h0.016c-12.383 0.239-22.331 10.333-22.331 22.752 0 0.197 0.002 0.393 0.007 0.588l-0.001-0.029c0.24 12.246 10.224 22.081 22.505 22.081 0.153 0 0.306-0.002 0.459-0.005h-0.023zM1078.268 199.816c0.008 0.162 0.013 0.352 0.013 0.542 0 6.131-4.97 11.1-11.1 11.1s-11.1-4.97-11.1-11.1c0-0.365 0.018-0.725 0.052-1.081l-0.004 0.045c-0.008-0.162-0.013-0.352-0.013-0.542 0-6.131 4.97-11.1 11.1-11.1s11.1 4.97 11.1 11.1c0 0.365-0.018 0.725-0.052 1.081l0.004-0.045z" />
<glyph unicode="&#xe98f;" glyph-name="uniE992" horiz-adv-x="1793" d="M969.547 406.343c0-0.018 0-0.040 0-0.062 0-12.397-10.050-22.447-22.447-22.447-0.022 0-0.043 0-0.065 0h0.003c-12.591 0.208-22.723 10.447-22.756 23.061v0.003c0.242 12.381 10.336 22.324 22.751 22.324 0.023 0 0.046 0 0.069 0h-0.004c0.134 0.003 0.291 0.005 0.449 0.005 12.159 0 22.016-9.857 22.016-22.016 0-0.305-0.006-0.609-0.019-0.911l0.001 0.043zM958.015 406.343c-0.441 5.698-5.173 10.155-10.946 10.155s-10.505-4.457-10.944-10.117l-0.002-0.038c-0.020-0.246-0.031-0.533-0.031-0.822 0-6.062 4.915-10.977 10.977-10.977s10.977 4.915 10.977 10.977c0 0.289-0.011 0.576-0.033 0.86l0.002-0.038z" />
<glyph unicode="&#xe990;" glyph-name="uniE993" horiz-adv-x="1793" d="M731.94 406.775c0-0.046 0.001-0.1 0.001-0.154 0-12.5-10.133-22.633-22.633-22.633-12.446 0-22.545 10.045-22.632 22.47v0.008c0 0.046-0.001 0.1-0.001 0.154 0 12.5 10.133 22.633 22.633 22.633 12.446 0 22.545-10.045 22.632-22.47v-0.008zM720.469 406.405c-0.124 5.85-4.73 10.585-10.516 10.914l-0.030 0.001c-0.209 0.014-0.452 0.022-0.698 0.022-5.866 0-10.663-4.575-11.018-10.351l-0.002-0.031c-0.034-0.328-0.054-0.71-0.054-1.095 0-6.165 4.997-11.162 11.162-11.162s11.162 4.997 11.162 11.162c0 0.147-0.003 0.293-0.008 0.438l0.001-0.021z" />
</font>
</defs>
</svg>
