<svg xmlns="http://www.w3.org/2000/svg" class="fxs-portal-svg" id="FxSymbol0-051" role="presentation" viewBox="0 0 50 50" focusable="false" xmlns:xlink="http://www.w3.org/1999/xlink" xmlns:svg="http://www.w3.org/2000/svg">
<g>
<title/>
<path class="msportalfx-svg-c15" fill="#59b4d9" d="M 40.193 44.839 a 24.898 24.898 0 0 1 -15.167 5.151 c -7.52 0 -14.956 -3.376 -19.87 -9.803 C -3.24 29.225 -1.168 13.548 9.814 5.148 C 14.343 1.663 19.686 0 24.979 0 c 7.52 0 14.958 3.376 19.87 9.809 c 8.398 10.959 6.305 26.639 -4.656 35.03"/>
<path class="msportalfx-svg-c01" fill="#ffffff" d="M 35.6 29.378 a 5.385 5.385 0 0 0 7.541 1.004 c 0.123 -0.094 0.218 -0.208 0.33 -0.309 c 2.409 1.697 4.082 2.817 5.025 3.459 c 0.279 -0.723 0.472 -1.417 0.67 -2.142 a 130.857 130.857 0 0 1 -4.29 -3.356 c 0.639 -1.68 0.437 -3.64 -0.73 -5.171 a 5.36 5.36 0 0 0 -6.936 -1.377 a 224.317 224.317 0 0 1 -8.293 -7.833 c 9.165 -4.929 15.676 -4.207 15.676 -4.207 c -1.087 -1.386 -2.305 -2.6 -3.606 -3.697 c -3.865 -0.597 -9.869 -0.53 -16.729 3.119 l -0.002 -0.003 h -0.001 a 200.322 200.322 0 0 1 -6.983 -7.712 A 23.264 23.264 0 0 0 13.96 2.5 c 1.749 2.862 4.102 5.749 6.754 8.565 l 0.017 0.017 a 46.293 46.293 0 0 0 -6.944 6.015 c -0.29 0.309 -0.569 0.62 -0.842 0.931 a 7.546 7.546 0 0 0 -4.117 0.282 C 6.564 13.425 6.746 9.501 7.104 7.478 c -0.983 1.03 -1.901 2.113 -2.692 3.267 c -0.591 2.415 -0.759 5.898 0.985 10.095 a 7.538 7.538 0 0 0 -0.005 9.153 c 0.176 0.229 0.364 0.442 0.559 0.645 a 37.87 37.87 0 0 0 -1.46 8.761 c 0.237 0.322 0.237 0.582 0.472 0.896 c 1.199 1.538 2.705 2.834 4.16 4.008 c -0.18 -2.75 0.014 -6.806 1.714 -11.372 a 7.507 7.507 0 0 0 3.483 -0.566 c 0.64 0.563 1.31 1.132 2.025 1.711 a 41.672 41.672 0 0 0 7.285 4.643 a 4.974 4.974 0 0 0 0.968 3.518 a 4.998 4.998 0 0 0 6.983 0.919 a 4.918 4.918 0 0 0 1.108 -1.216 c 3.889 0.866 7.287 1.019 9.806 1.019 c 0.386 0 2.177 -2.436 3.203 -3.946 c -1.534 0.321 -6.083 0.946 -12.3 -0.84 a 4.952 4.952 0 0 0 -0.898 -1.98 c -1.579 -2.07 -4.466 -2.518 -6.618 -1.133 a 46.853 46.853 0 0 1 -6.758 -4.49 a 46.422 46.422 0 0 1 -1.359 -1.118 a 7.578 7.578 0 0 0 0.318 -7.55 c 0.286 -0.286 0.567 -0.573 0.871 -0.857 c 2.311 -2.159 4.485 -3.887 6.519 -5.274 c -0.082 -0.076 -0.156 -0.156 -0.236 -0.233 c 0.081 0.075 0.157 0.152 0.239 0.227 l -0.002 0.001 c 3.121 2.886 6.43 5.621 9.564 8.065 c -0.829 1.758 -0.699 3.899 0.562 5.547 Z"/>
</g>
</svg>