<svg xmlns="http://www.w3.org/2000/svg" width="2500" height="1968" viewBox="1.578 2.186 1087.411 855.842"><path fill="#F7A80D" d="M318.839 547.785l-99.62 42.792 92.26 39.455 106.98-39.455-99.62-42.792zm-149.773 53.49l-3.338 192.564 145.75 64.188V658.104l-142.412-56.829zm299.545 0l-131.715 50.152V839.97l131.715-53.49V601.275zM625.743 2.186L525.438 44.979l92.944 39.454 106.98-39.454-99.619-42.793zm-139.074 56.85V251.6l124.354 36.116 4.022-175.191-128.376-53.489zm278.149 10.697L647.14 119.886v189.227l117.679-53.49V69.733zM154.688 273.21l-99.62 42.792 92.26 39.455 106.98-39.455-99.62-42.792zM4.916 326.7L1.578 519.265l145.75 64.188V383.528L4.916 326.7zm299.545 0l-131.714 50.152v188.542l131.714-53.49V326.7zm171.168-60.594l-99.62 42.792 92.26 39.455 106.98-39.455-99.62-42.792zm-149.773 53.491l-3.338 192.564 145.75 64.188V376.446l-142.412-56.849zm299.545 0l-131.714 50.152v188.542l131.714-53.49V319.597zM939.217 2.186l-99.619 42.792 92.26 39.454 106.979-39.454-99.62-42.792zm-149.773 53.49l-3.337 192.564 145.75 64.188V112.525L789.444 55.676zm299.545 0l-131.714 50.152V294.37l131.714-53.49V55.676z"/></svg>