<svg xmlns="http://www.w3.org/2000/svg" class="" id="FxSymbol0-0a5" role="presentation" viewBox="0 0 50 50" focusable="false" xmlns:xlink="http://www.w3.org/1999/xlink" xmlns:svg="http://www.w3.org/2000/svg">
<g>
<title/>
<path class="msportalfx-svg-c19" fill="#0072c6" d="M 39 22 v -2 H 24.004 l -0.008 -0.004 L 16.991 27 H 11.82 l 12 -12 H 32 v -2 h -9 v 0.005 L 22.992 13 L 8.991 27 H 7 v 2 h 6 l 7 6.999 V 36 h 17 v -2 H 20.828 l -4.999 -5 H 28 v -2 h -8.18 l 5 -5 Z"/>
<circle class="msportalfx-svg-c15" fill="#59b4d9" cx="30" cy="28" r="2.9"/>
<ellipse class="msportalfx-svg-c15" fill="#59b4d9" transform="rotate(-45.001 33 14)" cx="33" cy="14" rx="2.9" ry="2.9"/>
<ellipse class="msportalfx-svg-c13" fill="#b8d432" transform="rotate(-45.001 40 21)" cx="40" cy="21" rx="2.9" ry="2.9"/>
<ellipse class="msportalfx-svg-c13" fill="#b8d432" transform="rotate(-45.001 37 35)" cx="37" cy="35" rx="2.9" ry="2.9"/>
<path class="msportalfx-svg-c19" fill="#0072c6" d="M 0.801 0 C 0.3 0 0 0.3 0 0.8 v 10 c 0 0.5 0.3 0.8 0.801 0.8 h 5.008 c 0.501 0 0.801 -0.3 0.801 -0.8 V 6.7 h 36.76 v 4.2 c 0 0.5 0.3 0.8 1.002 0.8 h 4.808 c 0.501 0 0.801 -0.3 0.801 -0.8 V 0.9 c 0.1 -0.6 -0.2 -0.9 -0.701 -0.9 H 0.801 Z M 49.2 50 c 0.5 0 0.8 -0.3 0.8 -0.8 v -9.8 c 0 -0.5 -0.3 -0.8 -0.8 -0.8 h -4.8 c -0.5 0 -0.8 0.3 -0.8 0.8 v 4 H 6.7 v -4.2 c 0 -0.5 -0.3 -0.8 -1 -0.8 H 0.8 c -0.5 0 -0.8 0.3 -0.8 1 v 9.8 c 0 0.5 0.3 0.8 0.8 0.8 h 48.4 Z"/>
</g>
</svg>