<svg xmlns="http://www.w3.org/2000/svg" class="" id="FxSymbol0-08e" role="presentation" viewBox="0 0 30032 31001" focusable="false" xmlns:xlink="http://www.w3.org/1999/xlink" xmlns:svg="http://www.w3.org/2000/svg">
<g>
<title/>
<path fill="#777" d="M 9687 31000 h 10656 c 1066 0 1938 -871 1938 -1937 V 9688 c 0 -1066 -877 -1937 -1938 -1937 l -10656 -1 c -1061 0 -1938 877 -1938 1938 v 19374 c 0 1061 872 1938 1938 1938 Z"/>
<path fill="#000" d="M 11625 9687 c -1070 0 -1938 868 -1938 1938 s 868 1937 1938 1937 h 6781 c 1070 0 1937 -867 1937 -1937 s -867 -1937 -1937 -1937 l -6781 -1 Z"/>
<path class="msportalfx-svg-c13" fill="#b8d432" d="M 11625 12594 c 535 0 969 -434 969 -969 s -434 -969 -969 -969 s -969 434 -969 969 s 434 969 969 969 Z"/>
<path fill="#000" d="M 11625 15501 c -1070 0 -1938 867 -1938 1937 s 868 1937 1938 1937 h 6781 c 1070 0 1937 -867 1937 -1937 s -867 -1938 -1937 -1938 l -6781 1 Z"/>
<path class="msportalfx-svg-c13" fill="#b8d432" d="M 11625 18407 c 535 0 969 -434 969 -969 s -434 -969 -969 -969 s -969 434 -969 969 s 434 969 969 969 Z"/>
<path fill="#777" d="M 23250 23250 h 4844 c 1066 0 1938 -872 1938 -1937 V 1938 c 0 -1066 -877 -1938 -1938 -1938 H 17438 c -1061 0 -1938 877 -1938 1938 v 4844 h 4844 c 1599 0 2906 1307 2906 2906 v 13562 Z"/>
<path fill="#000" d="M 19375 1937 c -1070 0 -1937 868 -1937 1938 c 0 1069 867 1937 1937 1937 h 6782 c 1070 0 1937 -867 1937 -1937 s -867 -1937 -1937 -1937 l -6782 -1 Z"/>
<path class="msportalfx-svg-c13" fill="#b8d432" d="M 19375 4843 c 535 0 969 -434 969 -968 c 0 -535 -434 -969 -969 -969 s -969 434 -969 969 c 0 534 434 968 969 968 Z"/>
<path fill="#000" d="M 23250 11625 h 2907 c 1070 0 1937 -868 1937 -1938 c 0 -1069 -867 -1937 -1937 -1937 l -3652 1 c 463 515 745 1194 745 1937 v 1937 Z"/>
<path fill="#777" d="M 1938 23250 h 4843 V 9688 c 0 -1599 1308 -2906 2906 -2906 h 4845 V 1938 c 0 -1066 -877 -1938 -1938 -1938 H 1938 C 877 0 0 877 0 1938 v 19374 c 0 1061 872 1938 1938 1938 Z"/>
<path fill="#000" d="M 3875 1937 c -1070 0 -1937 868 -1937 1938 c 0 1069 867 1937 1937 1937 h 6782 c 1070 0 1937 -867 1937 -1937 s -867 -1937 -1937 -1937 l -6782 -1 Z"/>
<path class="msportalfx-svg-c13" fill="#b8d432" d="M 3875 4843 c 535 0 969 -434 969 -968 c 0 -535 -434 -969 -969 -969 s -969 434 -969 969 c 0 534 434 968 969 968 Z"/>
<path fill="#000" d="M 3875 7751 c -1070 0 -1937 867 -1937 1937 s 867 1937 1937 1937 h 2906 V 9688 c 0 -743 283 -1423 745 -1938 l -3651 1 Z"/>
<path class="msportalfx-svg-c13" fill="#b8d432" d="M 3875 10657 c 535 0 969 -434 969 -969 s -434 -969 -969 -969 s -969 434 -969 969 s 434 969 969 969 Z"/>
<path fill="#c0ecfc" d="M 25187 31001 c 1606 0 2907 -1301 2907 -2907 c 0 -1731 -1498 -3068 -3213 -2890 c 924 -4482 -2493 -8735 -7116 -8735 c -3028 0 -5622 1851 -6714 4484 c -3161 -712 -6207 1684 -6207 4962 c 0 2808 2277 5085 5085 5085 l 15258 1 Z"/>
<path fill="#66d7f7" d="M 24882 22268 c -678 -3310 -3607 -5799 -7117 -5799 c -3028 0 -5622 1851 -6714 4484 c -361 -81 -736 -124 -1122 -124 c -2808 0 -5085 2277 -5085 5086 c 0 2808 2277 5085 5085 5085 h 3420 c -2280 0 -4128 -1848 -4128 -4128 s 1848 -4129 4128 -4129 c 313 0 618 35 911 101 c 886 -2136 2992 -3639 5449 -3639 c 2230 0 4171 1237 5173 3063 Z"/>
</g>
</svg>