<?xml version="1.0" encoding="UTF-8"?>
<svg width="226px" height="156px" viewBox="0 0 226 156" version="1.1" xmlns="http://www.w3.org/2000/svg" xmlns:xlink="http://www.w3.org/1999/xlink">
    <!-- Generator: Sketch 47.1 (45422) - http://www.bohemiancoding.com/sketch -->
    <title>Bankrupt</title>
    <desc>Created with Sketch.</desc>
    <defs></defs>
    <g id="Final-Screens" stroke="none" stroke-width="1" fill="none" fill-rule="evenodd" stroke-linecap="round" stroke-linejoin="round">
        <g id="Bankrupt" transform="translate(1.000000, 1.477165)" stroke-width="2">
            <path d="M0,5.94 L11.58,5.64" id="Shape" stroke="#555555"></path>
            <path d="M5.94,11.58 L5.64,0" id="Shape" stroke="#555555"></path>
            <path d="M215.15,49.4 L215.19,63.75" id="Shape" stroke="#555555"></path>
            <path d="M208,56.6 L222.34,56.55" id="Shape" stroke="#555555"></path>
            <path d="M85.33,38.29 L85.31,47.8" id="Shape" stroke="#555555"></path>
            <path d="M80.57,43.03 L90.07,43.06" id="Shape" stroke="#555555"></path>
            <path d="M82.8,145.18 L82.78,152.57" id="Shape" stroke="#555555"></path>
            <path d="M79.1,148.86 L86.48,148.88" id="Shape" stroke="#555555"></path>
            <path d="M72.68,102.06 L72.65,112.35" id="Shape" stroke="#555555"></path>
            <path d="M67.52,107.19 L77.81,107.22" id="Shape" stroke="#555555"></path>
            <path d="M211.22,130.94 L211.21,136.85" id="Shape" stroke="#555555"></path>
            <path d="M208.26,133.89 L214.17,133.9" id="Shape" stroke="#555555"></path>
            <circle id="Oval" stroke="#555555" cx="73.51" cy="20.06" r="2.3"></circle>
            <circle id="Oval" stroke="#555555" cx="68.83" cy="131.04" r="4.68"></circle>
            <circle id="Oval" stroke="#555555" cx="220.15" cy="146.45" r="3.82"></circle>
            <path d="M198.07,119.54 L198.07,141.31 C198.07,143.768557 197.093342,146.126418 195.35488,147.86488 C193.616418,149.603342 191.258557,150.58 188.8,150.58 L104.71,150.58 C102.251443,150.58 99.8935824,149.603342 98.1551201,147.86488 C96.4166579,146.126418 95.44,143.768557 95.44,141.31 L95.44,68.62 C95.44,63.5003204 99.5903204,59.35 104.71,59.35 L139.82,59.35" id="Shape" stroke="#F01F86"></path>
            <path d="M183.19,59.35 L188.8,59.35 C191.258557,59.35 193.616418,60.3266579 195.35488,62.0651201 C197.093342,63.8035824 198.07,66.1614431 198.07,68.62 L198.07,92.45" id="Shape" stroke="#F01F86"></path>
            <polygon id="Shape" stroke="#555555" points="168.78 46.45 173.36 44.08 192.41 73.84 186.09 73.84"></polygon>
            <polygon id="Shape" stroke="#555555" points="116.03 73.84 167.28 44.08 186.09 73.84"></polygon>
            <polyline id="Shape" stroke="#F01F86" points="103.83 73.84 116.03 73.84 198.07 73.84"></polyline>
            <path d="M174.82,92.45 C167.336542,92.4500002 161.27,98.5165418 161.27,106 C161.27,113.483458 167.336542,119.55 174.82,119.55 L203.16,119.55 L203.16,92.45 L174.82,92.45 Z" id="Shape" stroke="#F01F86"></path>
            <circle id="Oval" stroke="#555555" cx="175.47" cy="105.91" r="7.58"></circle>
            <path d="M51.25,36.74 C54.13,35.44 64.18,45.12 65.74,46.86 C71.38,53.16 73.22,62.86 68.57,70.24 C64.74,76.31 57.48,79.18 50.67,80.29 C39.38,82.14 21.84,80.06 16,68.52 C14.4015935,65.2507335 14.0461884,61.5118728 15,58 C16.69,51.34 22.19,46.21 27,41.68 C28.38,40.39 31.43,37.51 33.66,37.95 C33.66,37.9 44.07,40 51.25,36.74 Z" id="Shape" stroke="#F01F86"></path>
            <path d="M25,20.36 C26,21.52 27.17,22.58 27.89,23.36 L32.97,28.82 C33.6401296,29.6054155 34.4298096,30.2803557 35.31,30.82 C36.0674562,31.20478 36.8807319,31.4679979 37.72,31.6 C41.09,32.25 48.42,33.06 51.03,30.09 C51.87,29.09 52.29,27.52 53.11,26.44 C55,24 57.42,22.06 58.89,19.33 C59.774603,17.6470349 60.2765592,15.7894556 60.36,13.89 C60.476338,12.8394492 60.35326,11.7761922 60,10.78 C58.77,7.84 54.52,7.89 51.84,7.89 L35.36,7.89 C34.6876656,7.85683936 34.0140632,7.92083158 33.36,8.08 C29.95,9.08 31.56,12.08 31.56,13.93 L26.28,13.93 C25.0252733,14.1781195 23.9779819,15.0377243 23.49,16.22 C23,17.58 23.87,19 25,20.36 Z" id="Shape" stroke="#F01F86"></path>
            <path d="M31.57,13.93 L39.42,13.93" id="Shape" stroke="#F01F86"></path>
            <path d="M60.36,13.89 L46.67,13.89 C45.29,13.89 45.02,16.01 45.4,16.89 C45.7901855,17.8018651 46.6601862,18.4166655 47.65,18.48 C48.3359807,18.374676 49.0340193,18.374676 49.72,18.48 C50.0819916,18.6402148 50.3907471,18.900402 50.61,19.23 C51.1119772,19.9375524 51.3198967,20.8122481 51.19,21.67 C51.0152629,22.5889182 50.6052559,23.4468318 50,24.16 C49.8364173,24.4031419 49.6124215,24.599569 49.35,24.73 C49.1366826,24.7965205 48.9130326,24.8236296 48.69,24.81 L35,24.81" id="Shape" stroke="#F01F86"></path>
            <path d="M24.47,19.35 L38.06,19.35 C38.06,19.35 40.93,21.18 38.66,24.81" id="Shape" stroke="#F01F86"></path>
            <path d="M34.47,30.22 L34.47,37.55" id="Shape" stroke="#F01F86"></path>
            <path d="M51,30.1 L51,36.74" id="Shape" stroke="#F01F86"></path>
            <path d="M48.41,51.7 C48.41,51.7 40.93,46.7 38.33,51.48 C36.18,55.48 40.33,56.91 40.33,56.91 L45.77,58.58 C47.5019024,59.017377 48.6239869,60.6918724 48.37,62.46 C48.2035881,64.3450246 46.738994,65.8555177 44.86,66.08 C44.86,66.08 38.29,66.87 36.2,62.97" id="Shape" stroke="#555555"></path>
            <path d="M42.86,45.14 L42.86,70.61" id="Shape" stroke="#555555"></path>
        </g>
    </g>
</svg>