<?xml version="1.0" encoding="UTF-8"?>
<svg width="259px" height="182px" viewBox="0 0 259 182" version="1.1" xmlns="http://www.w3.org/2000/svg" xmlns:xlink="http://www.w3.org/1999/xlink">
    <!-- Generator: Sketch 47.1 (45422) - http://www.bohemiancoding.com/sketch -->
    <title>Controlled-Access</title>
    <desc>Created with Sketch.</desc>
    <defs></defs>
    <g id="Final-Screens" stroke="none" stroke-width="1" fill="none" fill-rule="evenodd">
        <g id="Controlled-Access" transform="translate(-1.000000, 0.000000)" fill-rule="nonzero">
            <path d="M161.94,0 C162.199639,0.120627074 162.466873,0.224180477 162.74,0.31 C166.923972,1.36836917 169.861236,5.12428296 169.88,9.44 L169.88,67.33 L179.45,67.33 C184.320838,67.3659579 188.377067,71.0764464 188.845684,75.9248224 C189.3143,80.7731984 186.043786,85.191848 181.27,86.16 C180.481069,86.3002197 179.681295,86.3704927 178.88,86.37 C176.77,86.37 174.66,86.37 172.44,86.37 C172.44,86.98 172.54,87.55 172.54,88.11 C172.54,92 172.54,95.89 172.54,99.78 C172.612824,100.812099 172.250166,101.82754 171.54,102.58 C172.359398,103.639244 172.719633,104.982919 172.54,106.31 C172.54,109.95 172.54,113.59 172.54,117.23 C172.438276,118.216947 172.254303,119.193675 171.99,120.15 C172.498803,121.156289 172.700501,122.28997 172.57,123.41 C172.57,126.97 172.57,130.53 172.57,134.08 C172.57,135.85 172.11,137.25 170.24,137.86 C170.06,137.86 169.92,138.38 169.91,138.66 C169.91,140.91 169.91,143.16 169.91,145.41 C169.945618,147.968497 168.94221,150.432079 167.129139,152.237611 C165.316068,154.043144 162.848326,155.036278 160.29,154.99 C150.956667,154.99 141.623333,154.99 132.29,154.99 C131.737988,154.96046 131.199591,155.167815 130.81,155.56 C125.3,160.85 119.81,166.1 114.27,171.4 C109.402562,176.366305 103.215741,179.8362 96.44,181.4 C95.0279838,181.691365 93.591607,181.84873 92.15,181.87 C88.34,181.93 84.54,181.87 80.73,181.87 C80.453701,181.89017 80.176299,181.89017 79.9,181.87 C79.35,181.78 78.99,181.39 79.13,180.87 C79.3020682,180.465102 79.5866523,180.118049 79.95,179.87 C80.08,179.76 80.38,179.87 80.6,179.87 C83.96,179.87 87.32,179.78 90.68,179.87 C95.4199163,179.907934 100.086293,178.697367 104.21,176.36 C107.410408,174.618776 110.343767,172.426333 112.92,169.85 C117.77,165.13 122.69,160.46 127.57,155.78 C127.79,155.56 128.02,155.36 128.4,154.99 L92.12,154.99 C91.43,154.99 90.81,154.91 90.74,154.04 C90.703237,153.787782 90.7727563,153.531615 90.9319807,153.332585 C91.0912051,153.133554 91.3258636,153.009499 91.58,152.99 C91.8563054,152.970006 92.1336946,152.970006 92.41,152.99 L160,152.99 C162.113911,153.100572 164.175481,152.30909 165.672286,150.812286 C167.16909,149.315481 167.960572,147.253911 167.85,145.14 L167.85,138 L166.85,138 C164.16,138 161.46,138 158.77,138 C156.0937,138.005348 153.535885,136.89672 151.71,134.94 C151.416867,134.634084 151.022187,134.445633 150.6,134.41 C135.133333,134.41 119.66,134.41 104.18,134.41 L103.69,134.41 C103.26,136.25 102.91,138.11 102.38,139.91 C101.85,141.71 101.2,143.31 100.57,145 C100.29,145.75 99.73,146 99.15,145.76 C98.57,145.52 98.4,144.96 98.72,144.21 C100.24351,140.752505 101.234744,137.084266 101.66,133.33 C102.33,126.52 100.95,120.25 96.66,114.76 L96.6,114.69 C94.81,112.69 94.97,113.43 95.98,110.69 C97.58,106.28 99.25,101.9 100.83,97.49 C101.003338,96.7447059 101.685822,96.2307364 102.45,96.27 C106.2,96.14 109.94,95.92 113.68,95.85 C116.261723,95.7787997 118.823216,95.3720535 121.3,94.64 C122.691027,94.1428553 123.954637,93.3437073 125,92.3 C127.582552,90.2615976 129.676925,87.6718182 131.13,84.72 C132.516694,81.9653785 133.046131,78.8584213 132.65,75.8 C132.51,74.96 132.26,74.61 131.31,74.62 C123.23,74.62 115.15,74.62 107.07,74.62 C104.15,74.62 101.23,74.62 98.32,74.7 C97.02,74.7 95.73,74.95 94.43,75.11 C93.3650275,75.2317918 92.3806019,75.7364432 91.66,76.53 C89.89,78.36 87.94,80.03 86.02,81.71 C81.45,85.71 76.83,89.71 72.27,93.71 C68.3767652,96.952958 65.0599994,100.830971 62.46,105.18 C61.2753821,107.133017 60.5155457,109.313713 60.23,111.58 C60.14,112.58 60.3,113.58 60.3,114.64 C60.3,125.08 60.3,135.523333 60.3,145.97 C60.3117307,146.552252 60.0346807,147.102608 59.56,147.44 L29.08,172.82 L19.8,180.56 C19.65,180.68 19.51,180.81 19.35,180.92 C18.9174506,181.207523 18.3367902,181.116037 18.0136015,180.709445 C17.6904128,180.302853 17.7322976,179.716524 18.11,179.36 C19.11,178.5 20.11,177.67 21.11,176.83 C33.27,166.696667 45.4333333,156.573333 57.6,146.46 C58.0811831,146.091086 58.3443017,145.504708 58.3,144.9 C58.3,134.99 58.3,125.07 58.3,115.16 C58.2201609,113.807844 58.2201609,112.452156 58.3,111.1 C58.78,107.24 60.64,103.96 62.87,100.87 C65.603499,97.2147081 68.76615,93.9009751 72.29,91 C73.17,90.25 74.37,89.62 74.81,88.65 C75.25,87.68 74.96,86.36 74.96,85.2 C74.96,60.12 74.96,35.0366667 74.96,9.95 C74.7379493,5.24461628 77.9975498,1.08713629 82.62,0.18 C82.7327833,0.13158899 82.840061,0.0712452907 82.94,1.33670852e-15 L161.94,0 Z M115,72.61 L133.21,72.61 C133.52,72.93 134,73.21 134.1,73.61 C134.399384,74.7317097 134.610034,75.8752395 134.73,77.03 C134.851881,79.4690954 134.46713,81.9069916 133.6,84.19 L132.53,86.5 L130.15,90 L128.82,91.51 C128.04,92.23 127.31,93 126.49,93.66 C125.441411,94.623477 124.26746,95.4408697 123,96.09 C120.136526,97.2322139 117.082869,97.8225877 114,97.83 C110.5,97.89 107,98.07 103.51,98.19 C103.050829,98.1717245 102.638306,98.4687409 102.51,98.91 C100.95,103.243333 99.3633333,107.576667 97.75,111.91 C97.5490282,112.33593 97.6415054,112.842544 97.98,113.17 C101.419223,117.328618 103.446924,122.473167 103.77,127.86 C103.89,129.34 103.77,130.86 103.77,132.36 L150,132.36 C148.3,127.05 149.74,122.91 154.43,119.95 C151.1,117.95 149.23,115.14 149.31,111.23 C149.39,107.32 151.45,104.52 154.92,102.67 L154.1,102.23 C150.263135,100.046374 148.423065,95.5174598 149.649691,91.2765697 C150.876316,87.0356796 154.84989,84.18829 159.26,84.39 C160.42,84.39 161.57,84.39 162.75,84.39 L162.75,26.83 L82.18,26.83 L82.18,82.39 C82.79,81.86 83.31,81.39 83.82,80.96 C85.88,79.11 88.07,77.36 89.95,75.34 C90.9206705,74.2011106 92.2634311,73.4429291 93.74,73.2 C95.2422766,72.9467754 96.7582883,72.783153 98.28,72.71 C100.64,72.61 103,72.64 105.36,72.61 L115,72.61 Z M77,86.94 C77.89,86.17 78.61,85.48 79.4,84.94 C79.9469833,84.5233145 80.241558,83.8548563 80.18,83.17 C80.18,60.2766667 80.18,37.39 80.18,14.51 C80.18,13.22 80.45,12.95 81.75,12.95 L163.16,12.95 C164.53,12.95 164.8,13.22 164.8,14.62 L164.8,84.29 L167.89,84.29 L167.89,66.89 C167.89,47.89 167.84,28.89 167.89,9.89 C167.928365,7.78591506 167.109426,5.75669448 165.621366,4.26863445 C164.133306,2.78057441 162.104085,1.96163466 160,2 C134.933333,2 109.86,2 84.78,2 C82.6831144,1.93427825 80.653429,2.7439967 79.1775862,4.23501533 C77.7017433,5.72603395 76.9128307,7.76389642 77,9.86 L77,86.94 Z M82.21,24.68 L162.72,24.68 L162.72,15 L82.18,15 L82.21,24.68 Z M170.54,111.44 L170.54,111.44 C170.54,109.44 170.54,107.33 170.54,105.28 C170.54,104.13 170.2,103.86 169.07,103.86 C165.66,103.86 162.24,103.86 158.83,103.86 C155.77945,103.774851 153.00659,105.62209 151.91,108.47 C150.948043,110.673136 151.11784,113.2065 152.365199,115.261559 C153.612558,117.316617 155.781575,118.636515 158.18,118.8 C161.81,118.93 165.45,118.8 169.08,118.8 C170.25,118.8 170.55,118.49 170.55,117.3 C170.51,115.38 170.51,113.41 170.51,111.44 L170.54,111.44 Z M170.54,93.97 L170.54,93.97 C170.54,91.89 170.54,89.81 170.54,87.73 C170.54,86.62 170.2,86.36 169.12,86.36 C165.73,86.36 162.34,86.36 158.96,86.36 C158.020414,86.3731277 157.08885,86.5351388 156.2,86.84 C152.897821,88.064614 150.892571,91.4219525 151.38,94.91 C151.862939,98.4547874 154.806496,101.150244 158.38,101.32 C161.91,101.39 165.38,101.37 168.96,101.32 C170.22,101.32 170.54,100.98 170.54,99.74 C170.51,97.86 170.51,95.92 170.51,94 L170.54,93.97 Z M170.54,128.52 L170.54,128.52 C170.54,126.41 170.54,124.3 170.54,122.19 C170.54,121.19 170.2,120.94 169.27,120.94 C165.69,120.94 162.1,120.94 158.53,120.94 C154.468016,121.065159 151.257988,124.426561 151.32,128.49 C151.371238,132.514159 154.577723,135.786711 158.6,135.92 C162.07,135.92 165.54,135.92 169.01,135.92 C170.21,135.92 170.57,135.53 170.57,134.3 C170.51,132.4 170.51,130.46 170.51,128.52 L170.54,128.52 Z M169.95,84.31 C170.26,84.31 170.53,84.31 170.8,84.31 C173.68,84.31 176.57,84.31 179.45,84.31 C183.592136,84.2741015 186.920899,80.8871356 186.885,76.745 C186.849101,72.6028644 183.462136,69.2741015 179.32,69.31 C176.49,69.31 173.66,69.31 170.83,69.31 L169.95,69.31 L169.95,84.31 Z" id="Shape" fill="#EF2589"></path>
            <path d="M34.68,38.67 L2.61,38.67 C2.36,38.67 2.04,38.76 1.87,38.67 C1.52,38.43 1.04,38.1 1,37.77 C0.96,37.44 1.34,36.96 1.65,36.69 C1.96,36.42 2.29,36.56 2.65,36.56 L66.77,36.56 C67.0759907,36.5492499 67.3820432,36.5795188 67.68,36.65 C68.1862551,36.7736926 68.5126409,37.2654473 68.43,37.78 C68.388203,38.3008219 67.9524937,38.7016745 67.43,38.7 L34.68,38.7 L34.68,38.67 Z" id="Shape" fill="#585858"></path>
            <path d="M224,154.69 L257.49,154.69 C257.77,154.69 258.13,154.6 258.31,154.69 C258.49,154.78 259.05,155.35 259.07,155.69 C259.09,156.03 258.62,156.36 258.3,156.6 C257.98,156.84 257.81,156.6 257.56,156.6 L190.19,156.6 C189.99346,156.609975 189.79654,156.609975 189.6,156.6 C189.342924,156.601592 189.097438,156.493172 188.925461,156.302086 C188.753483,156.110999 188.671431,155.855488 188.7,155.6 C188.683573,155.343913 188.772555,155.092243 188.946297,154.903393 C189.120039,154.714543 189.363434,154.604934 189.62,154.6 C189.869773,154.584938 190.120227,154.584938 190.37,154.6 L224,154.69 Z" id="Shape" fill="#585858"></path>
            <path d="M190.69,172.81 L162.46,172.81 C162.21,172.81 161.89,172.9 161.72,172.81 C161.322525,172.570268 161.000308,172.223798 160.79,171.81 C160.707835,171.551589 160.743852,171.270092 160.888432,171.040692 C161.033011,170.811293 161.271426,170.657357 161.54,170.62 C161.839283,170.55867 162.144607,170.531828 162.45,170.54 L219.16,170.54 C219.49,170.54 219.92,170.54 220.16,170.68 C220.4,170.82 220.88,171.43 220.84,171.76 C220.8,172.09 220.31,172.5 219.95,172.76 C219.79,172.88 219.46,172.76 219.21,172.76 L190.69,172.81 Z" id="Shape" fill="#5B5B5B"></path>
            <path d="M123.11,138.12 C124.8,138.12 126.49,138.12 128.19,138.12 C130.919612,138.153744 133.206506,140.194802 133.549129,142.903036 C133.891752,145.61127 132.185209,148.157544 129.55,148.87 C128.987264,149.009276 128.409715,149.079791 127.83,149.08 C124.66,149.08 121.5,149.08 118.34,149.08 C114.22,149.08 111.53,145.34 112.96,141.62 C113.608835,139.625231 115.433794,138.247527 117.53,138.17 C119.38,138.04 121.25,138.17 123.11,138.17 L123.11,138.12 Z M123,147 L123,147 C124.56,147 126.11,147 127.66,147 C128.159144,147.006113 128.656872,146.945579 129.14,146.82 C130.781171,146.336404 131.814985,144.71731 131.563154,143.025007 C131.311323,141.332704 129.85087,140.08478 128.14,140.1 C124.73,140.1 121.32,140.1 117.91,140.1 C117.631811,140.10336 117.355588,140.147151 117.09,140.23 C115.450776,140.68493 114.38072,142.258292 114.56,143.95 C114.746111,145.584161 116.078381,146.848975 117.72,146.95 C119.53,147.1 121.28,147 123,147 Z" id="Shape" fill="#EF2488"></path>
            <path d="M48.37,49.52 L61.85,49.52 C62.0730821,49.5050198 62.2969179,49.5050198 62.52,49.52 C63.0408219,49.561797 63.4416745,49.9975063 63.44,50.52 C63.4830867,51.0415102 63.1168305,51.5080509 62.6,51.59 C62.3241676,51.620386 62.0458324,51.620386 61.77,51.59 L34.77,51.59 C34.5469179,51.6049802 34.3230821,51.6049802 34.1,51.59 C33.48,51.5 33.1,51.17 33.1,50.5 C33.0988571,50.2184274 33.216476,49.9494208 33.4239611,49.7590676 C33.6314461,49.5687143 33.909568,49.4746559 34.19,49.5 C34.97,49.5 35.75,49.5 36.52,49.5 L48.37,49.52 Z" id="Shape" fill="#5B5B5B"></path>
            <path d="M18,49.56 L23.9,49.56 C24.83,49.56 25.24,49.87 25.27,50.56 C25.3,51.25 24.85,51.63 23.91,51.63 L12.05,51.63 C11.11,51.63 10.65,51.26 10.68,50.57 C10.71,49.88 11.15,49.57 12.05,49.57 L18,49.56 Z" id="Shape" fill="#616161"></path>
            <path d="M232.94,172.67 C230.94,172.67 228.89,172.67 226.86,172.67 C226.17,172.67 225.72,172.43 225.65,171.72 C225.58,171.01 226.09,170.67 226.86,170.67 L239.1,170.67 C239.78,170.67 240.26,170.98 240.26,171.67 C240.26,172.36 239.8,172.67 239.1,172.67 L232.94,172.67 Z" id="Shape" fill="#555555"></path>
            <path d="M131.16,72.61 C131.285016,70.2082924 131.285016,67.8017076 131.16,65.4 C130.98,63.57 129.57,62.27 128.16,61.17 C123.29,57.4 118.44,59.17 115.53,63.17 C113.09586,66.4693324 110.464389,69.6184155 107.65,72.6 L105.38,72.6 C105.547373,72.1513302 105.769021,71.7248273 106.04,71.33 C108.04,69.1 110.04,66.93 111.94,64.68 C113.09,63.34 113.94,61.75 115.2,60.49 C117.366443,58.1496706 120.479107,56.9207936 123.66,57.15 C127.78,57.43 132.66,61.29 133.15,65.07 C133.335183,67.5790844 133.36524,70.0972103 133.24,72.61 L131.16,72.61 Z" id="Shape" fill="#585858"></path>
            <path d="M126.41,72.61 C126.855381,70.881869 126.754064,69.0581618 126.12,67.39 C125.757842,66.3712944 124.967135,65.5626692 123.956798,65.1777792 C122.946462,64.7928892 121.818156,64.8704616 120.87,65.39 C119.903552,65.8097261 119.082558,66.5054833 118.51,67.39 C117.38,69.16 116.18,70.9 115.01,72.64 L112.59,72.64 C114.19,70.24 115.66,67.74 117.44,65.49 C118.878266,63.4364483 121.413212,62.4532683 123.86,63 C126.45,63.58 127.86,65.46 128.43,68 C128.770015,69.5212322 128.770015,71.0987678 128.43,72.62 L126.41,72.61 Z" id="Shape" fill="#595959"></path>
            <path d="M133.61,84.17 C133.914944,84.8630738 134.272663,85.5317063 134.68,86.17 C135.158351,86.7632606 135.709331,87.2940827 136.32,87.75 C136.78,88.12 137.08,88.5 136.82,89.08 C136.713673,89.3384998 136.50401,89.5407008 136.241828,89.6375941 C135.979646,89.7344873 135.688879,89.7172282 135.44,89.59 C134.128222,88.9587575 133.095572,87.8655733 132.54,86.52 C132.9,85.71 133.26,84.94 133.61,84.17 Z" id="Shape" fill="#5A5A5A"></path>
            <path d="M119.66,72.61 C120.03,71.69 120.4,70.76 120.78,69.84 C121.16,68.92 121.65,68.74 122.24,69.03 C122.83,69.32 122.9,69.97 122.64,70.6 C122.38,71.23 122.12,71.94 121.86,72.6 L119.66,72.61 Z" id="Shape" fill="#5A5859"></path>
            <path d="M130.15,90 L131.49,91.34 C132.12,91.98 132.2,92.52 131.74,93 C131.28,93.48 130.74,93.42 130.1,92.8 L128.81,91.51 L130.15,90 Z" id="Shape" fill="#5B5A5A"></path>
            <path d="M122.5,51.24 C126.11,51.34 129.58,51.83 132.59,54.07 C136.707658,57.0268352 139.105127,61.8217727 139,66.89 C139,69.46 138.5,72.02 138.38,74.59 C138.29,76.69 138.38,78.8 138.48,80.89 C138.547957,81.5259674 138.767426,82.1363667 139.12,82.67 C139.357801,83.0030311 139.716938,83.2292878 140.12,83.3 C140.77,83.4 141.19,83.68 141.19,84.3 C141.19,84.92 140.76,85.3 140.11,85.3 C138.970621,85.3704982 137.895256,84.7682935 137.36,83.76 C136.66307,82.5386433 136.275153,81.1654837 136.23,79.76 C136.082548,76.5717367 136.27699,73.3768501 136.81,70.23 C137.347811,67.0604304 136.94451,63.8027293 135.65,60.86 C133.636594,56.284811 129.128417,53.3145793 124.13,53.27 C122.054853,53.0862542 119.963613,53.2450397 117.94,53.74 C115.241581,54.425624 112.936157,56.1754373 111.55,58.59 C109.894063,61.5485236 107.841759,64.2669854 105.45,66.67 C104.643808,67.4295935 103.785007,68.1313371 102.88,68.77 C102.13,69.3 101.47,69.21 101.13,68.64 C100.79,68.07 101.04,67.58 101.78,67.09 C104.240654,65.2724151 106.34287,63.0142286 107.98,60.43 C108.62,59.52 109.23,58.59 109.78,57.62 C111.747648,54.1536333 115.266181,51.8489007 119.23,51.43 C120.34,51.35 121.43,51.32 122.5,51.24 Z" id="Shape" fill="#575757"></path>
            <path d="M122.4,46.57 C127.219024,46.6894088 131.852194,48.4537538 135.53,51.57 C137.6,53.23 139.44,55.18 141.36,57.02 C141.95,57.6 141.97,58.32 141.45,58.69 C140.93,59.06 140.33,58.9 139.86,58.37 C137.496823,55.5979678 134.708838,53.2183928 131.6,51.32 C125.03,47.49 118.6,47.79 112.2,51.83 C108.745425,54.0768708 105.757363,56.9698583 103.4,60.35 C102.86,61.1 102.28,61.35 101.75,60.91 C101.22,60.47 101.22,59.91 101.75,59.22 C105.43,54.16 109.87,50.04 115.82,47.79 C117.925336,47.0024781 120.152279,46.5895799 122.4,46.57 Z" id="Shape" fill="#575757"></path>
            <path d="M121.61,41.28 C128.090872,41.2476824 134.369369,43.5356093 139.31,47.73 C139.56114,47.8871071 139.729699,48.1474754 139.77024,48.4409207 C139.810782,48.7343661 139.719134,49.0306841 139.52,49.25 C139.06,49.79 138.52,49.67 137.98,49.25 C135.217849,46.9585926 132.030125,45.2355905 128.6,44.18 C121.72,42.18 115.38,43.61 109.49,47.42 C108.014089,48.4522361 106.595333,49.5638734 105.24,50.75 C104.63,51.25 104.04,51.35 103.64,50.88 C103.24,50.41 103.33,49.76 103.85,49.28 C109.12,44.35 115.25,41.41 121.61,41.28 Z" id="Shape" fill="#575757"></path>
            <path d="M144.38,70.29 C144,73.01 143.63,75.72 143.25,78.43 C143.25,78.57 143.18,78.7 143.15,78.83 C142.94,79.59 142.45,79.97 141.85,79.77 C141.25,79.57 141.05,79.04 141.18,78.37 C141.48,76.74 141.8,75.1 141.97,73.45 C142.371612,69.8025695 142.127891,66.1129129 141.25,62.55 C141.04,61.69 141.25,61.16 141.86,61 C142.47,60.84 142.97,61.17 143.19,62 C143.865173,64.6933901 144.184557,67.4636313 144.14,70.24 L144.38,70.29 Z" id="Shape" fill="#595959"></path>
            <path d="M121.85,9.36 L113.11,9.36 C112.28,9.36 111.85,9.02 111.85,8.36 C111.85,7.7 112.31,7.36 113.1,7.36 C118.95,7.36 124.8,7.36 130.65,7.36 C131.34,7.36 131.86,7.61 131.91,8.36 C131.91,8.98 131.49,9.36 130.67,9.36 L121.85,9.36 Z" id="Shape" fill="#EF2488"></path>
            <path d="M104.33,24 C102.673146,24 101.33,22.6568542 101.33,21 C101.33,19.3431458 102.673146,18 104.33,18 C105.99491,18.0272973 107.330224,19.3848661 107.33,21.05 C107.302708,22.6872954 105.967523,24.0002274 104.33,24 L104.33,24 Z M104.33,22 C104.607122,22.0194471 104.879844,21.9227396 105.082808,21.7330542 C105.285771,21.5433688 105.400682,21.2778025 105.4,21 C105.41933,20.4477153 104.987285,19.9843301 104.435,19.9650001 C103.882715,19.9456701 103.41933,20.3777153 103.4,20.93 C103.356598,21.191893 103.428438,21.4597687 103.597062,21.6647997 C103.765685,21.8698308 104.014655,21.9920301 104.28,22 L104.33,22 Z" id="Shape" fill="#EF2488"></path>
            <path d="M97.29,24 C95.6331458,24 94.29,22.6568542 94.29,21 C94.2897121,20.1902937 94.6167406,19.4148531 95.1967728,18.8498867 C95.776805,18.2849203 96.5605816,17.9784078 97.37,18 C99.0482528,18.0328294 100.386778,19.41151 100.37,21.09 C100.320991,22.7431673 98.9432859,24.0448301 97.29,24 L97.29,24 Z M97.35,22 C97.9022847,22 98.35,21.5522847 98.35,21 C98.35,20.4477153 97.9022847,20 97.35,20 C96.7977153,20 96.35,20.4477153 96.35,21 C96.3286888,21.2711904 96.4271806,21.5381159 96.6195324,21.7304676 C96.8118841,21.9228194 97.0788096,22.0213112 97.35,22 L97.35,22 Z" id="Shape" fill="#EF2488"></path>
            <path d="M90.33,24 C88.6731458,24 87.33,22.6568542 87.33,21 C87.33,19.3238158 88.6888158,17.965 90.365,17.965 C92.0411842,17.965 93.4,19.3238158 93.4,21 C93.40022,21.8079276 93.0745586,22.5817924 92.4967177,23.1464578 C91.9188768,23.7111231 91.1377077,24.0188517 90.33,24 L90.33,24 Z M89.27,20.8 C89.43,21.64 89.72,22.03 90.36,22.02 C90.6329969,22.0486468 90.9043384,21.9525342 91.0984363,21.7584363 C91.2925342,21.5643384 91.3886468,21.2929969 91.36,21.02 C91.4010604,20.7442235 91.3090018,20.4653042 91.1118488,20.2681512 C90.9146958,20.0709982 90.6357765,19.9789396 90.36,20.02 C89.92,20.14 89.56,20.58 89.27,20.8 Z" id="Shape" fill="#EF2488"></path>
        </g>
    </g>
</svg>