<?xml version="1.0" encoding="UTF-8"?>
<svg width="239px" height="192px" viewBox="0 0 239 192" version="1.1" xmlns="http://www.w3.org/2000/svg" xmlns:xlink="http://www.w3.org/1999/xlink">
    <!-- Generator: Sketch 47.1 (45422) - http://www.bohemiancoding.com/sketch -->
    <title>Monitoring</title>
    <desc>Created with Sketch.</desc>
    <defs></defs>
    <g id="Final-Screens" stroke="none" stroke-width="1" fill="none" fill-rule="evenodd">
        <g id="Monitoring" transform="translate(0.000000, 0.644642)" fill-rule="nonzero">
            <path d="M209.52,46.12 L235.08,27.2 C234.27,26.79 233.6,26.44 232.91,26.11 L229.17,24.29 C228.58,24.01 228.17,23.62 228.46,22.94 C228.75,22.26 229.32,22.31 229.93,22.61 C232.32,23.78 234.74,24.91 237.11,26.1 C237.449183,26.3074236 237.690648,26.642591 237.78,27.03 C238.15,29.27 238.45,31.52 238.78,33.78 C238.91,34.78 238.41,35.39 237.66,35.07 C237.283426,34.8290156 237.025708,34.4406245 236.95,34 C236.7,32.67 236.57,31.32 236.38,30 C236.38,29.65 236.26,29.3 236.17,28.8 C235.82,29.03 235.55,29.19 235.3,29.38 C226.946667,35.56 218.596667,41.7333333 210.25,47.9 C209.698913,48.269272 209.392391,48.9091372 209.45,49.57 C209.45,80.1233333 209.45,110.676667 209.45,141.23 C209.45,142.78 209.3,142.94 207.75,142.94 L52.82,142.94 C51.21,142.94 51.04,142.77 51.04,141.12 C51.04,107.92 51.04,74.7266667 51.04,41.54 C50.9170943,40.5221066 51.5402388,39.5621272 52.52,39.26 C63.8,34.14 75.07,29 86.35,23.84 C99.1433333,18.0133333 111.933333,12.1866667 124.72,6.36 C125.29,6.1 125.57,5.85 125.51,5.14 C125.340959,2.58919332 127.216961,0.360356536 129.759199,0.0916210863 C132.301436,-0.177114364 134.601982,1.61022688 134.97,4.14 C135.074899,4.48303713 135.102225,4.84510444 135.05,5.2 C134.83,5.89 135.18,6.13 135.72,6.38 C159.84,17.36 183.96,28.36 208.08,39.38 C208.252245,39.4635618 208.429212,39.5370195 208.61,39.6 C209.176051,39.7296251 209.543839,40.2769284 209.45,40.85 C209.45,42.38 209.45,43.91 209.45,45.43 C209.44,45.54 209.48,45.72 209.52,46.12 Z M207.64,49.86 L206.76,50.47 L196.38,58.15 C180.74,69.7166667 165.1,81.2966667 149.46,92.89 C148.976528,93.3097394 148.307278,93.4428288 147.7,93.24 C137.54,90.3 127.373333,87.39 117.2,84.51 C116.760881,84.3981724 116.295597,84.4590172 115.9,84.68 C99.9,94.9533333 83.9,105.233333 67.9,115.52 C67.4593465,115.756593 67.2003489,116.231422 67.24,116.73 C67.24,120.15 67.24,123.56 67.24,126.98 C67.24,128.64 67,128.49 68.75,128.49 L196.36,128.49 C196.713122,128.418888 197.076878,128.418888 197.43,128.49 C197.73,128.63 198.1,129.01 198.09,129.27 C198.003245,129.639716 197.77769,129.961938 197.46,130.17 C197.28,130.31 196.93,130.22 196.65,130.22 L67,130.22 C65.59,130.22 65.48,130.12 65.48,128.7 L65.48,52.7 C65.48,52.05 65.48,51.35 66.36,51.3 C67.01,51.3 67.28,51.69 67.28,52.67 L67.28,113.67 C67.81,113.35 68.17,113.15 68.51,112.93 C84.05,102.93 99.59,92.93 115.13,82.93 C115.717032,82.4663526 116.492873,82.3171523 117.21,82.53 C127.21,85.42 137.21,88.26 147.13,91.14 C147.853742,91.4019368 148.662295,91.2570075 149.25,90.76 C160.583333,82.3333333 171.94,73.92 183.32,65.52 C191.106667,59.76 198.893333,54.0033333 206.68,48.25 C207.364354,47.8597632 207.755871,47.1041356 207.68,46.32 C207.6,45.08 207.68,43.82 207.68,42.57 C207.68,41.32 207.68,41.42 206.55,41.42 L53,41.42 L53,141 L206.37,141 C207.63,141 207.64,141 207.64,139.75 L207.64,49.86 Z M203.92,39.55 C203.752673,39.4197716 203.575472,39.3027522 203.39,39.2 L197.39,36.46 C176.583333,26.96 155.76,17.4733333 134.92,8 C134.52103,7.73999753 133.989075,7.83156353 133.7,8.21 C132.822925,9.14399955 131.603197,9.68037925 130.322031,9.695474 C129.040864,9.71056874 127.808837,9.2030757 126.91,8.29 C126.586292,7.82844504 125.957943,7.70101752 125.48,8 C120.32,10.38 115.15,12.74 109.97,15.08 L57.61,39 C57.33,39.13 57.06,39.28 56.79,39.42 L56.85,39.59 L203.92,39.55 Z M133.21,4.82 C133.213188,4.03149468 132.895159,3.27568623 132.329172,2.72667866 C131.763185,2.17767109 130.998043,1.88280349 130.21,1.91 C129.418023,1.90714113 128.658388,2.22392725 128.103098,2.78862939 C127.547807,3.35333153 127.243832,4.11818274 127.26,4.91 C127.302049,6.54912096 128.620879,7.86795069 130.26,7.91 C131.062783,7.89698308 131.826849,7.56271991 132.381269,6.98198855 C132.935689,6.40125719 133.234192,5.6225242 133.21,4.82 L133.21,4.82 Z" id="Shape" fill="#F01F86"></path>
            <path d="M184.85,190.82 L161.77,190.82 C160.38,190.82 160.21,190.64 160.21,189.22 L160.21,152.49 C160.21,151.08 160.43,150.86 161.85,150.86 L207.91,150.86 C209.24,150.86 209.44,151.06 209.44,152.4 L209.44,189.4 C209.44,190.68 209.28,190.84 208,190.84 L184.85,190.82 Z M162.16,169.92 L162.16,189 L206.44,189 C206.63,189 206.87,189.07 207.01,189 C207.15,188.93 207.57,188.64 207.6,188.43 C207.640091,187.790628 207.640091,187.149372 207.6,186.51 C207.6,181.15 207.6,175.79 207.6,170.44 C207.6,169.71 207.42,169.36 206.6,169.44 C205.78,169.52 204.93,169.44 204.1,169.44 C203.529018,169.498186 202.99369,169.15375 202.81,168.61 C202.49,167.89 202.13,167.19 201.69,166.26 C201.586374,166.570976 201.502868,166.888298 201.44,167.21 C201.02,170.21 200.62,173.21 200.2,176.21 C199.93,178.16 199.69,180.11 199.35,182.04 C199.227895,182.432258 198.92756,182.743717 198.54,182.88 C198.28,182.88 197.9,182.51 197.61,182.27 C197.51,182.19 197.5,182.02 197.45,181.89 L191.62,165.71 C191.49,165.37 191.35,165.03 191.15,164.53 C190.93,164.92 190.81,165.13 190.71,165.35 C189.683333,167.436667 188.656667,169.526667 187.63,171.62 C187.41,172.09 187.13,172.62 186.55,172.41 C186.1416,172.240802 185.820082,171.912059 185.66,171.5 C184.88,169.37 184.18,167.21 183.45,165.06 C183.21,164.34 182.95,163.64 182.64,162.74 C182.544406,162.919591 182.464122,163.106921 182.4,163.3 C181.773333,167.3 181.15,171.32 180.53,175.36 C180.25,177.2 180,179.03 179.65,180.85 C179.54105,181.254221 179.236979,181.577062 178.84,181.71 C178.53,181.71 178.14,181.33 177.84,181.06 C177.71,180.95 177.69,180.71 177.62,180.53 C175.52,175.043333 173.416667,169.56 171.31,164.08 C171.2,163.81 171.07,163.55 170.89,163.15 C170.64,163.56 170.48,163.81 170.33,164.07 C169.33,165.75 168.33,167.43 167.45,169.13 C167.207816,169.675589 166.644328,170.005631 166.05,169.95 C164.82,169.89 163.52,169.92 162.16,169.92 Z M186.85,169.08 C187.15,168.5 187.33,168.17 187.5,167.82 C188.5,165.82 189.42,163.82 190.44,161.82 C190.66095,161.469621 191.028566,161.238023 191.44,161.19 C191.73,161.19 192.01,161.66 192.29,161.93 C192.35109,162.021331 192.395134,162.122972 192.42,162.23 C194.153333,167.05 195.886667,171.873333 197.62,176.7 C197.74,177.03 197.88,177.34 198.01,177.7 C198.263393,177.012593 198.434582,176.297626 198.52,175.57 C199.09,171.4 199.64,167.23 200.25,163.06 C200.347402,162.611437 200.657055,162.238362 201.08,162.06 C201.33,161.99 201.88,162.39 202.08,162.71 C202.677778,163.677589 203.176945,164.702725 203.57,165.77 C203.705417,166.425116 204.101793,166.996831 204.667799,167.353415 C205.233805,167.709998 205.920622,167.820695 206.57,167.66 C207.41,167.58 207.65,167.36 207.64,166.55 C207.64,162.27 207.64,157.99 207.64,153.71 C207.64,152.93 207.44,152.71 206.64,152.71 C192.106667,152.71 177.58,152.71 163.06,152.71 L162.22,152.71 C162.180588,152.800042 162.150432,152.893858 162.13,152.99 C162.13,157.82 162.13,162.66 162.13,167.49 C162.13,167.93 162.32,168.08 162.73,168.08 C163.48,168.08 164.23,168.08 164.98,168.08 C165.621161,168.174418 166.244119,167.819621 166.49,167.22 C167.66,165.07 168.9,162.97 170.11,160.85 C170.37,160.39 170.59,159.85 171.27,159.95 C171.95,160.05 172.05,160.56 172.27,161.03 L172.35,161.27 L177.94,176 C178.05,176.29 178.19,176.57 178.42,177.07 C178.54,176.48 178.63,176.13 178.69,175.79 C179.57,170.116667 180.453333,164.45 181.34,158.79 C181.43,158.22 181.55,157.74 182.22,157.68 C182.89,157.62 183.11,158.1 183.29,158.68 C183.843333,160.34 184.403333,162.006667 184.97,163.68 C185.56,165.33 186.16,167.08 186.85,169.08 L186.85,169.08 Z" id="Shape" fill="#F01F86"></path>
            <path d="M40.63,117.49 C40.63,125.543333 40.63,133.593333 40.63,141.64 C40.63,143.04 40.53,143.15 39.1,143.15 L1.52,143.15 C0.12,143.15 0.02,143.04 0.02,141.62 C0.02,129.126667 0.02,116.63 0.02,104.13 C-0.00321187476,103.386913 0.317835125,102.674705 0.89,102.2 C4.22333333,99.0266667 7.55666667,95.83 10.89,92.61 C11.4777821,91.9869805 12.303839,91.6449129 13.16,91.67 C21.79,91.67 30.43,91.67 39.07,91.67 C40.49,91.67 40.68,91.87 40.68,93.31 C40.6533333,101.376667 40.6366667,109.436667 40.63,117.49 Z M13.29,93.58 L13.29,104.14 C13.29,105.14 13.03,105.41 12,105.41 L2.92,105.41 C1.79,105.41 1.79,105.41 1.79,106.54 L1.79,140.19 C1.79,141.35 1.79,141.35 2.91,141.35 L37.73,141.35 C38.85,141.35 38.85,141.35 38.85,140.27 C38.85,125.05 38.85,109.833333 38.85,94.62 C38.85,93.78 38.63,93.55 37.78,93.56 C29.95,93.56 22.12,93.56 14.29,93.56 L13.29,93.58 Z M2.29,103.45 C2.69,103.45 2.9,103.52 3.11,103.52 C5.64,103.52 8.16,103.52 10.68,103.52 C11.4,103.52 11.57,103.27 11.56,102.61 C11.56,100.25 11.56,97.89 11.56,95.54 C11.56,95.31 11.56,95.08 11.47,94.63 L2.29,103.45 Z" id="Shape" fill="#F01F86"></path>
            <path d="M85.61,156.86 L150.19,156.86 C151.39,156.86 151.8,157.11 151.78,157.86 C151.76,158.61 151.33,158.78 150.21,158.78 L21,158.78 C20.8069566,158.794974 20.6130434,158.794974 20.42,158.78 C19.83,158.69 19.42,158.39 19.42,157.78 C19.4350694,157.532792 19.5502469,157.302406 19.7389539,157.142005 C19.9276609,156.981604 20.1735936,156.905047 20.42,156.93 L85.61,156.93 L85.61,156.86 Z" id="Shape" fill="#555555"></path>
            <path d="M30.21,37.73 L30.21,11 C30.21,10.78 30.21,10.55 30.21,10.33 C30.21,9.71 30.48,9.26 31.09,9.23 C31.7,9.2 32.09,9.69 32.09,10.32 C32.1000136,10.4831799 32.1000136,10.6468201 32.09,10.81 C32.09,28.81 32.09,46.78 32.09,64.72 C32.09,65.02 32.16,65.41 32,65.6 C31.7680362,65.9409263 31.4067374,66.1721575 31,66.24 C30.73,66.24 30.41,65.79 30.22,65.47 C30.03,65.15 30.22,64.98 30.22,64.73 L30.21,37.73 Z" id="Shape" fill="#555555"></path>
            <path d="M122.36,168.15 L94.78,168.15 C94.48,168.15 94.17,168.15 93.87,168.15 C93.6431533,168.167608 93.4197291,168.086554 93.2569379,167.927594 C93.0941468,167.768633 93.0077972,167.547202 93.02,167.32 C92.9978078,167.080878 93.0754436,166.843219 93.2345193,166.663312 C93.393595,166.483405 93.6199604,166.377253 93.86,166.37 C94.0530434,166.355026 94.2469566,166.355026 94.44,166.37 L150.35,166.37 C150.6,166.37 150.93,166.29 151.08,166.37 C151.23,166.45 151.73,166.97 151.73,167.28 C151.73,167.59 151.32,167.92 151.01,168.08 C150.684331,168.169575 150.34298,168.186643 150.01,168.13 L122.36,168.15 Z" id="Shape" fill="#555555"></path>
            <path d="M38.85,57.93 L38.85,32.61 C38.85,32.36 38.76,32.05 38.85,31.87 C39.06,31.54 39.35,31.13 39.68,31.06 C40.2,30.93 40.55,31.31 40.58,31.88 C40.5900007,32.073204 40.5900007,32.266796 40.58,32.46 C40.58,49.4533333 40.58,66.4533333 40.58,83.46 C40.58,84.08 40.64,84.75 39.75,84.82 C39.5130601,84.8741606 39.2644579,84.8132723 39.0793649,84.6557463 C38.8942718,84.4982203 38.7944192,84.2625513 38.81,84.02 C38.81,83.74 38.81,83.47 38.81,83.19 L38.85,57.93 Z" id="Shape" fill="#555555"></path>
            <path d="M19.38,63 L19.38,43.61 C19.38,43.33 19.3,42.99 19.43,42.8 C19.56,42.61 20,42.09 20.3,42.08 C20.6,42.07 20.96,42.46 21.18,42.76 C21.4,43.06 21.26,43.3 21.26,43.57 L21.26,82.57 C21.26,82.79 21.35,83.08 21.26,83.22 C20.99,83.55 20.63,84.05 20.32,84.04 C20.01,84.03 19.66,83.52 19.42,83.17 C19.31,83 19.42,82.69 19.42,82.44 L19.38,63 Z" id="Shape" fill="#555555"></path>
            <path d="M137.24,183.36 C142.04,183.36 146.84,183.36 151.65,183.36 C152.078568,183.358173 152.494897,183.50283 152.83,183.77 C153.011439,184.004225 153.061205,184.314685 152.962069,184.593887 C152.862932,184.873088 152.628522,185.082645 152.34,185.15 C152.04497,185.217066 151.742234,185.243976 151.44,185.23 L122.62,185.23 C122.01,185.23 121.51,184.99 121.53,184.23 C121.55,183.47 122.03,183.32 122.66,183.32 L137.24,183.32 L137.24,183.36 Z" id="Shape" fill="#555555"></path>
            <path d="M110.2,183.36 C112.2,183.36 114.2,183.36 116.2,183.36 C117.08,183.36 117.49,183.67 117.46,184.36 C117.43,185.05 116.86,185.28 116.23,185.28 L104.23,185.28 C103.37,185.28 102.95,184.95 102.98,184.28 C103.01,183.61 103.56,183.37 104.2,183.37 L110.2,183.36 Z" id="Shape" fill="#555555"></path>
            <path d="M19.38,31.62 L19.38,27.37 C19.38,26.72 19.53,26.19 20.29,26.14 C21.05,26.09 21.29,26.55 21.29,27.41 C21.29,30.23 21.29,33.06 21.29,35.89 C21.29,36.54 21.12,37.07 20.36,37.12 C19.6,37.17 19.36,36.72 19.36,35.86 C19.37,34.44 19.38,33 19.38,31.62 Z" id="Shape" fill="#555555"></path>
            <path d="M82.93,168.15 C81.66,168.15 80.38,168.15 79.1,168.15 C78.48,168.15 77.98,168 77.99,167.25 C78,166.5 78.5,166.34 79.13,166.35 L86.78,166.35 C87.46,166.35 87.95,166.56 87.94,167.35 C87.93,168.14 87.36,168.18 86.76,168.18 L82.93,168.15 Z" id="Shape" fill="#555555"></path>
            <path d="M38.85,21.39 C38.85,20.22 38.85,19.06 38.85,17.89 C38.85,17.28 39.04,16.84 39.73,16.84 C40.42,16.84 40.63,17.27 40.62,17.89 L40.62,25.05 C40.62,25.67 40.33,26.05 39.69,26.05 C39.05,26.05 38.84,25.63 38.85,25.05 C38.86,23.83 38.85,22.61 38.85,21.39 Z" id="Shape" fill="#555555"></path>
            <path d="M21.26,18.53 C21.26,19.14 21.26,19.75 21.26,20.36 C21.26,20.97 20.93,21.36 20.26,21.36 C19.59,21.36 19.35,20.89 19.34,20.29 C19.34,19.08 19.34,17.86 19.34,16.64 C19.34,16.05 19.61,15.64 20.29,15.64 C20.97,15.64 21.19,16.1 21.21,16.64 C21.23,17.18 21.26,17.93 21.26,18.53 Z" id="Shape" fill="#555555"></path>
            <path d="M90.26,52.12 C95.7593564,52.1281304 100.711749,55.4497884 102.805954,60.534795 C104.900159,65.6198015 103.723331,71.4657128 99.8246813,75.3443104 C95.9260319,79.2229079 90.07413,80.369576 84.9999898,78.249178 C79.9258497,76.12878 76.6297729,71.1593252 76.65,65.66 C76.6445875,62.0551598 78.0790079,58.5974294 80.6345812,56.055 C83.1901546,53.5125707 86.6552357,52.0959992 90.26,52.12 Z M95.55,63.12 C97.67,62.31 97.78,62.12 97.8,60.05 C97.8,59.94 97.8,59.81 97.8,59.73 C97.934792,59.4968197 98.0851321,59.2729801 98.25,59.06 C98.43,59.27 98.76,59.48 98.78,59.71 C98.8599762,60.4578679 98.8599762,61.2121321 98.78,61.96 C98.7208908,62.3549695 98.5134838,62.7125677 98.2,62.96 C97.46,63.48 96.64,63.96 95.84,64.36 C95.04,64.76 95.46,65.5 95.46,66.08 C95.46,66.19 96.04,66.36 96.36,66.37 C97.47,66.37 98.58,66.37 99.69,66.37 C99.93,66.37 100.15,66.71 100.38,66.9 C100.183501,67.0984154 99.961568,67.269909 99.72,67.41 C99.4749938,67.4504762 99.2250062,67.4504762 98.98,67.41 L95.55,67.41 C95.39,68.3 95.38,68.3 95.96,68.65 C96.73,69.1 97.51,69.52 98.26,70 C98.49,70.15 98.78,70.43 98.79,70.66 C98.8449935,71.5758419 98.8449935,72.4941581 98.79,73.41 C98.79,73.58 98.45,73.73 98.26,73.9 C98.11,73.73 97.86,73.57 97.84,73.39 C97.78,72.87 97.84,72.33 97.84,71.81 C97.84,71.51 97.84,71.08 97.65,70.96 C96.9338678,70.4779916 96.1928411,70.0340431 95.43,69.63 C95.0316011,71.7963138 93.3209753,73.4822206 91.1490924,73.8490473 C88.9772096,74.2158741 86.8077758,73.1853018 85.72,71.27 L82,75 C85.4523376,78.0506554 90.3028661,78.9550074 94.6225892,77.3534063 C98.9423123,75.7518052 102.030877,71.903917 102.66,67.34 C103.252734,63.6559211 102.078592,59.9075567 99.49,57.22 C98.42,58.3 97.49,59.37 96.42,60.29 C95.467233,60.871824 95.0947316,62.0706793 95.55,63.09 L95.55,63.12 Z M85,63.24 C85,62.13 85.09,61.24 86,60.76 C86.3984604,60.6250669 86.6456904,60.2269846 86.59,59.81 C86.5694943,58.8201104 86.9999651,57.8745463 87.76,57.24 C88.809128,56.2669374 90.3429008,56.025803 91.64,56.63 C92.9298801,57.1140087 93.7885255,58.3423486 93.8,59.72 C93.8723572,60.04174 93.9902093,60.3515227 94.15,60.64 C94.4361554,60.5067589 94.7048387,60.3388318 94.95,60.14 C95.69,59.43 96.4,58.69 97.12,57.96 L98.55,56.51 C93.603029,52.2621075 86.2112893,52.5712608 81.6363036,57.2174011 C77.061318,61.8635414 76.8662714,69.2591718 81.19,74.14 C81.36,73.72 81.67,73.33 81.61,73.03 C81.17,70.83 82.21,69.6 84.13,68.88 L84.21,68.88 C85.07,68.57 85.21,67.95 84.92,67.02 C83.74,67.02 82.53,67.02 81.31,67.02 C80.87,67.02 80.12,67.29 80.1,66.56 C80.08,65.83 80.86,66.03 81.32,66.01 C82.53,66.01 83.75,66.01 84.91,66.01 C85.1178813,65.6506036 85.1542214,65.217096 85.0090759,64.828106 C84.8639304,64.439116 84.5524974,64.1353746 84.16,64 C81.52,62.53 81.53,62.49 81.64,59.89 C81.64,59.83 81.64,59.76 81.64,59.72 C81.8,59.48 81.97,59.24 82.14,59.01 C82.35,59.25 82.68,59.48 82.72,59.75 C82.7501184,60.3029235 82.7501184,60.8570765 82.72,61.41 C82.7196418,61.6461796 82.8131746,61.8728167 82.98,62.04 C83.63,62.46 84.26,62.8 85,63.24 Z M94.17,62.68 C94.0610601,62.7279725 93.9599344,62.7920187 93.87,62.87 C91.52,65.21 89.16,67.55 86.87,69.93 C86.7205586,70.2184606 86.7205586,70.5615394 86.87,70.85 C87.6595749,72.2401353 89.2010653,73.02661 90.79,72.85 C92.47,72.63 94.09,71.39 94.21,69.85 C94.32,67.45 94.18,65.1 94.18,62.68 L94.17,62.68 Z M93.07,61.68 C93.0382039,61.6480934 92.9950445,61.6301103 92.95,61.63 C90.95,61.63 89.02,61.63 87.05,61.63 C86.38,61.63 86.16,62.06 86.16,62.68 C86.16,64.28 86.16,65.89 86.16,67.5 C86.16,67.87 86.16,68.25 86.22,68.5 L93.07,61.68 Z M87.83,60.47 L92.71,60.47 C92.9279406,59.4841166 92.5339258,58.4636184 91.71,57.88 C90.862369,57.2906719 89.737631,57.2906719 88.89,57.88 C87.9970709,58.4038061 87.5666033,59.4615264 87.84,60.46 L87.83,60.47 Z M82.83,71.87 L84.99,69.87 C83.42,70.16 82.64,71 82.81,71.86 L82.83,71.87 Z" id="Shape" fill="#F01F86"></path>
            <path d="M168.26,98.49 C168.122455,98.7214176 167.942672,98.9249452 167.73,99.09 C165.53,100.44 163.32,101.76 161.11,103.09 C160.911866,103.255412 160.645422,103.313604 160.396366,103.245861 C160.147309,103.178118 159.947051,102.992982 159.86,102.75 C159.712739,102.543751 159.667774,102.281525 159.737909,102.037998 C159.808045,101.794471 159.985596,101.596329 160.22,101.5 C162.41,100.19 164.58,98.86 166.78,97.57 C167.52,97.13 168.26,97.53 168.26,98.49 Z" id="Shape" fill="#F01F86"></path>
            <path d="M146.32,111.65 C145.04,111.16 143.74,110.65 142.5,110.12 C142.3,110.03 142.18,109.32 142.32,109.05 C142.570521,108.765749 142.943181,108.620411 143.32,108.66 C144.12,108.83 144.88,109.21 145.68,109.42 C146.038941,109.503882 146.415633,109.465157 146.75,109.31 C147.4,109.01 148,108.6 148.62,108.24 C149.24,107.88 149.76,107.79 150.14,108.45 C150.52,109.11 150.14,109.45 149.61,109.81 C148.74,110.3 147.89,110.81 147.03,111.31 C146.83,111.44 146.6,111.52 146.32,111.65 Z" id="Shape" fill="#F01F86"></path>
            <path d="M117.65,99.86 C117.65,100.8 117.12,101.21 116.47,101.01 C115.82,100.81 114.96,100.44 114.19,100.24 C113.778196,100.147609 113.348789,100.171849 112.95,100.31 C112.26,100.58 111.63,101 110.95,101.31 C110.44,101.55 109.87,101.61 109.59,101 C109.450475,100.75278 109.43289,100.454994 109.54235,100.193072 C109.651811,99.9311494 109.876056,99.7344264 110.15,99.66 L110.37,99.54 C113.55,97.86 113.55,97.85 116.86,99.21 C117.158606,99.3798376 117.425824,99.5997004 117.65,99.86 L117.65,99.86 Z" id="Shape" fill="#F01F86"></path>
            <path d="M80.94,116.92 C80.66,116.63 80.21,116.39 80.14,116.05 C80.1560572,115.67525 80.353868,115.331881 80.67,115.13 C82.3,114.18 83.96,113.29 85.67,112.41 C85.9191209,112.240643 86.2206731,112.166142 86.52,112.2 C86.8897404,112.322928 87.2000934,112.579772 87.39,112.92 C87.442768,113.254846 87.3223126,113.593627 87.07,113.82 C85.22,114.82 83.34,115.82 81.46,116.73 C81.3543431,116.750757 81.2456569,116.750757 81.14,116.73 L80.94,116.92 Z" id="Shape" fill="#F01F86"></path>
            <path d="M133.79,105.65 C133.79,106.65 133.34,106.95 132.47,106.65 C131,106.16 129.54,105.65 128.08,105.12 L126.6,104.59 C126.364733,104.535568 126.167282,104.376521 126.063991,104.158245 C125.960699,103.939969 125.962913,103.686439 126.07,103.47 C126.120437,103.230188 126.274272,103.024923 126.490286,102.909201 C126.7063,102.793479 126.962412,102.779131 127.19,102.87 C129.19,103.57 131.26,104.28 133.28,105.03 C133.54,105.14 133.7,105.54 133.79,105.65 Z" id="Shape" fill="#F01F86"></path>
            <path d="M95.53,109.17 C95.32,108.96 94.92,108.74 94.82,108.42 C94.7909899,108.07928 94.9380912,107.747359 95.21,107.54 C96.98,106.54 98.77,105.54 100.59,104.6 C100.834732,104.467056 101.123818,104.442197 101.387654,104.531407 C101.651489,104.620618 101.866168,104.815815 101.98,105.07 C102.110961,105.290609 102.133925,105.55897 102.042351,105.798622 C101.950777,106.038274 101.754705,106.222938 101.51,106.3 C99.78,107.21 98.03,108.1 96.28,108.99 C96.0351749,109.069815 95.7843821,109.130005 95.53,109.17 Z" id="Shape" fill="#F01F86"></path>
            <path d="M182.5,90.12 C182.360881,90.3647505 182.181734,90.5844593 181.97,90.77 C181.07,91.35 180.13,91.88 179.19,92.42 C178.980748,92.5914868 178.704854,92.6584828 178.440259,92.6020617 C178.175663,92.5456407 177.951097,92.3719289 177.83,92.13 C177.51,91.56 177.77,91.13 178.29,90.82 C179.22,90.27 180.13,89.7 181.08,89.18 C181.83,88.77 182.48,89.13 182.5,90.12 Z" id="Shape" fill="#F01F86"></path>
            <path d="M67.83,122.07 C67.9895998,121.837065 68.1854026,121.631134 68.41,121.46 C69.34,120.93 70.3,120.46 71.27,119.97 C71.4876893,119.810808 71.7658199,119.758909 72.0262707,119.828881 C72.2867216,119.898853 72.5013973,120.083147 72.61,120.33 C72.7374182,120.551539 72.7597042,120.818272 72.670816,121.057883 C72.5819278,121.297495 72.3910748,121.48516 72.15,121.57 C71.15,122.11 70.15,122.64 69.15,123.13 C68.44,123.46 67.8,123 67.83,122.07 Z" id="Shape" fill="#F01F86"></path>
            <path d="M20.49,121.74 L9.57,121.74 C9.29838777,121.784593 9.01993502,121.760529 8.76,121.67 C8.47,121.47 8.11,121.13 8.1,120.84 C8.09,120.55 8.43,120.19 8.7,119.97 C8.95131461,119.859886 9.2282923,119.821801 9.5,119.86 L31.58,119.86 C31.72,119.86 31.86,119.86 32,119.86 C32.61,119.86 33.06,120.2 33,120.86 C32.9993373,121.129817 32.8827619,121.38634 32.6799405,121.564287 C32.477119,121.742234 32.2076102,121.824446 31.94,121.79 L20.49,121.79 L20.49,121.74 Z" id="Shape" fill="#F01F86"></path>
            <path d="M20.57,126 C24.31,126 28.06,126 31.8,126 C32.47,126 33.04,126.13 33.05,126.87 C33.06,127.61 32.51,127.79 31.83,127.79 L9.28,127.79 C8.61,127.79 8.07,127.59 8.07,126.86 C8.07,126.13 8.6,126 9.25,126 C13,126 16.79,126 20.57,126 Z" id="Shape" fill="#F01F86"></path>
            <path d="M20.58,133.82 L9.67,133.82 C9.40018558,133.882027 9.11981442,133.882027 8.85,133.82 C8.54,133.62 8.08,133.26 8.11,133.01 C8.14,132.76 8.55,132.35 8.86,132.09 C9,131.98 9.29,132.09 9.51,132.09 L31.65,132.09 C31.88,132.09 32.17,132.02 32.31,132.09 C32.45,132.16 33.02,132.66 33.02,132.96 C33.02,133.26 32.61,133.6 32.3,133.8 C31.99,134 31.76,133.86 31.48,133.86 L20.58,133.82 Z" id="Shape" fill="#F01F86"></path>
            <path d="M20.66,113.35 L31.57,113.35 C31.82,113.35 32.14,113.27 32.3,113.35 C32.61,113.61 32.99,113.97 33.02,114.35 C33.05,114.73 32.54,114.91 32.23,115.12 C32.07,115.22 31.8,115.12 31.57,115.12 L9.6,115.12 C8.49,115.12 7.97,114.83 8.06,114.19 C8.19,113.31 8.89,113.31 9.59,113.31 L20.66,113.35 Z" id="Shape" fill="#F01F86"></path>
            <path d="M26.84,107.5 C28.45,107.5 30.06,107.5 31.67,107.5 C32.31,107.5 32.74,107.76 32.74,108.38 C32.74,109 32.31,109.28 31.68,109.28 L21.86,109.28 C21.23,109.28 20.86,109.02 20.86,108.34 C20.86,107.66 21.27,107.5 21.86,107.5 L26.84,107.5 Z" id="Shape" fill="#F01F86"></path>
        </g>
    </g>
</svg>