<?xml version="1.0" encoding="UTF-8"?>
<svg width="31px" height="36px" viewBox="0 0 31 36" version="1.1" xmlns="http://www.w3.org/2000/svg" xmlns:xlink="http://www.w3.org/1999/xlink">
    <!-- Generator: Sketch 53.1 (72631) - https://sketchapp.com -->
    <title>aws-api-gateway</title>
    <desc>Created with Sketch.</desc>
    <g id="2019-0306" stroke="none" stroke-width="1" fill="none" fill-rule="evenodd">
        <g id="1.3-Template-DeploymentTarget" transform="translate(-755.000000, -219.000000)" fill-rule="nonzero">
            <g id="Service-type-+-Dep-deets-+-Add-deets-+-Rectangle-Copy-+-Rectangle-+-Rectangle-Copy-2-+-Group-22-+-CANCEL-+-Scroll-+-Header1-Mask" transform="translate(434.000000, 56.000000)">
                <g id="Dep-deets" transform="translate(34.000000, -41.000000)">
                    <g id="AWS-Gateway" transform="translate(262.000000, 189.000000)">
                        <g id="aws-api-gateway" transform="translate(25.000000, 15.000000)">
                            <polyline id="Path" fill="#634B1E" points="30 15.7125154 22.7194776 16 18 15.7130736 25.8062495 15 30 15.7125154"></polyline>
                            <polyline id="Path" fill="#D9A740" points="26.2852345 15.6025713 30 16 30 7.98880296 26.2852345 6 26 6.32971532 26 15.2616811 26.2852345 15.6025713"></polyline>
                            <polyline id="Path" fill="#886A2A" points="18 7.98971808 26 6 26 15.6023217 18 16 18 7.98971808"></polyline>
                            <polyline id="Path" fill="#634B1E" points="1 15.7341798 8.28052245 16 13 15.734696 5.21600726 15 1 15.7341798"></polyline>
                            <polyline id="Path" fill="#886A2A" points="3.82393617 15.6152148 0 16 0 7.9813404 3.82393617 6 4 6.34128299 4 15.3156674 3.82393617 15.6152148"></polyline>
                            <polyline id="Path" fill="#D9A740" points="12 7.98971808 4 6 4 15.6023217 12 16 12 7.98971808"></polyline>
                            <g id="Group" transform="translate(19.000000, 20.000000)">
                                <polyline id="Path" fill="#FAD791" points="11.9090909 0.318172917 4.72293733 0.0141714749 0.0646328332 0.317582853 7.73616858 1.10909592 11.9090909 0.318172917"></polyline>
                                <polyline id="Path" fill="#D9A740" points="7.75304943 0.74207555 11.9090909 0.318172917 11.9090909 8.8629029 7.75304943 10.9841863 7.53475463 10.4990349 7.53475463 1.17801551 7.75304943 0.74207555"></polyline>
                                <polyline id="Path" fill="#886A2A" points="0.0646328332 8.86797746 7.75304943 10.9918571 7.75304943 0.74207555 0.0646328332 0.317582853 0.0646328332 8.86797746"></polyline>
                            </g>
                            <g id="Group" transform="translate(1.000000, 20.000000)">
                                <polyline id="Path" fill="#FAD791" points="0 0.318172917 7.24100971 0.0141714749 11.9348738 0.317582853 4.13708738 1.17766147 0 0.318172917"></polyline>
                                <polyline id="Path" fill="#886A2A" points="4.18776699 0.74207555 0 0.318172917 0 8.8629029 4.18776699 10.9841863 4.44163107 10.6018242 4.44163107 1.17766147 4.18776699 0.74207555"></polyline>
                                <polyline id="Path" fill="#D9A740" points="11.9348738 8.86797746 4.18776699 10.9918571 4.18776699 0.74207555 11.9348738 0.317582853 11.9348738 8.86797746"></polyline>
                            </g>
                            <g id="Group" transform="translate(7.000000, 0.000000)">
                                <polyline id="Path" fill="#634B1E" points="4.68085862 12.3827226 8.56108837 11.7113806 16.3076588 12.7935871 16.9749227 13.1722839 13.212397 13.5785032 4.68085862 12.3827226"></polyline>
                                <polyline id="Path" fill="#634B1E" points="12.3191414 12.3827226 8.43891163 11.7113806 0.358768091 12.9483871 0.0250772781 13.1722839 3.78760304 13.5785032 12.3191414 12.3827226"></polyline>
                                <polyline id="Path" fill="#FAD791" points="4.68085862 23.7947226 8.56108837 24.4660645 16.2881199 23.4 16.9749227 23.0051613 13.212397 22.5989419 4.68085862 23.7947226"></polyline>
                                <polyline id="Path" fill="#FAD791" points="12.3191414 23.7947226 8.43891163 24.4660645 0.299916096 23.3225419 0.0250772781 23.0051613 3.78760304 22.5989419 12.3191414 23.7947226"></polyline>
                                <polyline id="Path" fill="#D9A740" points="16.9749227 13.1722839 16.9749227 9.01637419 13.0067681 7.73605161 13.0067681 2.29656774 8.5 0.0736258065 8.5 0.0737419355 8.31202673 0.369058065 8.27777487 35.5083097 8.5 35.9601677 13.0067681 33.7372258 13.0067681 28.4413935 16.9749227 27.161071 16.9749227 23.0051613 13.0067681 23.6943871 13.0067681 12.4830581 16.9749227 13.1722839"></polyline>
                                <polyline id="Path" fill="#886A2A" points="3.99323191 2.29656774 3.99323191 7.73605161 0.0250772781 9.01637419 0.0250772781 13.1722839 3.99323191 12.4830581 3.99323191 23.6943871 0.0250772781 23.0051613 0.0250772781 27.161071 3.99323191 28.4413935 3.99323191 33.7372258 8.5 35.9601677 8.5 0.0736258065 3.99323191 2.29656774"></polyline>
                            </g>
                        </g>
                    </g>
                </g>
            </g>
        </g>
    </g>
</svg>