<?xml version="1.0" encoding="UTF-8"?>
<svg width="40px" height="42px" viewBox="0 0 40 42" version="1.1" xmlns="http://www.w3.org/2000/svg" xmlns:xlink="http://www.w3.org/1999/xlink">
    <!-- Generator: Sketch 55.2 (78181) - https://sketchapp.com -->
    <title>azure-event-hub</title>
    <desc>Created with Sketch.</desc>
    <g id="Create-Service" stroke="none" stroke-width="1" fill="none" fill-rule="evenodd">
        <g id="jazz_2019-0530_create-service-website-framework-1-AZURE" transform="translate(-1002.000000, -2302.000000)" fill="#006FD4" fill-rule="nonzero">
            <g id="Content" transform="translate(794.000000, 141.000000)">
                <g id="Sec-deets-Copy" transform="translate(0.000000, 1893.000000)">
                    <g id="Type-of-service-Copy-4" transform="translate(0.000000, 215.000000)">
                        <g id="runtime-copy" transform="translate(0.000000, 34.000000)">
                            <g id="Kinesis" transform="translate(188.000000, 0.000000)">
                                <g id="azure-event-hub" transform="translate(20.000000, 19.000000)">
                                    <path d="M1.57261448,0.0229752405 L38.6080012,0.0229752405 C38.9364186,0.0229752405 39.3658877,-0.0275505258 39.6437794,0.149289656 C39.8711453,0.300866955 39.8458824,0.528232903 39.8458824,0.755598852 L39.8458824,8.78919569 C39.8458824,9.01656164 39.8206195,9.24392759 39.6437794,9.39550488 C39.4416763,9.59760795 39.2143104,9.59760795 38.9364186,9.59760795 L35.3743521,9.59760795 C35.0711975,9.59760795 34.7680429,9.57234507 34.5659399,9.34497912 C34.3890997,9.14287605 34.3890997,8.86498434 34.3890997,8.61235551 L34.3890997,5.45449512 L5.58941289,5.45449512 L5.58941289,8.68814416 C5.58941289,8.94077299 5.56415001,9.19340182 5.38730983,9.39550488 C5.18520676,9.59760795 4.93257793,9.59760795 4.6799491,9.59760795 L0.941042397,9.59760795 C0.688413566,9.59760795 0.435784734,9.59760795 0.233681669,9.39550488 C0.0315786039,9.19340182 0.0315786039,8.96603587 0.00631572078,8.68814416 L0.00631572078,1.41243381 C0.00631572078,1.1345421 -0.0189471624,0.831387501 0.0315786039,0.553495786 C0.0821043702,0.300866955 0.309470318,0.0987638899 0.56209915,0.0482381236 C0.915779514,-0.00228764263 1.24419699,0.0229752405 1.57261448,0.0229752405 Z" id="Path"></path>
                                    <path d="M9.25253095,9.52207193 L14.1535303,9.52207193 C14.4566849,9.52207193 14.8103652,9.54733481 15.0124683,9.79996364 C15.1893085,10.0020667 15.1893085,10.2546955 15.1893085,10.5073244 L15.1893085,14.1451795 C15.1893085,14.4230713 15.1893085,14.6757001 14.9872054,14.903066 C14.7851024,15.1051691 14.5072106,15.1051691 14.2293189,15.1051691 L9.75778861,15.1051691 C9.42937113,15.1051691 9.07569077,15.130432 8.77253617,15.0546433 C8.46938157,14.9283289 8.34306716,14.6504372 8.34306716,14.3220197 L8.34306716,10.5073244 C8.34306716,10.2294327 8.34306716,9.97680383 8.51990734,9.77470076 C8.7220104,9.54733481 8.99990212,9.52207193 9.25253095,9.52207193 L9.25253095,9.52207193 Z M18.9029523,13.8672878 L23.9050032,13.8672878 C24.157632,13.8672878 24.3849979,13.8672878 24.587101,14.044128 C24.7892041,14.2209682 24.814467,14.4483341 24.814467,14.700963 L24.814467,18.4398697 C24.814467,18.7430243 24.7134154,18.9956531 24.4355237,19.1472304 C24.1323691,19.2735448 23.728163,19.2230191 23.3997455,19.2230191 L19.0040038,19.2230191 C18.7261121,19.2230191 18.4734833,19.2230191 18.2713802,19.020916 C18.0692772,18.8188129 18.0692772,18.5409212 18.0692772,18.2882924 L18.0692772,14.8272774 C18.0692772,14.5493857 18.09454,14.2967568 18.2966431,14.0946538 C18.4482204,13.8925507 18.6503235,13.8925507 18.9029523,13.8672878 L18.9029523,13.8672878 Z M9.7830515,17.9093491 L14.2545818,17.9093491 C14.5072106,17.9093491 14.7345766,17.934612 14.9114168,18.1114522 C15.1135198,18.3135553 15.1135198,18.591447 15.1135198,18.8440758 L15.1135198,22.4061423 C15.1135198,22.6587712 15.088257,22.8608742 14.9114168,23.0377144 C14.7093137,23.2398175 14.4566849,23.2398175 14.1787932,23.2398175 L9.27779383,23.2398175 C9.025165,23.2398175 8.79779905,23.2398175 8.59569599,23.0629773 C8.39359292,22.8861371 8.36833004,22.6587712 8.34306716,22.4061423 L8.34306716,18.8440758 C8.34306716,18.5661841 8.34306716,18.2882924 8.5704331,18.0861893 C8.84832482,17.8335605 9.40410825,17.934612 9.7830515,17.9093491 L9.7830515,17.9093491 Z M28.4523221,17.9093491 L33.5301616,17.9093491 C33.7827905,17.9093491 34.0101564,17.934612 34.1869966,18.1114522 C34.4143626,18.3135553 34.3890997,18.591447 34.3890997,18.8693387 L34.3890997,22.4314052 C34.3890997,22.684034 34.3638368,22.9114 34.1617337,23.0882402 C33.9596307,23.2903432 33.7070018,23.2903432 33.4291101,23.2903432 L29.1091571,23.2903432 C28.7554767,23.2903432 28.3765335,23.3156061 28.048116,23.2398175 C27.7449614,23.1135031 27.618647,22.8356113 27.618647,22.5324567 L27.618647,18.8946016 C27.618647,18.6167099 27.618647,18.3893439 27.8207501,18.161978 C27.9975902,17.9598749 28.2249562,17.9093491 28.4523221,17.9093491 L28.4523221,17.9093491 Z M18.9029523,22.052462 L23.9050032,22.052462 C24.157632,22.052462 24.3849979,22.052462 24.587101,22.2293021 C24.7892041,22.4061423 24.814467,22.6587712 24.814467,22.9114 L24.814467,26.6503067 C24.814467,26.9281984 24.7134154,27.1555644 24.4860495,27.3071417 C24.1828949,27.458719 23.7534259,27.4081932 23.3997455,27.4081932 L19.0040038,27.4081932 C18.7261121,27.4081932 18.4734833,27.4081932 18.2713802,27.2060901 C18.0692772,27.0039871 18.0692772,26.7513582 18.0440143,26.4734665 L18.0440143,23.0124515 C18.0440143,22.7345598 18.0440143,22.4566681 18.2461173,22.2798279 C18.4229575,22.0777248 18.6503235,22.0777248 18.9029523,22.052462 L18.9029523,22.052462 Z M9.7830515,26.0945233 L14.2798447,26.0945233 C14.5324735,26.0945233 14.7598395,26.1197862 14.9366797,26.3218892 C15.1135198,26.5239923 15.1135198,26.7513582 15.1135198,27.0039871 L15.1135198,30.5660536 C15.1135198,30.8186824 15.1135198,31.0460484 14.9366797,31.2481514 C14.7598395,31.4502545 14.5072106,31.4755174 14.2545818,31.4755174 L9.25253095,31.4755174 C8.97463923,31.4755174 8.69674752,31.4755174 8.51990734,31.2228885 C8.34306716,30.9955226 8.34306716,30.7428938 8.34306716,30.4650021 L8.34306716,26.9029355 C8.34306716,26.574518 8.46938157,26.2966263 8.77253617,26.1703119 C9.07569077,26.0692604 9.45463401,26.1197862 9.7830515,26.0945233 L9.7830515,26.0945233 Z M1.06735681,31.551306 L4.70521198,31.551306 C4.9831037,31.551306 5.26099541,31.5765689 5.46309848,31.8039349 C5.63993866,32.0060379 5.61467578,32.2334039 5.63993866,32.4860327 L5.63993866,35.6944189 L34.540677,35.6944189 L34.540677,32.5618214 C34.540677,32.3091925 34.540677,32.0565637 34.74278,31.8544606 C34.970146,31.6270947 35.2227748,31.6270947 35.5259294,31.6270947 L38.9111558,31.6270947 C39.1637846,31.6270947 39.4669392,31.6270947 39.6690422,31.778672 C39.8964082,31.9555122 39.9974597,32.2586668 39.9974597,32.5365585 L39.9974597,40.2417378 C39.9974597,40.5196295 39.9721968,40.7469955 39.7700938,40.9238357 C39.5174649,41.1764645 39.0627331,41.075413 38.7343156,41.1006759 L1.01683105,41.1006759 C0.789465098,41.1006759 0.587362033,41.075413 0.435784734,40.9238357 C0.233681669,40.7469955 0.208418786,40.4943667 0.208418786,40.2417378 L0.208418786,32.4607698 C0.208418786,32.1576152 0.258944552,31.8797235 0.4863105,31.6776204 C0.612624916,31.551306 0.839990864,31.5765689 1.06735681,31.551306 L1.06735681,31.551306 Z" id="Shape"></path>
                                </g>
                            </g>
                        </g>
                    </g>
                </g>
            </g>
        </g>
    </g>
</svg>