<?xml version="1.0" encoding="UTF-8"?>
<svg width="22px" height="27px" viewBox="0 0 22 27" version="1.1" xmlns="http://www.w3.org/2000/svg" xmlns:xlink="http://www.w3.org/1999/xlink">
    <!-- Generator: Sketch 53.1 (72631) - https://sketchapp.com -->
    <title>Shape</title>
    <desc>Created with Sketch.</desc>
    <g id="2019-0306" stroke="none" stroke-width="1" fill="none" fill-rule="evenodd">
        <g id="2.1-Custom" transform="translate(-877.000000, -421.000000)" fill="#E20074" fill-rule="nonzero">
            <g id="Service-type" transform="translate(468.000000, 202.000000)">
                <g id="Type-of-service" transform="translate(6.000000, 59.000000)">
                    <g id="Build-Custom" transform="translate(374.000000, 141.000000)">
                        <g id="noun_Server_2196015" transform="translate(29.000000, 19.500000)">
                            <g id="Group">
                                <path d="M10.8406277,0 C8.00286364,0 5.42614648,0.449518569 3.4774917,1.23420516 C2.5031643,1.62654846 1.68020361,2.09450395 1.05632506,2.68846241 C0.432446826,3.28242087 0.000178390831,4.05309761 0.000178390831,4.89855072 C0.000178390831,6.58945696 1.46920799,7.8794015 3.41770972,8.83078578 C5.36621178,9.78217005 7.96561796,10.4094203 10.8406277,10.4094203 C13.7156371,10.4094203 16.3150436,9.78217005 18.2635457,8.83078578 C18.8115618,8.56320857 19.3179094,8.27310415 19.7680565,7.95057745 L19.7680565,10.7155797 C19.7680565,11.0261907 19.6516239,11.2765066 19.2898013,11.6053555 C18.9279788,11.9342044 18.318656,12.2783766 17.5063082,12.5620945 C15.8816133,13.1295916 13.4894567,13.4710206 10.8406277,13.4710206 C8.19179868,13.4710206 5.79964207,13.1295916 4.17494685,12.5620945 C3.36259941,12.2783766 2.75327656,11.9342044 2.39145404,11.6053555 C2.0296312,11.2765066 1.91319891,11.0261907 1.91319891,10.7155797 L1.91319891,9.18478261 C1.92034732,8.6995383 1.46207712,8.25321909 0.956688652,8.25321909 C0.451300188,8.25321909 -0.00697097149,8.6995383 0.000178390831,9.18478261 L0.000178390831,10.7155797 C0.000178390831,11.5798433 0.437765724,12.3644992 1.07625227,12.9447938 C1.71473883,13.525119 2.55101622,13.9528237 3.5273099,14.2938241 C5.47989694,14.9758554 8.0307083,15.3079771 10.8406277,15.3079771 C13.6505471,15.3079771 16.2013584,14.9758554 18.1539455,14.2938241 C19.1302392,13.9528237 19.9665166,13.525119 20.6050028,12.9447938 C21.2434893,12.3644992 21.681077,11.5798433 21.681077,10.7155797 L21.681077,4.89855072 C21.6763295,4.7946494 21.6640605,4.68803551 21.6551425,4.59221373 C21.5655024,3.86844368 21.1716096,3.2089273 20.6249287,2.68846241 C20.0010502,2.09450395 19.1780895,1.62654846 18.2037621,1.23420516 C16.2551086,0.449518569 13.6783914,0 10.8406274,0 L10.8406277,0 Z M10.8406277,1.83695652 C13.461612,1.83695652 15.8278629,2.27183149 17.45649,2.92764946 C18.2708041,3.25555844 18.8934433,3.64082946 19.2698741,3.99920743 C19.646305,4.3575854 19.7680565,4.64493745 19.7680565,4.89855072 C19.7680565,5.40577728 19.0254886,6.39946973 17.3967084,7.19474638 C15.7679278,7.99002303 13.4243664,8.57246377 10.8406277,8.57246377 C8.25688871,8.57246377 5.91332755,7.99002303 4.28454703,7.19474638 C2.65576683,6.39946973 1.91319891,5.40577728 1.91319891,4.89855072 C1.91319891,4.64493745 2.03495042,4.3575854 2.41138126,3.99920743 C2.7878121,3.64082946 3.41045132,3.25555844 4.22476538,2.92764946 C5.85339254,2.27183149 8.21964335,1.83695652 10.8406277,1.83695652 Z M0.946724884,13.7580451 C0.442530159,13.7629436 -0.0103015802,14.2115896 0.000178390831,14.6956583 L0.000178390831,15.920296 C0.000178390831,16.7972284 0.425690913,17.6016623 1.05632506,18.2164916 C1.6869592,18.831321 2.51877793,19.2933768 3.49741891,19.6707489 C5.4547012,20.4254931 8.01771874,20.8188467 10.8406277,20.8188467 C13.6635363,20.8188467 16.2265542,20.4254931 18.1838365,19.6707489 C19.1624775,19.2933768 19.9942962,18.831321 20.6249303,18.2164916 C21.2555645,17.6016623 21.681077,16.7972284 21.681077,15.920296 L21.681077,14.6956583 C21.6882222,14.2103956 21.2299536,13.764107 20.7245667,13.764107 C20.2191799,13.764107 19.7609097,14.2103956 19.7680565,14.6956583 L19.7680565,15.920296 C19.7680565,16.2645416 19.6395491,16.564486 19.2698741,16.9248663 C18.9001992,17.2852771 18.2864174,17.6553933 17.4764176,17.9677371 C15.8564173,18.5924248 13.4764671,18.9818902 10.8406277,18.9818902 C8.20478793,18.9818902 5.82483813,18.5924248 4.20483784,17.9677371 C3.39483801,17.6553933 2.78105619,17.2852771 2.41138126,16.9248663 C2.04170633,16.564486 1.91319891,16.2645416 1.91319891,15.920296 L1.91319891,14.6956583 C1.92381949,14.2052215 1.45756138,13.752871 0.946724884,13.7580451 L0.946724884,13.7580451 Z M0.946724884,18.9627552 C0.442530159,18.9676538 -0.0103015802,19.4162998 0.000178390831,19.9003684 L0.000178390831,20.8188467 C0.000178390831,21.6977998 0.425313724,22.4989884 1.05632506,23.1150424 C1.68733639,23.7310963 2.51852158,24.2023675 3.49741891,24.5788518 C5.45521358,25.3318509 8.01859204,25.7173974 10.8406277,25.7173974 C13.6626611,25.7173974 16.2260405,25.3318509 18.1838365,24.5788518 C19.1627344,24.2023675 19.993918,23.7310963 20.6249303,23.1150424 C21.2559426,22.4989884 21.681077,21.6977998 21.681077,20.8188467 L21.681077,19.9003684 C21.6882222,19.4151058 21.2299536,18.9688172 20.7245667,18.9688172 C20.2191799,18.9688172 19.7609097,19.4151058 19.7680565,19.9003684 L19.7680565,20.8188467 C19.7680565,21.1682664 19.6391709,21.4724664 19.2698741,21.8329998 C18.9005773,22.1935331 18.2861607,22.564384 17.4764176,22.87584 C15.8569309,23.4986907 13.4773424,23.8804409 10.8406277,23.8804409 C8.20391462,23.8804409 5.82432543,23.4986907 4.20483784,22.87584 C3.39509404,22.564384 2.780679,22.1935331 2.41138126,21.8329998 C2.04208352,21.4724664 1.91319891,21.1682664 1.91319891,20.8188467 L1.91319891,19.9003684 C1.92381949,19.4099317 1.45756138,18.9575811 0.946724884,18.9627552 L0.946724884,18.9627552 Z" id="Shape"></path>
                            </g>
                        </g>
                    </g>
                </g>
            </g>
        </g>
    </g>
</svg>