<svg id="svg" version="1.1" xmlns="http://www.w3.org/2000/svg" xmlns:xlink="http://www.w3.org/1999/xlink" width="400" height="235.97122302158274" viewBox="0, 0, 400,235.97122302158274"><g id="svgg"><path id="path0" d="M77.954 73.141 C 76.836 73.649,74.957 75.862,74.536 77.168 C 74.362 77.709,74.220 82.031,74.126 89.676 C 73.970 102.354,73.998 102.111,72.646 102.671 C 71.771 103.033,70.691 102.664,68.319 101.191 C 65.534 99.463,62.653 97.760,60.625 96.644 C 59.638 96.101,58.473 95.402,58.036 95.091 C 57.334 94.591,55.193 93.382,51.936 91.647 C 47.462 89.263,42.141 94.619,44.681 98.951 C 45.404 100.185,47.270 101.809,49.204 102.886 C 49.982 103.320,51.097 104.017,51.681 104.434 C 52.265 104.851,53.327 105.484,54.041 105.841 C 54.755 106.197,55.817 106.834,56.401 107.257 C 56.985 107.679,58.045 108.317,58.756 108.675 C 59.467 109.033,60.795 109.830,61.706 110.446 C 62.617 111.063,63.818 111.796,64.375 112.076 C 66.940 113.367,66.886 115.944,64.263 117.413 C 63.638 117.763,62.543 118.447,61.829 118.932 C 61.115 119.417,59.949 120.109,59.238 120.470 C 58.527 120.830,57.199 121.629,56.288 122.246 C 55.377 122.862,54.153 123.606,53.569 123.899 C 52.985 124.192,51.923 124.827,51.209 125.310 C 50.496 125.792,49.436 126.429,48.854 126.725 C 43.764 129.314,42.508 134.536,46.304 137.328 C 48.468 138.919,50.045 138.839,53.349 136.970 C 54.590 136.268,55.687 135.693,55.785 135.693 C 55.884 135.693,56.702 135.216,57.604 134.632 C 58.506 134.049,59.799 133.293,60.478 132.953 C 61.156 132.612,62.208 131.980,62.815 131.548 C 63.422 131.116,64.484 130.479,65.175 130.133 C 65.866 129.786,67.024 129.101,67.749 128.611 C 70.855 126.509,72.506 126.192,73.487 127.509 C 73.970 128.158,73.986 128.470,74.120 139.781 C 74.265 151.923,74.284 152.148,75.354 153.746 C 77.714 157.272,81.002 157.737,83.524 154.900 C 85.620 152.542,85.530 153.168,85.664 139.941 C 85.787 127.721,85.805 127.517,86.834 126.967 C 87.905 126.393,89.407 126.798,91.468 128.216 C 92.125 128.668,93.345 129.382,94.178 129.802 C 95.012 130.222,96.277 130.962,96.991 131.445 C 97.705 131.928,98.873 132.619,99.587 132.978 C 100.301 133.338,101.311 133.925,101.832 134.282 C 102.353 134.639,103.575 135.352,104.546 135.866 C 105.518 136.381,106.944 137.155,107.715 137.588 C 111.527 139.724,115.870 137.261,115.870 132.964 C 115.870 130.775,113.841 128.096,111.146 126.725 C 110.564 126.429,109.504 125.792,108.791 125.309 C 108.077 124.826,106.909 124.138,106.195 123.781 C 105.481 123.423,104.400 122.777,103.793 122.345 C 103.186 121.913,102.124 121.276,101.433 120.929 C 100.742 120.583,99.434 119.796,98.525 119.182 C 97.617 118.567,96.408 117.827,95.840 117.537 C 92.708 115.939,92.851 113.351,96.163 111.686 C 96.813 111.360,97.823 110.747,98.407 110.324 C 98.991 109.902,100.053 109.266,100.767 108.910 C 101.481 108.554,102.562 107.910,103.169 107.477 C 103.776 107.045,104.838 106.406,105.529 106.056 C 106.220 105.706,107.528 104.919,108.437 104.307 C 109.345 103.694,110.619 102.924,111.268 102.594 C 112.839 101.797,115.267 99.403,115.634 98.289 C 117.122 93.780,112.182 89.448,108.064 91.649 C 103.591 94.039,102.087 94.881,101.748 95.183 C 101.533 95.375,100.401 96.057,99.233 96.698 C 98.065 97.340,96.507 98.226,95.772 98.667 C 95.036 99.108,93.921 99.758,93.294 100.110 C 92.667 100.463,91.529 101.151,90.765 101.640 C 88.907 102.829,87.076 102.923,86.283 101.871 C 85.791 101.218,85.779 100.977,85.664 89.482 C 85.530 76.151,85.628 76.822,83.442 74.402 C 81.860 72.652,79.983 72.220,77.954 73.141 M204.684 72.942 C 203.824 73.192,201.647 75.462,201.084 76.696 C 200.762 77.404,200.691 79.191,200.587 89.204 C 200.499 97.714,200.388 101.064,200.176 101.545 C 199.431 103.236,197.128 103.045,194.540 101.078 C 194.133 100.769,192.965 100.056,191.944 99.495 C 189.995 98.424,187.512 96.957,183.934 94.764 C 182.755 94.042,181.707 93.451,181.605 93.451 C 181.502 93.451,180.769 93.053,179.975 92.566 C 176.590 90.492,174.346 90.512,172.183 92.634 C 168.986 95.771,170.395 100.281,175.352 102.775 C 176.059 103.130,177.115 103.766,177.699 104.189 C 178.283 104.611,179.345 105.248,180.059 105.604 C 180.773 105.960,181.994 106.702,182.773 107.253 C 183.552 107.803,184.773 108.547,185.487 108.905 C 186.201 109.264,187.263 109.899,187.847 110.318 C 188.431 110.736,189.475 111.382,190.167 111.753 C 193.324 113.444,193.406 116.010,190.354 117.567 C 189.819 117.840,188.637 118.567,187.729 119.181 C 186.820 119.796,185.599 120.538,185.015 120.831 C 184.431 121.125,183.369 121.759,182.655 122.242 C 181.941 122.725,180.886 123.359,180.311 123.651 C 179.736 123.944,178.567 124.635,177.715 125.187 C 176.863 125.739,175.634 126.490,174.985 126.856 C 170.078 129.623,168.954 134.036,172.388 137.059 C 174.214 138.666,176.243 138.900,178.361 137.748 C 178.888 137.462,180.203 136.761,181.282 136.192 C 182.362 135.623,183.829 134.762,184.543 134.278 C 185.257 133.794,186.413 133.109,187.113 132.755 C 187.812 132.402,188.980 131.709,189.708 131.217 C 190.437 130.724,191.510 130.081,192.094 129.788 C 192.678 129.495,193.773 128.838,194.526 128.327 C 197.451 126.345,199.196 126.165,200.068 127.757 C 200.429 128.417,200.484 129.733,200.590 140.177 C 200.724 153.432,200.615 152.685,202.735 154.927 C 205.134 157.463,208.149 157.305,210.212 154.536 C 211.904 152.263,211.788 153.222,211.917 140.413 C 212.026 129.707,212.071 128.659,212.467 127.863 C 213.287 126.216,214.670 126.229,217.359 127.908 C 218.195 128.430,219.392 129.148,220.018 129.502 C 220.644 129.857,221.706 130.487,222.378 130.901 C 223.049 131.316,224.342 132.047,225.251 132.526 C 226.159 133.005,227.487 133.793,228.201 134.277 C 228.914 134.760,230.083 135.448,230.796 135.805 C 231.510 136.162,232.688 136.812,233.414 137.248 C 236.547 139.133,239.258 138.706,241.317 136.006 C 243.608 133.002,241.978 129.284,237.138 126.473 C 233.006 124.074,231.619 123.246,229.950 122.184 C 228.982 121.568,227.654 120.793,226.998 120.461 C 226.343 120.129,225.310 119.506,224.703 119.078 C 224.096 118.650,223.047 118.004,222.372 117.644 C 219.024 115.855,219.078 113.617,222.515 111.696 C 223.371 111.218,224.549 110.487,225.133 110.072 C 225.717 109.657,226.779 109.027,227.493 108.671 C 228.206 108.315,229.268 107.679,229.853 107.257 C 230.437 106.834,231.489 106.200,232.190 105.847 C 232.892 105.494,234.167 104.752,235.022 104.198 C 235.878 103.644,237.108 102.891,237.755 102.526 C 242.487 99.854,243.676 95.679,240.550 92.710 C 237.857 90.152,235.027 90.685,228.437 94.989 C 227.593 95.540,226.319 96.284,225.605 96.642 C 224.891 97.000,223.723 97.688,223.009 98.171 C 222.295 98.654,221.137 99.340,220.435 99.695 C 219.733 100.050,218.459 100.800,217.603 101.362 C 214.778 103.217,213.216 103.270,212.444 101.535 C 212.098 100.759,212.034 99.197,211.924 88.968 L 211.799 77.286 211.172 76.224 C 209.402 73.226,207.328 72.177,204.684 72.942 M337.073 72.943 C 336.114 73.220,334.319 75.043,333.633 76.436 C 333.103 77.510,333.096 77.655,332.979 89.204 C 332.855 101.472,332.816 101.909,331.772 102.554 C 330.893 103.097,328.704 102.431,326.929 101.079 C 326.522 100.769,325.354 100.056,324.333 99.495 C 322.509 98.492,320.288 97.184,316.600 94.941 C 315.573 94.316,314.440 93.681,314.082 93.530 C 313.723 93.378,312.864 92.898,312.172 92.462 C 308.438 90.112,305.086 90.790,303.365 94.243 C 301.886 97.211,303.697 100.740,307.741 102.775 C 308.448 103.130,309.504 103.766,310.088 104.189 C 310.673 104.611,311.735 105.248,312.448 105.604 C 313.162 105.960,314.383 106.702,315.162 107.253 C 315.941 107.803,317.162 108.547,317.876 108.905 C 318.590 109.264,319.652 109.899,320.236 110.318 C 320.820 110.736,321.864 111.382,322.556 111.753 C 325.713 113.444,325.796 116.010,322.743 117.567 C 322.208 117.840,321.027 118.567,320.118 119.181 C 319.209 119.796,317.988 120.538,317.404 120.831 C 316.820 121.125,315.758 121.759,315.044 122.242 C 314.330 122.725,313.276 123.359,312.700 123.651 C 312.125 123.944,310.957 124.635,310.104 125.187 C 309.252 125.739,308.024 126.490,307.375 126.856 C 302.454 129.631,301.334 134.028,304.778 137.059 C 306.632 138.691,308.684 138.905,310.842 137.693 C 311.401 137.379,312.708 136.680,313.746 136.139 C 314.785 135.599,316.218 134.762,316.932 134.278 C 317.646 133.794,318.802 133.109,319.502 132.755 C 320.202 132.402,321.370 131.709,322.098 131.217 C 322.826 130.724,323.900 130.081,324.484 129.788 C 325.068 129.495,326.162 128.838,326.915 128.327 C 330.209 126.095,332.067 126.163,332.727 128.539 C 332.885 129.111,332.977 133.290,332.978 139.988 C 332.980 151.777,333.034 152.317,334.395 154.129 C 336.886 157.445,340.231 157.596,342.619 154.501 C 344.238 152.402,344.168 152.986,344.314 140.295 C 344.459 127.564,344.478 127.398,345.841 126.828 C 346.808 126.424,347.755 126.668,349.502 127.770 C 350.214 128.219,351.526 128.991,352.417 129.485 C 353.308 129.979,354.583 130.740,355.249 131.176 C 355.915 131.611,357.097 132.290,357.876 132.683 C 358.655 133.076,359.876 133.789,360.590 134.268 C 361.728 135.031,364.197 136.418,367.021 137.880 C 369.850 139.345,373.751 137.456,374.520 134.249 C 375.238 131.256,373.532 128.803,368.825 126.064 C 364.561 123.582,363.685 123.058,362.220 122.112 C 361.364 121.559,360.090 120.819,359.388 120.466 C 358.686 120.113,357.634 119.481,357.050 119.063 C 356.466 118.645,355.436 118.007,354.761 117.645 C 351.413 115.853,351.467 113.617,354.904 111.696 C 355.760 111.218,356.938 110.487,357.522 110.072 C 358.106 109.657,359.168 109.027,359.882 108.671 C 360.596 108.315,361.658 107.679,362.242 107.257 C 362.826 106.834,363.878 106.200,364.580 105.847 C 365.282 105.494,366.556 104.754,367.412 104.201 C 368.267 103.649,369.589 102.837,370.349 102.395 C 374.651 99.897,375.894 95.902,373.258 93.043 C 370.525 90.079,367.781 90.512,360.761 95.019 C 359.882 95.583,358.608 96.326,357.930 96.669 C 357.251 97.012,356.112 97.688,355.398 98.171 C 354.684 98.654,353.526 99.340,352.824 99.695 C 352.123 100.050,350.848 100.800,349.992 101.362 C 347.246 103.166,345.719 103.255,344.849 101.662 C 344.462 100.952,344.415 99.863,344.307 89.086 L 344.189 77.286 343.562 76.224 C 341.791 73.226,339.717 72.177,337.073 72.943 " stroke="none" fill="#e61a81" fill-rule="evenodd"></path><path id="path1" d="M0.000 117.994 L 0.000 235.988 200.000 235.988 L 400.000 235.988 400.000 117.994 L 400.000 0.000 200.000 0.000 L 0.000 0.000 0.000 117.994 M81.459 72.928 C 82.499 73.217,84.318 75.125,85.050 76.696 C 85.527 77.718,85.550 78.200,85.664 89.482 C 85.779 100.977,85.791 101.218,86.283 101.871 C 87.076 102.923,88.907 102.829,90.765 101.640 C 91.529 101.151,92.667 100.463,93.294 100.110 C 93.921 99.758,95.036 99.108,95.772 98.667 C 96.507 98.226,98.065 97.340,99.233 96.698 C 100.401 96.057,101.533 95.375,101.748 95.183 C 102.087 94.881,103.591 94.039,108.064 91.649 C 112.182 89.448,117.122 93.780,115.634 98.289 C 115.267 99.403,112.839 101.797,111.268 102.594 C 110.619 102.924,109.345 103.694,108.437 104.307 C 107.528 104.919,106.220 105.706,105.529 106.056 C 104.838 106.406,103.776 107.045,103.169 107.477 C 102.562 107.910,101.481 108.554,100.767 108.910 C 100.053 109.266,98.991 109.902,98.407 110.324 C 97.823 110.747,96.813 111.360,96.163 111.686 C 92.851 113.351,92.708 115.939,95.840 117.537 C 96.408 117.827,97.617 118.567,98.525 119.182 C 99.434 119.796,100.742 120.583,101.433 120.929 C 102.124 121.276,103.186 121.913,103.793 122.345 C 104.400 122.777,105.481 123.423,106.195 123.781 C 106.909 124.138,108.077 124.826,108.791 125.309 C 109.504 125.792,110.564 126.429,111.146 126.725 C 113.841 128.096,115.870 130.775,115.870 132.964 C 115.870 137.261,111.527 139.724,107.715 137.588 C 106.944 137.155,105.518 136.381,104.546 135.866 C 103.575 135.352,102.353 134.639,101.832 134.282 C 101.311 133.925,100.301 133.338,99.587 132.978 C 98.873 132.619,97.705 131.928,96.991 131.445 C 96.277 130.962,95.012 130.222,94.178 129.802 C 93.345 129.382,92.125 128.668,91.468 128.216 C 89.407 126.798,87.905 126.393,86.834 126.967 C 85.805 127.517,85.787 127.721,85.664 139.941 C 85.530 153.168,85.620 152.542,83.524 154.900 C 81.002 157.737,77.714 157.272,75.354 153.746 C 74.284 152.148,74.265 151.923,74.120 139.781 C 73.986 128.470,73.970 128.158,73.487 127.509 C 72.506 126.192,70.855 126.509,67.749 128.611 C 67.024 129.101,65.866 129.786,65.175 130.133 C 64.484 130.479,63.422 131.116,62.815 131.548 C 62.208 131.980,61.156 132.612,60.478 132.953 C 59.799 133.293,58.506 134.049,57.604 134.632 C 56.702 135.216,55.884 135.693,55.785 135.693 C 55.687 135.693,54.590 136.268,53.349 136.970 C 50.045 138.839,48.468 138.919,46.304 137.328 C 42.508 134.536,43.764 129.314,48.854 126.725 C 49.436 126.429,50.496 125.792,51.209 125.310 C 51.923 124.827,52.985 124.192,53.569 123.899 C 54.153 123.606,55.377 122.862,56.288 122.246 C 57.199 121.629,58.527 120.830,59.238 120.470 C 59.949 120.109,61.115 119.417,61.829 118.932 C 62.543 118.447,63.638 117.763,64.263 117.413 C 66.886 115.944,66.940 113.367,64.375 112.076 C 63.818 111.796,62.617 111.063,61.706 110.446 C 60.795 109.830,59.467 109.033,58.756 108.675 C 58.045 108.317,56.985 107.679,56.401 107.257 C 55.817 106.834,54.755 106.197,54.041 105.841 C 53.327 105.484,52.265 104.851,51.681 104.434 C 51.097 104.017,49.982 103.320,49.204 102.886 C 47.270 101.809,45.404 100.185,44.681 98.951 C 42.141 94.619,47.462 89.263,51.936 91.647 C 55.193 93.382,57.334 94.591,58.036 95.091 C 58.473 95.402,59.638 96.101,60.625 96.644 C 62.653 97.760,65.534 99.463,68.319 101.191 C 70.691 102.664,71.771 103.033,72.646 102.671 C 73.998 102.111,73.970 102.354,74.126 89.676 C 74.285 76.749,74.249 77.044,75.887 74.965 C 77.490 72.928,79.203 72.302,81.459 72.928 M207.788 72.948 C 208.840 73.239,210.170 74.526,211.172 76.224 L 211.799 77.286 211.924 88.968 C 212.034 99.197,212.098 100.759,212.444 101.535 C 213.216 103.270,214.778 103.217,217.603 101.362 C 218.459 100.800,219.733 100.050,220.435 99.695 C 221.137 99.340,222.295 98.654,223.009 98.171 C 223.723 97.688,224.891 97.000,225.605 96.642 C 226.319 96.284,227.593 95.540,228.437 94.989 C 235.027 90.685,237.857 90.152,240.550 92.710 C 243.676 95.679,242.487 99.854,237.755 102.526 C 237.108 102.891,235.878 103.644,235.022 104.198 C 234.167 104.752,232.892 105.494,232.190 105.847 C 231.489 106.200,230.437 106.834,229.853 107.257 C 229.268 107.679,228.206 108.315,227.493 108.671 C 226.779 109.027,225.717 109.657,225.133 110.072 C 224.549 110.487,223.371 111.218,222.515 111.696 C 219.078 113.617,219.024 115.855,222.372 117.644 C 223.047 118.004,224.096 118.650,224.703 119.078 C 225.310 119.506,226.343 120.129,226.998 120.461 C 227.654 120.793,228.982 121.568,229.950 122.184 C 231.619 123.246,233.006 124.074,237.138 126.473 C 241.978 129.284,243.608 133.002,241.317 136.006 C 239.258 138.706,236.547 139.133,233.414 137.248 C 232.688 136.812,231.510 136.162,230.796 135.805 C 230.083 135.448,228.914 134.760,228.201 134.277 C 227.487 133.793,226.159 133.005,225.251 132.526 C 224.342 132.047,223.049 131.316,222.378 130.901 C 221.706 130.487,220.644 129.857,220.018 129.502 C 219.392 129.148,218.195 128.430,217.359 127.908 C 214.670 126.229,213.287 126.216,212.467 127.863 C 212.071 128.659,212.026 129.707,211.917 140.413 C 211.788 153.222,211.904 152.263,210.212 154.536 C 208.149 157.305,205.134 157.463,202.735 154.927 C 200.615 152.685,200.724 153.432,200.590 140.177 C 200.484 129.733,200.429 128.417,200.068 127.757 C 199.196 126.165,197.451 126.345,194.526 128.327 C 193.773 128.838,192.678 129.495,192.094 129.788 C 191.510 130.081,190.437 130.724,189.708 131.217 C 188.980 131.709,187.812 132.402,187.113 132.755 C 186.413 133.109,185.257 133.794,184.543 134.278 C 183.829 134.762,182.362 135.623,181.282 136.192 C 180.203 136.761,178.888 137.462,178.361 137.748 C 176.243 138.900,174.214 138.666,172.388 137.059 C 168.954 134.036,170.078 129.623,174.985 126.856 C 175.634 126.490,176.863 125.739,177.715 125.187 C 178.567 124.635,179.736 123.944,180.311 123.651 C 180.886 123.359,181.941 122.725,182.655 122.242 C 183.369 121.759,184.431 121.125,185.015 120.831 C 185.599 120.538,186.820 119.796,187.729 119.181 C 188.637 118.567,189.819 117.840,190.354 117.567 C 193.406 116.010,193.324 113.444,190.167 111.753 C 189.475 111.382,188.431 110.736,187.847 110.318 C 187.263 109.899,186.201 109.264,185.487 108.905 C 184.773 108.547,183.552 107.803,182.773 107.253 C 181.994 106.702,180.773 105.960,180.059 105.604 C 179.345 105.248,178.283 104.611,177.699 104.189 C 177.115 103.766,176.059 103.130,175.352 102.775 C 170.395 100.281,168.986 95.771,172.183 92.634 C 174.346 90.512,176.590 90.492,179.975 92.566 C 180.769 93.053,181.502 93.451,181.605 93.451 C 181.707 93.451,182.755 94.042,183.934 94.764 C 187.512 96.957,189.995 98.424,191.944 99.495 C 192.965 100.056,194.133 100.769,194.540 101.078 C 197.128 103.045,199.431 103.236,200.176 101.545 C 200.388 101.064,200.499 97.714,200.587 89.204 C 200.724 75.991,200.607 76.804,202.700 74.514 C 204.300 72.763,205.635 72.353,207.788 72.948 M340.177 72.948 C 341.230 73.239,342.559 74.526,343.562 76.224 L 344.189 77.286 344.307 89.086 C 344.415 99.863,344.462 100.952,344.849 101.662 C 345.719 103.255,347.246 103.166,349.992 101.362 C 350.848 100.800,352.123 100.050,352.824 99.695 C 353.526 99.340,354.684 98.654,355.398 98.171 C 356.112 97.688,357.251 97.012,357.930 96.669 C 358.608 96.326,359.882 95.583,360.761 95.019 C 367.781 90.512,370.525 90.079,373.258 93.043 C 375.894 95.902,374.651 99.897,370.349 102.395 C 369.589 102.837,368.267 103.649,367.412 104.201 C 366.556 104.754,365.282 105.494,364.580 105.847 C 363.878 106.200,362.826 106.834,362.242 107.257 C 361.658 107.679,360.596 108.315,359.882 108.671 C 359.168 109.027,358.106 109.657,357.522 110.072 C 356.938 110.487,355.760 111.218,354.904 111.696 C 351.467 113.617,351.413 115.853,354.761 117.645 C 355.436 118.007,356.466 118.645,357.050 119.063 C 357.634 119.481,358.686 120.113,359.388 120.466 C 360.090 120.819,361.364 121.559,362.220 122.112 C 363.685 123.058,364.561 123.582,368.825 126.064 C 373.532 128.803,375.238 131.256,374.520 134.249 C 373.751 137.456,369.850 139.345,367.021 137.880 C 364.197 136.418,361.728 135.031,360.590 134.268 C 359.876 133.789,358.655 133.076,357.876 132.683 C 357.097 132.290,355.915 131.611,355.249 131.176 C 354.583 130.740,353.308 129.979,352.417 129.485 C 351.526 128.991,350.214 128.219,349.502 127.770 C 347.755 126.668,346.808 126.424,345.841 126.828 C 344.478 127.398,344.459 127.564,344.314 140.295 C 344.168 152.986,344.238 152.402,342.619 154.501 C 340.231 157.596,336.886 157.445,334.395 154.129 C 333.034 152.317,332.980 151.777,332.978 139.988 C 332.977 133.290,332.885 129.111,332.727 128.539 C 332.067 126.163,330.209 126.095,326.915 128.327 C 326.162 128.838,325.068 129.495,324.484 129.788 C 323.900 130.081,322.826 130.724,322.098 131.217 C 321.370 131.709,320.202 132.402,319.502 132.755 C 318.802 133.109,317.646 133.794,316.932 134.278 C 316.218 134.762,314.785 135.599,313.746 136.139 C 312.708 136.680,311.401 137.379,310.842 137.693 C 308.684 138.905,306.632 138.691,304.778 137.059 C 301.334 134.028,302.454 129.631,307.375 126.856 C 308.024 126.490,309.252 125.739,310.104 125.187 C 310.957 124.635,312.125 123.944,312.700 123.651 C 313.276 123.359,314.330 122.725,315.044 122.242 C 315.758 121.759,316.820 121.125,317.404 120.831 C 317.988 120.538,319.209 119.796,320.118 119.181 C 321.027 118.567,322.208 117.840,322.743 117.567 C 325.796 116.010,325.713 113.444,322.556 111.753 C 321.864 111.382,320.820 110.736,320.236 110.318 C 319.652 109.899,318.590 109.264,317.876 108.905 C 317.162 108.547,315.941 107.803,315.162 107.253 C 314.383 106.702,313.162 105.960,312.448 105.604 C 311.735 105.248,310.673 104.611,310.088 104.189 C 309.504 103.766,308.448 103.130,307.741 102.775 C 303.697 100.740,301.886 97.211,303.365 94.243 C 305.086 90.790,308.438 90.112,312.172 92.462 C 312.864 92.898,313.723 93.378,314.082 93.530 C 314.440 93.681,315.573 94.316,316.600 94.941 C 320.288 97.184,322.509 98.492,324.333 99.495 C 325.354 100.056,326.522 100.769,326.929 101.079 C 328.704 102.431,330.893 103.097,331.772 102.554 C 332.816 101.909,332.855 101.472,332.979 89.204 C 333.114 75.904,333.021 76.512,335.248 74.254 C 336.714 72.767,338.148 72.387,340.177 72.948 " stroke="none" fill="none" fill-rule="evenodd"></path></g></svg>
