<svg id="svg" version="1.1" xmlns="http://www.w3.org/2000/svg" xmlns:xlink="http://www.w3.org/1999/xlink" width="400" height="188.57142857142858" viewBox="0, 0, 400,188.57142857142858"><g id="svgg"><path id="path0" d="M141.307 50.080 C 140.100 50.681,138.919 51.947,138.267 53.338 L 137.765 54.408 137.671 66.950 C 137.559 81.799,137.654 81.268,135.014 81.834 C 133.831 82.088,101.541 82.109,99.800 81.857 C 96.432 81.370,96.488 81.544,96.353 71.193 C 96.165 56.853,95.382 56.272,84.206 62.185 C 82.151 63.272,81.313 63.691,79.585 64.495 C 78.703 64.905,77.303 65.606,76.473 66.053 C 75.644 66.501,74.286 67.179,73.456 67.560 C 72.626 67.942,71.353 68.579,70.627 68.976 C 69.901 69.373,68.713 69.970,67.987 70.301 C 67.261 70.632,65.818 71.355,64.781 71.906 C 63.744 72.457,62.386 73.136,61.763 73.414 C 61.141 73.692,59.868 74.328,58.934 74.828 C 58.001 75.328,56.643 76.008,55.917 76.339 C 55.191 76.670,53.833 77.346,52.900 77.840 C 51.966 78.335,50.522 79.049,49.692 79.429 C 40.809 83.484,41.162 86.933,50.919 91.454 C 51.801 91.863,52.989 92.449,53.560 92.758 C 54.130 93.066,58.204 95.110,62.612 97.300 C 67.020 99.490,71.094 101.530,71.664 101.835 C 72.235 102.139,73.593 102.810,74.682 103.327 C 75.771 103.844,77.129 104.519,77.699 104.829 C 80.474 106.334,90.395 111.090,91.166 111.284 C 93.649 111.909,95.421 110.849,96.011 108.385 C 96.171 107.719,96.283 104.698,96.360 99.010 C 96.481 90.033,96.485 89.993,97.479 89.156 C 98.523 88.278,98.915 88.260,117.360 88.261 C 135.683 88.262,135.736 88.265,136.585 89.155 C 137.579 90.197,137.559 89.938,137.676 103.253 C 137.751 111.897,137.851 115.892,138.002 116.329 C 140.052 122.260,147.441 122.096,149.375 116.077 C 149.557 115.510,149.644 112.245,149.726 102.876 C 149.850 88.730,149.753 89.537,151.435 88.685 L 152.272 88.260 173.503 88.260 L 194.734 88.260 195.564 88.685 C 197.404 89.625,197.438 89.908,197.447 104.392 C 197.455 117.215,197.465 117.273,199.822 119.347 C 202.954 122.105,207.815 120.403,209.160 116.077 C 209.332 115.525,209.424 111.994,209.506 102.876 C 209.631 89.045,209.560 89.754,210.905 88.751 L 211.437 88.355 232.971 88.304 L 254.504 88.254 255.348 88.681 C 257.037 89.538,256.939 88.725,257.066 102.876 C 257.184 116.018,257.185 116.032,258.097 117.611 C 260.602 121.948,266.354 121.583,268.527 116.949 L 269.024 115.889 269.119 103.347 C 269.224 89.520,269.180 90.008,270.418 88.966 C 271.297 88.227,271.015 88.238,287.129 88.299 L 302.027 88.355 302.845 88.791 C 304.452 89.649,304.456 89.675,304.583 99.670 C 304.699 108.894,304.712 109.021,305.661 110.298 C 307.177 112.337,309.536 111.828,317.115 107.827 C 317.944 107.389,319.169 106.775,319.837 106.462 C 321.094 105.873,335.584 98.610,336.917 97.902 C 337.331 97.681,338.477 97.124,339.463 96.664 C 340.448 96.205,341.721 95.576,342.291 95.267 C 342.862 94.959,345.520 93.627,348.198 92.308 C 354.946 88.984,356.908 87.641,357.395 86.017 C 357.869 84.433,357.246 83.243,355.173 81.773 C 353.201 80.374,310.757 59.135,309.321 58.829 C 307.566 58.454,306.099 59.051,305.381 60.432 C 304.738 61.668,304.693 62.246,304.583 70.721 C 304.451 80.810,304.444 80.843,302.310 81.677 C 301.435 82.019,273.425 82.175,271.842 81.846 C 269.129 81.283,269.230 81.839,269.118 66.950 L 269.024 54.408 268.475 53.220 C 266.062 47.994,259.195 48.615,257.417 54.220 C 257.239 54.781,257.150 58.156,257.066 67.421 C 256.940 81.451,257.037 80.598,255.463 81.500 L 254.691 81.942 233.286 81.942 C 208.896 81.942,210.819 82.074,209.948 80.347 L 209.524 79.505 209.519 68.560 C 209.512 54.154,209.429 53.420,207.582 51.517 C 205.015 48.873,201.555 48.935,199.096 51.670 C 197.508 53.437,197.578 52.781,197.462 66.855 C 197.344 81.261,197.414 80.698,195.623 81.526 L 194.719 81.942 173.409 81.942 C 150.073 81.942,151.592 82.013,150.568 80.876 C 149.763 79.981,149.741 79.645,149.735 68.006 C 149.729 56.468,149.639 54.711,148.981 53.218 C 147.660 50.219,144.016 48.730,141.307 50.080 " stroke="none" fill="#e5137b" fill-rule="evenodd"></path><path id="path1" d="M0.000 94.295 L 0.000 188.590 200.000 188.590 L 400.000 188.590 400.000 94.295 L 400.000 0.000 200.000 0.000 L 0.000 0.000 0.000 94.295 M145.875 50.051 C 147.051 50.609,148.469 52.055,148.981 53.218 C 149.639 54.711,149.729 56.468,149.735 68.006 C 149.741 79.645,149.763 79.981,150.568 80.876 C 151.592 82.013,150.073 81.942,173.409 81.942 L 194.719 81.942 195.623 81.526 C 197.414 80.698,197.344 81.261,197.462 66.855 C 197.578 52.781,197.508 53.437,199.096 51.670 C 201.555 48.935,205.015 48.873,207.582 51.517 C 209.429 53.420,209.512 54.154,209.519 68.560 L 209.524 79.505 209.948 80.347 C 210.819 82.074,208.896 81.942,233.286 81.942 L 254.691 81.942 255.463 81.500 C 257.037 80.598,256.940 81.451,257.066 67.421 C 257.150 58.156,257.239 54.781,257.417 54.220 C 259.195 48.615,266.062 47.994,268.475 53.220 L 269.024 54.408 269.118 66.950 C 269.230 81.839,269.129 81.283,271.842 81.846 C 273.425 82.175,301.435 82.019,302.310 81.677 C 304.444 80.843,304.451 80.810,304.583 70.721 C 304.693 62.246,304.738 61.668,305.381 60.432 C 306.099 59.051,307.566 58.454,309.321 58.829 C 310.757 59.135,353.201 80.374,355.173 81.773 C 357.246 83.243,357.869 84.433,357.395 86.017 C 356.908 87.641,354.946 88.984,348.198 92.308 C 345.520 93.627,342.862 94.959,342.291 95.267 C 341.721 95.576,340.448 96.205,339.463 96.664 C 338.477 97.124,337.331 97.681,336.917 97.902 C 335.584 98.610,321.094 105.873,319.837 106.462 C 319.169 106.775,317.944 107.389,317.115 107.827 C 309.536 111.828,307.177 112.337,305.661 110.298 C 304.712 109.021,304.699 108.894,304.583 99.670 C 304.456 89.675,304.452 89.649,302.845 88.791 L 302.027 88.355 287.129 88.299 C 271.015 88.238,271.297 88.227,270.418 88.966 C 269.180 90.008,269.224 89.520,269.119 103.347 L 269.024 115.889 268.527 116.949 C 266.354 121.583,260.602 121.948,258.097 117.611 C 257.185 116.032,257.184 116.018,257.066 102.876 C 256.939 88.725,257.037 89.538,255.348 88.681 L 254.504 88.254 232.971 88.304 L 211.437 88.355 210.905 88.751 C 209.560 89.754,209.631 89.045,209.506 102.876 C 209.424 111.994,209.332 115.525,209.160 116.077 C 207.815 120.403,202.954 122.105,199.822 119.347 C 197.465 117.273,197.455 117.215,197.447 104.392 C 197.438 89.908,197.404 89.625,195.564 88.685 L 194.734 88.260 173.503 88.260 L 152.272 88.260 151.435 88.685 C 149.753 89.537,149.850 88.730,149.726 102.876 C 149.644 112.245,149.557 115.510,149.375 116.077 C 147.441 122.096,140.052 122.260,138.002 116.329 C 137.851 115.892,137.751 111.897,137.676 103.253 C 137.559 89.938,137.579 90.197,136.585 89.155 C 135.736 88.265,135.683 88.262,117.360 88.261 C 98.915 88.260,98.523 88.278,97.479 89.156 C 96.485 89.993,96.481 90.033,96.360 99.010 C 96.283 104.698,96.171 107.719,96.011 108.385 C 95.421 110.849,93.649 111.909,91.166 111.284 C 90.395 111.090,80.474 106.334,77.699 104.829 C 77.129 104.519,75.771 103.844,74.682 103.327 C 73.593 102.810,72.235 102.139,71.664 101.835 C 71.094 101.530,67.020 99.490,62.612 97.300 C 58.204 95.110,54.130 93.066,53.560 92.758 C 52.989 92.449,51.801 91.863,50.919 91.454 C 41.162 86.933,40.809 83.484,49.692 79.429 C 50.522 79.049,51.966 78.335,52.900 77.840 C 53.833 77.346,55.191 76.670,55.917 76.339 C 56.643 76.008,58.001 75.328,58.934 74.828 C 59.868 74.328,61.141 73.692,61.763 73.414 C 62.386 73.136,63.744 72.457,64.781 71.906 C 65.818 71.355,67.261 70.632,67.987 70.301 C 68.713 69.970,69.901 69.373,70.627 68.976 C 71.353 68.579,72.626 67.942,73.456 67.560 C 74.286 67.179,75.644 66.501,76.473 66.053 C 77.303 65.606,78.703 64.905,79.585 64.495 C 81.313 63.691,82.151 63.272,84.206 62.185 C 90.944 58.620,93.045 58.108,94.761 59.615 C 96.129 60.816,96.226 61.522,96.353 71.193 C 96.488 81.544,96.432 81.370,99.800 81.857 C 101.541 82.109,133.831 82.088,135.014 81.834 C 137.654 81.268,137.559 81.799,137.671 66.950 L 137.765 54.408 138.267 53.338 C 139.766 50.141,143.064 48.716,145.875 50.051 " stroke="none" fill="none" fill-rule="evenodd"></path></g></svg>
