<svg id="svg" version="1.1" xmlns="http://www.w3.org/2000/svg" xmlns:xlink="http://www.w3.org/1999/xlink" width="400" height="284.375" viewBox="0, 0, 400,284.375"><g id="svgg"><path id="path0" d="M131.810 66.015 C 120.419 68.039,110.301 77.857,101.508 95.419 C 95.482 107.456,92.469 110.208,84.211 111.222 C 79.822 111.761,78.521 112.463,78.521 114.293 C 78.521 116.681,79.444 117.109,84.922 117.267 C 90.597 117.431,91.892 118.055,91.892 120.629 C 91.892 121.514,89.400 131.281,88.627 133.428 C 88.374 134.132,87.788 136.254,87.325 138.143 C 86.862 140.032,86.160 142.400,85.763 143.406 C 85.367 144.412,84.605 146.963,84.071 149.075 C 83.537 151.188,82.891 153.492,82.636 154.196 C 82.382 154.900,81.690 157.333,81.099 159.602 C 79.941 164.046,78.637 168.514,76.658 174.822 C 75.971 177.013,75.151 179.921,74.836 181.285 C 74.521 182.649,73.820 185.145,73.279 186.832 C 72.738 188.520,72.022 190.982,71.689 192.303 C 71.356 193.624,70.763 195.480,70.371 196.428 C 69.979 197.376,69.269 199.239,68.794 200.569 C 66.006 208.361,61.632 213.887,55.961 216.784 C 50.613 219.516,48.511 218.312,49.502 213.086 C 50.472 207.971,45.216 204.931,40.472 207.864 C 33.933 211.907,37.923 221.462,46.419 222.104 C 61.956 223.279,77.413 208.715,87.091 183.784 C 87.546 182.610,88.490 180.178,89.189 178.378 C 91.914 171.357,92.859 168.726,93.787 165.576 C 94.317 163.777,95.153 161.088,95.645 159.602 C 96.137 158.115,96.948 155.299,97.448 153.343 C 97.947 151.387,98.813 148.250,99.373 146.373 C 101.200 140.248,101.854 137.910,103.112 133.001 C 107.095 117.467,107.036 117.558,113.308 117.298 C 121.423 116.962,122.851 112.243,115.061 111.506 C 109.139 110.946,109.145 110.688,115.514 92.319 C 120.231 78.716,127.567 69.702,133.922 69.702 C 136.488 69.701,137.297 70.705,137.169 73.733 C 136.932 79.394,136.939 79.493,137.696 80.610 C 141.064 85.583,149.391 82.398,149.478 76.102 C 149.573 69.207,141.094 64.366,131.810 66.015 M208.202 68.565 C 194.601 74.091,178.108 93.882,171.692 112.376 C 171.176 113.862,170.423 115.942,170.017 116.997 C 169.169 119.207,166.845 131.069,166.436 135.277 C 165.473 145.185,167.074 161.926,169.686 169.275 C 175.651 186.056,179.584 192.947,189.466 203.934 C 196.966 212.273,209.615 220.761,211.377 218.638 C 212.042 217.836,211.381 216.865,208.185 213.949 C 196.856 203.614,190.222 192.886,187.654 180.749 C 187.263 178.897,186.557 175.806,186.085 173.878 C 182.754 160.260,182.439 129.537,185.483 115.078 C 186.707 109.259,188.377 102.606,189.068 100.795 C 189.474 99.732,190.192 97.774,190.664 96.444 C 193.690 87.916,201.900 77.028,209.156 71.922 C 212.781 69.370,212.102 66.980,208.202 68.565 M317.643 68.549 C 317.340 69.505,318.203 70.633,321.416 73.473 C 332.000 82.831,337.782 91.855,341.273 104.462 C 343.093 111.033,343.065 110.898,344.361 119.667 C 347.139 138.470,347.094 153.575,344.208 170.697 C 343.023 177.730,343.002 177.824,341.113 184.353 C 337.722 196.075,331.495 205.927,322.944 213.096 C 316.811 218.238,316.404 218.923,319.489 218.915 C 325.095 218.901,340.663 205.393,348.488 193.752 C 361.011 175.123,366.425 147.641,361.746 126.458 C 360.835 122.335,359.007 115.717,358.318 114.050 C 357.905 113.051,357.191 111.181,356.731 109.896 C 352.881 99.142,344.096 86.268,335.200 78.344 C 327.101 71.131,318.370 66.259,317.643 68.549 M291.070 109.980 C 285.525 111.472,278.468 117.783,272.763 126.354 C 268.889 132.174,267.325 132.033,265.608 125.706 C 263.150 116.648,258.830 110.485,254.553 109.933 C 253.291 109.770,238.146 112.607,236.998 113.222 C 234.496 114.560,235.908 115.952,240.591 116.763 C 248.074 118.060,250.923 121.296,253.508 131.437 C 254.166 134.018,255.139 137.795,255.669 139.829 C 257.620 147.309,257.353 149.341,253.590 155.649 C 243.311 172.876,237.872 178.187,233.121 175.635 C 228.213 172.999,228.147 172.973,226.378 172.973 C 220.490 172.973,218.018 180.389,222.526 184.528 C 228.037 189.587,236.270 186.470,244.529 176.200 C 245.767 174.660,247.425 172.687,248.212 171.816 C 249.646 170.231,250.969 168.339,255.004 162.099 C 258.624 156.501,260.253 157.164,261.913 164.908 C 262.621 168.214,263.030 169.738,265.007 176.455 C 269.279 190.967,278.966 190.056,290.778 174.032 C 293.358 170.531,293.831 169.336,292.973 168.478 C 292.351 167.856,291.923 168.115,289.348 170.666 C 281.089 178.846,278.181 177.376,275.245 163.536 C 274.725 161.084,273.913 157.692,273.441 155.997 C 272.969 154.303,272.304 151.508,271.964 149.787 C 271.623 148.065,271.086 145.825,270.770 144.808 C 269.392 140.371,271.198 135.776,277.258 128.302 C 282.396 121.966,284.924 120.800,290.574 122.162 C 296.539 123.599,299.554 122.821,301.348 119.381 C 304.226 113.866,297.953 108.129,291.070 109.980 " stroke="none" fill="#e62485" fill-rule="evenodd"></path><path id="path1" d="M0.000 142.248 L 0.000 284.495 200.000 284.495 L 400.000 284.495 400.000 142.248 L 400.000 0.000 200.000 0.000 L 0.000 0.000 0.000 142.248 M142.704 66.986 C 149.515 70.352,151.594 77.115,147.073 81.199 C 144.099 83.886,139.728 83.611,137.696 80.610 C 136.939 79.493,136.932 79.394,137.169 73.733 C 137.297 70.705,136.488 69.701,133.922 69.702 C 127.567 69.702,120.231 78.716,115.514 92.319 C 109.145 110.688,109.139 110.946,115.061 111.506 C 122.851 112.243,121.423 116.962,113.308 117.298 C 107.036 117.558,107.095 117.467,103.112 133.001 C 101.854 137.910,101.200 140.248,99.373 146.373 C 98.813 148.250,97.947 151.387,97.448 153.343 C 96.948 155.299,96.137 158.115,95.645 159.602 C 95.153 161.088,94.317 163.777,93.787 165.576 C 92.859 168.726,91.914 171.357,89.189 178.378 C 88.490 180.178,87.546 182.610,87.091 183.784 C 77.413 208.715,61.956 223.279,46.419 222.104 C 37.923 221.462,33.933 211.907,40.472 207.864 C 45.216 204.931,50.472 207.971,49.502 213.086 C 48.511 218.312,50.613 219.516,55.961 216.784 C 61.632 213.887,66.006 208.361,68.794 200.569 C 69.269 199.239,69.979 197.376,70.371 196.428 C 70.763 195.480,71.356 193.624,71.689 192.303 C 72.022 190.982,72.738 188.520,73.279 186.832 C 73.820 185.145,74.521 182.649,74.836 181.285 C 75.151 179.921,75.971 177.013,76.658 174.822 C 78.637 168.514,79.941 164.046,81.099 159.602 C 81.690 157.333,82.382 154.900,82.636 154.196 C 82.891 153.492,83.537 151.188,84.071 149.075 C 84.605 146.963,85.367 144.412,85.763 143.406 C 86.160 142.400,86.862 140.032,87.325 138.143 C 87.788 136.254,88.374 134.132,88.627 133.428 C 89.400 131.281,91.892 121.514,91.892 120.629 C 91.892 118.055,90.597 117.431,84.922 117.267 C 79.444 117.109,78.521 116.681,78.521 114.293 C 78.521 112.463,79.822 111.761,84.211 111.222 C 92.469 110.208,95.482 107.456,101.508 95.419 C 107.537 83.377,113.144 76.082,120.141 71.176 C 127.516 66.006,137.114 64.223,142.704 66.986 M211.366 68.405 C 211.941 69.097,210.968 70.646,209.156 71.922 C 201.900 77.028,193.690 87.916,190.664 96.444 C 190.192 97.774,189.474 99.732,189.068 100.795 C 188.377 102.606,186.707 109.259,185.483 115.078 C 182.439 129.537,182.754 160.260,186.085 173.878 C 186.557 175.806,187.263 178.897,187.654 180.749 C 190.222 192.886,196.856 203.614,208.185 213.949 C 211.381 216.865,212.042 217.836,211.377 218.638 C 209.615 220.761,196.966 212.273,189.466 203.934 C 179.584 192.947,175.651 186.056,169.686 169.275 C 167.074 161.926,165.473 145.185,166.436 135.277 C 166.845 131.069,169.169 119.207,170.017 116.997 C 170.423 115.942,171.176 113.862,171.692 112.376 C 177.538 95.525,190.081 79.386,203.912 70.918 C 208.371 68.188,210.571 67.446,211.366 68.405 M321.195 68.662 C 334.343 74.164,350.756 93.208,356.731 109.896 C 357.191 111.181,357.905 113.051,358.318 114.050 C 359.007 115.717,360.835 122.335,361.746 126.458 C 366.425 147.641,361.011 175.123,348.488 193.752 C 340.663 205.393,325.095 218.901,319.489 218.915 C 316.404 218.923,316.811 218.238,322.944 213.096 C 332.789 204.842,338.124 195.580,342.694 178.805 C 344.177 173.363,345.911 160.243,346.210 152.205 C 346.639 140.648,346.126 131.615,344.361 119.667 C 343.065 110.898,343.093 111.033,341.273 104.462 C 337.782 91.855,332.000 82.831,321.416 73.473 C 316.299 68.949,316.190 66.568,321.195 68.662 M296.704 109.976 C 301.943 111.532,303.715 118.042,299.799 121.344 C 297.679 123.132,295.427 123.331,290.574 122.162 C 284.924 120.800,282.396 121.966,277.258 128.302 C 271.198 135.776,269.392 140.371,270.770 144.808 C 271.086 145.825,271.623 148.065,271.964 149.787 C 272.304 151.508,272.969 154.303,273.441 155.997 C 273.913 157.692,274.725 161.084,275.245 163.536 C 278.181 177.376,281.089 178.846,289.348 170.666 C 291.923 168.115,292.351 167.856,292.973 168.478 C 293.831 169.336,293.358 170.531,290.778 174.032 C 278.966 190.056,269.279 190.967,265.007 176.455 C 263.030 169.738,262.621 168.214,261.913 164.908 C 260.253 157.164,258.624 156.501,255.004 162.099 C 250.969 168.339,249.646 170.231,248.212 171.816 C 247.425 172.687,245.767 174.660,244.529 176.200 C 236.270 186.470,228.037 189.587,222.526 184.528 C 218.018 180.389,220.490 172.973,226.378 172.973 C 228.147 172.973,228.213 172.999,233.121 175.635 C 237.872 178.187,243.311 172.876,253.590 155.649 C 257.353 149.341,257.620 147.309,255.669 139.829 C 255.139 137.795,254.166 134.018,253.508 131.437 C 250.923 121.296,248.074 118.060,240.591 116.763 C 235.908 115.952,234.496 114.560,236.998 113.222 C 238.146 112.607,253.291 109.770,254.553 109.933 C 258.830 110.485,263.150 116.648,265.608 125.706 C 267.325 132.033,268.889 132.174,272.763 126.354 C 280.792 114.292,290.007 107.988,296.704 109.976 " stroke="none" fill="none" fill-rule="evenodd"></path></g></svg>
