<?xml version="1.0" encoding="UTF-8"?>
<svg width="34px" height="34px" viewBox="0 0 34 34" version="1.1" xmlns="http://www.w3.org/2000/svg" xmlns:xlink="http://www.w3.org/1999/xlink">
    <!-- Generator: Sketch 55.2 (78181) - https://sketchapp.com -->
    <title>Group</title>
    <desc>Created with Sketch.</desc>
    <g id="Create-Service" stroke="none" stroke-width="1" fill="none" fill-rule="evenodd">
        <g id="jazz_2019-0530_create-service-website-framework-1" transform="translate(-817.000000, -2306.000000)" fill="#E20074" fill-rule="nonzero">
            <g id="Content" transform="translate(794.000000, 141.000000)">
                <g id="Sec-deets-Copy" transform="translate(0.000000, 1893.000000)">
                    <g id="Type-of-service-Copy-4" transform="translate(0.000000, 215.000000)">
                        <g id="runtime-copy" transform="translate(0.000000, 34.000000)">
                            <g id="None">
                                <g id="Group" transform="translate(23.000000, 23.000000)">
                                    <path d="M31.8605605,16.9915936 C31.8605605,17.3898698 31.8463449,17.788146 31.8179138,18.1864222 C31.8036983,18.3855603 31.782375,18.5775864 31.7610517,18.7767245 C31.7468361,18.8762935 31.7397283,18.9687505 31.7255128,19.0683195 C31.7610517,18.826509 31.6970817,19.2247852 31.6899739,19.2674576 C31.5691418,20.0284497 31.3914475,20.7823296 31.156891,21.5148733 C31.0502744,21.8491409 30.93655,22.1762963 30.8086101,22.5034518 C30.7730713,22.5887967 30.7375324,22.6812537 30.7019935,22.7665986 C30.5882692,23.0581936 30.7943946,22.5745725 30.6593469,22.8590555 C30.5669459,23.0581936 30.4816526,23.2573317 30.3821438,23.4564698 C30.0551862,24.132117 29.6784743,24.7793158 29.2520079,25.3980663 C29.1453914,25.554532 29.0387748,25.7038855 28.9321582,25.8532391 C28.875296,25.9314719 28.8184338,26.0025927 28.7686794,26.0808255 C28.7473561,26.1092738 28.6407395,26.2372912 28.7615716,26.0879376 C28.5127996,26.4008689 28.249812,26.7138002 27.9797167,27.0125074 C27.4750648,27.5601371 26.9348741,28.0722065 26.3591445,28.5487156 C26.2880668,28.6056122 26.2169891,28.6625088 26.1388036,28.7265174 C25.8971393,28.9185435 26.3093901,28.6056122 26.0606181,28.7905261 C25.9113549,28.9043193 25.7620916,29.0110004 25.6057206,29.1176816 C25.3000864,29.3310438 24.9873444,29.537294 24.6674947,29.72932 C24.3476449,29.921346 24.0206874,30.10626 23.6866221,30.2769498 C23.5302511,30.3551826 23.3809878,30.4334154 23.2246168,30.5045362 C23.1535391,30.5400966 23.0824614,30.5685449 23.0113837,30.6041052 C22.9758448,30.6183294 22.6133484,30.774795 22.8336893,30.6823381 C22.1300199,30.9810452 21.4050271,31.2157437 20.6729265,31.4077697 C20.2962146,31.5002267 19.9195026,31.5855716 19.5427907,31.6566924 C19.3508808,31.6922527 19.158971,31.720701 18.9670611,31.7491493 C19.2087254,31.713589 18.8888756,31.7562614 18.8604445,31.7633735 C18.7609357,31.7775976 18.6685346,31.7847097 18.5690258,31.7918218 C17.7445242,31.8771667 16.9129148,31.8913908 16.0884132,31.8416063 C15.1786183,31.7918218 14.8232297,31.7420373 13.9489737,31.5571233 C13.2026576,31.4006576 12.4634492,31.1872954 11.7455642,30.9170365 C11.5820854,30.8601399 11.4186067,30.7961313 11.2622357,30.7250105 C11.2124813,30.7036743 11.0205714,30.6183294 11.2124813,30.7036743 C11.127188,30.6681139 11.0418947,30.6254415 10.9566014,30.5898811 C10.5869973,30.4191913 10.2245009,30.2413894 9.86200448,30.0422513 C9.2080894,29.6795355 8.57549765,29.2741472 7.97844475,28.8260865 C7.95712144,28.8118623 7.71545717,28.6198363 7.90025926,28.7691899 C7.82918153,28.7122933 7.75099603,28.6553967 7.67991831,28.591388 C7.54487063,28.4847069 7.41693072,28.3709137 7.28899082,28.2642326 C6.99757215,28.0081979 6.71326124,27.7450511 6.44316589,27.4676802 C6.1801783,27.2045334 5.92429849,26.9271625 5.68263423,26.6497915 C5.58312541,26.5288862 5.4836166,26.415093 5.38410778,26.2941878 C5.3272456,26.223067 5.27038342,26.1519463 5.20641347,26.0737134 C5.34856892,26.2586274 5.11401242,25.9528082 5.09268911,25.9172478 C4.64489944,25.3127214 4.24686417,24.6868588 3.89147555,24.0254358 C3.71378123,23.6911683 3.54319469,23.3569008 3.3868237,23.0155212 C3.35128484,22.9301763 3.3086382,22.8448314 3.27309934,22.7594865 C3.36550038,22.9799608 3.24466825,22.6883657 3.23756048,22.6670295 C3.16648275,22.4892276 3.09540502,22.3114258 3.03143507,22.1336239 C2.76844749,21.4153043 2.56232208,20.6756485 2.40595109,19.9217685 C2.37041223,19.7297425 2.33487336,19.5448286 2.2993345,19.3528025 C2.28511896,19.2603456 2.27090341,19.1607765 2.25668787,19.0612075 C2.20693346,18.7411641 2.27801118,19.2816818 2.24247232,18.9545263 C2.19271791,18.5491381 2.15717905,18.1366377 2.13585573,17.7241374 C2.10031687,16.9133608 2.12164019,16.0954722 2.20693346,15.2918077 C2.21404123,15.2135749 2.221149,15.12823 2.23536455,15.0499971 C2.24247232,14.9931005 2.27090341,14.7797383 2.24247232,14.9931005 C2.27090341,14.8010745 2.2993345,14.6090485 2.33487336,14.4170225 C2.40595109,14.0045221 2.49835213,13.5991338 2.60496872,13.1937456 C2.69736976,12.852366 2.79687858,12.5180984 2.90349517,12.1838309 C2.96035735,12.006029 3.0243273,11.8282272 3.09540502,11.6504253 C3.13094389,11.5650804 3.15937498,11.4726234 3.19491384,11.3872785 C3.20912938,11.3517181 3.36550038,10.9890023 3.26599157,11.2023645 C3.56451801,10.5124933 3.91279887,9.84395822 4.30372636,9.20387146 C4.48142067,8.91227639 4.67333053,8.62779339 4.86524039,8.34331038 C4.97185697,8.19395681 5.08558133,8.03749116 5.19219792,7.88813758 C5.37700001,7.63921496 5.05715024,8.05171531 5.25616787,7.80990476 C5.33435337,7.71033571 5.41253887,7.61787873 5.49072437,7.51830968 C5.96694513,6.94934368 6.48581252,6.40882597 7.03311101,5.91098072 C7.31031414,5.6620581 7.59462504,5.42024754 7.88604371,5.19266114 C7.70124163,5.34201472 7.94290589,5.14998869 7.96422921,5.13576454 C8.01398362,5.10020417 8.06373803,5.06464379 8.11349243,5.02197134 C8.29118675,4.89395399 8.46888106,4.76593664 8.64657537,4.64503137 C9.27205936,4.22541894 9.91886666,3.85559104 10.594105,3.52843558 C10.7646916,3.44309068 10.9352781,3.37196993 11.1058647,3.29373711 C11.3901756,3.16571976 10.906847,3.37196993 11.1982657,3.25106466 C11.283559,3.21550428 11.37596,3.17994391 11.4612533,3.14438353 C11.8166419,3.00925411 12.1720305,2.88123676 12.5345269,2.76744356 C13.2879508,2.53274508 14.0555903,2.36205528 14.8303375,2.24115 C14.8800919,2.23403793 15.1004328,2.20558963 14.8871997,2.23403793 C14.9867085,2.21981378 15.0791095,2.2127017 15.1786183,2.19847755 C15.377636,2.17714133 15.5695458,2.1558051 15.7685635,2.14158095 C16.2021376,2.10602058 16.6428195,2.09179643 17.0763936,2.0989085 C18.0430507,2.10602058 18.8177979,2.17714133 19.6636228,2.34071905 C20.5449866,2.51140885 21.4192426,2.75321941 22.2579598,3.06615071 C22.6915339,3.22972843 22.8052583,3.27951296 23.2317246,3.47865106 C23.6652987,3.68490124 24.0846573,3.90537556 24.4969081,4.14718611 C24.845189,4.35343629 25.1792543,4.56679854 25.5133196,4.80149702 C25.9468937,5.10731624 26.1103725,5.22822152 26.5084077,5.56960112 C29.2022535,7.85968928 30.9507656,10.8609849 31.5975729,14.3530138 C31.782375,15.1922386 31.8534527,16.0385756 31.8605605,16.9915936 C31.8605605,17.5463355 32.3509968,18.0868532 32.9267263,18.0584049 C33.5024559,18.0299566 33.9928922,17.5890079 33.9928922,16.9915936 C33.9786767,12.9732712 32.5571222,9.11141449 29.9841085,6.031886 C27.531927,3.09459901 24.0277951,1.0178731 20.2677835,0.306665594 C16.6783583,-0.37609361 12.9823166,0.0861912676 9.67720239,1.6437357 C6.72747679,3.03059033 4.21132531,5.32779057 2.5054599,8.10149983 C0.742732316,10.9676661 -0.138631478,14.37435 0.0177395174,17.7383615 C0.174110513,21.0739247 1.29713857,24.3597034 3.29442266,27.0409557 C5.30592228,29.7506562 8.02819916,31.8060459 11.1982657,32.9795383 C14.3896556,34.1601428 17.9648652,34.3094963 21.2557638,33.4631594 C24.4258304,32.6452708 27.3613405,30.8743641 29.5647499,28.4491465 C31.782375,26.0025927 33.2963305,22.9159521 33.7867668,19.6443976 C33.9147067,18.7625003 33.9928922,17.8877151 34,16.9987057 C34,16.4439638 33.5095637,15.9034461 32.9338341,15.9318944 C32.343889,15.9461186 31.8605605,16.3941793 31.8605605,16.9915936 Z" id="Path"></path>
                                    <path d="M27.2352432,5.30127696 C26.5078655,6.02849722 25.7874152,6.74879157 25.0600375,7.47601183 C23.3074037,9.22826636 21.5616972,10.973595 19.8090634,12.7258495 C17.6962044,14.8382512 15.5902728,16.943727 13.4774138,19.0561287 C11.6555058,20.8776423 9.82667052,22.7060818 8.00476259,24.5275954 C7.11805455,25.4141115 6.19670948,26.2798499 5.33078366,27.2009956 C5.31692885,27.2148474 5.30307404,27.2286992 5.29614663,27.2356251 C4.90128446,27.6304018 4.90128446,28.3091408 5.29614663,28.7039175 C5.6910088,29.0986942 6.36989465,29.0986942 6.76475682,28.7039175 C7.49213451,27.9766972 8.21258479,27.2564029 8.93996248,26.5291826 C10.6925963,24.7769281 12.4383028,23.0315995 14.1909366,21.2793449 C16.3037956,19.1669432 18.4097272,17.0614674 20.5225862,14.9490657 C22.3444942,13.1275521 24.1733295,11.2991126 25.9952374,9.47759902 C26.8819454,8.59108289 27.8032905,7.72534449 28.6692163,6.80419883 C28.6830712,6.79034702 28.696926,6.7764952 28.7038534,6.7695693 C29.0987155,6.37479258 29.0987155,5.69605368 28.7038534,5.30127696 C28.3089912,4.89957435 27.6370328,4.89957435 27.2352432,5.30127696 L27.2352432,5.30127696 Z" id="Path"></path>
                                </g>
                            </g>
                        </g>
                    </g>
                </g>
            </g>
        </g>
    </g>
</svg>