<?xml version="1.0" encoding="UTF-8"?>
<svg width="104px" height="33px" viewBox="0 0 104 33" version="1.1" xmlns="http://www.w3.org/2000/svg" xmlns:xlink="http://www.w3.org/1999/xlink">
    <!-- Generator: Sketch 54 (76480) - https://sketchapp.com -->
    <title>Jazz-Logo</title>
    <desc>Created with Sketch.</desc>
    <g id="Environments" stroke="none" stroke-width="1" fill="none" fill-rule="evenodd">
        <g id="Jazz-Logo" transform="translate(0.000000, 0.342618)" fill-rule="nonzero">
            <path d="M8.97588107,19.4022632 L8.96559549,23.8833467 L2.23539895,17.1222934 L1.52766688e-13,14.8766089 L2.24568453,12.6412099 L9.0067378,5.91101337 L8.99645223,10.3920969 L4.48108348,14.8868944 L8.97588107,19.4022632 Z M38.2246364,10.4195251 L38.2692072,5.93844158 L44.9445473,12.7509227 L47.1628037,15.0171784 L44.896548,17.2354348 L38.0840668,23.9073464 L38.1286377,19.4262629 L42.6782917,14.9691791 L38.2246364,10.4195251 Z M17.4653182,18.3422602 L18.0445473,17.0351556 L19.3516519,17.6143846 L18.7724229,18.9214892 L17.4653182,18.3422602 Z M19.0874327,14.6849549 L19.6666618,13.3778502 L20.9737664,13.9570793 L20.3945374,15.2641839 L19.0874327,14.6849549 Z M20.7064127,11.0228319 L21.2856417,9.71572732 L22.5927464,10.2949564 L22.0135173,11.602061 L20.7064127,11.0228319 Z" id="Combined-Shape" fill="#FFFFFF"></path>
            <path d="M39.7709016,1.98877963 C39.7709016,1.98877963 34.4429722,0.157946744 31.8064357,4.96816872 C29.4853236,9.19896981 27.9356299,13.9303357 25.9470848,18.3325631 C23.8248272,23.0330722 20.6191554,32.8043713 14.3415243,32.228379 C12.8364013,32.0946664 7.94389474,29.9552662 7.48447226,28.3198593 C8.79214835,28.7775093 10.1549848,29.0588394 11.53699,29.1564197 C17.4203406,29.4101306 19.7414527,21.6616618 21.822568,17.2388633 C23.3379765,14.0206202 24.7996714,10.7749489 26.2076527,7.50184944 C27.428208,4.74531453 28.4053379,1.48478631 31.4155837,0.387657986 C34.2441177,-0.637471288 37.3195055,0.535084604 39.7709016,1.98877963 Z" id="Shape" fill="#E20074"></path>
            <path d="M64.879,17.1703819 C64.879,18.2103871 64.7490013,19.1442111 64.489,19.9718819 C64.2289987,20.7995528 63.8498358,21.5015457 63.3515,22.0778819 C62.8531642,22.6542182 62.2356703,23.0962137 61.499,23.4038819 C60.7623297,23.7115502 59.9173381,23.8653819 58.964,23.8653819 C58.1059957,23.8653819 57.2176713,23.7440498 56.299,23.5013819 L56.455,21.9153819 C56.4723334,21.7680479 56.5286662,21.6445491 56.624,21.5448819 C56.7193338,21.4452148 56.8623324,21.3953819 57.053,21.3953819 C57.2090008,21.3953819 57.4148321,21.4322149 57.6705,21.5058819 C57.9261679,21.579549 58.2663312,21.6163819 58.691,21.6163819 C59.2456694,21.6163819 59.7418311,21.5318828 60.1795,21.3628819 C60.6171689,21.1938811 60.9854985,20.9317171 61.2845,20.5763819 C61.5835015,20.2210468 61.8109992,19.768218 61.967,19.2178819 C62.1230008,18.6675459 62.201,18.0067191 62.201,17.2353819 L62.201,5.00238195 L64.879,5.00238195 L64.879,17.1703819 Z M77.022,23.6573819 C76.7793321,23.6573819 76.5930007,23.6183823 76.463,23.5403819 C76.3329994,23.4623816 76.2290004,23.3107164 76.151,23.0853819 L75.878,21.9023819 C75.5399983,22.2143835 75.206335,22.4938807 74.877,22.7408819 C74.547665,22.9878832 74.2031685,23.1937145 73.8435,23.3583819 C73.4838315,23.5230494 73.1003354,23.6487148 72.693,23.7353819 C72.2856646,23.822049 71.8306692,23.8653819 71.328,23.8653819 C70.8079974,23.8653819 70.3226689,23.7938827 69.872,23.6508819 C69.4213311,23.5078812 69.0291683,23.2890501 68.6955,22.9943819 C68.3618317,22.6997138 68.097501,22.3335508 67.9025,21.8958819 C67.707499,21.4582131 67.61,20.9403849 67.61,20.3423819 C67.61,19.8223793 67.7508319,19.324051 68.0325,18.8473819 C68.3141681,18.3707129 68.7734968,17.9438838 69.4105,17.5668819 C70.0475032,17.1898801 70.8794949,16.8800498 71.9065,16.6373819 C72.9335051,16.3947141 74.1966592,16.2560488 75.696,16.2213819 L75.696,15.2333819 C75.696,14.2367103 75.4815022,13.4848845 75.0525,12.9778819 C74.6234979,12.4708794 73.9930042,12.2173819 73.161,12.2173819 C72.5976639,12.2173819 72.1275019,12.2888812 71.7505,12.4318819 C71.3734981,12.5748827 71.0485014,12.7308811 70.7755,12.8998819 C70.5024986,13.0688828 70.2620011,13.2227146 70.054,13.3613819 C69.845999,13.5000493 69.6380011,13.5693819 69.43,13.5693819 C69.2566658,13.5693819 69.1115006,13.5238824 68.9945,13.4328819 C68.8774994,13.3418815 68.7756671,13.2357159 68.689,13.1143819 L68.247,12.3083819 C68.9836704,11.6150451 69.7788291,11.0950503 70.6325,10.7483819 C71.4861709,10.4017135 72.4286615,10.2283819 73.46,10.2283819 C74.2053371,10.2283819 74.8683304,10.3497141 75.449,10.5923819 C76.0296696,10.8350498 76.5171647,11.1752131 76.9115,11.6128819 C77.3058353,12.0505508 77.6048323,12.5770455 77.8085,13.1923819 C78.0121677,13.8077184 78.114,14.4880449 78.114,15.2333819 L78.114,23.6573819 L77.022,23.6573819 Z M72.069,22.1363819 C72.459002,22.1363819 72.8208317,22.0973823 73.1545,22.0193819 C73.4881683,21.9413816 73.8001652,21.828716 74.0905,21.6813819 C74.3808348,21.5340479 74.6559987,21.3542163 74.916,21.1418819 C75.1760013,20.9295476 75.4359987,20.68905 75.696,20.4203819 L75.696,17.7683819 C74.6559948,17.8030488 73.7720037,17.8853813 73.044,18.0153819 C72.3159964,18.1453826 71.7245023,18.3143809 71.2695,18.5223819 C70.8144977,18.730383 70.4830011,18.9795472 70.275,19.2698819 C70.066999,19.5602167 69.963,19.8787135 69.963,20.2253819 C69.963,20.5633836 70.0171661,20.8537141 70.1255,21.0963819 C70.2338339,21.3390498 70.3833324,21.5362145 70.574,21.6878819 C70.7646676,21.8395494 70.9878321,21.9522149 71.2435,22.0258819 C71.499168,22.099549 71.7743319,22.1363819 72.069,22.1363819 Z M91.024,11.5023819 C91.024,11.6757161 90.993667,11.8468811 90.933,12.0158819 C90.8723331,12.1848828 90.7943338,12.330048 90.699,12.4513819 L83.679,21.7333819 L90.79,21.7333819 L90.79,23.6573819 L80.806,23.6573819 L80.806,22.6173819 C80.806,22.5047147 80.8341664,22.3682161 80.8905,22.2078819 C80.9468336,22.0475478 81.0313328,21.893716 81.144,21.7463819 L88.19,12.3863819 L81.196,12.3863819 L81.196,10.4623819 L91.024,10.4623819 L91.024,11.5023819 Z M103.115,11.5023819 C103.115,11.6757161 103.084667,11.8468811 103.024,12.0158819 C102.963333,12.1848828 102.885334,12.330048 102.79,12.4513819 L95.77,21.7333819 L102.881,21.7333819 L102.881,23.6573819 L92.897,23.6573819 L92.897,22.6173819 C92.897,22.5047147 92.9251664,22.3682161 92.9815,22.2078819 C93.0378337,22.0475478 93.1223328,21.893716 93.235,21.7463819 L100.281,12.3863819 L93.287,12.3863819 L93.287,10.4623819 L103.115,10.4623819 L103.115,11.5023819 Z" id="Jazz" fill="#FFFFFF"></path>
        </g>
    </g>
</svg>