<svg id="svg" version="1.1" xmlns="http://www.w3.org/2000/svg" xmlns:xlink="http://www.w3.org/1999/xlink" width="400" height="344.954128440367" viewBox="0, 0, 400,344.954128440367"><g id="svgg"><path id="path0" d="M185.505 41.435 C 177.354 41.773,176.072 41.935,170.708 43.311 C 168.216 43.950,164.400 44.730,162.226 45.045 C 160.053 45.360,157.258 46.012,156.014 46.494 C 154.771 46.976,152.045 47.948,149.957 48.653 C 147.869 49.359,145.524 50.262,144.747 50.660 C 143.970 51.058,141.937 51.859,140.231 52.440 C 137.372 53.414,134.689 54.751,129.767 57.654 C 128.723 58.269,126.704 59.416,125.280 60.202 C 122.293 61.851,117.488 65.116,114.200 67.730 C 112.947 68.727,110.695 70.494,109.196 71.656 C 106.095 74.061,95.402 84.835,92.327 88.652 C 82.903 100.351,72.666 118.629,70.072 128.387 C 69.643 130.000,68.760 132.607,68.110 134.181 C 67.295 136.151,66.668 138.594,66.095 142.032 C 65.637 144.778,64.881 148.615,64.415 150.561 C 61.856 161.237,61.918 181.086,64.549 193.788 C 66.581 203.596,67.334 206.802,68.113 208.973 C 68.590 210.302,69.390 212.865,69.890 214.668 C 70.390 216.471,71.314 218.878,71.943 220.017 C 72.572 221.156,73.484 223.199,73.970 224.556 C 75.103 227.724,78.534 234.550,80.466 237.479 C 81.292 238.731,82.821 241.108,83.865 242.762 C 86.213 246.480,89.427 250.966,91.077 252.826 C 91.761 253.598,93.486 255.611,94.909 257.299 C 99.048 262.208,100.986 264.168,105.937 268.449 C 108.499 270.664,111.297 273.103,112.156 273.869 C 114.253 275.738,117.138 277.879,119.241 279.127 C 121.484 280.458,126.411 283.586,128.387 284.934 C 129.909 285.973,140.011 290.940,140.602 290.940 C 140.767 290.940,142.254 291.629,143.907 292.470 C 145.559 293.311,147.907 294.251,149.124 294.559 C 150.342 294.867,153.434 295.805,155.997 296.643 C 173.623 302.409,198.807 303.966,214.483 300.259 C 216.768 299.719,219.879 299.102,221.398 298.890 C 226.117 298.228,227.794 297.812,230.628 296.599 C 232.137 295.953,234.637 295.106,236.185 294.715 C 240.062 293.738,252.455 288.016,259.189 284.094 C 271.457 276.949,284.988 265.360,293.304 254.875 C 299.620 246.912,300.134 246.227,301.855 243.486 C 304.744 238.884,308.197 233.051,308.197 232.772 C 308.197 232.628,308.873 231.330,309.700 229.887 C 310.527 228.445,311.559 226.178,311.992 224.849 C 312.426 223.520,313.284 221.424,313.900 220.190 C 314.516 218.956,315.350 216.876,315.753 215.568 C 316.157 214.260,317.013 211.775,317.655 210.046 C 318.298 208.317,319.158 204.961,319.567 202.588 C 319.976 200.216,320.680 196.877,321.131 195.168 C 324.154 183.724,324.165 160.086,321.154 148.083 C 320.698 146.266,320.002 142.957,319.608 140.728 C 319.214 138.499,318.445 135.548,317.901 134.170 C 317.356 132.793,316.489 130.267,315.974 128.559 C 315.459 126.851,314.447 124.366,313.726 123.037 C 313.005 121.708,312.301 120.233,312.163 119.758 C 312.025 119.284,311.368 117.808,310.703 116.480 C 310.039 115.151,308.991 112.877,308.376 111.426 C 306.803 107.720,305.035 104.918,296.970 93.356 C 284.060 74.850,258.556 56.051,235.893 48.338 C 233.805 47.627,231.223 46.716,230.154 46.313 C 229.086 45.910,226.524 45.272,224.460 44.895 C 222.396 44.518,219.232 43.897,217.429 43.516 C 211.368 42.234,199.946 41.036,194.651 41.127 C 193.037 41.155,188.921 41.294,185.505 41.435 M199.365 57.635 C 205.745 58.070,218.622 60.539,224.159 62.388 C 226.437 63.149,229.543 64.038,231.061 64.365 C 238.494 65.962,258.420 77.170,263.699 82.723 C 265.812 84.947,265.990 86.421,264.401 88.559 C 262.162 91.571,109.938 243.281,108.599 243.835 C 105.493 245.120,104.085 243.680,95.769 230.716 C 93.598 227.332,90.269 221.202,89.396 218.982 C 88.948 217.843,88.086 215.902,87.481 214.668 C 86.876 213.434,86.107 211.260,85.772 209.836 C 85.438 208.412,84.499 205.229,83.686 202.761 C 80.257 192.357,78.752 180.271,79.302 167.558 C 79.697 158.413,79.665 158.662,82.314 144.343 C 82.604 142.773,83.299 140.339,83.857 138.933 C 84.416 137.528,85.186 135.149,85.569 133.648 C 86.206 131.156,88.875 125.001,90.994 121.139 C 91.462 120.285,92.391 118.426,93.058 117.009 C 99.493 103.328,119.809 81.429,131.493 75.580 C 132.347 75.152,133.487 74.491,134.026 74.111 C 137.949 71.346,150.048 65.452,154.098 64.333 C 155.807 63.860,158.506 63.011,160.096 62.444 C 161.686 61.877,165.103 61.040,167.689 60.583 C 170.274 60.126,173.710 59.447,175.324 59.074 C 179.545 58.096,180.854 57.916,185.677 57.642 C 192.190 57.272,194.040 57.271,199.365 57.635 M280.172 99.878 C 281.531 100.581,283.489 103.110,289.084 111.388 C 291.207 114.528,295.388 122.596,296.820 126.316 C 297.222 127.360,298.003 129.005,298.554 129.972 C 299.124 130.971,299.938 133.356,300.439 135.494 C 300.923 137.564,301.852 140.811,302.502 142.709 C 303.217 144.795,304.270 149.369,305.163 154.271 L 306.641 162.381 306.617 172.563 C 306.600 180.301,306.467 183.365,306.063 185.332 C 305.771 186.756,305.032 190.561,304.422 193.788 C 303.811 197.015,302.793 201.286,302.158 203.279 C 301.524 205.272,300.680 208.115,300.282 209.598 C 299.885 211.080,299.175 213.051,298.706 213.978 C 298.236 214.904,297.377 216.857,296.797 218.318 C 295.856 220.686,294.845 222.543,291.174 228.645 C 290.603 229.594,289.566 231.395,288.869 232.647 C 281.448 245.970,262.089 264.262,247.805 271.446 C 246.763 271.969,245.288 272.794,244.526 273.278 C 243.764 273.762,241.510 274.850,239.517 275.694 C 236.204 277.098,234.399 277.743,227.265 280.072 C 225.936 280.505,223.969 281.184,222.893 281.579 C 221.818 281.975,218.634 282.701,215.818 283.194 C 213.003 283.687,209.301 284.333,207.593 284.631 C 201.630 285.668,181.406 285.469,175.841 284.318 C 173.374 283.807,170.005 283.144,168.356 282.844 C 166.707 282.544,163.887 281.766,162.090 281.115 C 160.292 280.464,157.370 279.593,155.597 279.180 C 153.824 278.766,151.596 278.034,150.647 277.553 C 149.698 277.072,147.757 276.198,146.333 275.611 C 143.136 274.293,138.500 271.795,134.502 269.238 C 120.669 260.389,119.440 259.175,120.998 255.893 C 121.676 254.464,275.220 100.880,276.837 100.013 C 278.222 99.270,278.941 99.241,280.172 99.878 " stroke="none" fill="#e5177e" fill-rule="evenodd"></path><path id="path1" d="M0.000 172.563 L 0.000 345.125 200.000 345.125 L 400.000 345.125 400.000 172.563 L 400.000 0.000 200.000 0.000 L 0.000 0.000 0.000 172.563 M201.726 41.426 C 207.751 41.935,213.686 42.724,217.429 43.516 C 219.232 43.897,222.396 44.518,224.460 44.895 C 226.524 45.272,229.086 45.910,230.154 46.313 C 231.223 46.716,233.805 47.627,235.893 48.338 C 239.749 49.650,242.798 51.022,252.955 56.015 C 268.918 63.862,287.236 79.402,296.970 93.356 C 305.035 104.918,306.803 107.720,308.376 111.426 C 308.991 112.877,310.039 115.151,310.703 116.480 C 311.368 117.808,312.025 119.284,312.163 119.758 C 312.301 120.233,313.005 121.708,313.726 123.037 C 314.447 124.366,315.459 126.851,315.974 128.559 C 316.489 130.267,317.356 132.793,317.901 134.170 C 318.445 135.548,319.214 138.499,319.608 140.728 C 320.002 142.957,320.698 146.266,321.154 148.083 C 324.165 160.086,324.154 183.724,321.131 195.168 C 320.680 196.877,319.976 200.216,319.567 202.588 C 319.158 204.961,318.298 208.317,317.655 210.046 C 317.013 211.775,316.157 214.260,315.753 215.568 C 315.350 216.876,314.516 218.956,313.900 220.190 C 313.284 221.424,312.426 223.520,311.992 224.849 C 311.559 226.178,310.527 228.445,309.700 229.887 C 308.873 231.330,308.197 232.628,308.197 232.772 C 308.197 233.051,304.744 238.884,301.855 243.486 C 300.134 246.227,299.620 246.912,293.304 254.875 C 284.988 265.360,271.457 276.949,259.189 284.094 C 252.455 288.016,240.062 293.738,236.185 294.715 C 234.637 295.106,232.137 295.953,230.628 296.599 C 227.794 297.812,226.117 298.228,221.398 298.890 C 219.879 299.102,216.768 299.719,214.483 300.259 C 208.080 301.773,205.660 301.985,193.960 302.061 C 179.001 302.159,168.102 300.603,155.997 296.643 C 153.434 295.805,150.342 294.867,149.124 294.559 C 147.907 294.251,145.559 293.311,143.907 292.470 C 142.254 291.629,140.767 290.940,140.602 290.940 C 140.011 290.940,129.909 285.973,128.387 284.934 C 126.411 283.586,121.484 280.458,119.241 279.127 C 117.138 277.879,114.253 275.738,112.156 273.869 C 111.297 273.103,108.499 270.664,105.937 268.449 C 100.986 264.168,99.048 262.208,94.909 257.299 C 93.486 255.611,91.761 253.598,91.077 252.826 C 89.427 250.966,86.213 246.480,83.865 242.762 C 82.821 241.108,81.292 238.731,80.466 237.479 C 78.534 234.550,75.103 227.724,73.970 224.556 C 73.484 223.199,72.572 221.156,71.943 220.017 C 71.314 218.878,70.390 216.471,69.890 214.668 C 69.390 212.865,68.590 210.302,68.113 208.973 C 67.334 206.802,66.581 203.596,64.549 193.788 C 61.918 181.086,61.856 161.237,64.415 150.561 C 64.881 148.615,65.637 144.778,66.095 142.032 C 66.668 138.594,67.295 136.151,68.110 134.181 C 68.760 132.607,69.643 130.000,70.072 128.387 C 72.666 118.629,82.903 100.351,92.327 88.652 C 95.402 84.835,106.095 74.061,109.196 71.656 C 110.695 70.494,112.947 68.727,114.200 67.730 C 117.488 65.116,122.293 61.851,125.280 60.202 C 126.704 59.416,128.723 58.269,129.767 57.654 C 134.689 54.751,137.372 53.414,140.231 52.440 C 141.937 51.859,143.970 51.058,144.747 50.660 C 145.524 50.262,147.869 49.359,149.957 48.653 C 152.045 47.948,154.771 46.976,156.014 46.494 C 157.258 46.012,160.053 45.360,162.226 45.045 C 164.400 44.730,168.216 43.950,170.708 43.311 C 176.072 41.935,177.354 41.773,185.505 41.435 C 194.882 41.047,197.209 41.045,201.726 41.426 M185.677 57.642 C 180.854 57.916,179.545 58.096,175.324 59.074 C 173.710 59.447,170.274 60.126,167.689 60.583 C 165.103 61.040,161.686 61.877,160.096 62.444 C 158.506 63.011,155.807 63.860,154.098 64.333 C 150.048 65.452,137.949 71.346,134.026 74.111 C 133.487 74.491,132.347 75.152,131.493 75.580 C 119.809 81.429,99.493 103.328,93.058 117.009 C 92.391 118.426,91.462 120.285,90.994 121.139 C 88.875 125.001,86.206 131.156,85.569 133.648 C 85.186 135.149,84.416 137.528,83.857 138.933 C 83.299 140.339,82.604 142.773,82.314 144.343 C 79.665 158.662,79.697 158.413,79.302 167.558 C 78.752 180.271,80.257 192.357,83.686 202.761 C 84.499 205.229,85.438 208.412,85.772 209.836 C 86.107 211.260,86.876 213.434,87.481 214.668 C 88.086 215.902,88.948 217.843,89.396 218.982 C 90.269 221.202,93.598 227.332,95.769 230.716 C 104.085 243.680,105.493 245.120,108.599 243.835 C 109.938 243.281,262.162 91.571,264.401 88.559 C 265.990 86.421,265.812 84.947,263.699 82.723 C 258.420 77.170,238.494 65.962,231.061 64.365 C 229.543 64.038,226.437 63.149,224.159 62.388 C 218.622 60.539,205.745 58.070,199.365 57.635 C 194.040 57.271,192.190 57.272,185.677 57.642 M276.837 100.013 C 275.220 100.880,121.676 254.464,120.998 255.893 C 119.440 259.175,120.669 260.389,134.502 269.238 C 138.500 271.795,143.136 274.293,146.333 275.611 C 147.757 276.198,149.698 277.072,150.647 277.553 C 151.596 278.034,153.824 278.766,155.597 279.180 C 157.370 279.593,160.292 280.464,162.090 281.115 C 163.887 281.766,166.707 282.544,168.356 282.844 C 170.005 283.144,173.374 283.807,175.841 284.318 C 181.406 285.469,201.630 285.668,207.593 284.631 C 209.301 284.333,213.003 283.687,215.818 283.194 C 218.634 282.701,221.818 281.975,222.893 281.579 C 223.969 281.184,225.936 280.505,227.265 280.072 C 234.399 277.743,236.204 277.098,239.517 275.694 C 241.510 274.850,243.764 273.762,244.526 273.278 C 245.288 272.794,246.763 271.969,247.805 271.446 C 262.089 264.262,281.448 245.970,288.869 232.647 C 289.566 231.395,290.603 229.594,291.174 228.645 C 294.845 222.543,295.856 220.686,296.797 218.318 C 297.377 216.857,298.236 214.904,298.706 213.978 C 299.175 213.051,299.885 211.080,300.282 209.598 C 300.680 208.115,301.524 205.272,302.158 203.279 C 302.793 201.286,303.811 197.015,304.422 193.788 C 305.032 190.561,305.771 186.756,306.063 185.332 C 306.467 183.365,306.600 180.301,306.617 172.563 L 306.641 162.381 305.163 154.271 C 304.270 149.369,303.217 144.795,302.502 142.709 C 301.852 140.811,300.923 137.564,300.439 135.494 C 299.938 133.356,299.124 130.971,298.554 129.972 C 298.003 129.005,297.222 127.360,296.820 126.316 C 295.388 122.596,291.207 114.528,289.084 111.388 C 280.936 99.333,279.900 98.370,276.837 100.013 " stroke="none" fill="none" fill-rule="evenodd"></path></g></svg>
