<?xml version="1.0" encoding="UTF-8"?>
<svg width="16px" height="11px" viewBox="0 0 16 11" version="1.1" xmlns="http://www.w3.org/2000/svg" xmlns:xlink="http://www.w3.org/1999/xlink">
    <!-- Generator: Sketch 43.2 (39069) - http://www.bohemiancoding.com/sketch -->
    <title>icon-deployment</title>
    <desc>Created with Sketch.</desc>
    <defs></defs>
    <g id="Dashboard_v2" stroke="none" stroke-width="1" fill="none" fill-rule="evenodd" opacity="0.45">
        <g id="2_Services" transform="translate(-1049.000000, -510.000000)" fill-rule="nonzero" fill="#1EA6CE">
            <g id="Group-4" transform="translate(1020.000000, 56.000000)">
                <g id="Group-7" transform="translate(16.000000, 436.000000)">
                    <path d="M26.3333333,27.3333333 C27.07,27.3333333 27.66,26.7366667 27.66,26 L27.6666667,19.3333333 C27.6666667,18.5966667 27.07,18 26.3333333,18 L15.6666667,18 C14.93,18 14.3333333,18.5966667 14.3333333,19.3333333 L14.3333333,26 C14.3333333,26.7366667 14.93,27.3333333 15.6666667,27.3333333 L13,27.3333333 L13,28.6666667 L29,28.6666667 L29,27.3333333 L26.3333333,27.3333333 Z M15.6666667,19.3333333 L26.3333333,19.3333333 L26.3333333,26 L15.6666667,26 L15.6666667,19.3333333 Z" id="icon-deployment"></path>
                </g>
            </g>
        </g>
    </g>
</svg>