<?xml version="1.0" encoding="UTF-8"?>
<svg width="12px" height="12px" viewBox="0 0 12 12" version="1.1" xmlns="http://www.w3.org/2000/svg" xmlns:xlink="http://www.w3.org/1999/xlink">
    <!-- Generator: Sketch 43.2 (39069) - http://www.bohemiancoding.com/sketch -->
    <title>icon-settings</title>
    <desc>Created with Sketch.</desc>
    <defs></defs>
    <g id="Dashboard_v2" stroke="none" stroke-width="1" fill="none" fill-rule="evenodd">
        <g id="7_ServiceMetrics" transform="translate(-308.000000, -254.000000)" fill-rule="nonzero" fill="#AAAAAA">
            <path d="M318.580342,260.585 C318.605009,260.393 318.623509,260.198 318.623509,260 C318.623509,259.802 318.605009,259.607 318.580342,259.415 L319.884607,258.422 C320.001774,258.332 320.035692,258.17 319.958607,258.038 L318.72526,255.959 C318.648176,255.83 318.487841,255.776 318.34909,255.83 L316.813573,256.433 C316.495986,256.196 316.147565,255.995 315.771395,255.842 L315.540142,254.252 C315.512392,254.111 315.385974,254 315.231805,254 L312.765111,254 C312.610943,254 312.484525,254.111 312.459858,254.252 L312.228605,255.842 C311.852435,255.995 311.504014,256.193 311.186427,256.433 L309.65091,255.83 C309.512159,255.779 309.351824,255.83 309.27474,255.959 L308.041393,258.038 C307.964308,258.167 307.998226,258.329 308.115393,258.422 L309.416574,259.415 C309.391908,259.607 309.373407,259.802 309.373407,260 C309.373407,260.198 309.391908,260.393 309.416574,260.585 L308.115393,261.578 C307.998226,261.668 307.964308,261.83 308.041393,261.962 L309.27474,264.041 C309.351824,264.17 309.512159,264.224 309.65091,264.17 L311.186427,263.567 C311.504014,263.804 311.852435,264.005 312.228605,264.158 L312.459858,265.748 C312.484525,265.889 312.610943,266 312.765111,266 L315.231805,266 C315.385974,266 315.512392,265.889 315.537059,265.748 L315.768311,264.158 C316.144482,264.005 316.492902,263.807 316.810489,263.567 L318.346006,264.17 C318.484758,264.221 318.645093,264.17 318.722177,264.041 L319.955524,261.962 C320.032608,261.833 319.998691,261.671 319.881523,261.578 L318.580342,260.585 L318.580342,260.585 Z M313.998458,262.1 C312.805195,262.1 311.840101,261.161 311.840101,260 C311.840101,258.839 312.805195,257.9 313.998458,257.9 C315.191721,257.9 316.156815,258.839 316.156815,260 C316.156815,261.161 315.191721,262.1 313.998458,262.1 Z" id="icon-settings"></path>
        </g>
    </g>
</svg>