<?xml version="1.0" encoding="UTF-8"?>
<svg width="65px" height="80px" viewBox="0 0 65 80" version="1.1" xmlns="http://www.w3.org/2000/svg" xmlns:xlink="http://www.w3.org/1999/xlink">
    <!-- Generator: Sketch 46.2 (44496) - http://www.bohemiancoding.com/sketch -->
    <title>Jazz_Logo_Full</title>
    <desc>Created with Sketch.</desc>
    <defs></defs>
    <g id="Page-1" stroke="none" stroke-width="1" fill="none" fill-rule="evenodd">
        <g id="Jazz_Rev3-Copy-3" transform="translate(-522.000000, -3802.000000)" fill-rule="nonzero">
            <g id="Footer" transform="translate(522.000000, 3802.000000)">
                <g id="Group-46">
                    <g id="Jazz_Logo_Full" transform="translate(0.750000, 0.000000)">
                        <path d="M1.53173055,67.7637594 L3.94165327,65.0832309 C4.93217236,66.1758654 5.90226837,66.824298 7.11744127,66.824298 C8.55726799,66.824298 9.45077747,65.9563173 9.45588324,63.9446446 L9.45588324,52.7476943 L13.3771134,52.7476943 L13.3771134,64.1182407 C13.3771134,66.1605481 12.7746328,67.6922786 11.733056,68.7593842 C10.6914792,69.8264899 9.09847945,70.3677013 7.21445088,70.3677013 C5.01969726,70.4240277 2.92210708,69.4628677 1.53173055,67.7637594 Z" id="Shape" fill="#ED008C"></path>
                        <path d="M20.6273047,52.6455789 L24.150285,52.6455789 L31.5791781,70.1583648 L27.5711498,70.1583648 L25.9883616,66.2575577 L18.6411608,66.2575577 L17.048161,70.153259 L13.1575654,70.153259 L20.6273047,52.6455789 Z M24.635333,62.8571159 L22.3326314,57.2407705 L20.0146125,62.8571159 L24.635333,62.8571159 Z" id="Shape" fill="#ED008C"></path>
                        <polygon id="Shape" fill="#ED008C" points="32.2582453 67.2582883 41.8264555 56.1634534 32.5645914 56.1634534 32.5645914 52.8140693 46.7433105 52.8140693 46.7433105 55.7192515 37.1699946 66.8191922 46.7279932 66.8191922 46.7279932 70.1685763 32.2531395 70.1685763"></polygon>
                        <polygon id="Shape" fill="#ED008C" points="48.0963392 67.2787114 57.6951839 56.1634534 48.4333199 56.1634534 48.4333199 52.8140693 62.612039 52.8140693 62.612039 55.7192515 53.0131942 66.8345095 62.5711928 66.8345095 62.5711928 70.1838937 48.0963392 70.1838937"></polygon>
                        <path d="M7.59227774,78.0314598 C7.59486551,78.2046967 7.56899255,78.3771832 7.51569122,78.5420367 C7.47095574,78.6820149 7.40556104,78.8145252 7.32167201,78.9351808 C7.24238228,79.0467237 7.14587116,79.1449583 7.03574898,79.2262096 C6.82824303,79.3800605 6.58943847,79.4863896 6.3362587,79.5376615 C6.22369932,79.5609032 6.10910485,79.5728758 5.99417221,79.5734019 L2.16484584,79.5734019 L2.16484584,78.6288347 L5.99417221,78.6288347 C6.15767952,78.6392211 6.31827652,78.5819969 6.43837406,78.4705559 C6.54690664,78.3548472 6.60399918,78.2001449 6.59665289,78.0416714 C6.59794711,77.9598469 6.58409889,77.8784887 6.55580674,77.8017002 C6.52838951,77.7309708 6.48667374,77.666659 6.4332683,77.6127868 C6.38020109,77.5583908 6.31566057,77.5165267 6.24435486,77.4902484 C6.16450151,77.4596569 6.07968448,77.4440782 5.99417221,77.4442964 L3.71189369,77.4442964 C3.53870834,77.4411917 3.36682516,77.4136904 3.20131684,77.3626041 C3.01633055,77.3060475 2.84327848,77.2160604 2.69073999,77.0971042 C2.52543411,76.9692582 2.38960403,76.8073069 2.29249005,76.6222677 C2.08064529,76.1657024 2.08064529,75.6390064 2.29249005,75.182441 C2.39013009,74.9977551 2.52587356,74.8359071 2.69073999,74.7076045 C2.84302446,74.5882533 3.01615309,74.4982264 3.20131684,74.4421046 C3.36682516,74.3910183 3.53870834,74.363517 3.71189369,74.3604123 L7.09191243,74.3604123 L7.09191243,75.3049794 L3.71189369,75.3049794 C3.54919894,75.296159 3.39015429,75.3553384 3.2727976,75.468364 C3.16397516,75.5859494 3.1069462,75.7423191 3.11451878,75.9023544 C3.10657857,76.0609193 3.16375412,76.2158466 3.2727976,76.3312389 C3.39164213,76.4413619 3.55012029,76.4984878 3.71189369,76.4895177 L6.00438374,76.4895177 C6.11943773,76.4924231 6.23396673,76.5060982 6.34647023,76.5303639 C6.46947583,76.5565615 6.58930161,76.5959328 6.70387403,76.6477966 C6.82365106,76.7027446 6.93671919,76.7712708 7.04085475,76.8520273 C7.15001938,76.9343757 7.24637423,77.0324512 7.32677778,77.1430561 C7.41156478,77.2631799 7.47702992,77.3958329 7.52079698,77.5362003 C7.57023489,77.6965649 7.59435179,77.8636605 7.59227774,78.0314598 Z" id="Shape" fill="#666666"></path>
                        <path d="M13.3669019,79.5682961 L9.79286396,79.5682961 C9.64051744,79.565276 9.48931869,79.5412217 9.34355634,79.4968154 C9.17877163,79.4500297 9.02450628,79.3720304 8.88914294,79.2670558 C8.56178459,79.0310013 8.37099466,78.6494215 8.37856609,78.2459021 L8.37856609,74.8352487 C8.37773762,74.7721759 8.38990362,74.7096079 8.41430647,74.6514411 C8.43954205,74.5937819 8.47598887,74.541715 8.52152761,74.498268 C8.56667004,74.4536654 8.62056167,74.4188966 8.67980643,74.3961527 C8.74313314,74.3710769 8.81083695,74.3589249 8.8789314,74.3604123 L13.3515846,74.3604123 L13.3515846,75.3049794 L9.38440248,75.3049794 L9.38440248,78.2510079 C9.37632164,78.3564884 9.413445,78.4604338 9.48651785,78.5369309 C9.5703715,78.607435 9.67851989,78.6422624 9.78775819,78.6339405 L13.3617961,78.6339405 L13.3669019,79.5682961 Z M12.9227,77.4340849 L9.78265243,77.4340849 L9.78265243,76.4793062 L12.9175943,76.4793062 L12.9227,77.4340849 Z" id="Shape" fill="#666666"></path>
                        <path d="M19.7950644,76.1014793 C19.7970337,76.2971913 19.767732,76.4919617 19.7082664,76.6784312 C19.6575361,76.8391069 19.581715,76.9907491 19.4836126,77.1277388 C19.3902116,77.2543421 19.2783409,77.3662128 19.1517376,77.4596138 C19.0298569,77.550907 18.8979554,77.6279923 18.7585934,77.6893733 C18.625842,77.7469757 18.4871501,77.7897818 18.3450262,77.8170175 C18.215607,77.843312 18.0839425,77.8569914 17.951882,77.8578637 L20.024824,79.5631904 L18.4930935,79.5631904 L16.4252572,77.8578637 L15.7104496,77.8578637 L15.7104496,76.9132965 L17.9569878,76.9132965 C18.0741403,76.9045798 18.1893885,76.878778 18.2990743,76.83671 C18.3969151,76.7991327 18.4869375,76.7437343 18.5645742,76.6733254 C18.6396248,76.6052748 18.6988758,76.5216263 18.7381704,76.4282485 C18.7810444,76.3229688 18.8018961,76.210022 18.7994396,76.0963736 L18.7994396,75.4989987 C18.8084601,75.4586505 18.8084601,75.4168083 18.7994396,75.3764602 C18.7869521,75.3510938 18.767463,75.329833 18.7432761,75.315191 C18.7213998,75.3104997 18.6987775,75.3104997 18.6769011,75.315191 L15.3173055,75.315191 L15.3173055,79.5887192 L14.3267864,79.5887192 L14.3267864,74.8454603 C14.3259579,74.7823874 14.3381239,74.7198194 14.3625268,74.6616526 C14.3877623,74.6039934 14.4242092,74.5519265 14.4697479,74.5084796 C14.5148903,74.463877 14.568782,74.4291082 14.6280267,74.4063642 C14.6913534,74.3812884 14.7590572,74.3691364 14.8271517,74.3706238 L18.5952088,74.3706238 C18.7886034,74.3639389 18.9808964,74.4023975 19.1568434,74.4829507 C19.2996869,74.5511852 19.4266535,74.6485843 19.5295645,74.7688738 C19.6211634,74.8786974 19.6905281,75.005288 19.7337952,75.1415949 C19.7728898,75.2620364 19.7935464,75.3876974 19.7950644,75.514316 L19.7950644,76.1014793 Z" id="Shape" fill="#666666"></path>
                        <path d="M26.24365,74.3502007 L23.6499196,79.3844885 C23.6079355,79.4637113 23.544155,79.5292635 23.466112,79.5734019 C23.3858133,79.6210582 23.2939833,79.6457817 23.200612,79.6448827 C23.108972,79.6448557 23.0190283,79.6201653 22.9402178,79.5734019 C22.8634705,79.5276034 22.8000892,79.4624616 22.7564102,79.3844885 L20.1677855,74.3502007 L21.2808431,74.3502007 L23.2057178,78.1182579 L25.1356983,74.3604123 L26.24365,74.3502007 Z" id="Shape" fill="#666666"></path>
                        <path d="M31.7527742,79.5682961 L28.1787363,79.5682961 C28.0263898,79.565276 27.875191,79.5412217 27.7294287,79.4968154 C27.564644,79.4500297 27.4103786,79.3720304 27.2750153,79.2670558 C26.9476569,79.0310013 26.756867,78.6494215 26.7644384,78.2459021 L26.7644384,74.8352487 C26.7636099,74.7721759 26.775776,74.7096079 26.8001788,74.6514411 C26.8254144,74.5937819 26.8618612,74.541715 26.9073999,74.498268 C26.9525424,74.4536654 27.006434,74.4188966 27.0656788,74.3961527 C27.1290055,74.3710769 27.1967093,74.3589249 27.2648037,74.3604123 L31.7374569,74.3604123 L31.7374569,75.3049794 L27.7753806,75.3049794 L27.7753806,78.2510079 C27.7672997,78.3564884 27.8044231,78.4604338 27.877496,78.5369309 C27.9613496,78.607435 28.069498,78.6422624 28.1787363,78.6339405 L31.7527742,78.6339405 L31.7527742,79.5682961 Z M31.3085724,77.4340849 L28.1736305,77.4340849 L28.1736305,76.4793062 L31.3085724,76.4793062 L31.3085724,77.4340849 Z" id="Shape" fill="#666666"></path>
                        <path d="M38.1860425,76.1014793 C38.1880118,76.2971913 38.1587101,76.4919617 38.0992445,76.6784312 C38.0485142,76.8391069 37.9726931,76.9907491 37.8745907,77.1277388 C37.7811897,77.2543421 37.669319,77.3662128 37.5427157,77.4596138 C37.420835,77.550907 37.2889335,77.6279923 37.1495715,77.6893733 C37.0168201,77.7469757 36.8781282,77.7897818 36.7360043,77.8170175 C36.6065851,77.843312 36.4749206,77.8569914 36.3428601,77.8578637 L38.4158021,79.5631904 L36.8840716,79.5631904 L34.8162353,77.8578637 L34.1014277,77.8578637 L34.1014277,76.9132965 L36.3479659,76.9132965 C36.4651184,76.9045798 36.5803666,76.878778 36.6900524,76.83671 C36.7878932,76.7991327 36.8779156,76.7437343 36.9555523,76.6733254 C37.0306029,76.6052748 37.0898539,76.5216263 37.1291485,76.4282485 C37.1720225,76.3229688 37.1928742,76.210022 37.1904177,76.0963736 L37.1904177,75.4989987 C37.1994382,75.4586505 37.1994382,75.4168083 37.1904177,75.3764602 C37.1779302,75.3510938 37.1584411,75.329833 37.1342542,75.315191 C37.1123779,75.3104997 37.0897556,75.3104997 37.0678792,75.315191 L33.698072,75.315191 L33.698072,79.5887192 L32.7126587,79.5887192 L32.7126587,74.8454603 C32.7118302,74.7823874 32.7239962,74.7198194 32.7483991,74.6616526 C32.7736347,74.6039934 32.8100815,74.5519265 32.8556202,74.5084796 C32.9007627,74.463877 32.9546543,74.4291082 33.0138991,74.4063642 C33.0772258,74.3812884 33.1449296,74.3691364 33.213024,74.3706238 L36.9810812,74.3706238 C37.1744758,74.3639389 37.3667687,74.4023975 37.5427157,74.4829507 C37.6855592,74.5511852 37.8125259,74.6485843 37.9154368,74.7688738 C38.0070357,74.8786974 38.0764004,75.005288 38.1196675,75.1415949 C38.1587621,75.2620364 38.1794187,75.3876974 38.1809368,75.514316 L38.1860425,76.1014793 Z" id="Shape" fill="#666666"></path>
                        <path d="M44.2108493,79.5682961 L39.6820327,79.5682961 C39.6139382,79.5697835 39.5462344,79.5576316 39.4829077,79.5325558 C39.423921,79.5093062 39.3701256,79.4745995 39.3246289,79.4304404 C39.2786573,79.387367 39.2421442,79.3352053 39.2174078,79.2772673 C39.1924532,79.2174768 39.1802791,79.1531282 39.1816674,79.0883539 L39.1816674,74.345095 L40.1721865,74.345095 L40.1721865,78.6288347 L44.2108493,78.6288347 L44.2108493,79.5682961 Z" id="Shape" fill="#666666"></path>
                        <path d="M49.8680408,79.5682961 L46.2940029,79.5682961 C46.1416564,79.565276 45.9904576,79.5412217 45.8446953,79.4968154 C45.6799106,79.4500297 45.5256452,79.3720304 45.3902819,79.2670558 C45.0629235,79.0310013 44.8721336,78.6494215 44.879705,78.2459021 L44.879705,74.8352487 C44.8788765,74.7721759 44.8910426,74.7096079 44.9154454,74.6514411 C44.940681,74.5937819 44.9771278,74.541715 45.0226665,74.498268 C45.067809,74.4536654 45.1217006,74.4188966 45.1809454,74.3961527 C45.2442721,74.3710769 45.3119759,74.3589249 45.3800703,74.3604123 L49.8527235,74.3604123 L49.8527235,75.3049794 L45.8855414,75.3049794 L45.8855414,78.2510079 C45.8774606,78.3564884 45.9145839,78.4604338 45.9876568,78.5369309 C46.0715104,78.607435 46.1796588,78.6422624 46.2888971,78.6339405 L49.8629351,78.6339405 L49.8680408,79.5682961 Z M49.423839,77.4340849 L46.2837914,77.4340849 L46.2837914,76.4793062 L49.4187332,76.4793062 L49.423839,77.4340849 Z" id="Shape" fill="#666666"></path>
                        <path d="M56.0664438,78.0314598 C56.0690316,78.2046967 56.0431586,78.3771832 55.9898573,78.5420367 C55.9451218,78.6820149 55.8797271,78.8145252 55.7958381,78.9351808 C55.7165483,79.0467237 55.6200372,79.1449583 55.509915,79.2262096 C55.3024091,79.3800605 55.0636045,79.4863896 54.8104247,79.5376615 C54.6978654,79.5609032 54.5832709,79.5728758 54.4683382,79.5734019 L50.6390119,79.5734019 L50.6390119,78.6288347 L54.4683382,78.6288347 C54.6318456,78.6392211 54.7924426,78.5819969 54.9125401,78.4705559 C55.0210727,78.3548472 55.0781652,78.2001449 55.0708189,78.0416714 C55.0721131,77.9598469 55.0582649,77.8784887 55.0299728,77.8017002 C55.0025555,77.7309708 54.9608398,77.666659 54.9074343,77.6127868 C54.8543671,77.5583908 54.7898266,77.5165267 54.7185209,77.4902484 C54.6386675,77.4596569 54.5538505,77.4440782 54.4683382,77.4442964 L52.1860597,77.4442964 C52.0128744,77.4411917 51.8409912,77.4136904 51.6754829,77.3626041 C51.4904966,77.3060475 51.3174445,77.2160604 51.164906,77.0971042 C50.9996001,76.9692582 50.8637701,76.8073069 50.7666561,76.6222677 C50.5548113,76.1657024 50.5548113,75.6390064 50.7666561,75.182441 C50.8642961,74.9977551 51.0000396,74.8359071 51.164906,74.7076045 C51.3171905,74.5882533 51.4903191,74.4982264 51.6754829,74.4421046 C51.8409912,74.3910183 52.0128744,74.363517 52.1860597,74.3604123 L55.5660785,74.3604123 L55.5660785,75.3049794 L52.1860597,75.3049794 C52.023365,75.296159 51.8643203,75.3553384 51.7469636,75.468364 C51.6381412,75.5859494 51.5811122,75.7423191 51.5886848,75.9023544 C51.5807446,76.0609193 51.6379202,76.2158466 51.7469636,76.3312389 C51.8658082,76.4413619 52.0242863,76.4984878 52.1860597,76.4895177 L54.4785498,76.4895177 C54.5936038,76.4924231 54.7081328,76.5060982 54.8206363,76.5303639 C54.9436419,76.5565615 55.0634676,76.5959328 55.1780401,76.6477966 C55.2978171,76.7027446 55.4108852,76.7712708 55.5150208,76.8520273 C55.6241854,76.9343757 55.7205403,77.0324512 55.8009438,77.1430561 C55.8857308,77.2631799 55.951196,77.3958329 55.994963,77.5362003 C56.0444009,77.6965649 56.0685178,77.8636605 56.0664438,78.0314598 Z" id="Shape" fill="#666666"></path>
                        <path d="M62.1576256,78.0314598 C62.1602134,78.2046967 62.1343404,78.3771832 62.0810391,78.5420367 C62.0363036,78.6820149 61.9709089,78.8145252 61.8870199,78.9351808 C61.8077301,79.0467237 61.711219,79.1449583 61.6010968,79.2262096 C61.3935909,79.3800605 61.1547863,79.4863896 60.9016065,79.5376615 C60.7890472,79.5609032 60.6744527,79.5728758 60.5595201,79.5734019 L56.7301937,79.5734019 L56.7301937,78.6288347 L60.5595201,78.6288347 C60.7230274,78.6392211 60.8836244,78.5819969 61.0037219,78.4705559 C61.1122545,78.3548472 61.169347,78.2001449 61.1620007,78.0416714 C61.163295,77.9598469 61.1494467,77.8784887 61.1211546,77.8017002 C61.0937374,77.7309708 61.0520216,77.666659 60.9986161,77.6127868 C60.9455489,77.5583908 60.8810084,77.5165267 60.8097027,77.4902484 C60.7298494,77.4596569 60.6450323,77.4440782 60.5595201,77.4442964 L58.2772415,77.4442964 C58.1040562,77.4411917 57.932173,77.4136904 57.7666647,77.3626041 C57.5816784,77.3060475 57.4086263,77.2160604 57.2560878,77.0971042 C57.090782,76.9692582 56.9549519,76.8073069 56.8578379,76.6222677 C56.6459931,76.1657024 56.6459931,75.6390064 56.8578379,75.182441 C56.9554779,74.9977551 57.0912214,74.8359071 57.2560878,74.7076045 C57.4083723,74.5882533 57.5815009,74.4982264 57.7666647,74.4421046 C57.932173,74.3910183 58.1040562,74.363517 58.2772415,74.3604123 L61.6572603,74.3604123 L61.6572603,75.3049794 L58.2772415,75.3049794 C58.1145468,75.296159 57.9555021,75.3553384 57.8381454,75.468364 C57.729323,75.5859494 57.672294,75.7423191 57.6798666,75.9023544 C57.6719264,76.0609193 57.729102,76.2158466 57.8381454,76.3312389 C57.95699,76.4413619 58.1154681,76.4984878 58.2772415,76.4895177 L60.5697316,76.4895177 C60.6847856,76.4924231 60.7993146,76.5060982 60.9118181,76.5303639 C61.0348237,76.5565615 61.1546495,76.5959328 61.2692219,76.6477966 C61.3889989,76.7027446 61.502067,76.7712708 61.6062026,76.8520273 C61.7153672,76.9343757 61.8117221,77.0324512 61.8921256,77.1430561 C61.9769126,77.2631799 62.0423778,77.3958329 62.0861448,77.5362003 C62.1355827,77.6965649 62.1596996,77.8636605 62.1576256,78.0314598 Z" id="Shape" fill="#666666"></path>
                        <polygon id="Shape" fill="#777777" points="12.6061424 27.8672844 6.29541255 21.5310257 12.6316712 15.2202959 12.6469885 8.92488332 3.15536493 18.3756608 0 21.5157084 3.14004762 24.6710733 12.5908251 34.162697"></polygon>
                        <polygon id="Shape" fill="#777777" points="51.5682617 15.2560362 57.8228281 21.6484584 51.4355118 27.9081306 51.3691368 34.1984373 60.9373469 24.8242464 64.1182407 21.7097276 61.0037219 18.5339396 51.629531 8.9606237"></polygon>
                        <path d="M53.4267615,3.01750918 C52.5339245,2.69187024 51.5980821,2.49919679 50.6492234,2.44566311 L50.5981657,2.44566311 C49.0447503,2.37030806 47.4940872,2.64241542 46.0591375,3.24216299 L45.9978683,3.24216299 C42.672754,4.69603953 40.1056978,7.47223585 38.9161674,10.9008157 L30.5273898,33.9737835 L30.5273898,33.9737835 L30.4661206,34.1422739 C29.7590291,36.1005761 28.6113246,37.8701722 27.1116307,39.3144174 C26.4504967,39.9495662 25.7210276,40.5095107 24.9365733,40.9840037 C23.8757979,41.6347724 22.7147581,42.1057439 21.5003911,42.3778785 C20.9961326,42.4888881 20.4840173,42.5605843 19.9686606,42.5923207 C18.6043522,42.6864954 17.235461,42.4934244 15.9504208,42.0255804 L10.6914792,40.1058115 C11.1246249,40.2625628 11.5682081,40.3888134 12.018979,40.4836384 L12.018979,40.4836384 C12.4967888,40.5845073 12.9814969,40.6493626 13.4690173,40.6776576 L13.4690173,40.6776576 C15.0403914,40.7645288 16.6111174,40.4957602 18.0642089,39.8913692 C21.4156532,38.4540991 24.0092882,35.6752044 25.2122848,32.2327165 L33.4325721,9.58352745 L33.4325721,9.58352745 C33.4938413,9.38440248 33.565322,9.18017174 33.6368028,8.98104677 C34.3469482,7.01761355 35.5000607,5.24426631 37.00661,3.79869176 C37.6300346,3.1980052 38.3145204,2.6641063 39.0489174,2.20569199 C40.1479891,1.51813382 41.3568679,1.0242205 42.6229553,0.745442199 C43.0972309,0.641084744 43.5784253,0.571123848 44.0627821,0.536105691 L44.0627821,0.536105691 C45.4487492,0.431326781 46.8411437,0.622781033 48.1473969,1.09774023 L53.4267615,3.01750918 Z" id="Shape" fill="#ED008C"></path>
                        <rect id="Rectangle-path" fill="#000000" transform="translate(27.773029, 14.079931) rotate(20.000000) translate(-27.773029, -14.079931) " x="26.8105919" y="13.1174938" width="1.92487472" height="1.92487472"></rect>
                        <rect id="Rectangle-path" fill="#000000" transform="translate(25.930587, 19.148149) rotate(20.000000) translate(-25.930587, -19.148149) " x="24.9681496" y="18.185712" width="1.92487472" height="1.92487472"></rect>
                        <rect id="Rectangle-path" fill="#000000" transform="translate(24.079987, 24.214929) rotate(20.000000) translate(-24.079987, -24.214929) " x="23.11755" y="23.2524917" width="1.92487472" height="1.92487472"></rect>
                    </g>
                </g>
            </g>
        </g>
    </g>
</svg>