<?xml version="1.0" encoding="UTF-8"?>
<svg width="89px" height="33px" viewBox="0 0 89 33" version="1.1" xmlns="http://www.w3.org/2000/svg" xmlns:xlink="http://www.w3.org/1999/xlink">
    <!-- Generator: Sketch 46.2 (44496) - http://www.bohemiancoding.com/sketch -->
    <title>Jazz_text2</title>
    <desc>Created with Sketch.</desc>
    <defs></defs>
    <g id="Page-1" stroke="none" stroke-width="1" fill="none" fill-rule="evenodd">
        <g id="Jazz_Rev3-Copy-3" transform="translate(-35.000000, -11.000000)" fill-rule="nonzero">
            <g id="Jazz_text2" transform="translate(35.000000, 11.000000)">
                <g id="Jazz_Logo">
                    <polygon id="Shape" fill="#FFFFFF" points="8.97588107 19.7448812 4.48108348 15.2295125 8.99645223 10.7347149 9.0067378 6.25363143 2.24568453 12.983828 0 15.2192269 2.23539895 17.4649114 8.96559549 24.2259647"></polygon>
                    <polygon id="Shape" fill="#FFFFFF" points="38.2246364 10.7621431 42.6782917 15.3117971 38.1286377 19.7688809 38.0840668 24.2499644 44.896548 17.5780528 47.1628037 15.3597965 44.9445473 13.0935408 38.2692072 6.28105963"></polygon>
                    <path d="M39.7709016,2.33139768 C39.7709016,2.33139768 34.4429722,0.500564796 31.8064357,5.31078678 C29.4853236,9.54158786 27.9356299,14.2729537 25.9470848,18.6751811 C23.8248272,23.3756903 20.6191554,33.1469894 14.3415243,32.570997 C12.8364013,32.4372845 7.94389474,30.2978843 7.48447226,28.6624774 C8.79214835,29.1201274 10.1549848,29.4014574 11.53699,29.4990377 C17.4203406,29.7527486 19.7414527,22.0042799 21.822568,17.5814813 C23.3379765,14.3632383 24.7996714,11.117567 26.2076527,7.84446749 C27.428208,5.08793258 28.4053379,1.82740436 31.4155837,0.730276038 C34.2441177,-0.294853236 37.3195055,0.877702656 39.7709016,2.33139768 Z" id="Shape" fill="#E20074"></path>
                    <rect id="Rectangle-path" fill="#FFFFFF" transform="translate(18.408485, 18.320940) rotate(-66.100000) translate(-18.408485, -18.320940) " x="17.6936374" y="17.6060928" width="1.42969534" height="1.42969534"></rect>
                    <rect id="Rectangle-path" fill="#FFFFFF" transform="translate(20.030600, 14.663635) rotate(-66.100000) translate(-20.030600, -14.663635) " x="19.3157519" y="13.9487874" width="1.42969534" height="1.42969534"></rect>
                    <rect id="Rectangle-path" fill="#FFFFFF" transform="translate(21.649580, 11.001512) rotate(-66.100000) translate(-21.649580, -11.001512) " x="20.9347319" y="10.2866645" width="1.42969534" height="1.42969534"></rect>
                </g>
                <g id="Group-45" transform="translate(55.691406, 11.152344)" fill="#FFFFFF">
                    <path d="M0.000473377155,8.15024869 L1.28495538,6.72153459 C1.81289925,7.30390567 2.32995769,7.64951841 2.97764141,7.64951841 C3.74506498,7.64951841 4.22130301,7.18688718 4.22402437,6.11467127 L4.22402437,0.146728412 L6.31402898,0.146728412 L6.31402898,6.20719752 C6.31402898,7.29574159 5.99290848,8.11214964 5.43775101,8.68091392 C4.88259353,9.2496782 4.03352916,9.53814237 3.02934725,9.53814237 C1.85954978,9.56816416 0.741540138,9.05586863 0.000473377155,8.15024869 Z" id="Shape"></path>
                    <path d="M10.1783604,0.0923012086 L12.056099,0.0923012086 L16.015678,9.42656661 L13.8794103,9.42656661 L13.0357886,7.34744743 L9.11975132,7.34744743 L8.27068695,9.42384525 L6.19701049,9.42384525 L10.1783604,0.0923012086 Z M12.3146282,5.53502156 L11.0872947,2.54152537 L9.85179721,5.53502156 L12.3146282,5.53502156 Z" id="Shape"></path>
                    <polygon id="Shape" points="16.3776189 7.88083403 21.4774479 1.96731837 16.5409005 1.96731837 16.5409005 0.182106094 24.0981177 0.182106094 24.0981177 1.73056003 18.9955674 7.64679705 24.0899536 7.64679705 24.0899536 9.43200933 16.3748975 9.43200933"></polygon>
                    <polygon id="Shape" points="24.8192782 7.89171947 29.9354353 1.96731837 24.9988879 1.96731837 24.9988879 0.182106094 32.5561051 0.182106094 32.5561051 1.73056003 27.439948 7.65496113 32.5343343 7.65496113 32.5343343 9.44017341 24.8192782 9.44017341"></polygon>
                </g>
            </g>
        </g>
    </g>
</svg>