<?xml version="1.0" encoding="UTF-8"?>
<svg width="129px" height="85px" viewBox="0 0 129 85" version="1.1" xmlns="http://www.w3.org/2000/svg" xmlns:xlink="http://www.w3.org/1999/xlink">
    <!-- Generator: Sketch 46.2 (44496) - http://www.bohemiancoding.com/sketch -->
    <title>Jazz_white</title>
    <desc>Created with Sketch.</desc>
    <defs></defs>
    <g id="Page-1" stroke="none" stroke-width="1" fill="none" fill-rule="evenodd">
        <g id="Jazz_Rev3-Copy-3" transform="translate(-575.000000, -151.000000)" fill-rule="nonzero">
            <g id="Jazz_white" transform="translate(575.712452, 151.437500)">
                <polygon id="Shape" fill="#FFFFFF" points="25.2050351 54.7493639 12.5872047 42.0804904 25.2560781 29.4626599 25.2867039 16.8754553 6.30891523 35.7715752 0 42.0498646 6.27828943 48.3587798 25.1744093 67.3365685"></polygon>
                <polygon id="Shape" fill="#FFFFFF" points="103.106867 29.5341201 115.612403 42.3152882 102.841443 54.8310327 102.708732 67.4080287 121.839649 48.6650379 128.199608 42.4377914 121.972361 36.0880418 103.22937 16.9469155"></polygon>
                <path d="M106.822798,5.06410428 C105.037637,4.41301368 103.166491,4.02777759 101.269319,3.920741 L101.167233,3.920741 C98.0612955,3.77007424 94.960861,4.31413248 92.0917869,5.51328271 L91.9692837,5.51328271 C85.3209672,8.42019967 80.1883311,13.9709957 77.8099545,20.8261838 L61.0372236,66.9588503 L61.0372236,66.9588503 L60.9147204,67.2957341 C59.500944,71.2112124 57.2061951,74.7493869 54.2076697,77.6370466 C52.885782,78.906979 51.4272633,80.0265461 49.8588058,80.9752591 C47.737865,82.2764222 45.4164532,83.2180945 42.9884175,83.762207 C41.9801906,83.9841626 40.9562544,84.1275136 39.9258373,84.1909683 C37.1980051,84.3792635 34.46101,83.9932324 31.8916686,83.0578136 L21.3768099,79.2193797 C22.2428521,79.5327922 23.1297635,79.7852208 24.031046,79.9748162 L24.031046,79.9748162 C24.9863907,80.176496 25.9555284,80.3061693 26.9302886,80.362743 L26.9302886,80.362743 C30.0721333,80.5364356 33.2126819,79.9990528 36.1180293,78.7906185 C42.8189904,75.9169048 48.0047689,70.3607136 50.4100702,63.4777175 L66.8459174,18.1923648 L66.8459174,18.1923648 C66.9684206,17.7942293 67.111341,17.3858853 67.2542614,16.9877499 C68.6741438,13.0620126 70.9797057,9.51633795 73.9919378,6.62602018 C75.2384286,5.42499252 76.6070065,4.35750175 78.0753781,3.44093677 C80.2728895,2.06621585 82.6899518,1.07867324 85.2213986,0.521276967 C86.1696769,0.312622071 87.1317891,0.172740513 88.100224,0.102724338 L88.100224,0.102724338 C90.8713612,-0.106773225 93.6553495,0.276025176 96.2671046,1.22567042 L106.822798,5.06410428 Z" id="Shape" fill="#ED008C"></path>
                <rect id="Rectangle-path" fill="#FFFFFF" transform="translate(55.530087, 27.182586) rotate(20.000000) translate(-55.530087, -27.182586) " x="53.6057653" y="25.2582652" width="3.84864246" height="3.84864246"></rect>
                <rect id="Rectangle-path" fill="#FFFFFF" transform="translate(51.846262, 37.316108) rotate(20.000000) translate(-51.846262, -37.316108) " x="49.9219403" y="35.3917867" width="3.84864246" height="3.84864246"></rect>
                <rect id="Rectangle-path" fill="#FFFFFF" transform="translate(48.146127, 47.446754) rotate(20.000000) translate(-48.146127, -47.446754) " x="46.2218053" y="45.5224324" width="3.84864246" height="3.84864246"></rect>
            </g>
        </g>
    </g>
</svg>