<?xml version="1.0" encoding="UTF-8"?>
<svg width="146px" height="10px" viewBox="0 0 146 10" version="1.1" xmlns="http://www.w3.org/2000/svg" xmlns:xlink="http://www.w3.org/1999/xlink">
    <!-- Generator: Sketch 46.2 (44496) - http://www.bohemiancoding.com/sketch -->
    <title>Jazz_textonly</title>
    <desc>Created with Sketch.</desc>
    <defs></defs>
    <g id="Page-1" stroke="none" stroke-width="1" fill="none" fill-rule="evenodd">
        <g id="Jazz_Rev3-Copy-3" transform="translate(-90.000000, -22.000000)" fill-rule="nonzero" fill="#FFFFFF">
            <g id="Jazz_text" transform="translate(35.000000, 11.000000)">
                <g id="Jazz_textonly" transform="translate(55.000000, 10.500000)">
                    <g id="Group-45" transform="translate(0.691406, 0.652344)">
                        <path d="M0.000473377155,8.15024869 L1.28495538,6.72153459 C1.81289925,7.30390567 2.32995769,7.64951841 2.97764141,7.64951841 C3.74506498,7.64951841 4.22130301,7.18688718 4.22402437,6.11467127 L4.22402437,0.146728412 L6.31402898,0.146728412 L6.31402898,6.20719752 C6.31402898,7.29574159 5.99290848,8.11214964 5.43775101,8.68091392 C4.88259353,9.2496782 4.03352916,9.53814237 3.02934725,9.53814237 C1.85954978,9.56816416 0.741540138,9.05586863 0.000473377155,8.15024869 Z" id="Shape"></path>
                        <path d="M10.1783604,0.0923012086 L12.056099,0.0923012086 L16.015678,9.42656661 L13.8794103,9.42656661 L13.0357886,7.34744743 L9.11975132,7.34744743 L8.27068695,9.42384525 L6.19701049,9.42384525 L10.1783604,0.0923012086 Z M12.3146282,5.53502156 L11.0872947,2.54152537 L9.85179721,5.53502156 L12.3146282,5.53502156 Z" id="Shape"></path>
                        <polygon id="Shape" points="16.3776189 7.88083403 21.4774479 1.96731837 16.5409005 1.96731837 16.5409005 0.182106094 24.0981177 0.182106094 24.0981177 1.73056003 18.9955674 7.64679705 24.0899536 7.64679705 24.0899536 9.43200933 16.3748975 9.43200933"></polygon>
                        <polygon id="Shape" points="24.8192782 7.89171947 29.9354353 1.96731837 24.9988879 1.96731837 24.9988879 0.182106094 32.5561051 0.182106094 32.5561051 1.73056003 27.439948 7.65496113 32.5343343 7.65496113 32.5343343 9.44017341 24.8192782 9.44017341"></polygon>
                    </g>
                    <g id="Group-38" transform="translate(39.691406, 0.652344)">
                        <path d="M9.6850303,6.88579768 C9.689592,7.19117772 9.64398342,7.4952349 9.55002443,7.78583683 C9.47116523,8.03258883 9.35588819,8.26617652 9.20800956,8.47886698 C9.06823849,8.67549355 8.89810978,8.84866028 8.70398763,8.99188929 C8.33819847,9.26309591 7.91723648,9.45053154 7.470934,9.54091317 C7.27251559,9.58188335 7.07050974,9.60298844 6.86790777,9.60391591 L0.117614151,9.60391591 L0.117614151,7.93884349 L6.86790777,7.93884349 C7.15613663,7.95715252 7.43923522,7.85627832 7.65094183,7.65983135 C7.84226184,7.45586138 7.94290392,7.18315379 7.92995396,6.90379847 C7.9322354,6.75955931 7.90782392,6.61614185 7.85795083,6.48078007 C7.80962004,6.35609904 7.73608395,6.2427309 7.64194144,6.14776558 C7.54839517,6.05187691 7.43462385,5.9780793 7.30892695,5.93175618 C7.16816236,5.87782988 7.01864784,5.85036803 6.86790777,5.85075266 L2.84473277,5.85075266 C2.53944357,5.84527965 2.23644983,5.79680065 1.94469362,5.7067464 C1.61860186,5.607049 1.31354761,5.44842079 1.04465447,5.23872604 C0.75325511,5.01336054 0.513815369,4.72787469 0.342623939,4.40168963 C-0.0308136343,3.59686133 -0.0308136343,2.66840753 0.342623939,1.86357923 C0.514742702,1.5380169 0.75402978,1.25271308 1.04465447,1.02654282 C1.31309982,0.816151799 1.61828904,0.657453405 1.94469362,0.558522466 C2.23644983,0.468468217 2.53944357,0.419989217 2.84473277,0.414516202 L8.80299194,0.414516202 L8.80299194,2.07958863 L2.84473277,2.07958863 C2.55793628,2.06404007 2.27757416,2.16836085 2.0706991,2.36760116 C1.87886813,2.57487923 1.77833811,2.85052607 1.79168697,3.13263443 C1.77769005,3.41215086 1.87847848,3.68525498 2.0706991,3.88866732 C2.2801969,4.0827909 2.55956042,4.18349171 2.84473277,4.16767945 L6.88590855,4.16767945 C7.08872444,4.17280099 7.29061486,4.19690731 7.48893478,4.23968258 C7.70576767,4.28586337 7.91699522,4.3552667 8.11896219,4.44669159 C8.3301038,4.54355345 8.52941904,4.66435056 8.71298802,4.80670725 C8.90542221,4.95187011 9.07527547,5.12475646 9.21700995,5.31972956 C9.36647152,5.53148239 9.48187273,5.76532168 9.55902482,6.01275971 C9.6461734,6.29544859 9.68868641,6.59000297 9.6850303,6.88579768 Z" id="Shape"></path>
                        <path d="M19.8644731,9.59491552 L13.564199,9.59491552 C13.2956443,9.58959171 13.0291128,9.54718898 12.7721646,9.46891004 C12.481684,9.38643679 12.2097467,9.24894043 11.9711297,9.06389242 C11.3940661,8.64777825 11.0577438,7.97513353 11.0710906,7.26381413 L11.0710906,1.25155261 C11.0696302,1.14036848 11.0910763,1.03007425 11.1340933,0.927538517 C11.1785783,0.82589754 11.2428264,0.734114624 11.3231016,0.657526772 C11.4026781,0.578901823 11.4976777,0.517611788 11.6021137,0.477518942 C11.7137453,0.433315615 11.8330928,0.411894267 11.953129,0.414516202 L19.8374719,0.414516202 L19.8374719,2.07958863 L12.8441677,2.07958863 L12.8441677,7.27281452 C12.8299229,7.45875445 12.8953635,7.64198822 13.0241755,7.77683644 C13.1719918,7.90112027 13.3626346,7.96251371 13.5551986,7.94784388 L19.8554727,7.94784388 L19.8644731,9.59491552 Z M19.081439,5.83275188 L13.5461983,5.83275188 L13.5461983,4.14967867 L19.0724386,4.14967867 L19.081439,5.83275188 Z" id="Shape"></path>
                        <path d="M31.195966,3.4836497 C31.1994374,3.82864848 31.1477846,4.17198759 31.0429593,4.50069394 C30.9535325,4.78393136 30.8198759,5.05124451 30.6469421,5.29272839 C30.4822959,5.51590335 30.2850916,5.71310764 30.0619166,5.87775384 C29.8470666,6.03868459 29.6145521,6.17456969 29.3688865,6.28277145 C29.1348737,6.38431221 28.8903892,6.45977039 28.6398548,6.50778124 C28.4117161,6.55413281 28.1796193,6.57824676 27.9468246,6.57978437 L31.6009836,9.58591513 L28.9008661,9.58591513 L25.2557076,6.57978437 L23.9956528,6.57978437 L23.9956528,4.91471195 L27.955825,4.91471195 C28.1623402,4.89934628 28.3654983,4.85386311 28.5588513,4.77970607 C28.7313239,4.71346532 28.8900145,4.61580957 29.0268716,4.49169355 C29.1591699,4.37173477 29.263617,4.22428002 29.3328849,4.05967476 C29.4084627,3.87408889 29.4452199,3.67498744 29.4408896,3.47464931 L29.4408896,2.4216035 C29.4567909,2.35047829 29.4567909,2.27671932 29.4408896,2.20559411 C29.4188768,2.16087847 29.3845217,2.12340012 29.3418853,2.09758941 C29.303322,2.08931972 29.2634436,2.08931972 29.2248802,2.09758941 L23.3026226,2.09758941 L23.3026226,9.63091709 L21.5565467,9.63091709 L21.5565467,1.26955339 C21.5550863,1.15836926 21.5765324,1.04807503 21.6195494,0.9455393 C21.6640344,0.843898323 21.7282825,0.752115407 21.8085576,0.675527555 C21.8881342,0.596902606 21.9831338,0.535612571 22.0875698,0.495519725 C22.1992014,0.451316398 22.3185489,0.429895049 22.438585,0.432516985 L29.080874,0.432516985 C29.4217878,0.420732877 29.7607597,0.488527264 30.070917,0.630525598 C30.32272,0.75080859 30.5465354,0.922502593 30.7279456,1.13454752 C30.8894151,1.32814345 31.0116905,1.55129595 31.0879613,1.7915761 C31.1568767,2.00388916 31.1932899,2.22540295 31.195966,2.44860468 L31.195966,3.4836497 Z" id="Shape"></path>
                        <path d="M42.5634604,0.396515419 L37.9912615,9.27090143 C37.9172524,9.4105545 37.8048208,9.52610915 37.6672474,9.60391591 C37.5256978,9.68792393 37.363821,9.73150615 37.1992271,9.72992139 C37.037685,9.72987388 36.8791333,9.68634987 36.7402071,9.60391591 C36.6049177,9.52318275 36.49319,9.40835151 36.416193,9.27090143 L31.8529945,0.396515419 L33.8150799,0.396515419 L37.2082275,7.03880434 L40.6103755,0.414516202 L42.5634604,0.396515419 Z" id="Shape"></path>
                        <path d="M52.2748828,9.59491552 L45.9746088,9.59491552 C45.7060541,9.58959171 45.4395226,9.54718898 45.1825743,9.46891004 C44.8920937,9.38643679 44.6201565,9.24894043 44.3815395,9.06389242 C43.8044759,8.64777825 43.4681535,7.97513353 43.4815003,7.26381413 L43.4815003,1.25155261 C43.4800399,1.14036848 43.501486,1.03007425 43.5445031,0.927538517 C43.5889881,0.82589754 43.6532361,0.734114624 43.7335113,0.657526772 C43.8130879,0.578901823 43.9080874,0.517611788 44.0125234,0.477518942 C44.1241551,0.433315615 44.2435026,0.411894267 44.3635387,0.414516202 L52.2478817,0.414516202 L52.2478817,2.07958863 L45.2635779,2.07958863 L45.2635779,7.27281452 C45.249333,7.45875445 45.3147737,7.64198822 45.4435857,7.77683644 C45.591402,7.90112027 45.7820447,7.96251371 45.9746088,7.94784388 L52.2748828,7.94784388 L52.2748828,9.59491552 Z M51.4918488,5.83275188 L45.9656084,5.83275188 L45.9656084,4.14967867 L51.4918488,4.14967867 L51.4918488,5.83275188 Z" id="Shape"></path>
                        <path d="M63.6153761,3.4836497 C63.6188476,3.82864848 63.5671948,4.17198759 63.4623695,4.50069394 C63.3729427,4.78393136 63.2392861,5.05124451 63.0663522,5.29272839 C62.901706,5.51590335 62.7045017,5.71310764 62.4813268,5.87775384 C62.2664768,6.03868459 62.0339623,6.17456969 61.7882966,6.28277145 C61.5542838,6.38431221 61.3097993,6.45977039 61.0592649,6.50778124 C60.8311262,6.55413281 60.5990295,6.57824676 60.3662348,6.57978437 L64.0203937,9.58591513 L61.3202763,9.58591513 L57.6751177,6.57978437 L56.4150629,6.57978437 L56.4150629,4.91471195 L60.3752352,4.91471195 C60.5817503,4.89934628 60.7849085,4.85386311 60.9782614,4.77970607 C61.1507341,4.71346532 61.3094247,4.61580957 61.4462818,4.49169355 C61.57858,4.37173477 61.6830271,4.22428002 61.7522951,4.05967476 C61.8278729,3.87408889 61.8646301,3.67498744 61.8602998,3.47464931 L61.8602998,2.4216035 C61.8762011,2.35047829 61.8762011,2.27671932 61.8602998,2.20559411 C61.838287,2.16087847 61.8039318,2.12340012 61.7612955,2.09758941 C61.7227321,2.08931972 61.6828537,2.08931972 61.6442904,2.09758941 L55.704032,2.09758941 L55.704032,9.63091709 L53.9669564,9.63091709 L53.9669564,1.26955339 C53.965496,1.15836926 53.9869421,1.04807503 54.0299592,0.9455393 C54.0744442,0.843898323 54.1386922,0.752115407 54.2189674,0.675527555 C54.298544,0.596902606 54.3935435,0.535612571 54.4979795,0.495519725 C54.6096111,0.451316398 54.7289587,0.429895049 54.8489948,0.432516985 L61.4912837,0.432516985 C61.8321975,0.420732877 62.1711695,0.488527264 62.4813268,0.630525598 C62.7331297,0.75080859 62.9569451,0.922502593 63.1383554,1.13454752 C63.2998249,1.32814345 63.4221002,1.55129595 63.498371,1.7915761 C63.5672865,2.00388916 63.6036997,2.22540295 63.6063757,2.44860468 L63.6153761,3.4836497 Z" id="Shape"></path>
                        <path d="M74.2358381,9.59491552 L66.2524908,9.59491552 C66.1324547,9.59753746 66.0131072,9.57611611 65.9014755,9.53191278 C65.7974944,9.49092879 65.7026644,9.42974812 65.6224634,9.35190495 C65.5414252,9.27597566 65.4770603,9.18402567 65.4334552,9.08189321 C65.3894655,8.97649518 65.3680052,8.8630621 65.3704524,8.74887872 L65.3704524,0.387515028 L67.1165284,0.387515028 L67.1165284,7.93884349 L74.2358381,7.93884349 L74.2358381,9.59491552 Z" id="Shape"></path>
                        <path d="M84.2082718,9.59491552 L77.9079978,9.59491552 C77.6394431,9.58959171 77.3729116,9.54718898 77.1159633,9.46891004 C76.8254827,9.38643679 76.5535455,9.24894043 76.3149285,9.06389242 C75.7378649,8.64777825 75.4015425,7.97513353 75.4148893,7.26381413 L75.4148893,1.25155261 C75.4134289,1.14036848 75.434875,1.03007425 75.4778921,0.927538517 C75.5223771,0.82589754 75.5866251,0.734114624 75.6669003,0.657526772 C75.7464769,0.578901823 75.8414764,0.517611788 75.9459124,0.477518942 C76.0575441,0.433315615 76.1768916,0.411894267 76.2969277,0.414516202 L84.1812707,0.414516202 L84.1812707,2.07958863 L77.1879665,2.07958863 L77.1879665,7.27281452 C77.1737217,7.45875445 77.2391623,7.64198822 77.3679743,7.77683644 C77.5157906,7.90112027 77.7064333,7.96251371 77.8989974,7.94784388 L84.1992714,7.94784388 L84.2082718,9.59491552 Z M83.4252378,5.83275188 L77.889997,5.83275188 L77.889997,4.14967867 L83.4162374,4.14967867 L83.4252378,5.83275188 Z" id="Shape"></path>
                        <path d="M95.1347471,6.88579768 C95.1393088,7.19117772 95.0937002,7.4952349 94.9997412,7.78583683 C94.920882,8.03258883 94.805605,8.26617652 94.6577264,8.47886698 C94.5179553,8.67549355 94.3478266,8.84866028 94.1537044,8.99188929 C93.7879153,9.26309591 93.3669533,9.45053154 92.9206508,9.54091317 C92.7222324,9.58188335 92.5202265,9.60298844 92.3176246,9.60391591 L85.5673309,9.60391591 L85.5673309,7.93884349 L92.3176246,7.93884349 C92.6058534,7.95715252 92.888952,7.85627832 93.1006586,7.65983135 C93.2919786,7.45586138 93.3926207,7.18315379 93.3796708,6.90379847 C93.3819522,6.75955931 93.3575407,6.61614185 93.3076676,6.48078007 C93.2593368,6.35609904 93.1858007,6.2427309 93.0916582,6.14776558 C92.998112,6.05187691 92.8843407,5.9780793 92.7586437,5.93175618 C92.6178792,5.87782988 92.4683646,5.85036803 92.3176246,5.85075266 L88.2944496,5.85075266 C87.9891604,5.84527965 87.6861666,5.79680065 87.3944104,5.7067464 C87.0683187,5.607049 86.7632644,5.44842079 86.4943713,5.23872604 C86.2029719,5.01336054 85.9635322,4.72787469 85.7923407,4.40168963 C85.4189032,3.59686133 85.4189032,2.66840753 85.7923407,1.86357923 C85.9644595,1.5380169 86.2037466,1.25271308 86.4943713,1.02654282 C86.7628166,0.816151799 87.0680058,0.657453405 87.3944104,0.558522466 C87.6861666,0.468468217 87.9891604,0.419989217 88.2944496,0.414516202 L94.2527087,0.414516202 L94.2527087,2.07958863 L88.2944496,2.07958863 C88.0076531,2.06404007 87.727291,2.16836085 87.5204159,2.36760116 C87.3285849,2.57487923 87.2280549,2.85052607 87.2414038,3.13263443 C87.2274069,3.41215086 87.3281953,3.68525498 87.5204159,3.88866732 C87.7299137,4.0827909 88.0092772,4.18349171 88.2944496,4.16767945 L92.3356253,4.16767945 C92.5384412,4.17280099 92.7403317,4.19690731 92.9386516,4.23968258 C93.1554845,4.28586337 93.366712,4.3552667 93.568679,4.44669159 C93.7798206,4.54355345 93.9791358,4.66435056 94.1627048,4.80670725 C94.355139,4.95187011 94.5249923,5.12475646 94.6667267,5.31972956 C94.8161883,5.53148239 94.9315895,5.76532168 95.0087416,6.01275971 C95.0958902,6.29544859 95.1384032,6.59000297 95.1347471,6.88579768 Z" id="Shape"></path>
                        <path d="M105.872214,6.88579768 C105.876776,7.19117772 105.831167,7.4952349 105.737208,7.78583683 C105.658349,8.03258883 105.543072,8.26617652 105.395193,8.47886698 C105.255422,8.67549355 105.085294,8.84866028 104.891171,8.99188929 C104.525382,9.26309591 104.10442,9.45053154 103.658118,9.54091317 C103.459699,9.58188335 103.257694,9.60298844 103.055092,9.60391591 L96.304798,9.60391591 L96.304798,7.93884349 L103.055092,7.93884349 C103.34332,7.95715252 103.626419,7.85627832 103.838126,7.65983135 C104.029446,7.45586138 104.130088,7.18315379 104.117138,6.90379847 C104.119419,6.75955931 104.095008,6.61614185 104.045135,6.48078007 C103.996804,6.35609904 103.923268,6.2427309 103.829125,6.14776558 C103.735579,6.05187691 103.621808,5.9780793 103.496111,5.93175618 C103.355346,5.87782988 103.205832,5.85036803 103.055092,5.85075266 L99.0319166,5.85075266 C98.7266274,5.84527965 98.4236337,5.79680065 98.1318775,5.7067464 C97.8057857,5.607049 97.5007315,5.44842079 97.2318383,5.23872604 C96.940439,5.01336054 96.7009992,4.72787469 96.5298078,4.40168963 C96.1563702,3.59686133 96.1563702,2.66840753 96.5298078,1.86357923 C96.7019265,1.5380169 96.9412136,1.25271308 97.2318383,1.02654282 C97.5002837,0.816151799 97.8054729,0.657453405 98.1318775,0.558522466 C98.4236337,0.468468217 98.7266274,0.419989217 99.0319166,0.414516202 L104.990176,0.414516202 L104.990176,2.07958863 L99.0319166,2.07958863 C98.7451201,2.06404007 98.464758,2.16836085 98.2578829,2.36760116 C98.066052,2.57487923 97.965522,2.85052607 97.9788708,3.13263443 C97.9648739,3.41215086 98.0656623,3.68525498 98.2578829,3.88866732 C98.4673807,4.0827909 98.7467443,4.18349171 99.0319166,4.16767945 L103.073092,4.16767945 C103.275908,4.17280099 103.477799,4.19690731 103.676119,4.23968258 C103.892952,4.28586337 104.104179,4.3552667 104.306146,4.44669159 C104.517288,4.54355345 104.716603,4.66435056 104.900172,4.80670725 C105.092606,4.95187011 105.262459,5.12475646 105.404194,5.31972956 C105.553655,5.53148239 105.669057,5.76532168 105.746209,6.01275971 C105.833357,6.29544859 105.87587,6.59000297 105.872214,6.88579768 Z" id="Shape"></path>
                    </g>
                </g>
            </g>
        </g>
    </g>
</svg>