<?xml version="1.0" encoding="UTF-8"?>
<svg width="94px" height="16px" viewBox="0 0 94 16" version="1.1" xmlns="http://www.w3.org/2000/svg" xmlns:xlink="http://www.w3.org/1999/xlink">
    <!-- Generator: Sketch 43.2 (39069) - http://www.bohemiancoding.com/sketch -->
    <title>tmobile-logo</title>
    <desc>Created with Sketch.</desc>
    <defs></defs>
    <g id="Dashboard_v2" stroke="none" stroke-width="1" fill="none" fill-rule="evenodd">
        <g id="2_Services" transform="translate(-36.000000, -20.000000)" fill-rule="nonzero" fill="#FFFFFF">
            <g id="Group">
                <g id="tmobile-logo" transform="translate(36.000000, 20.000000)">
                    <polygon id="path18" points="0.0430912779 7.16510843 3.11420284 7.16510843 3.11420284 10.3336867 0.0430912779 10.3336867"></polygon>
                    <path d="M7.41875456,0.840481928 L7.78312373,0.840481928 C10.1365558,0.840481928 11.2334767,2.1133494 11.6918458,5.50785542 L12.4205842,5.47527711 L12.3233428,0.0896385542 L0.347780933,0.0896385542 L0.229756592,5.47527711 L0.93103854,5.50785542 C1.05249493,4.23498795 1.19816633,3.54949398 1.51429615,2.864 C2.07314807,1.59093976 3.23947262,0.840481928 4.67292495,0.840481928 L5.18315619,0.840481928 L5.18315619,12.5578795 C5.18315619,13.7981687 5.11032049,14.1898795 4.81897769,14.4836627 C4.57587424,14.7120964 4.08985801,14.8100241 3.53081542,14.8100241 L2.97196349,14.8100241 L2.97196349,15.593253 L9.62994726,15.593253 L9.62994726,14.8100241 L9.06766329,14.8100241 C8.51224341,14.8100241 8.02279513,14.7119036 7.7833144,14.4836627 C7.49178093,14.1898795 7.41894523,13.7979759 7.41894523,12.5578795 L7.41894523,0.840481928" id="path20"></path>
                    <polygon id="path22" points="9.43813387 7.16510843 12.5092454 7.16510843 12.5092454 10.3336867 9.43813387 10.3336867"></polygon>
                    <polygon id="path24" points="18.5065598 7.16510843 21.5811034 7.16510843 21.5811034 10.3336867 18.5065598 10.3336867"></polygon>
                    <polygon id="path26" points="27.7214199 7.16510843 30.7927221 7.16510843 30.7927221 10.3336867 27.7214199 10.3336867"></polygon>
                    <path d="M39.0973266,15.5934458 L42.9774483,1.90554217 L42.9774483,12.6469398 C42.9774483,13.8191807 42.9114767,14.2311325 42.6483529,14.516241 C42.4508195,14.7379277 41.9930223,14.8331566 41.4854604,14.8331566 L41.2881176,14.8331566 L41.2881176,15.5934458 L46.7727221,15.5934458 L46.7727221,14.8331566 L46.4872901,14.8331566 C45.9827789,14.8331566 45.5221217,14.7381205 45.3247789,14.516241 C45.0612738,14.2311325 44.9954929,13.8191807 44.9954929,12.6469398 L44.9954929,3.48992771 C44.9954929,2.31749398 45.0612738,1.87392771 45.3247789,1.58881928 C45.5440487,1.39874699 45.9827789,1.27190361 46.4872901,1.27190361 L46.7727221,1.27190361 L46.7727221,0.543036145 L42.5167911,0.543036145 L39.3137363,11.6011566 L36.1797039,0.543036145 L31.9456998,0.543036145 L31.9456998,1.27190361 L32.3403854,1.27190361 C33.5032779,1.27190361 33.7225477,1.52539759 33.7225477,3.04636145 L33.7225477,11.7596145 C33.7225477,13.1537349 33.6567667,13.7241446 33.4592333,14.1360964 C33.2399635,14.5480482 32.7760649,14.8331566 32.2965314,14.8331566 L31.9455091,14.8331566 L31.9455091,15.5934458 L36.4645639,15.5934458 L36.4645639,14.8331566 L36.1795132,14.8331566 C35.6092211,14.8331566 35.1483732,14.6112771 34.8820081,14.1677108 C34.6219351,13.7241446 34.5561542,13.3121928 34.5561542,11.7596145 L34.5561542,1.90573494 L38.4139675,15.5936386 L39.0973266,15.5936386" id="path28"></path>
                    <path d="M51.4891197,4.88385542 C48.7688398,4.88385542 46.9919919,7.03845783 46.9919919,10.4289157 C46.9919919,13.6925301 48.7688398,15.9105542 51.4204787,15.9105542 C54.0965233,15.9105542 55.8735619,13.6925301 55.8735619,10.3973012 C55.8735619,7.13349398 54.0965233,4.88385542 51.4891197,4.88385542 M51.4014118,5.61253012 C52.1881136,5.61253012 52.8680406,6.11951807 53.2409899,6.97503614 C53.5920122,7.76713253 53.745501,8.84453012 53.745501,10.3971084 C53.745501,13.5971084 52.9776755,15.1813012 51.420288,15.1813012 C49.8657606,15.1813012 49.1166207,13.5969157 49.1166207,10.3653012 C49.1166207,8.84433735 49.2731602,7.76713253 49.6241826,6.97503614 C49.9723448,6.1513253 50.6774402,5.61253012 51.4014118,5.61253012" id="path30"></path>
                    <path d="M59.5183976,0.384578313 L56.4030507,0.543036145 L56.4030507,1.24009639 L56.5534888,1.24009639 C57.4749939,1.24009639 57.6755781,1.55701205 57.6755781,3.04616867 L57.6755781,13.3438072 C57.6755781,14.674506 57.6317241,15.0232289 57.4563083,15.5934458 L58.1802799,15.5934458 C58.7254037,14.674506 58.8602069,14.516241 59.0796673,14.516241 C59.1862515,14.516241 59.292645,14.5478554 59.4495659,14.7063133 C60.5274199,15.5934458 60.9880771,15.7835181 61.9753631,15.7835181 C64.3413793,15.7835181 66.0526369,13.4704578 66.0526369,10.1752289 C66.0526369,7.07007229 64.4698905,4.97889157 62.1038742,4.97889157 C60.8753915,4.97889157 59.9790548,5.58091566 59.5183976,6.65812048 L59.5183976,0.384578313 M61.7936552,5.77098795 C63.2009858,5.77098795 63.9247667,7.29195181 63.9247667,10.2702651 C63.9247667,13.4070361 63.1788682,15.0230361 61.7528519,15.0230361 C60.1733469,15.0230361 59.3426004,13.3752289 59.3426004,10.3653012 C59.3426004,8.84433735 59.5403245,7.79893976 60.0009817,7.0066506 C60.4145436,6.24636145 61.1198296,5.77098795 61.7936552,5.77098795" id="path32"></path>
                    <path d="M70.1112252,5.04231325 L66.9114118,5.23238554 L66.9114118,5.92944578 L67.1527992,5.92944578 C68.0708722,5.92944578 68.2685963,6.24636145 68.2685963,7.70390361 L68.2685963,13.0586988 C68.2685963,14.5164337 68.0710629,14.8649639 67.1527992,14.8649639 L66.8048276,14.8649639 L66.8048276,15.5934458 L71.581286,15.5934458 L71.581286,14.8649639 L71.2363651,14.8649639 C70.3118093,14.8649639 70.1114158,14.5478554 70.1114158,13.0586988 L70.1114158,5.04231325 M69.0612089,0.416192771 C68.3812819,0.416192771 67.8329168,0.954795181 67.8329168,1.68366265 C67.8329168,2.34910843 68.3812819,2.9193253 69.0394726,2.9193253 C69.7193996,2.9193253 70.2460284,2.38072289 70.2460284,1.68366265 C70.2460284,0.98660241 69.7193996,0.416192771 69.0612089,0.416192771" id="path34"></path>
                    <path d="M75.6612292,0.384578313 L72.4614158,0.543036145 L72.4614158,1.24009639 L72.6999432,1.24009639 C73.6212576,1.24009639 73.8186004,1.55701205 73.8186004,3.04616867 L73.8186004,13.058506 C73.8186004,14.5478554 73.6212576,14.8647711 72.6999432,14.8647711 L72.3519716,14.8647711 L72.3519716,15.593253 L77.1310994,15.593253 L77.1310994,14.8647711 L76.7800771,14.8647711 C75.8555213,14.8647711 75.6612292,14.5476627 75.6612292,13.058506 L75.6612292,0.384578313" id="path36"></path>
                    <path d="M85.8595619,10.3336867 C85.752787,6.97503614 84.1732819,4.88385542 81.7853387,4.88385542 C79.4786207,4.88385542 77.8144584,7.16510843 77.8144584,10.3336867 C77.8144584,13.7239518 79.4566937,15.9103614 82.0015578,15.9103614 C83.6468438,15.9103614 84.7876187,15.0230361 85.7310507,13.058506 L85.0730507,12.7099759 C84.3052252,14.3575904 83.5373996,15.0230361 82.3525801,15.0230361 C80.6195862,15.0230361 79.876929,13.6291084 79.8546207,10.3336867 L85.8595619,10.3336867 M79.8767383,9.54139759 C79.8956146,7.16510843 80.6600081,5.67595181 81.8917323,5.67595181 C83.120215,5.67595181 83.8439959,7.13349398 83.8222596,9.54139759 L79.8767383,9.54139759" id="path38"></path>
                    <polygon id="path40" points="88.6307505 7.16510843 91.7018621 7.16510843 91.7018621 10.3336867 88.6307505 10.3336867"></polygon>
                    <path d="M92.8536957,4.62554217 C93.0390264,4.62554217 93.2199716,4.67354217 93.3965314,4.76973494 C93.5730913,4.86592771 93.7105639,5.00356627 93.8089493,5.18245783 C93.907716,5.3613494 93.9569087,5.54795181 93.9569087,5.74226506 C93.9569087,5.9346506 93.908288,6.11951807 93.8110467,6.29686747 C93.7141866,6.47440964 93.577858,6.61224096 93.4030142,6.71036145 C93.227789,6.80848193 93.0447465,6.85763855 92.8535051,6.85763855 C92.6622637,6.85763855 92.4792211,6.8086747 92.3039959,6.71036145 C92.1289615,6.61224096 91.9924422,6.47460241 91.8952008,6.29686747 C91.7975781,6.11951807 91.7487667,5.9346506 91.7487667,5.74226506 C91.7487667,5.54795181 91.7981501,5.3613494 91.8972982,5.18245783 C91.9962556,5.00356627 92.1341095,4.86573494 92.310288,4.76973494 C92.4876105,4.67354217 92.6685558,4.62554217 92.8536957,4.62554217 Z M92.8536957,4.81137349 C92.6988722,4.81137349 92.5478621,4.85146988 92.401428,4.93185542 C92.2548032,5.01224096 92.1400203,5.12674699 92.0570791,5.27595181 C91.9743286,5.42515663 91.933144,5.58072289 91.933144,5.74207229 C91.933144,5.9026506 91.9737566,6.05648193 92.0551724,6.20375904 C92.1363976,6.35103614 92.2502272,6.46573494 92.3962799,6.54804819 C92.5425233,6.63036145 92.6950588,6.67142169 92.8536957,6.67142169 C93.012714,6.67142169 93.1648682,6.63036145 93.3111116,6.54804819 C93.4571643,6.46592771 93.5706126,6.35122892 93.6514564,6.20375904 C93.7323002,6.05648193 93.7729128,5.9026506 93.7729128,5.74207229 C93.7729128,5.58072289 93.7317282,5.42515663 93.649359,5.27595181 C93.5669899,5.12693976 93.4523976,5.01224096 93.3052008,4.93185542 C93.1581947,4.85146988 93.0077566,4.81137349 92.8536957,4.81137349 Z M92.3693955,6.3579759 L92.3693955,5.15701205 L92.7783813,5.15701205 C92.9177606,5.15701205 93.0191968,5.16819277 93.0815456,5.19036145 C93.1442759,5.21253012 93.1940406,5.25127711 93.2310304,5.30660241 C93.268211,5.36173494 93.2868966,5.42053012 93.2868966,5.48260241 C93.2868966,5.57031325 93.2556268,5.64684337 93.1934686,5.71180723 C93.1316917,5.77677108 93.0491318,5.81339759 92.9463611,5.8213012 C92.988499,5.83903614 93.0220568,5.86024096 93.0474158,5.88491566 C93.0954645,5.93214458 93.154,6.01156627 93.223213,6.12298795 L93.3683124,6.35816867 L93.133217,6.35816867 L93.0273955,6.1686747 C92.9444544,6.02043373 92.8779108,5.92751807 92.8277647,5.88973494 C92.7926815,5.86178313 92.7413915,5.84790361 92.6740852,5.84790361 L92.5612089,5.84790361 L92.5612089,6.35816867 L92.3693955,6.35816867 L92.3693955,6.3579759 Z M92.5613996,5.68289157 L92.7951602,5.68289157 C92.9065112,5.68289157 92.9825882,5.66612048 93.0233915,5.63238554 C93.0641947,5.5986506 93.084215,5.55412048 93.084215,5.49860241 C93.084215,5.46293976 93.0744909,5.43093976 93.0548519,5.40279518 C93.035213,5.3746506 93.0083286,5.35344578 92.9732454,5.33956627 C92.9385436,5.32568675 92.8740974,5.31893976 92.7800974,5.31893976 L92.5613996,5.31893976 L92.5613996,5.68289157 L92.5613996,5.68289157 Z" id="Shape"></path>
                </g>
            </g>
        </g>
    </g>
</svg>