<?xml version="1.0" encoding="UTF-8"?>
<svg width="279px" height="166px" viewBox="0 0 279 166" version="1.1" xmlns="http://www.w3.org/2000/svg" xmlns:xlink="http://www.w3.org/1999/xlink">
    <!-- Generator: Sketch 47.1 (45422) - http://www.bohemiancoding.com/sketch -->
    <title>Focus-Code</title>
    <desc>Created with Sketch.</desc>
    <defs></defs>
    <g id="Final-Screens" stroke="none" stroke-width="1" fill="none" fill-rule="evenodd">
        <g id="Jazz_Rev3-Copy-3" transform="translate(-441.000000, -1264.000000)" fill-rule="nonzero">
            <g id="Focus-Code" transform="translate(441.000000, 1264.000000)">
                <path d="M278.69,145.84 C278.303367,146.202975 277.877392,146.521618 277.42,146.79 C270.33,149.88 262.8,151.02 255.16,151.49 C248.6,151.89 242.03,152.12 235.46,152.35 C232.08,152.47 228.69,152.48 225.31,152.47 C221.420564,152.365642 217.56787,153.246258 214.11,155.03 C207.66,158.43 201.11,161.55 194.56,164.82 C192.360377,165.942385 189.801884,166.133371 187.46,165.35 C186.927573,165.196434 186.431192,164.938044 186,164.59 C185.13,163.87 184.31,163.07 183.5,162.27 C182.439452,161.162325 182.030478,159.583233 182.42,158.1 C182.54,157.42 182.74,156.76 182.91,156.02 C179.41,155.59 176.44,154.38 175.04,150.83 C175.04,150.2 175.04,149.57 175.04,148.94 L175.34,146.79 C173.708786,147.006692 172.060165,146.543921 170.78,145.51 L168.78,143.63 L167,138.45 L167.22,136.45 L168.22,134.75 C167.581977,134.200179 166.974409,133.615979 166.4,133 C165.76,132.24 165.24,131.38 164.67,130.57 L163.95,128.57 C163.884993,127.831428 163.884993,127.088572 163.95,126.35 C164.35,124.18 165.9,122.88 167.66,121.8 C168.57,121.25 169.55,120.8 170.56,120.26 C169.7,118.6 168.85,116.96 167.99,115.32 L166.99,113.32 C166.62,112.55 166.23,111.78 165.87,111.01 C165.51,110.24 165.62,109.75 166.44,109.33 L167.89,108.61 C166.4,105.34 164.94,102.12 163.48,98.9 C163.318413,98.9252025 163.158208,98.9585786 163,99 C149.464758,103.003623 134.863495,98.2280668 126.31,87 L126.03,86.73 L124.18,83.96 L124.04,83.75 C123.995023,83.6232189 123.941569,83.4996066 123.88,83.38 C122.05876,80.1000197 120.712011,76.5782703 119.88,72.92 L119.88,72.92 C119.77,71.92 119.58,70.92 119.55,69.92 C119.49,67.79 119.55,65.66 119.49,63.53 L119.49,63.27 L119.49,62.13 L119.49,62.13 L120.81,56.13 L120.81,56.13 C121.919619,52.8641962 123.470656,49.7654854 125.42,46.92 L126.88,44.92 C127.63,44.11 128.35,43.27 129.13,42.49 C138.082836,33.4007997 151.382599,30.1116108 163.54,33.98 C165.64,34.89 167.81,35.68 169.83,36.74 C173.600798,38.8069855 176.93824,41.5808305 179.66,44.91 L181.15,46.91 C186.711653,54.8348642 188.595098,64.7694004 186.32,74.18 C185.078159,79.6126511 182.480751,84.6423332 178.77,88.8 L178.12,89.57 L178.73,89.51 C181.07,89.11 182.02,89.57 183.17,91.6 C184.381281,93.8248318 185.929608,95.848788 187.76,97.6 C194.15,103.6 202,106 210.53,106.68 L212.53,106.81 L224.65,106.18 L226.7,105.95 L232.7,105.05 L234.7,104.72 C238.05,103.99 241.44,103.37 244.76,102.51 C253.435799,100.335276 261.826489,97.1501702 269.76,93.02 C270.47,92.65 271.16,92.24 271.87,91.85 C272.58,91.46 273.18,91.55 273.45,92.11 C273.72,92.67 273.45,93.26 272.86,93.61 C268.487105,96.092785 263.926497,98.2293161 259.22,100 C249.010411,103.917376 238.356665,106.56066 227.5,107.87 C222.334659,108.609132 217.116072,108.910204 211.9,108.77 C205.500211,108.59429 199.217828,107.010037 193.5,104.13 C188.387741,101.53412 184.167356,97.4704322 181.38,92.46 C180.77,91.36 180.38,91.2 179.15,91.46 C177.09,91.97 176.15,93.56 176.41,96.11 C176.742221,98.9829358 177.661225,101.756966 179.11,104.26 C181.06,107.68 183.11,111.06 185.05,114.47 C185.67,115.53 185.5,116.02 184.34,116.47 C179.75,118.47 175.14,120.4 170.58,122.47 C169.400596,122.99586 168.291917,123.667786 167.28,124.47 C165.836356,125.437372 165.397759,127.362813 166.28,128.86 C166.89219,130.004982 167.615684,131.086873 168.44,132.09 C169.08,132.93 170.05,132.84 170.98,132.67 C171.66,132.54 172.32,132.32 172.98,132.18 C173.237209,132.09764 173.517713,132.133783 173.745643,132.278654 C173.973574,132.423525 174.125379,132.662155 174.16,132.93 C174.219571,133.190004 174.172797,133.463033 174.030076,133.688381 C173.887355,133.91373 173.660519,134.072719 173.4,134.13 C172.529695,134.390581 171.683276,134.725134 170.87,135.13 C169.394476,135.732731 168.64786,137.384069 169.17,138.89 C169.41648,140.929317 170.546264,142.757447 172.26,143.89 C173.006872,144.276809 173.81007,144.543417 174.64,144.68 C175.33,144.83 176.08,144.73 176.79,144.82 C177.5,144.91 177.79,145.53 177.6,146.25 C177.297428,147.448746 177.116513,148.67495 177.06,149.91 C177.150907,150.589923 177.472082,151.218156 177.97,151.69 C179.50509,153.275816 181.702956,154.036902 183.89,153.74 C184.379864,153.667102 184.877678,153.805182 185.26,154.12 C185.47,154.35 185.26,155 185.16,155.45 C184.825853,156.617109 184.55875,157.802379 184.36,159 C184.363232,159.649582 184.597143,160.276888 185.02,160.77 C185.624901,161.605454 186.389693,162.312462 187.27,162.85 C188.279322,163.346857 189.385257,163.616514 190.51,163.64 C191.503883,163.644335 192.484425,163.411199 193.37,162.96 C200.12,159.67 206.89,156.4 213.55,152.96 C216.956691,151.230258 220.729483,150.345367 224.55,150.38 C229.72,150.33 234.88,150.38 240.04,150.2 C247.697014,150.067113 255.341361,149.522996 262.94,148.57 C267.639846,147.917311 272.234973,146.656761 276.61,144.82 C277.285288,144.41074 278.16259,144.59936 278.61,145.25 L278.69,145.84 Z M185.26,66.38 C185.276359,48.7556993 171.01405,34.4489271 153.389784,34.4104285 C135.765517,34.3719299 121.440841,48.6162565 121.380203,66.2404604 C121.319565,83.8646643 135.545886,98.2072233 153.17,98.29 C161.656938,98.3139031 169.805765,94.9653869 175.823814,88.9810938 C181.841864,82.9968007 185.236164,74.8669381 185.26,66.38 Z M172.45,119.46 L183,114.91 L177.77,106 L168.02,110.7 C169.52,113.67 171,116.53 172.45,119.46 Z M174.45,105.32 L170.1,96 L165.44,98.27 C166.86,101.37 168.26,104.46 169.7,107.62 L174.45,105.32 Z M171.83,94.91 C172.06,95.4 172.28,95.91 172.51,96.39 C173.68,98.9 174.84,101.39 176.03,103.91 C176.11,104.09 176.34,104.19 176.51,104.33 C176.545058,104.121463 176.545058,103.908537 176.51,103.7 C176.23,102.92 175.87,102.16 175.61,101.38 C174.618779,99.0192232 174.240392,96.4461928 174.51,93.9 C174.57,93.57 174.64,93.24 174.73,92.78 L172,94.69 C171.939059,94.7599288 171.882294,94.8333896 171.83,94.91 L171.83,94.91 Z" id="Shape" fill="#575757"></path>
                <path d="M167.24,136.4 C167.17,137.09 167.1,137.77 167.02,138.4 L166.61,138.4 L47.61,138.3 L29.46,138.3 C29.22,138.3 28.97,138.3 28.7,138.3 L28.7,143.5 L167.62,143.5 L168.79,143.5 L170.79,145.38 C170.38,145.38 169.96,145.38 169.54,145.38 L29.14,145.38 C30.14,147.8 31.52,148.77 33.89,148.77 L175,148.77 C175,149.4 175,150.03 175,150.66 L173.84,150.66 C127.173333,150.66 80.5066667,150.66 33.84,150.66 C31.2830676,150.776559 28.8984612,149.372465 27.76,147.08 C26.9848912,145.856161 26.5947428,144.427939 26.64,142.98 C26.75,141.21 26.64,139.43 26.64,137.65 C26.64,136.56 26.93,136.27 28.02,136.27 L47.62,136.27 L47.62,135.15 C47.62,100.13 47.62,65.1033333 47.62,30.07 C47.5281662,27.130785 48.7885038,24.3116087 51.04,22.42 C52.4735147,21.3622322 54.2190876,20.8132213 56,20.86 L224,20.86 C226.572958,20.7903532 229.103649,21.5243934 231.24,22.96 C233.660158,24.6521733 235.02426,27.4826852 234.84,30.43 L234.84,104.68 L232.84,105.01 C232.84,104.62 232.84,104.23 232.84,103.84 L232.84,34.94 C232.84,33.38 232.84,31.82 232.84,30.27 C232.84,26.98 231.36,24.76 228.24,23.68 C226.829032,23.1821956 225.346092,22.918712 223.85,22.9 C168.19,22.86 112.523333,22.86 56.85,22.9 L56.43,22.9 C54.0574965,22.8339099 51.8647961,24.1589106 50.82,26.29 C50.1333561,27.5656682 49.7726603,28.9912757 49.77,30.44 L49.77,136.44 L166,136.44 L167.24,136.4 Z" id="Shape" fill="#EF2388"></path>
                <path d="M6.37,17.07 C4.56,17.07 3.07,17.07 1.58,17.07 C0.72,17.07 0.08,16.84 0.01,15.88 C-0.06,14.92 0.52,14.59 1.58,14.57 C3.07,14.57 4.58,14.57 6.01,14.57 C6.01,12.9 6.01,11.38 6.01,9.87 C6.01,8.67 6.79,7.87 7.68,8.37 C8.10401565,8.64664553 8.39104843,9.08991134 8.47,9.59 C8.59,10.9 8.57,12.22 8.57,13.54 C8.57,14.15 8.69,14.43 9.41,14.38 C10.72,14.29 12.04,14.38 13.35,14.3 C14.19,14.3 14.78,14.57 14.83,15.45 C14.88,16.33 14.33,16.73 13.48,16.73 L8.79,16.73 C8.79,18.47 8.79,19.95 8.79,21.43 C8.79,22.31 8.65,23.03 7.6,23.09 C6.78,23.14 6.37,22.6 6.36,21.49 C6.36,20 6.37,18.52 6.37,17.07 Z" id="Shape" fill="#575757"></path>
                <path d="M18.24,70.09 C16.94,70.09 15.77,70.09 14.6,70.09 C13.76,70.09 13.2,69.79 13.21,68.88 C13.22,67.97 13.81,67.66 14.64,67.67 L18.32,67.67 C18.32,66.46 18.32,65.36 18.32,64.27 C18.32,63.39 18.47,62.67 19.5,62.59 C20.32,62.53 20.75,63.15 20.75,64.32 C20.75,65.49 20.75,66.51 20.75,67.7 C21.96,67.7 23.12,67.7 24.29,67.7 C25.17,67.7 25.8,68 25.81,68.92 C25.82,69.84 25.13,70.17 24.28,70.17 C23.15,70.17 22.01,70.17 20.71,70.17 L20.71,73.58 C20.71,74.69 20.3,75.23 19.48,75.21 C18.42,75.21 18.24,74.43 18.24,73.57 L18.24,70.09 Z" id="Shape" fill="#575757"></path>
                <path d="M47,6.42 L47,9.08 C47,9.87 46.64,10.4 45.83,10.43 C45.4839563,10.4674839 45.1393695,10.3475986 44.891318,10.103423 C44.6432666,9.85924734 44.5179699,9.51659102 44.55,9.17 C44.55,8.29 44.55,7.41 44.55,6.42 L41.87,6.42 C41.08,6.42 40.57,6.06 40.54,5.23 C40.51,4.4 41,4 41.81,4 C42.62,4 43.51,4 44.51,4 C44.51,3.09 44.51,2.29 44.51,1.48 C44.51,0.67 44.84,0 45.81,0 C46.78,0 47,0.64 47,1.47 C47,2.3 47,3 47,4 L49.37,4 C50.23,4 50.95,4.24 51.01,5.26 C51.06,6.06 50.48,6.47 49.38,6.47 L47,6.42 Z" id="Shape" fill="#575757"></path>
                <path d="M25.93,40.8 C23.8920693,40.8193299 22.22433,39.1829307 22.2050001,37.145 C22.1856701,35.1070693 23.8220693,33.43933 25.86,33.42 C27.17831,33.4074957 28.4031497,34.0992513 29.0731338,35.2346891 C29.7431179,36.3701269 29.7564598,37.776747 29.1081338,38.9246891 C28.4598078,40.0726313 27.24831,40.7874957 25.93,40.8 Z M26.27,38.35 C26.49,38.03 27,37.6 27.09,37.1 C27.22,36.37 26.65,35.92 25.93,35.91 C25.60578,35.8785988 25.2845079,35.9938462 25.0541771,36.2241771 C24.8238462,36.4545079 24.7085988,36.77578 24.74,37.1 C24.72,37.89 25.19,38.23 26.27,38.35 L26.27,38.35 Z" id="Shape" fill="#575757"></path>
                <path d="M224.75,106.15 L224.75,33.91 C224.4,33.91 224.11,33.91 223.82,33.91 L164.5,33.91 C164.2,33.91 163.9,33.96 163.6,33.98 C156.856612,31.8610917 149.623078,31.8785555 142.89,34.03 C142.50865,33.9768328 142.124803,33.9434548 141.74,33.93 L58.38,33.93 L58.38,128.57 L164,128.57 L164.72,130.57 L58,130.57 C56.4,130.57 56.3,130.47 56.3,128.87 L56.3,33.58 C56.3,32.07 56.5,31.86 58.02,31.86 L225.02,31.86 C226.52,31.86 226.76,32.1 226.76,33.59 L226.76,104.84 C226.76,105.2 226.76,105.56 226.76,105.92 L224.75,106.15 Z" id="Shape" fill="#EF2689"></path>
                <path d="M125.47,46.9 L124.72,46.9 L80.59,46.9 L80.59,113.2 L81.35,113.2 L167,113.2 L168,115.2 L80.3,115.2 C78.71,115.2 78.52,115.02 78.52,113.45 L78.52,46.45 C78.52,44.99 78.75,44.76 80.2,44.76 L126.1,44.76 L126.93,44.76 L125.47,46.9 Z" id="Shape" fill="#F0288A"></path>
                <path d="M179.71,44.87 L211.28,44.87 C212.33,44.87 212.62,45.22 212.62,46.4 C212.62,66.1066667 212.62,85.82 212.62,105.54 C212.62,105.96 212.62,106.37 212.62,106.79 L210.56,106.66 L210.56,47 C210.29,47 210.11,46.93 209.93,46.93 L181.43,46.93 L181.18,46.93 L179.71,44.87 Z" id="Shape" fill="#F0288A"></path>
                <path d="M126.31,86.9 L125.94,89 L125.53,88.06 L124.44,88.14 L124.44,88.34 L125.44,88.59 C124.98,88.92 124.53,88.95 124.29,88.5 C124.14,88.24 124.2,87.5 124.29,87.5 C124.727018,87.4058407 125.177146,87.3889186 125.62,87.45 L126.05,86.59 L126.31,86.9 Z" id="Shape" fill="#F2459A"></path>
                <path d="M124.18,83.86 L123.61,84.73 L124.18,85.3 C123.89,85.44 123.6,85.7 123.31,85.71 C122.82,85.71 122.76,85.35 122.91,84.94 C122.956945,84.8399018 122.980864,84.7305565 122.98,84.62 C122.65,83.54 123.31,83.57 124.04,83.62 L124.18,83.86 Z" id="Shape" fill="#F2459A"></path>
                <path d="M120.87,56.09 C120.609944,56.163959 120.35588,56.2575615 120.11,56.37 C119.911921,56.5160116 119.730795,56.6837209 119.57,56.87 L119.57,55 C120.79,54.68 120.89,54.77 120.86,56.16 L120.87,56.09 Z" id="Shape" fill="#F2459A"></path>
                <path d="M119.47,63.48 C118.78,63.48 118.41,62.81 118.65,61.96 C118.65,61.82 118.79,61.69 118.83,61.59 L119.55,62.08 L119.55,62.08 C119.367304,62.3107598 119.212873,62.5625492 119.09,62.83 C119.09,62.9 119.37,63.09 119.52,63.22 L119.47,63.48 Z" id="Shape" fill="#F2459A"></path>
                <path d="M141.05,134.34 L129.72,134.34 C128.8,134.34 128.33,134.01 128.39,133.34 C128.45,132.67 129.01,132.34 129.69,132.34 L152.35,132.34 C153.35,132.34 153.93,132.94 153.63,133.67 C153.4,134.24 152.92,134.29 152.39,134.28 L141.05,134.34 Z" id="Shape" fill="#F0288A"></path>
                <path d="M110.49,80.32 L109.79,80.32 L109.74,80.18 C109.98,80.12 110.41,79.97 110.44,80.03 C110.662717,80.494215 110.856422,80.9717988 111.02,81.46 C110.192787,81.5432906 109.360853,81.5700194 108.53,81.54 C108.17,81.54 107.86,81.09 107.39,80.76 L106.39,80.92 L106.39,81.09 L107.32,81.35 C106.92,81.7 106.47,81.71 106.22,81.28 C106.06293,80.9651699 106.06293,80.5948301 106.22,80.28 C106.64,79.73 107.08,80.1 107.37,80.38 C107.689237,80.0323129 108.048387,79.723511 108.44,79.46 C108.65,79.35 109.01,79.53 109.31,79.58 L109.31,79.78 C109.100472,79.7600905 108.889528,79.7600905 108.68,79.78 C108.465904,79.7702063 108.261118,79.8682267 108.134464,80.041119 C108.00781,80.2140113 107.976104,80.4388229 108.05,80.64 C108.198375,80.9539475 108.469736,81.1927451 108.8,81.3 C109.05,81.37 109.39,81.18 109.67,81.06 C109.950527,80.9271541 110.224205,80.7803024 110.49,80.62 L110.49,80.32 Z" id="Shape" fill="#F2459A"></path>
                <path d="M103,69.29 L103.13,68.65 L103.28,68.65 L103.28,70.88 L101,70.55 L100.71,71.06 C100.707516,70.5390156 100.633491,70.0208407 100.49,69.52 C100.27,69.06 100.93,69.03 100.56,68.6 L100.89,68.65 L101.07,69.65 L101.73,69.23 L101.83,69.31 L101.38,69.98 L101.9,70.6 C102,69.86 102,69.1 103,69.29 Z" id="Shape" fill="#F2459A"></path>
                <path d="M124.46,103.05 L125.56,102.85 L124.95,101.85 L125.72,101.51 L125.83,101.75 L125.19,101.99 C125.304051,102.051967 125.411302,102.125702 125.51,102.21 C125.67,102.4 125.81,102.61 125.96,102.81 C125.73,102.92 125.51,103.06 125.27,103.15 C125.03,103.24 124.81,103.26 124.43,103.35 L124.05,102.45 L123,102.45 L123,102.66 L123.88,102.91 L123.88,103.09 C123.54,103.09 123.03,103.09 122.88,102.92 C122.686328,102.587322 122.664012,102.181926 122.82,101.83 C123.21,101.26 123.68,101.63 124.07,101.99 L124.7,100.65 L124.46,103.05 Z" id="Shape" fill="#F2459A"></path>
                <path d="M103.18,66 C103.75,65.42 104.28,65.39 104.59,66 L106.15,65.48 L106.15,67.56 C105.24,67.34 104.78,66.14 103.59,66.68 L104.43,66.92 L104.43,67.05 C104.16,67.05 103.73,67.22 103.64,67.1 C103.430832,66.748442 103.266234,66.3722168 103.15,65.98 L103.18,66 Z" id="Shape" fill="#F2459A"></path>
                <polygon id="Shape" fill="#F2459A" points="111.36 69.61 110.62 70.61 109.88 69.46 109.75 70.8 109.54 70.8 109.54 68.69 109.7 68.6 110.63 70 111.54 68.61 111.73 68.7 111.73 70.81 111.51 70.81"></polygon>
                <path d="M112.13,80.83 C112.440841,80.4945998 112.797737,80.2050423 113.19,79.97 C113.31,79.91 113.65,80.32 114.06,80.66 L112.86,80.89 L112.86,81.08 L113.66,81.24 C113.23,81.66 113.07,81.64 112.49,81.24 L111.31,81.58 L111.24,81.33 L111.76,81.23 L111.24,80.23 L112.08,79.99 L112.15,80.23 L111.44,80.37 L112.13,80.83 Z" id="Shape" fill="#F2459A"></path>
                <polygon id="Shape" fill="#F2459A" points="116.83 101.79 116.71 103.17 116.49 103.17 116.49 100.81 117.81 102.41 118 101 118.21 101 118.21 103.31"></polygon>
                <path d="M93.34,101.87 C93.02,102.07 92.28,101.54 92.34,102.42 C92.34,102.63 92.78,102.83 93.14,103.15 C92.8,103.15 92.37,103.15 92.22,103.01 C92.0020035,102.725306 91.9349597,102.35284 92.04,102.01 C92.12,101.8 92.53,101.67 92.82,101.57 C93.1087401,101.522538 93.3885976,101.4315 93.65,101.3 L94.85,101.75 L94.85,103.06 L94.68,103.06 C94.68,102.86 94.62,102.65 94.57,102.46 C94.5282379,102.259275 94.4539234,102.066733 94.35,101.89 C94.35,101.89 94,101.89 93.99,101.89 C93.9191448,102.119577 93.8920083,102.360412 93.91,102.6 C93.91,102.72 94.12,102.81 94.16,102.97 C93.17,103.24 93.69,102.34 93.34,101.87 Z" id="Shape" fill="#F2459A"></path>
                <path d="M111.26,84.39 L110.36,84.56 L110.36,84.77 L111.36,84.94 C111.08,85.06 110.91,85.19 110.77,85.17 C110.250253,84.9997526 109.689747,84.9997526 109.17,85.17 C109.06,85.17 108.64,84.92 108.59,84.74 C108.518361,84.4294261 108.580011,84.1030441 108.76,83.84 C108.92,83.66 109.33,83.7 109.53,83.66 L108.87,84.53 L109.5,84.88 C109.849909,84.4337525 110.238044,84.0188494 110.66,83.64 C110.73,83.58 111.14,83.97 111.4,84.15 L111.26,84.39 Z" id="Shape" fill="#F2459A"></path>
                <path d="M94.37,81.49 C93.07,81.58 93.74,80.63 93.37,80.23 C93.06,80.43 92.37,79.84 92.37,80.7 C92.37,80.92 92.76,81.15 93.01,81.44 C92.85,81.44 92.46,81.53 92.28,81.37 C92.0652518,81.142873 91.969059,80.8283967 92.02,80.52 C92.12,80.26 92.5,80.07 92.8,79.95 C93.1559595,79.8516862 93.5213308,79.7913496 93.89,79.77 L94.89,80.13 L94.89,81.45 L94.74,81.45 C94.7187718,81.2606296 94.6819808,81.0733297 94.63,80.89 C94.5763789,80.6725594 94.4922084,80.4638167 94.38,80.27 C94.2370921,80.2748416 94.0984491,80.3199006 93.98,80.4 C93.9822127,80.6571357 94.0192152,80.9127892 94.09,81.16 C94,81.27 94.16,81.32 94.37,81.49 Z" id="Shape" fill="#F2459A"></path>
                <path d="M106.52,73.83 L106.41,74.45 L105.48,73.45 L105.23,74.38 L105.04,74.38 L105.04,72.17 C105.273092,72.1549998 105.506908,72.1549998 105.74,72.17 C106.39,72.25 106.58,72.62 106.27,73.17 C106.04,73.58 106.04,73.58 106.52,73.82 L106.52,73.83 Z" id="Shape" fill="#F2459A"></path>
                <path d="M129.83,106.42 L130.75,106.6 C130.59,106.69 130.47,106.84 130.36,106.83 C129.781686,106.689995 129.178314,106.689995 128.6,106.83 C128.5,106.83 128.09,106.54 128.06,106.35 C128.014364,106.034502 128.09722,105.713885 128.29,105.46 C128.45,105.3 128.83,105.35 129.04,105.32 L128.36,106.18 L129.27,106.65 L129.18,106.3 C129.457172,105.931255 129.775945,105.595705 130.13,105.3 C130.22,105.24 130.63,105.65 130.89,105.85 L130.76,106.06 L129.85,106.22 L129.83,106.42 Z" id="Shape" fill="#F2459A"></path>
                <path d="M112.35,62.34 C112.84,61.85 113.35,61.73 113.82,62.4 L114.4,61.13 L114.4,64 L113.88,62.81 L112.81,62.81 L112.81,63.02 L113.63,63.27 L113.63,63.39 C113.37,63.39 112.94,63.56 112.86,63.45 C112.648519,63.096092 112.483813,62.7162597 112.37,62.32 L112.35,62.34 Z" id="Shape" fill="#F2459A"></path>
                <path d="M115.11,69.45 L114.26,70.45 C114.494932,70.5589644 114.71923,70.6895258 114.93,70.84 C114.921252,71.0116186 114.845913,71.1730582 114.72,71.29 C114.437544,71.3594874 114.142456,71.3594874 113.86,71.29 C113.74,71.29 113.64,70.98 113.61,70.8 C113.58,70.62 113.68,70.48 113.69,70.32 C113.75,69.15 113.75,69.15 115.11,69.45 Z" id="Shape" fill="#F2459A"></path>
                <path d="M132.24,101.8 L131.44,102.8 C131.672327,102.921396 131.896171,103.058376 132.11,103.21 C132.11,103.21 132.03,103.57 131.93,103.6 C131.655551,103.702026 131.360537,103.73633 131.07,103.7 C130.94,103.7 130.84,103.36 130.79,103.16 C130.74,102.96 130.86,102.84 130.87,102.68 C130.9,101.49 130.93,101.47 132.24,101.8 Z" id="Shape" fill="#F2459A"></path>
                <path d="M88.86,67 C88.86,66.59 88.86,66.32 88.93,66.23 C89.2280307,66.0069806 89.54223,65.8064279 89.87,65.63 C90.04,65.96 90.37,66.29 90.36,66.63 C90.36,67.15 89.88,67.33 89.45,67.17 C89.1405989,66.9913672 88.7594011,66.9913672 88.45,67.17 C88.1732837,67.2267458 87.8873255,67.1314264 87.7,66.92 C87.6031743,66.5881308 87.6316444,66.2322547 87.78,65.92 C87.88,65.74 88.34,65.78 88.56,65.73 L87.89,66.6 L88.86,67 Z M89.7,67.22 C89.88,66.78 90.05,66.57 90.03,66.39 C90.01,66.21 89.78,66.05 89.64,65.88 C89.51,66.06 89.29,66.24 89.28,66.43 C89.27,66.62 89.47,66.81 89.7,67.22 Z" id="Shape" fill="#F2459A"></path>
                <path d="M88.53,72.81 L87.85,73.59 L88.85,74.24 C88.85,73.76 88.85,73.48 88.93,73.39 C89.2258564,73.1667732 89.5403464,72.9693805 89.87,72.8 C90.04,73.13 90.37,73.46 90.36,73.8 C90.36,74.32 89.88,74.5 89.45,74.33 C89.1405989,74.1513672 88.7594011,74.1513672 88.45,74.33 C88.1736812,74.3806378 87.8906723,74.2863015 87.7,74.08 C87.6031743,73.7481308 87.6316444,73.3922547 87.78,73.08 C87.85,72.82 88.31,72.85 88.53,72.81 Z M89.74,72.81 C89.49,73.2 89.27,73.39 89.28,73.57 C89.29,73.75 89.5,73.95 89.62,74.14 C89.76,73.98 89.99,73.83 90.03,73.66 C90.07,73.49 89.9,73.21 89.74,72.77 L89.74,72.81 Z" id="Shape" fill="#F2459A"></path>
                <path d="M113.9,101.75 L113.11,102.75 L113.71,103.41 C113.411599,103.551857 113.095409,103.652769 112.77,103.71 C112.66,103.71 112.49,103.36 112.42,103.14 C112.35,102.92 112.51,102.82 112.51,102.66 C112.55,101.53 112.54,101.53 113.9,101.75 Z" id="Shape" fill="#F2459A"></path>
                <path d="M119.9,106.43 C120.12719,106.52993 120.344763,106.650432 120.55,106.79 C120.55,106.79 120.55,107.16 120.41,107.19 C120.142614,107.305895 119.849803,107.350678 119.56,107.32 C119.42,107.32 119.29,106.99 119.24,106.79 C119.19,106.59 119.33,106.47 119.34,106.31 C119.34,105.17 119.34,105.17 120.7,105.45 L119.9,106.43 Z" id="Shape" fill="#F2459A"></path>
                <path d="M87.86,81.61 C87.38,80.1 87.54,79.49 88.45,79.35 L87.92,79.91 L88.62,80.03 L89.46,81.33 L89.86,80.18 L89.86,81.35 C88.71,81.53 88.71,81.53 88.52,80.27 C88.17,80.36 88.17,80.36 87.86,81.61 Z" id="Shape" fill="#F2459A"></path>
                <path d="M88.43,101.15 L87.91,101.37 L88.04,101.59 L88.7,101.71 L89.38,102.98 L89.86,101.9 L89.86,103 C88.79,103.31 88.72,103.26 88.52,102 C88.17,102.1 88.17,102.1 87.89,103.2 C87.28,102.18 87.51,101.15 88.43,101.15 Z" id="Shape" fill="#F2459A"></path>
                <path d="M88.53,69.31 L87.86,70.18 L88.86,70.73 C88.86,70.28 88.86,69.99 88.97,69.89 C89.2568425,69.6590085 89.5688127,69.461092 89.9,69.3 C90.08,69.63 90.4,69.96 90.39,70.3 C90.3922874,70.5175587 90.2766208,70.7193086 90.0877165,70.8272539 C89.8988122,70.9351992 89.6662739,70.9324236 89.48,70.82 C89.1705989,70.6413672 88.7894011,70.6413672 88.48,70.82 C88.2017567,70.8701661 87.9174906,70.7716205 87.73,70.56 C87.6350329,70.227943 87.6634495,69.8727356 87.81,69.56 C87.85,69.32 88.31,69.35 88.53,69.31 Z M90.36,70.37 L90.13,70 L89.66,69.55 C89.52,69.73 89.28,69.91 89.28,70.09 C89.3195098,70.3115688 89.4708267,70.496932 89.68,70.58 C89.88,70.62 90.13,70.45 90.36,70.37 Z" id="Shape" fill="#F2459A"></path>
                <path d="M137,105.47 L136.25,106.37 L136.84,107.04 C136.515127,107.161269 136.180609,107.254934 135.84,107.32 C135.76,107.32 135.58,107.02 135.55,106.84 C135.52,106.66 135.67,106.47 135.67,106.28 C135.71,105.14 135.72,105.13 137,105.47 Z" id="Shape" fill="#F2459A"></path>
                <path d="M88.84,63.43 C88.84,62.91 88.84,62.63 88.94,62.54 C89.2386446,62.32677 89.5528589,62.1362358 89.88,61.97 C90.05,62.3 90.37,62.65 90.34,62.97 C90.31,63.29 89.75,63.54 89.52,63.48 C89.1340362,63.3496856 88.7159638,63.3496856 88.33,63.48 C88.0485606,63.4947951 87.7796619,63.3622394 87.62,63.13 C87.5209904,62.7932004 87.5681687,62.4302903 87.75,62.13 C87.89,61.95 88.32,61.99 88.6,61.94 L87.85,62.75 L88.84,63.43 Z M90.36,63 L90.13,62.61 L89.66,62.17 C89.52,62.35 89.28,62.53 89.28,62.71 C89.3212841,62.9307494 89.4719848,63.1153577 89.68,63.2 C89.88,63.28 90.13,63.11 90.36,63 Z" id="Shape" fill="#F2459A"></path>
                <path d="M114.84,81.22 L115.58,81.22 L115.24,80.86 C115.09,80.68 114.94,80.48 114.79,80.29 C115.037161,80.1721384 115.290916,80.0686331 115.55,79.98 C115.85,79.88 116.17,79.81 116.55,79.7 C116.691891,79.8034175 116.781363,79.9637968 116.794829,80.1388593 C116.808295,80.3139218 116.744405,80.4860983 116.62,80.61 C116.51,80.74 116.76,81.15 116.87,81.5 C115.87,81.59 116.35,80.71 116.07,80.27 L115.24,80.27 L115.73,81.27 L114.84,81.52 L114.84,81.22 Z" id="Shape" fill="#F2459A"></path>
                <path d="M118.59,88.68 C118.24,87.45 118.33,87.28 119.2,87.47 C119.82,86.53 120.32,86.4 121.04,87.06 C120.4,87.06 119.67,86.78 119.66,87.73 C119.65,88.68 120.38,88.53 121.07,88.42 C120.37,89.09 119.68,88.96 119.32,88.19 C119.186784,87.9323485 119.039908,87.6819922 118.88,87.44 L118.65,87.53 L118.59,88.68 Z" id="Shape" fill="#F2459A"></path>
                <path d="M92.52,87.26 L93.03,87.71 L93.49,87.32 L93.49,88.78 L93,88.46 L93,88.64 C92.53,88.64 91.69,88.88 91.64,88.75 C91.4461086,88.1571671 91.3880088,87.528322 91.47,86.91 C91.79,87.17 92.28,87.34 91.81,87.91 C91.73,88 91.92,88.38 92.03,88.6 C92.03,88.6 92.39,88.6 92.41,88.6 C92.5061452,88.3723218 92.553824,88.1271167 92.55,87.88 C92.55,87.74 92.42,87.6 92.34,87.46 L92.52,87.26 Z" id="Shape" fill="#F2459A"></path>
                <path d="M92.77,69.56 L93.32,70.56 L92.45,70.84 L92.39,70.58 L93.13,70.44 C92.980066,70.3508507 92.8393731,70.247006 92.71,70.13 C92.5775459,69.9529701 92.4540573,69.769406 92.34,69.58 C92.5523106,69.46949 92.7729925,69.3758673 93,69.3 C93.3414169,69.2292459 93.6760166,69.128866 94,69 C94.22,69.16 94.59,69.4 94.19,69.9 C94.08,70.04 94.33,70.46 94.43,70.81 C93.49,70.94 93.9,70.08 93.66,69.6 L92.77,69.56 Z" id="Shape" fill="#F2459A"></path>
                <path d="M94.09,72.6 C94.09,72.68 94.58,72.9 94.16,73.37 C94.04,73.5 94.26,73.93 94.33,74.23 C93.86,74.37 93.86,74.37 93.62,73.1 L92.78,73.1 L93.34,74.1 L92.48,74.43 L92.39,74.18 L93.07,74.02 C92.9512607,73.9263828 92.8408485,73.8226622 92.74,73.71 C92.6,73.52 92.48,73.31 92.35,73.1 C92.59,73.01 92.82,72.9 93.06,72.83 C93.3,72.76 93.64,72.69 94.09,72.6 Z" id="Shape" fill="#F2459A"></path>
                <path d="M94.11,61.73 C94.2375298,61.8363978 94.3112522,61.9939147 94.3112522,62.16 C94.3112522,62.3260853 94.2375298,62.4836022 94.11,62.59 C94,62.72 94.25,63.14 94.35,63.49 C93.35,63.62 93.83,62.74 93.57,62.28 L92.77,62.23 L93.22,63.35 L92.39,63.53 L92.39,63.28 L93.07,63.19 C92.89,63.02 92.77,62.94 92.68,62.83 C92.59,62.72 92.45,62.46 92.33,62.27 C92.56,62.17 92.78,62.04 93.02,61.96 C93.26,61.88 93.66,61.82 94.11,61.73 Z" id="Shape" fill="#F2459A"></path>
                <path d="M93.12,66.75 C92.89,66.62 92.77,66.58 92.71,66.5 C92.5752688,66.3245971 92.451692,66.1409019 92.34,65.95 C92.5542634,65.825298 92.7783394,65.7182766 93.01,65.63 C93.3338419,65.5630065 93.6515908,65.4693542 93.96,65.35 C94.18,65.5 94.55,65.74 94.15,66.24 C94.04,66.38 94.29,66.8 94.37,67.09 C93.9,67.16 93.9,67.16 93.59,65.92 L92.81,65.92 L93.27,67 L92.44,67.2 L92.44,66.98 L93.12,66.75 Z" id="Shape" fill="#F2459A"></path>
                <path d="M121.09,103.15 L120.9,101.89 L120.64,101.89 L120.38,103.18 L120.16,103.18 L120.09,101.73 C120.68,101.73 121.18,101.64 121.68,101.64 C122.18,101.64 122.47,102.36 121.99,103.38 C121.99,102.97 121.92,102.75 121.89,102.53 C121.86,102.31 121.8,102.14 121.75,101.95 L121.52,101.95 C121.52,102.15 121.39,102.35 121.35,102.56 C121.31,102.77 121.35,102.97 121.29,103.18 L121.09,103.15 Z" id="Shape" fill="#F2459A"></path>
                <path d="M100,74.33 L99.76,73.06 L99.5,73.06 L99.26,74.31 L99.09,74.31 L98.92,73.05 L98.64,73.05 L98.39,74.34 L98.22,74.34 L98.22,72.86 C98.69,72.86 99.22,72.78 99.7,72.78 C100.18,72.78 100.42,73.34 100,74.33 Z" id="Shape" fill="#F2459A"></path>
                <path d="M92.85,54.55 L92.93,54.14 L93.08,54.14 L93.08,56.33 C92.7034026,56.3296634 92.3302356,56.2584224 91.98,56.12 C91.82,56.02 91.77,55.46 91.89,55.23 C92.01,55 92.43,54.83 92.85,54.55 Z" id="Shape" fill="#F2459A"></path>
                <path d="M105.1,103.14 L104.93,101.92 L104.66,101.92 L104.36,103.2 L104.19,103.2 L104,102 L103.78,102 L103.51,103.21 L103.28,103.21 L103.21,101.77 C103.743931,101.70365 104.282325,101.680242 104.82,101.7 C105.02,101.7 105.27,102.05 105.34,102.28 C105.390383,102.587953 105.390383,102.902047 105.34,103.21 L105.1,103.14 Z" id="Shape" fill="#F2459A"></path>
                <path d="M104.75,85.61 L104.75,83.77 C105.85,83.54 106.51,84.11 105.96,84.85 C105.72,85.18 105.23,85.32 104.75,85.61 Z" id="Shape" fill="#F2459A"></path>
                <path d="M124.29,105.37 C125.39,105.26 125.99,105.85 125.46,106.53 C125.112236,106.835263 124.717059,107.081827 124.29,107.26 L124.29,105.37 Z" id="Shape" fill="#F2459A"></path>
                <path d="M98.42,83.92 L98.95,84.92 L98.1,85.2 L98.1,84.94 L98.77,84.85 C98.62,84.69 98.53,84.61 98.46,84.52 L98,84 C98.26,83.89 98.5,83.77 98.76,83.68 C99.02,83.59 99.34,83.55 99.63,83.48 L99.63,83.25 L100.09,83.82 C99.63,84.23 99.61,84.69 100.28,85.17 C99.09,85.34 99.63,84.36 99.28,83.96 L98.42,83.92 Z" id="Shape" fill="#F2459A"></path>
                <path d="M108.43,101 C108.694723,100.954473 108.965277,100.954473 109.23,101 C109.47,101.11 109.78,101.36 109.8,101.58 C109.82,101.8 109.58,102.1 109.39,102.29 C109.073525,102.549557 108.739386,102.786796 108.39,103 L108.43,101 Z" id="Shape" fill="#F2459A"></path>
                <path d="M95.58,62.08 C96.67,61.89 97.35,62.58 96.71,63.27 C96.368402,63.537508 95.9871479,63.7500656 95.58,63.9 L95.58,62.08 Z" id="Shape" fill="#F2459A"></path>
                <polygon id="Shape" fill="#F2459A" points="115.09 83.59 115.55 84.39 116.04 83.54 116.53 84.41 116.95 83.65 117.16 83.73 116.71 85.18 116.49 85.18 116.05 84.3 115.48 85.38 114.88 83.67"></polygon>
                <path d="M103.13,88.74 C102.19,87.99 101.9,88.18 101.13,88.74 L101.97,86.61 L102.26,86.61 L103.13,88.74 Z" id="Shape" fill="#F2459A"></path>
                <path d="M96.46,70.82 L96.24,69.57 L96,69.57 L95.78,70.81 L95.58,70.81 L95.5,69.37 C96.08,69.37 96.61,69.27 97.13,69.29 C97.65,69.31 97.84,69.98 97.4,71.02 L97.19,69.56 L96.88,69.56 L96.63,70.84 L96.46,70.82 Z" id="Shape" fill="#F2459A"></path>
                <path d="M117,56.33 L116.93,54.92 C117.51,54.87 118.02,54.8 118.52,54.78 C118.65,54.78 118.78,54.92 118.91,54.99 C118.83,55.11 118.78,55.27 118.67,55.34 C118.463038,55.4444122 118.24921,55.5346206 118.03,55.61 L118.29,55.98 L119.14,56.07 C118.41,56.65 118.06,56.41 117.57,55.07 L117.17,56.31 L117,56.33 Z" id="Shape" fill="#F2459A"></path>
                <path d="M104.11,87.58 C103.53,87.84 103.5,88.16 104.2,88.91 C103.81,88.8 103.45,88.77 103.44,88.69 C103.35,88.1 103.33,87.51 103.28,86.69 L104.16,87.43 L104.66,86.51 L104.8,86.51 C104.676694,86.9342092 104.596291,87.3697266 104.56,87.81 C104.596366,88.2371484 104.676793,88.6593929 104.8,89.07 L104.58,89.13 L104.11,87.58 Z" id="Shape" fill="#F2459A"></path>
                <polygon id="Shape" fill="#F2459A" points="105.49 69.32 105.93 70.15 106.43 69.15 106.91 70.15 107.33 69.3 107.52 69.38 107.08 70.84 106.85 70.84 106.43 69.95 106 70.79 105.78 70.79 105.29 69.32"></polygon>
                <path d="M116.05,65.13 L116.05,67.13 L115.84,67.13 L115.7,66 C114.7,65.92 115.25,66.82 114.78,67.3 L114.67,65.91 L116.05,65.13 Z" id="Shape" fill="#F2459A"></path>
                <path d="M111.52,86.71 C111.52,86.99 111.52,87.28 111.52,87.57 C111.52,87.86 111.38,88.5 112.01,88.51 C112.64,88.52 112.52,87.94 112.56,87.51 C112.558447,87.2202673 112.619864,86.9336564 112.74,86.67 C112.95,87.34 113.18,88.04 112.62,88.6 C112.322266,88.7925556 111.949968,88.8297853 111.62,88.7 C110.86,88.18 111.32,87.38 111.22,86.7 L111.52,86.71 Z" id="Shape" fill="#F2459A"></path>
                <path d="M98.34,67.17 L98.2,66 C97.2,65.92 97.76,66.83 97.26,67.32 L97.18,65.74 C97.74,65.62 98.39,65.8 98.55,65.01 L98.55,67.16 L98.34,67.17 Z" id="Shape" fill="#F2459A"></path>
                <path d="M105.36,62.12 L104.89,63.47 L104.76,63.47 L104.67,62.07 C105.28,62.07 105.83,61.96 106.38,61.94 C106.507865,61.9515149 106.619164,62.0321106 106.67,62.15 C106.67895,62.274022 106.631132,62.3954043 106.54,62.48 C106.369183,62.6406884 106.188857,62.7909596 106,62.93 L106.07,63.13 L106.91,63.23 L106.91,63.4 C106.64,63.4 106.24,63.56 106.11,63.4 C105.810305,63.0044648 105.558549,62.5748009 105.36,62.12 Z" id="Shape" fill="#F2459A"></path>
                <path d="M105,87.73 C105,87.23 105.1,86.73 105.77,86.67 C106.44,86.61 106.63,87.22 106.63,87.76 C106.63,88.3 106.47,88.88 105.76,88.85 C105.05,88.82 105,88.28 105,87.73 Z M106.42,87.73 L105.8,87 C105.65,87.25 105.37,87.51 105.38,87.75 C105.39,87.99 105.67,88.3 105.84,88.57 L106.42,87.73 Z" id="Shape" fill="#F2459A"></path>
                <path d="M113.34,87.41 C114.43,87.24 114.82,87.41 114.66,88.2 C114.571878,88.4478897 114.411693,88.6637921 114.2,88.82 C113.927307,89.0009818 113.639585,89.1582255 113.34,89.29 L113.34,87.41 Z M114.41,88.12 L114.64,87.73 C114.43,87.67 114.19,87.53 114.01,87.58 C113.83064,87.6906487 113.706965,87.8725227 113.67,88.08 C113.67,88.23 113.85,88.39 113.96,88.55 L114.41,88.12 Z" id="Shape" fill="#F2459A"></path>
                <path d="M115.48,64 L115.48,62.1 C116.57,61.87 116.98,62.1 116.83,62.83 C116.733928,63.0983179 116.555405,63.3293483 116.32,63.49 C116.056463,63.6857435 115.775246,63.8564828 115.48,64 Z M116.68,62.79 L116.12,62.27 C116.02,62.44 115.84,62.6 115.84,62.77 C115.84,62.94 116,63.1 116.1,63.27 L116.68,62.79 Z" id="Shape" fill="#F2459A"></path>
                <path d="M115,87.38 C116.15,87.26 116.71,87.8 116.19,88.53 C116.06,88.7 115.76,88.73 115.58,88.86 C115.372829,89.0497133 115.179033,89.2535333 115,89.47 L115,87.38 Z M115.69,87.49 L115.47,87.49 C115.37915,87.684594 115.328149,87.8953975 115.32,88.11 C115.32,88.26 115.54,88.38 115.66,88.52 C115.804494,88.3691672 115.919775,88.1928551 116,88 C116,87.82 115.81,87.65 115.71,87.49 L115.69,87.49 Z" id="Shape" fill="#F2459A"></path>
                <path d="M103.52,56 L104.32,56.12 L104.32,56.34 C104,56.34 103.59,56.34 103.38,56.21 C103.138363,56.0018567 103.047781,55.6675756 103.151271,55.3659106 C103.254762,55.0642457 103.531477,54.8559715 103.85,54.84 C104.1,54.84 104.33,55.2 104.73,55.54 L103.53,55.76 L103.52,56 Z" id="Shape" fill="#F2459A"></path>
                <path d="M108.15,106.41 C107.53,106.99 107.02,107.01 106.57,106.6 C106.340529,106.410101 106.199672,106.133863 106.180738,105.836609 C106.161805,105.539355 106.266476,105.247478 106.47,105.03 C106.9,104.5 107.47,104.55 107.97,104.96 C107.35,105.02 106.55,104.79 106.62,105.83 C106.69,106.87 107.4,106.5 108.15,106.41 Z" id="Shape" fill="#F2459A"></path>
                <path d="M111.23,66.4 L110.36,66.54 L110.36,66.73 L111.22,66.94 L111.22,67.14 C110.89,67.14 110.46,67.14 110.22,67.01 C110.013998,66.7471833 109.933585,66.4072595 110,66.08 C110.128606,65.8270354 110.377538,65.657309 110.66,65.63 C110.92,65.63 111.15,65.98 111.39,66.18 L111.23,66.4 Z" id="Shape" fill="#F2459A"></path>
                <path d="M117.91,88.07 L117.04,88.2 L117.04,88.39 L117.83,88.61 L117.83,88.76 C117.53,88.76 117.14,88.87 116.95,88.76 C116.716408,88.5464208 116.59772,88.2348637 116.63,87.92 C116.750803,87.6328625 116.998518,87.4184227 117.3,87.34 C117.55,87.34 117.81,87.67 118.07,87.85 L117.91,88.07 Z" id="Shape" fill="#F2459A"></path>
                <path d="M112.91,73.57 L112.03,73.71 L112.03,73.9 L112.84,74.1 L112.84,74.25 C112.53,74.25 112.11,74.37 111.94,74.25 C111.721081,73.9929108 111.62279,73.6543525 111.67,73.32 C111.779453,73.0532757 112.023957,72.8660773 112.31,72.83 C112.58,72.83 112.82,73.17 113.07,73.36 L112.91,73.57 Z" id="Shape" fill="#F2459A"></path>
                <path d="M117.67,106.8 L117.67,105.39 C118.96,105.23 119.21,105.54 118.67,106.83 C118.647051,106.543922 118.603607,106.25986 118.54,105.98 C118.54,105.84 118.33,105.73 118.22,105.6 C118.13,105.73 118,105.84 117.97,105.98 C117.930961,106.26182 117.907591,106.54559 117.9,106.83 L117.67,106.8 Z" id="Shape" fill="#F2459A"></path>
                <path d="M107.74,69.24 C108.24,69.35 108.8,69.31 108.98,69.55 C109.16,69.79 109.11,70.38 109.15,70.81 L108.88,70.81 L108.63,69.56 L108.32,69.56 L108.05,70.82 L107.82,70.82 L107.74,69.24 Z" id="Shape" fill="#F2459A"></path>
                <path d="M91.39,85 C90.83,85.32 90.32,85.36 90.14,84.76 C90.05,84.47 90.38,84.04 90.53,83.67 C90.81,83.78 91.29,83.84 91.34,84.02 C91.56,84.91 90.61,84.22 90.34,84.75 L91.39,85 Z" id="Shape" fill="#F2459A"></path>
                <path d="M115.87,56.12 C115.23,56.43 114.72,56.52 114.55,55.89 C114.522777,55.5088046 114.678751,55.1374372 114.97,54.89 C115.43,54.63 115.76,54.97 115.88,55.56 L114.88,55.77 L114.88,55.97 L115.87,56.12 Z" id="Shape" fill="#F2459A"></path>
                <path d="M105,106.41 L105.84,106.59 L105.84,106.74 C105.53,106.74 105.1,106.87 104.92,106.74 C104.69568,106.490226 104.602942,106.148953 104.67,105.82 C104.812289,105.54755 105.083781,105.366555 105.39,105.34 C105.62,105.34 105.83,105.71 106.21,106.05 L105,106.24 L105,106.41 Z" id="Shape" fill="#F2459A"></path>
                <path d="M90.41,106.4 L91.28,106.59 L91.28,106.77 C90.98,106.77 90.6,106.89 90.4,106.77 C90.1611985,106.566677 90.0316212,106.263096 90.05,105.95 C90.1400368,105.651191 90.3784431,105.420353 90.68,105.34 C90.89,105.34 91.15,105.66 91.39,105.85 C91.2,105.95 91.02,106.07 90.83,106.16 C90.6971312,106.175741 90.5628688,106.175741 90.43,106.16 L90.41,106.4 Z" id="Shape" fill="#F2459A"></path>
                <path d="M100.66,103 L100.06,101.67 L99.72,103.24 C99.2,101.85 99.35,101.17 100.29,100.95 L99.73,101.59 L100.73,101.66 C101.01,101.66 101.28,101.74 101.56,101.78 L101.39,101.95 C100.67,101.87 100.6,101.95 100.81,102.85 L100.66,103 Z" id="Shape" fill="#F2459A"></path>
                <path d="M98.09,73.51 L96.88,73.72 L96.88,73.91 L97.71,74.09 L97.71,74.24 C97.39,74.24 96.97,74.37 96.79,74.24 C96.5649283,73.990481 96.4688228,73.6504155 96.53,73.32 C96.6689768,73.0490822 96.9368066,72.8680142 97.24,72.84 C97.49,72.82 97.7,73.17 98.09,73.51 Z" id="Shape" fill="#F2459A"></path>
                <path d="M103.69,73.93 L104.55,74.09 L104.55,74.3 C104.23,74.3 103.8,74.36 103.55,74.19 C103.343998,73.9271833 103.263585,73.5872595 103.33,73.26 C103.454012,73.0030371 103.705494,72.8315719 103.99,72.81 C104.25,72.81 104.48,73.14 104.72,73.33 L104.6,73.54 L103.68,73.7 L103.69,73.93 Z" id="Shape" fill="#F2459A"></path>
                <path d="M106.52,73.84 C106.52,73.65 106.52,73.41 106.68,73.3 C106.84,73.19 107.18,72.8 107.42,72.81 C107.66,72.82 107.87,73.18 108.24,73.51 L107.04,73.72 L107.04,73.93 L107.95,74.1 C107.32,74.66 106.95,74.21 106.53,73.83 L106.52,73.84 Z" id="Shape" fill="#F2459A"></path>
                <path d="M103,84 C103.8,83.35 104.15,83.43 104.38,84.38 L103.44,84.51 L103.44,84.69 L104.29,84.94 L104.29,85.06 C104.01,85.06 103.58,85.23 103.49,85.11 C103.277414,84.7637605 103.112589,84.3903823 103,84 Z" id="Shape" fill="#F2459A"></path>
                <path d="M122.52,105.68 C123.32,105.03 123.67,105.11 123.9,106.05 L122.96,106.19 L122.96,106.36 L123.81,106.61 L123.81,106.73 C123.53,106.73 123.1,106.9 123.01,106.79 C122.801771,106.439233 122.640398,106.062695 122.53,105.67 L122.52,105.68 Z" id="Shape" fill="#F2459A"></path>
                <path d="M108.6,64 C108.35,63.77 108.19,63.5 108.04,63.51 C107.38,63.51 107.18,63.16 107.25,62.62 C107.32,62.08 107.76,61.81 108.34,61.98 L108.6,62.04 L108.6,64 Z M108.51,62.71 L107.97,62.19 C107.84,62.37 107.63,62.55 107.61,62.74 C107.59,62.93 107.83,63.05 107.95,63.2 L108.51,62.71 Z" id="Shape" fill="#F2459A"></path>
                <path d="M118.78,84.74 C118.88,84.74 118.98,84.83 119.07,84.81 C119.28371,84.7638387 119.494161,84.7037097 119.7,84.63 C119.57724,84.470378 119.432466,84.3289703 119.27,84.21 C118.86,84 118.5,83.75 118.86,83.27 C119.22,82.79 119.58,82.87 120,83.27 C119.7,83.27 119.46,83.33 119.23,83.37 C119.23,83.37 119.16,83.45 119.1,83.54 C119.29,84.04 120.69,84.03 119.84,84.99 C119.52,85.37 119.06,85.27 118.78,84.74 Z" id="Shape" fill="#F2459A"></path>
                <path d="M94.78,56.28 C93.7,56.38 93.34,56.13 93.54,55.38 C93.6481478,55.1430705 93.8215908,54.9418766 94.04,54.8 C94.2753855,54.6351413 94.5227381,54.4880667 94.78,54.36 L94.78,56.28 Z M94.32,55 L94.1,55 C94.02,55.2 93.86,55.41 93.87,55.6 C93.88,55.79 94.09,55.9 94.22,56.05 C94.3599457,55.8881648 94.4684691,55.7016402 94.54,55.5 C94.56,55.35 94.4,55.17 94.32,55 Z" id="Shape" fill="#F2459A"></path>
                <path d="M113,69.64 L112.27,69.58 L112.27,69.43 C112.53,69.43 112.97,69.26 113.02,69.34 C113.220246,69.7516053 113.384201,70.1798956 113.51,70.62 L113.31,70.88 L112.14,70.55 L113,69.64 Z" id="Shape" fill="#F2459A"></path>
                <path d="M121.38,87.39 C121.65,87.39 122.1,87.26 122.15,87.39 C122.335383,87.8126931 122.482635,88.2511022 122.59,88.7 L122.38,88.93 L121.24,88.61 L122.1,87.67 L121.41,87.67 L121.38,87.39 Z" id="Shape" fill="#F2459A"></path>
                <path d="M98.06,69.35 C98.33,69.35 98.78,69.26 98.84,69.35 C99.0261973,69.7531629 99.1670601,70.1757513 99.26,70.61 L99.07,70.86 L97.9,70.53 L98.76,69.66 L98.05,69.56 L98.06,69.35 Z" id="Shape" fill="#F2459A"></path>
                <path d="M117.86,62.31 L117.16,62.25 L117.16,62.07 C117.44,62.07 117.92,61.93 117.97,62.07 C118.159442,62.4901595 118.303589,62.9293037 118.4,63.38 L118.2,63.6 L117.07,63.3 L117.86,62.31 Z" id="Shape" fill="#F2459A"></path>
                <path d="M106.49,102 L105.78,102 L105.78,101.85 C106.02,101.8 106.45,101.65 106.49,101.71 C106.684732,102.129806 106.855016,102.560526 107,103 L106.78,103.24 L105.64,102.93 L106.49,102 Z" id="Shape" fill="#F2459A"></path>
                <path d="M118.69,101.75 C118.94,101.75 119.39,101.6 119.42,101.68 C119.609067,102.120452 119.762883,102.575212 119.88,103.04 L119.64,103.26 L118.54,102.88 L119.29,102.04 L118.71,101.88 L118.69,101.75 Z" id="Shape" fill="#F2459A"></path>
                <path d="M97.94,62.32 L97.27,62.25 L97.27,62.1 C97.53,62.1 97.96,61.92 98.01,62 C98.2092311,62.4166584 98.3763829,62.8479099 98.51,63.29 L98.33,63.52 L97.17,63.29 L97.94,62.32 Z" id="Shape" fill="#F2459A"></path>
                <path d="M90.43,54.9 C90.69,54.9 91.13,54.76 91.18,54.9 C91.3656812,55.3235832 91.5161891,55.7617285 91.63,56.21 L91.44,56.44 L90.29,56.14 L91.14,55.21 L90.46,55.15 L90.43,54.9 Z" id="Shape" fill="#F2459A"></path>
                <path d="M108.52,73 L109.52,72.76 L109.52,74.76 C109.329011,74.5759382 109.10951,74.4239763 108.87,74.31 C108.11,74.11 107.98,73.67 108.5,72.96 C108.474694,73.1391106 108.474694,73.3208894 108.5,73.5 C108.599685,73.6999185 108.716806,73.8906572 108.85,74.07 C108.99,73.95 109.24,73.84 109.24,73.73 C109.22916,73.4753232 109.145903,73.2290217 109,73.02 C109,73 108.7,73 108.52,73 Z" id="Shape" fill="#F0288A"></path>
                <path d="M99.88,88.89 L98.79,88.6 L99.61,87.67 L98.93,87.57 L98.93,87.4 C99.19,87.4 99.64,87.26 99.68,87.35 C99.8748025,87.767524 100.02885,88.2028759 100.14,88.65 L99.88,88.89 Z" id="Shape" fill="#F2459A"></path>
                <path d="M109.32,106.92 L108.21,106.56 L109.04,105.69 L108.37,105.57 L108.37,105.42 C108.62,105.42 109.06,105.27 109.1,105.34 C109.292319,105.780217 109.449476,106.234972 109.57,106.7 L109.32,106.92 Z" id="Shape" fill="#F2459A"></path>
                <path d="M102,104.88 L101.38,105.1 L101.28,106.96 C100.53,106.32 101.64,105.06 100.28,104.76 L102,104.76 L102,104.88 Z" id="Shape" fill="#F2459A"></path>
                <path d="M100.27,55.74 C99.97,55.95 99.66,56.33 99.39,56.3 C99.12,56.27 98.66,55.83 98.67,55.58 C98.7544037,55.2195137 99.0191651,54.9282761 99.37,54.81 C99.64,54.81 99.97,55.18 100.27,55.39 L100.27,55.74 Z M99.41,54.74 C99.18,55.15 99,55.35 99.01,55.53 C99.02,55.71 99.22,55.89 99.34,56.08 C99.47,55.91 99.7,55.76 99.73,55.58 C99.76,55.4 99.59,55.2 99.41,54.76 L99.41,54.74 Z" id="Shape" fill="#F2459A"></path>
                <path d="M108.1,85.22 L107,85 L107.75,84.07 L107.18,83.92 L107.18,83.76 C107.41,83.76 107.82,83.65 107.86,83.76 C108.037979,84.1855174 108.185027,84.6233204 108.3,85.07 L108.1,85.22 Z" id="Shape" fill="#F2459A"></path>
                <path d="M127.34,105.67 L126.72,105.57 L126.72,105.4 C126.96,105.4 127.39,105.28 127.43,105.35 C127.59673,105.783502 127.733714,106.227865 127.84,106.68 L127.65,106.9 L126.53,106.58 L127.34,105.67 Z" id="Shape" fill="#F2459A"></path>
                <path d="M101.34,79.81 C101.53,80.12 101.84,80.4 101.9,80.73 C101.96,81.06 101.69,81.61 101.19,81.48 C100.836172,81.3708266 100.559173,81.0938276 100.45,80.74 C100.45,80.46 100.78,80.13 100.97,79.82 L101.34,79.81 Z M101.15,81.55 C101.36,81.14 101.54,80.94 101.53,80.76 C101.52,80.58 101.3,80.39 101.18,80.21 C101.04,80.38 100.8,80.54 100.78,80.73 C100.76,80.92 100.94,81.12 101.15,81.55 Z" id="Shape" fill="#F2459A"></path>
                <path d="M110.15,54.64 C110.35,54.94 110.73,55.26 110.71,55.54 C110.69,55.82 110.27,56.08 110.03,56.35 C109.76,56.1 109.33,55.87 109.28,55.59 C109.23,55.31 109.6,54.97 109.78,54.66 L110.15,54.64 Z M110.54,55.64 L110.03,55.06 C109.88,55.22 109.62,55.38 109.61,55.55 C109.6,55.72 109.84,55.92 109.96,56.11 L110.54,55.64 Z" id="Shape" fill="#F2459A"></path>
                <path d="M98.23,88.81 C98.2352915,88.5254468 98.2152121,88.2409882 98.17,87.96 C98.17,87.81 97.98,87.69 97.88,87.56 C97.76,87.69 97.58,87.81 97.56,87.96 C97.5347582,88.2427711 97.5347582,88.5272289 97.56,88.81 L97.3,88.81 L97.3,86.69 L97.42,86.69 L97.62,87.31 C98.54,87.29 98.7,87.59 98.23,88.81 Z" id="Shape" fill="#F2459A"></path>
                <path d="M114,56.51 L113.85,56.02 L113.51,55.02 L113.19,55.94 C113.167196,56.0825414 113.072788,56.2033836 112.94,56.26 L112.94,54.21 L113.07,54.16 L113.25,54.77 C114.22,54.8 114.4,55.14 114,56.51 Z" id="Shape" fill="#F2459A"></path>
                <polygon id="Shape" fill="#F2459A" points="110.67 105.49 110.19 105.62 110.77 106.57 109.84 106.88 109.78 106.61 110.45 106.55 109.73 105.65 110.56 105.23"></polygon>
                <path d="M99,61.55 C99.29,61.86 99.5,62.15 99.17,62.61 C99.07,62.76 99.31,63.16 99.44,63.61 C99.21,63.52 98.86,63.46 98.85,63.36 C98.7801749,62.7790955 98.7401225,62.1949984 98.73,61.61 L99,61.55 Z" id="Shape" fill="#F2459A"></path>
                <path d="M98.27,104.86 L98.62,105.28 L98.62,106.81 C98.56,106.81 98.21,106.81 98.19,106.69 C98.1,106.1 98.08,105.49 98.03,104.88 L98.27,104.86 Z" id="Shape" fill="#F2459A"></path>
                <path d="M104.65,79.55 C104.94,79.86 105.15,80.15 104.82,80.61 C104.71,80.76 104.96,81.16 105.08,81.61 C104.86,81.52 104.51,81.46 104.49,81.36 C104.41,80.78 104.41,80.19 104.38,79.61 L104.65,79.55 Z" id="Shape" fill="#F2459A"></path>
                <path d="M130.16,103.14 C130.184979,102.857217 130.184979,102.572783 130.16,102.29 C130.16,102.15 129.96,102.03 129.85,101.89 C129.74,102.03 129.58,102.15 129.54,102.3 C129.499777,102.578188 129.479724,102.85892 129.48,103.14 L129.23,103.14 L129.17,101.76 C130.49,101.53 130.75,101.82 130.4,103.13 L130.16,103.14 Z" id="Shape" fill="#F2459A"></path>
                <path d="M90.78,74.31 L90.78,72.9 C92.03,72.71 92.27,73 91.78,74.32 C91.7670505,74.1039768 91.7335662,73.8896768 91.68,73.68 C91.5878483,73.4643169 91.4774472,73.2568968 91.35,73.06 C91.2303618,73.2460479 91.1298501,73.4437208 91.05,73.65 C91.0079834,73.8678666 90.9812516,74.0884043 90.97,74.31 L90.78,74.31 Z" id="Shape" fill="#F2459A"></path>
                <path d="M91.69,67.13 C91.7147616,66.8739305 91.7147616,66.6160695 91.69,66.36 C91.69,66.19 91.48,66.05 91.37,65.89 C91.242206,66.0365113 91.1376556,66.2017685 91.06,66.38 C91.0349997,66.6327165 91.0349997,66.8872835 91.06,67.14 L90.78,67.14 L90.69,65.78 C92.02,65.48 92.31,65.78 91.92,67.13 L91.69,67.13 Z" id="Shape" fill="#F2459A"></path>
                <path d="M87.7,93.76 C88.298716,94.534444 88.298716,95.615556 87.7,96.39 L87.7,93.76 Z" id="Shape" fill="#F2459A"></path>
                <path d="M87.7,108.07 C88.31,108.53 88.27,110.4 87.7,110.71 L87.7,108.07 Z" id="Shape" fill="#F2459A"></path>
                <path d="M91.33,81.47 C91.3600737,81.2075253 91.3600737,80.9424747 91.33,80.68 C91.33,80.51 91.11,80.38 90.99,80.23 C90.89,80.37 90.74,80.5 90.71,80.66 C90.6586447,80.9303594 90.6318687,81.2048127 90.63,81.48 L90.42,81.48 L90.42,80.06 C91.66,79.88 91.94,80.23 91.33,81.47 Z" id="Shape" fill="#F2459A"></path>
                <path d="M98,81.48 C98.0252418,81.1972289 98.0252418,80.9127711 98,80.63 C98,80.48 97.8,80.36 97.69,80.23 C97.58,80.36 97.42,80.49 97.39,80.64 C97.3414496,80.913959 97.3180189,81.1917793 97.32,81.47 L97.08,81.47 L97,80.1 C98.33,79.86 98.58,80.16 98.23,81.47 L98,81.48 Z" id="Shape" fill="#F2459A"></path>
                <path d="M90.75,63.48 L90.68,62.1 C92.02,61.86 92.25,62.1 91.78,63.49 C91.7670262,63.2244874 91.7335937,62.9603708 91.68,62.7 C91.5992065,62.5271988 91.4911617,62.368508 91.36,62.23 C91.2314192,62.3759231 91.1267871,62.5413095 91.05,62.72 C91.0251935,62.9727261 91.0251935,63.2272739 91.05,63.48 L90.75,63.48 Z" id="Shape" fill="#F2459A"></path>
                <path d="M97,101.71 C98.36,101.57 98.57,101.84 98.1,103.16 C98.0925326,102.870914 98.0590643,102.583086 98,102.3 C98,102.15 97.8,102.03 97.69,101.89 C97.59,102.03 97.42,102.15 97.39,102.3 C97.339817,102.577023 97.3197004,102.858656 97.33,103.14 L97.08,103.14 L97,101.71 Z" id="Shape" fill="#F2459A"></path>
                <path d="M90.39,103.13 L90.39,101.76 C91.65,101.52 91.9,101.76 91.39,103.16 C91.3803534,102.868254 91.3502798,102.577542 91.3,102.29 C91.3,102.14 91.09,102.03 90.99,101.89 C90.88,102.03 90.71,102.15 90.68,102.3 C90.6397768,102.578188 90.6197245,102.85892 90.62,103.14 L90.39,103.13 Z" id="Shape" fill="#F2459A"></path>
                <path d="M90.77,70.8 L90.77,69.32 C91.11,69.32 91.68,69.32 91.77,69.47 C91.940027,69.8855759 92.0250345,70.3310154 92.02,70.78 L91.7,70.78 C91.6969755,70.5019947 91.6735795,70.224585 91.63,69.95 C91.5631629,69.7910593 91.4683242,69.6454142 91.35,69.52 C91.23,69.67 91.05,69.8 91.01,69.98 C90.9799263,70.2424747 90.9799263,70.5075253 91.01,70.77 L90.77,70.8 Z" id="Shape" fill="#F2459A"></path>
                <path d="M103.31,79.42 C102.06,79.76 103.06,80.9 102.43,81.6 L102.34,79.76 L101.72,79.56 L101.72,79.42 L103.31,79.42 Z" id="Shape" fill="#F0288A"></path>
                <polygon id="Shape" fill="#F2459A" points="123.26 87.58 123.77 88.58 122.96 88.86 122.88 88.62 123.41 88.49 122.83 87.49 123.71 87.25 123.76 87.5"></polygon>
                <path d="M114.6,72.39 C115.1,72.68 115.36,72.93 115.02,73.39 C114.91,73.54 115.16,73.95 115.27,74.39 C115.07,74.32 114.72,74.26 114.7,74.16 C114.635905,73.5721408 114.602526,72.9813377 114.6,72.39 L114.6,72.39 Z" id="Shape" fill="#F2459A"></path>
                <path d="M115,104.9 L115.29,105.27 L115.29,106.81 C115.29,106.81 114.92,106.81 114.91,106.74 C114.81,106.13 114.76,105.52 114.7,104.91 L115,104.9 Z" id="Shape" fill="#F2459A"></path>
                <path d="M111.22,106.46 L112.37,106.59 C111.83,106.96 111.37,106.99 111.14,106.48 C111.03,106.18 111.28,105.72 111.42,105.35 C111.42,105.35 111.79,105.35 111.99,105.41 C111.909568,105.562327 111.81938,105.7093 111.72,105.85 C111.61,106 111.47,106.16 111.22,106.46 Z" id="Shape" fill="#F2459A"></path>
                <path d="M108.65,86.9 C108.77,87.2 109.32,87.36 108.86,87.85 C108.74,87.98 108.97,88.45 109.04,88.76 C108.38,88.84 108.15,88.11 108.65,86.9 Z" id="Shape" fill="#F2459A"></path>
                <polygon id="Shape" fill="#F2459A" points="99.82 63.48 99.82 61.34 100.05 61.34 100.05 63.46"></polygon>
                <path d="M92,83.16 L92.36,83.61 L92.36,85.11 C91.7,85.16 91.49,84.43 92,83.16 Z" id="Shape" fill="#F2459A"></path>
                <path d="M92.39,106.79 C91.68,106.79 91.48,105.97 92,104.79 C92.21,105.15 92.58,105.37 92.19,105.86 C92.08,106 92.31,106.45 92.39,106.79 Z" id="Shape" fill="#F2459A"></path>
                <path d="M107.88,103.1 C107.2,103.17 106.98,102.44 107.45,101.15 C107.66,101.51 108.13,101.66 107.7,102.15 C107.57,102.35 107.81,102.79 107.88,103.1 Z" id="Shape" fill="#F2459A"></path>
                <path d="M120.27,79 L120.27,82 C120.13,81.83 119.87,81.65 119.88,81.48 C119.91,80.7 119.59,79.85 120.27,79 Z" id="Shape" fill="#F2459A"></path>
                <path d="M134.35,100.89 L134.35,103.53 C133.788709,102.739502 133.788709,101.680498 134.35,100.89 L134.35,100.89 Z" id="Shape" fill="#F2459A"></path>
                <polygon id="Shape" fill="#F2459A" points="110.37 101 110.37 103.08 110.21 103.08 110.21 101"></polygon>
                <path d="M118.32,81.75 L118.32,79.34 C118.956267,80.0173471 118.956267,81.0726529 118.32,81.75 L118.32,81.75 Z" id="Shape" fill="#F2459A"></path>
                <polygon id="Shape" fill="#F2459A" points="105.68 79.34 105.68 81.48 105.49 81.48 105.49 79.34"></polygon>
                <path d="M140.7,107.13 L140.7,104.69 C141.340204,105.377352 141.340204,106.442648 140.7,107.13 L140.7,107.13 Z" id="Shape" fill="#F2459A"></path>
                <path d="M113,107.1 C112.36464,106.410749 112.36464,105.349251 113,104.66 L113,107.1 Z" id="Shape" fill="#F2459A"></path>
                <path d="M89.2,90.1 C89.8283686,90.822486 89.8283686,91.897514 89.2,92.62 L89.2,90.1 Z" id="Shape" fill="#F2459A"></path>
                <path d="M117.08,67.56 C117.19522,67.1102079 117.275459,66.6521738 117.32,66.19 C117.280574,65.7460872 117.196823,65.3072339 117.07,64.88 C117.44082,65.2263405 117.652161,65.7104382 117.654054,66.2178394 C117.655947,66.7252405 117.448226,67.2109019 117.08,67.56 Z" id="Shape" fill="#F2459A"></path>
                <path d="M112.09,54.37 C112.411092,54.6374163 112.476062,55.1052012 112.24,55.45 C112.14,55.6 112.4,55.97 112.53,56.34 C112.35,56.34 112,56.27 111.98,56.18 C111.89,55.6 111.87,55 111.82,54.41 L112.09,54.37 Z" id="Shape" fill="#F2459A"></path>
                <path d="M103.82,106.84 C102.92,106.75 102.71,105.84 103.18,104.84 L103.66,105.41 C103.15,105.86 103.22,106.32 103.82,106.84 Z" id="Shape" fill="#F2459A"></path>
                <path d="M113.64,105.65 C114.64,106.31 114.64,106.43 114.03,106.78 C113.953608,106.578964 113.866824,106.382032 113.77,106.19 C113.66,105.98 113.52,105.78 113.39,105.58 L114.23,105.25 L114.31,105.51 L113.64,105.65 Z" id="Shape" fill="#F2459A"></path>
                <path d="M131.45,104.59 L131.45,107.12 C130.824455,106.392666 130.824455,105.317334 131.45,104.59 Z" id="Shape" fill="#F2459A"></path>
                <path d="M141.48,104.67 C142.120204,105.357352 142.120204,106.422648 141.48,107.11 L141.48,104.67 Z" id="Shape" fill="#F2459A"></path>
                <path d="M96.13,55 L95.52,55.14 C96.46,55.83 96.52,55.89 95.85,56.28 C95.7871488,56.0763109 95.7137157,55.8760388 95.63,55.68 C95.52,55.44 95.38,55.23 95.25,55 L96.06,54.73 L96.13,55 Z" id="Shape" fill="#F2459A"></path>
                <path d="M132.48,101 C133.108846,101.745044 133.108846,102.834956 132.48,103.58 L132.48,101 Z" id="Shape" fill="#F2459A"></path>
                <path d="M112,83 L112,85.44 C111.359796,84.7526484 111.359796,83.6873516 112,83 L112,83 Z" id="Shape" fill="#F2459A"></path>
                <path d="M114.45,79.3 L114.45,81.74 C113.809796,81.0526484 113.809796,79.9873516 114.45,79.3 Z" id="Shape" fill="#F2459A"></path>
                <path d="M112,65 L112,67.37 C111.31,67.08 111.3,65.69 112,65 Z" id="Shape" fill="#F2459A"></path>
                <path d="M102.59,72.36 C102.68,72.51 102.75,72.66 102.85,72.8 C102.95,72.94 102.99,72.87 102.85,72.8 L102.85,74.3 C102.85,74.3 102.47,74.3 102.46,74.2 C102.37,73.6 102.34,72.99 102.29,72.39 L102.59,72.36 Z" id="Shape" fill="#F2459A"></path>
                <path d="M96.86,87.21 L96.02,88.05 L96.89,88.83 C96.51,88.76 96.04,88.83 95.89,88.63 C95.7257301,88.3217283 95.7002797,87.958151 95.82,87.63 C96,87.38 96.43,87.36 96.86,87.21 Z" id="Shape" fill="#F2459A"></path>
                <path d="M113.44,73.18 C114.44,73.77 114.44,73.89 113.85,74.31 C113.787153,74.103036 113.713723,73.8994347 113.63,73.7 C113.52,73.47 113.38,73.25 113.25,73.03 L114.06,72.75 L114.14,72.99 L113.44,73.18 Z" id="Shape" fill="#F2459A"></path>
                <path d="M94.26,86.89 L94.56,87.32 L94.56,88.82 C94.56,88.82 94.15,88.76 94.14,88.66 C94.05,88.08 94.04,87.49 94,86.9 L94.26,86.89 Z" id="Shape" fill="#F2459A"></path>
                <path d="M117,69.14 L116.26,70.14 L117.13,70.78 C116.77,70.78 116.33,70.78 116.19,70.64 C115.981098,70.3739022 115.920898,70.020226 116.03,69.7 C116.13,69.46 116.55,69.36 117,69.14 Z" id="Shape" fill="#F2459A"></path>
                <path d="M106.94,89.12 L106.94,86.68 C107.565926,87.3729081 107.565926,88.4270919 106.94,89.12 L106.94,89.12 Z" id="Shape" fill="#F2459A"></path>
                <path d="M98.14,54.87 L97.55,55.63 L98.34,56.25 C98.1,56.25 97.66,56.36 97.56,56.25 C97.337803,55.9677101 97.2501255,55.6023871 97.32,55.25 C97.42,55 97.88,54.88 98.17,54.71 L98.14,54.87 Z" id="Shape" fill="#F2459A"></path>
                <path d="M102.38,54.39 C102.59,54.69 102.92,54.92 102.55,55.39 C102.44,55.54 102.66,55.96 102.74,56.39 C102.61,56.39 102.29,56.33 102.28,56.26 C102.19,55.67 102.16,55.07 102.1,54.47 L102.38,54.39 Z" id="Shape" fill="#F2459A"></path>
                <path d="M126.37,101.21 C126.77,101.54 127.03,101.81 126.72,102.26 C126.61,102.42 126.84,102.83 126.95,103.26 C126.74,103.15 126.41,103.06 126.4,102.95 C126.359306,102.370936 126.349292,101.790123 126.37,101.21 L126.37,101.21 Z" id="Shape" fill="#F2459A"></path>
                <path d="M99.72,79.56 C99.93,79.86 100.25,80.1 99.89,80.56 C99.77,80.7 99.99,81.12 100.08,81.56 C99.94,81.56 99.63,81.5 99.61,81.43 C99.52,80.84 99.49,80.24 99.44,79.64 L99.72,79.56 Z" id="Shape" fill="#F2459A"></path>
                <path d="M107.07,56.3 C106.42,56.24 106.21,55.3 106.76,54.3 C106.76,54.74 107.34,54.9 106.89,55.38 C106.77,55.48 107,55.94 107.07,56.3 Z" id="Shape" fill="#F2459A"></path>
                <path d="M108.91,56.3 C108.27,56.23 108.06,55.3 108.53,54.3 C108.69,54.7 109.15,54.9 108.72,55.4 C108.6,55.54 108.83,56 108.91,56.3 Z" id="Shape" fill="#F2459A"></path>
                <path d="M122.53,105.67 C121.53,105.53 122.24,106.55 121.68,106.87 L121.68,105.23 L122.52,105.68 L122.53,105.67 Z" id="Shape" fill="#F2459A"></path>
                <polygon id="Shape" fill="#F2459A" points="118 80 117.41 81.5 117.27 81.5 117.21 80.07"></polygon>
                <path d="M103.19,66 C102.19,65.87 102.9,66.88 102.34,67.2 L102.34,65.56 L103.18,66.01 L103.19,66 Z" id="Shape" fill="#F2459A"></path>
                <path d="M112.36,62.33 C111.36,62.2 112.07,63.21 111.51,63.54 L111.51,61.9 L112.35,62.34 L112.36,62.33 Z" id="Shape" fill="#F2459A"></path>
                <path d="M103,84 C102,83.87 102.71,84.88 102.15,85.2 L102.15,83.56 L103,84 Z" id="Shape" fill="#F2459A"></path>
                <polygon id="Shape" fill="#F2459A" points="113.44 83.08 112.54 85.3 112.3 85.2 113.18 82.98"></polygon>
                <polygon id="Shape" fill="#F2459A" points="135.42 104.79 134.55 106.94 134.32 106.86 135.17 104.67"></polygon>
                <polygon id="Shape" fill="#F2459A" points="131.8 106.84 132.68 104.66 132.92 104.76 132 107"></polygon>
                <polygon id="Shape" fill="#F2459A" points="122.73 83.06 121.82 85.32 121.58 85.23 122.48 82.96"></polygon>
                <polygon id="Shape" fill="#F2459A" points="88.64 50.76 87.75 53 87.5 52.91 88.39 50.69"></polygon>
                <polygon id="Shape" fill="#F2459A" points="113.93 83 114.82 85.21 114.58 85.31 113.69 83.1"></polygon>
                <polygon id="Shape" fill="#F2459A" points="117.59 83 118.48 85.22 118.24 85.32 117.35 83.09"></polygon>
                <polygon id="Shape" fill="#F2459A" points="89.55 60 90.44 57.78 90.67 57.88 89.8 60.08"></polygon>
                <polygon id="Shape" fill="#F2459A" points="119.86 72.82 118.95 74.22 118.95 72.83 119.86 72.83"></polygon>
                <polygon id="Shape" fill="#F0288A" points="104.25 104.71 104.25 106.79 104.09 106.79 104.09 104.7"></polygon>
                <polygon id="Shape" fill="#F0288A" points="125.93 106.78 125.93 104.71 126.09 104.71 126.09 106.8"></polygon>
                <polygon id="Shape" fill="#F0288A" points="106.62 83 106.62 85.09 106.47 85.09 106.47 83"></polygon>
                <polygon id="Shape" fill="#F2459A" points="100.42 85.15 100.34 83.72 101.07 83.72 100.55 85.19"></polygon>
                <polygon id="Shape" fill="#F2459A" points="100.34 87.36 101.06 87.36 100.55 88.8 100.42 88.8"></polygon>
                <path d="M99.33,106.7 L99.15,105.55 L100.22,105.47 L100.04,105.64 C99.32,105.56 99.26,105.64 99.47,106.55 L99.33,106.7 Z" id="Shape" fill="#F2459A"></path>
                <path d="M104,70.7 L103.82,69.55 L104.88,69.47 L104.71,69.64 C103.99,69.56 103.92,69.64 104.14,70.55 L104,70.7 Z" id="Shape" fill="#F2459A"></path>
                <path d="M109.66,87.47 L110.72,87.55 L110.55,88.7 L110.39,88.54 C110.62,87.68 110.55,87.54 109.83,87.64 L109.66,87.47 Z" id="Shape" fill="#F2459A"></path>
                <path d="M100.82,73 L101.89,73.08 L101.71,74.23 L101.56,74.07 C101.79,73.21 101.72,73.07 101,73.17 L100.82,73 Z" id="Shape" fill="#F2459A"></path>
                <path d="M95.49,80.14 L96.56,80.22 L96.38,81.36 L96.22,81.21 C96.46,80.35 96.39,80.21 95.67,80.31 L95.49,80.14 Z" id="Shape" fill="#F2459A"></path>
                <path d="M95.49,101.81 L96.56,101.88 L96.38,103 L96.22,102.84 C96.46,101.98 96.39,101.84 95.67,101.94 L95.49,101.81 Z" id="Shape" fill="#F2459A"></path>
                <path d="M104.88,69.47 C105.067969,69.5963677 105.185518,69.8038196 105.197319,70.0300095 C105.20912,70.2561993 105.113798,70.4747575 104.94,70.62 L104.78,70.44 L104.71,69.64 L104.88,69.47 Z" id="Shape" fill="#F2459A"></path>
                <path d="M95.43,81.28 C95.2563057,81.1367873 95.1608214,80.9196866 95.1726536,80.6948765 C95.1844857,80.4700664 95.302232,80.2641884 95.49,80.14 L95.67,80.31 C95.67,80.58 95.61,80.84 95.59,81.11 L95.43,81.28 Z" id="Shape" fill="#F2459A"></path>
                <path d="M100.22,105.47 C100.404446,105.598888 100.519146,105.805635 100.53087,106.030346 C100.542594,106.255057 100.450032,106.472618 100.28,106.62 L100.12,106.44 L100.04,105.64 L100.22,105.47 Z" id="Shape" fill="#F2459A"></path>
                <path d="M95.43,103 C95.2563057,102.856787 95.1608214,102.639687 95.1726536,102.414877 C95.1844857,102.190066 95.302232,101.984188 95.49,101.86 L95.67,102.02 C95.67,102.29 95.61,102.56 95.59,102.83 L95.43,103 Z" id="Shape" fill="#F2459A"></path>
                <path d="M101.55,101.81 C101.734176,101.936783 101.848997,102.141938 101.860749,102.365224 C101.872501,102.58851 101.77985,102.804584 101.61,102.95 L101.45,102.78 L101.38,101.98 L101.55,101.81 Z" id="Shape" fill="#F2459A"></path>
                <path d="M100.76,74.12 C100.59354,73.9706381 100.50356,73.7540062 100.515212,73.5306633 C100.526865,73.3073203 100.638901,73.1012284 100.82,72.97 L101,73.14 C101,73.41 101,73.68 100.92,73.94 L100.76,74.12 Z" id="Shape" fill="#F2459A"></path>
                <path d="M109.6,88.62 C109.426202,88.4747575 109.33088,88.2561993 109.342681,88.0300095 C109.354482,87.8038196 109.472031,87.5963677 109.66,87.47 L109.83,87.64 C109.83,87.91 109.83,88.18 109.76,88.44 L109.6,88.62 Z" id="Shape" fill="#F2459A"></path>
                <polygon id="Shape" fill="#F2459A" points="100.11 106.76 99.33 106.7 99.47 106.55 99.96 106.55"></polygon>
                <polygon id="Shape" fill="#F2459A" points="96.38 81.36 95.59 81.43 95.74 81.27 96.22 81.21"></polygon>
                <polygon id="Shape" fill="#F2459A" points="110.55 88.7 109.76 88.76 109.91 88.6 110.39 88.54"></polygon>
                <polygon id="Shape" fill="#F2459A" points="101.71 74.2 100.93 74.26 101.08 74.1 101.56 74.04"></polygon>
                <polygon id="Shape" fill="#F2459A" points="96.38 103 95.59 103.06 95.74 102.9 96.22 102.84"></polygon>
                <polygon id="Shape" fill="#F2459A" points="101.45 103.09 100.66 103.03 100.8 102.88 101.3 102.93"></polygon>
                <polygon id="Shape" fill="#F2459A" points="104.78 70.76 104 70.7 104.14 70.55 104.63 70.55"></polygon>
                <polygon id="Shape" fill="#F2459A" points="95.59 81.43 95.43 81.28 95.59 81.11 95.74 81.27"></polygon>
                <polygon id="Shape" fill="#F2459A" points="100.28 106.62 100.11 106.76 99.96 106.6 100.12 106.44"></polygon>
                <polygon id="Shape" fill="#F2459A" points="100.93 74.26 100.76 74.12 100.92 73.94 101.08 74.1"></polygon>
                <polygon id="Shape" fill="#F2459A" points="95.59 103.09 95.43 102.95 95.59 102.78 95.74 102.93"></polygon>
                <polygon id="Shape" fill="#F2459A" points="101.61 103 101.45 103.14 101.3 102.98 101.45 102.83"></polygon>
                <polygon id="Shape" fill="#F2459A" points="109.76 88.76 109.6 88.62 109.76 88.44 109.91 88.6"></polygon>
                <polygon id="Shape" fill="#F2459A" points="104.94 70.62 104.78 70.76 104.63 70.6 104.78 70.44"></polygon>
                <path d="M205.61,52.39 C205.315994,52.8304649 204.981184,53.2422809 204.61,53.62 C204.42,53.78 204.06,53.73 203.77,53.77 C203.770263,53.4782486 203.828031,53.1894101 203.94,52.92 C204.273537,52.5246912 204.641662,52.1599132 205.04,51.83 C204.624337,51.5357751 204.239093,51.20078 203.89,50.83 C203.74,50.64 203.82,50.26 203.8,49.97 C204.070969,49.9636781 204.340206,50.0147991 204.59,50.12 C205.007497,50.5176778 205.395207,50.9454964 205.75,51.4 C206.047625,50.9434695 206.382072,50.5120327 206.75,50.11 C206.91,49.96 207.26,50.01 207.53,49.97 C207.53,50.26 207.53,50.63 207.41,50.82 C207.025899,51.1880375 206.611057,51.5225873 206.17,51.82 C206.625321,52.1847247 207.056245,52.578903 207.46,53 C207.59,53.15 207.46,53.48 207.52,53.72 C207.27,53.72 206.93,53.83 206.79,53.72 C206.364319,53.3064562 205.969903,52.861903 205.61,52.39 L205.61,52.39 Z" id="Shape" fill="#F0288A"></path>
                <path d="M153.37,93.56 C138.366725,93.5919569 126.164332,81.4818363 126.082406,66.4787507 C126.000481,51.4756651 138.069894,39.2330068 153.072624,39.101114 C168.075353,38.9692211 180.358141,50.997793 180.54,66 C180.622704,73.2668636 177.799272,80.2657117 172.697238,85.44098 C167.595205,90.6162483 160.637304,93.5391353 153.37,93.56 L153.37,93.56 Z M129.51,74.35 L129.51,74.35 C129.546042,74.5622208 129.592768,74.772488 129.65,74.98 C130.837946,78.2891986 132.723953,81.3040812 135.18,83.82 L135.18,83.82 C141.84,90.45 149.83,92.93 158.95,90.82 C167.81,88.82 173.82,83.24 177.06,74.73 L177.61,73.06 C177.9887,71.3844718 178.269178,69.6882481 178.45,67.98 C179.081133,59.7614186 175.579314,51.767973 169.11,46.66 C159.23,38.46 143.88,39.39 135.18,48.77 C128.64,55.77 126.66,64.05 129.08,73.34 L129.29,73.93 L129.51,74.35 Z" id="Shape" fill="#575757"></path>
                <path d="M177.09,74.78 C176.45,74.78 175.8,74.78 175.72,73.97 C175.689021,73.5557218 175.830091,73.1469805 176.11,72.84 C176.64,72.38 177.18,72.7 177.64,73.11 L177.09,74.78 Z M177.44,73.78 L176.71,73.01 C176.52,73.24 176.19,73.45 176.19,73.68 C176.19,73.91 176.5,74.14 176.67,74.37 L177.44,73.78 Z" id="Shape" fill="#F2459A"></path>
                <path d="M135.17,83.81 L136.17,83.32 C136.12,82.83 134.57,82.92 135.46,81.97 C135.64,81.78 136.19,81.97 136.58,81.97 L136.58,82.22 L135.52,82.22 C135.712921,82.3614915 135.896627,82.5151364 136.07,82.68 C136.28,82.92 136.47,83.18 136.67,83.43 C136.367783,83.6227079 136.05384,83.7963784 135.73,83.95 C135.6,83.95 135.41,83.95 135.25,83.87 L135.17,83.81 Z" id="Shape" fill="#F2459A"></path>
                <path d="M129.11,73.39 L130.24,72.61 L130.39,72.78 L129.68,73.63 L130.53,74.5 L130.53,74.5 C130.36,74.56 130.17,74.69 130.01,74.66 C129.85,74.63 129.68,74.46 129.51,74.35 L129.51,74.35 L129.32,73.98 L129.11,73.39 Z" id="Shape" fill="#F2459A"></path>
                <path d="M131.58,69.08 L131.39,70 L131.14,70 L131.14,67 L131.44,67 L131.56,68.64 L132.56,67.81 L132.74,67.97 L132.1,68.83 L132.9,69.83 C132.9,68.11 133.02,67.97 134.24,67.77 L134.38,66.98 C134.88,67.21 135,68.23 134.74,69.98 C134.048443,70.0501858 133.351557,70.0501858 132.66,69.98 C132.25,69.86 132,69.39 131.58,69.08 Z M134.58,68.88 L133.92,68.21 C133.74,68.44 133.45,68.66 133.42,68.92 C133.39,69.18 133.69,69.34 133.85,69.56 L134.58,68.88 Z" id="Shape" fill="#F2459A"></path>
                <path d="M136.42,57.92 L136.42,60.8 L136.11,60.8 L136,58.94 L135,60.58 L133.92,58.9 L133.83,60.79 L133.5,60.79 C133.412004,59.7925772 133.385288,58.790695 133.42,57.79 C134.42,58.19 134.42,59.14 134.98,59.69 L136.22,57.8 L136.42,57.92 Z" id="Shape" fill="#F2459A"></path>
                <path d="M172.06,74.59 C171.68,74.59 171.15,74.85 170.95,74.68 C170.551383,74.2842273 170.256067,73.7966125 170.09,73.26 C169.69,73.01 169.5,73.26 169.48,73.73 C169.46,74.2 169.42,74.44 169.38,74.79 L169.12,74.79 L169.12,72.69 L170.32,72.86 L170.32,72.86 C170.789545,72.7753109 171.270455,72.7753109 171.74,72.86 C172.31,73.08 172.24,73.75 171.74,73.86 C171.44686,73.8750526 171.15314,73.8750526 170.86,73.86 C171.02,74.78 171.72,74.21 172.08,74.4 L172.06,74.59 Z" id="Shape" fill="#F2459A"></path>
                <path d="M149,72.78 C148.88,73.52 148.64,74.09 147.79,74.14 C148.007949,74.156262 148.222978,74.1999398 148.43,74.27 C148.642971,74.4056295 148.843729,74.559544 149.03,74.73 C148.86,74.95 148.72,75.31 148.5,75.37 C148.136672,75.4608867 147.7535,75.4292486 147.41,75.28 C147.27,75.2 147.32,74.72 147.31,74.42 C147.3,74.12 147.37,74.09 147.37,73.93 C147.37,72.57 147.42,72.54 148.79,72.72 L149,72.78 Z" id="Shape" fill="#F2459A"></path>
                <path d="M130.42,57.88 C131.3,57.88 132.23,57.65 132.69,58.54 C132.910079,59.0575765 132.910079,59.6424235 132.69,60.16 C132.24,61.07 131.3,60.83 130.42,60.79 L130.42,57.88 Z M130.91,60.57 C131.45,60.32 132.01,60.23 132.24,59.91 C132.420639,59.5248796 132.398154,59.0751807 132.18,58.71 C131.94,58.42 131.39,58.38 130.91,58.2 L130.91,60.57 Z" id="Shape" fill="#F2459A"></path>
                <path d="M141.52,60.81 C141.510668,60.4153628 141.480627,60.0214876 141.43,59.63 C141.43,59.45 141.21,59.31 141.09,59.15 C140.956974,59.2982479 140.848901,59.4671118 140.77,59.65 C140.71976,60.0348293 140.689719,60.4220268 140.68,60.81 L140.42,60.81 L140.42,58.81 C141.04,58.81 141.69,58.71 142.35,58.7 C142.566426,58.6834582 142.778989,58.7640854 142.93,58.92 C143.216265,59.5108857 143.252313,60.1922054 143.03,60.81 L142.75,60.81 C142.74527,60.425107 142.715205,60.0409429 142.66,59.66 C142.66,59.47 142.4,59.31 142.27,59.13 C142.16,59.3 141.98,59.45 141.95,59.64 C141.891033,60.0273836 141.857628,60.4182284 141.85,60.81 L141.52,60.81 Z" id="Shape" fill="#F2459A"></path>
                <path d="M151.59,68.06 L150.33,69.42 C150.500518,69.4219262 150.669513,69.4523455 150.83,69.51 C151.02,69.61 151.3,69.78 151.32,69.94 C151.34,70.1 151.14,70.48 150.98,70.51 C150.592395,70.6049382 150.187605,70.6049382 149.8,70.51 C149.69,70.51 149.7,69.99 149.68,69.7 C149.66,69.41 149.74,69.27 149.68,69.05 C149.6,67.87 149.74,67.74 150.94,67.98 L151.59,68.06 Z" id="Shape" fill="#F0288A"></path>
                <path d="M175,74.78 C175.017681,74.1735687 174.865264,73.574295 174.56,73.05 C174.419803,73.3071101 174.299453,73.574555 174.2,73.85 C174.139739,74.1604126 174.099655,74.4744037 174.08,74.79 L173.79,74.79 C173.79,74.38 173.79,73.95 173.7,73.55 C173.7,73.37 173.47,73.23 173.34,73.07 C173.22,73.23 173.03,73.38 172.99,73.56 C172.92,73.97 172.93,74.38 172.9,74.79 L172.62,74.79 L172.62,72.79 C173.25,72.79 173.92,72.71 174.62,72.71 C174.835628,72.6987692 175.046064,72.7785898 175.2,72.93 C175.505002,73.5153518 175.545037,74.2032173 175.31,74.82 L175,74.78 Z" id="Shape" fill="#F2459A"></path>
                <path d="M142.11,72.65 C142.72,72.65 143.35,72.65 143.99,72.65 C144.21,72.65 144.55,72.72 144.64,72.88 C144.917034,73.469695 144.952914,74.1442439 144.74,74.76 L144.5,74.76 C144.5,74.59 144.41,74.43 144.36,74.26 C144.25,73.85 144.14,73.43 144.02,73.02 C143.9,73.42 143.77,73.82 143.65,74.22 C143.59,74.4 143.55,74.59 143.5,74.77 L143.25,74.77 C143.245788,74.4348468 143.215699,74.1005194 143.16,73.77 C143.063164,73.518538 142.935523,73.2800522 142.78,73.06 C142.660631,73.2762982 142.563469,73.5041267 142.49,73.74 C142.433851,74.0709013 142.397122,74.4048058 142.38,74.74 L142.11,74.74 L142.11,72.65 Z" id="Shape" fill="#F2459A"></path>
                <path d="M144.42,70 L144.42,68 C145.07,68 145.74,67.9 146.42,67.9 C146.635924,67.8929604 146.844142,67.9806312 146.99,68.14 C147.260489,68.7323331 147.289191,69.4068295 147.07,70.02 L146.77,70.02 C146.765267,69.6384268 146.735201,69.257589 146.68,68.88 C146.602804,68.6758497 146.491188,68.4864408 146.35,68.32 C146.24,68.51 146.06,68.68 146.03,68.88 C145.971452,69.2573654 145.938045,69.6382044 145.93,70.02 L145.63,70.02 C145.619189,69.7008719 145.582401,69.3831546 145.52,69.07 C145.427142,68.8176444 145.313415,68.5734661 145.18,68.34 C145.032666,68.5582319 144.911817,68.7932164 144.82,69.04 C144.762232,69.370673 144.725491,69.7046766 144.71,70.04 L144.42,70 Z" id="Shape" fill="#F2459A"></path>
                <path d="M137.17,57.94 L139,57.94 C138.86,58.76 137.35,57.74 137.74,59.09 L138.74,59.24 L138.74,59.44 L137.74,59.57 L137.67,60.29 L139,60.48 L139,60.73 L137.23,60.73 L137.17,57.94 Z" id="Shape" fill="#F2459A"></path>
                <path d="M147.14,60.81 C147.08,60 146.57,59.22 147.02,58.36 C147.31,57.82 147.72,57.76 148.41,57.91 L147.47,58.46 L147.53,58.64 L148.53,58.77 L148.53,60.77 L148.26,60.77 L148.14,59.22 C147.82,59.2 147.82,59.2 147.14,60.81 Z" id="Shape" fill="#F2459A"></path>
                <polygon id="Shape" fill="#F2459A" points="138.17 69.06 138.79 67.61 139.48 69.02 140.08 67.8 140.37 67.93 139.69 70 139.44 70.05 138.8 68.74 138.25 70 138 70 137.31 67.92 137.61 67.8"></polygon>
                <polygon id="Shape" fill="#F2459A" points="135.27 72.62 135.8 73.92 136.35 72.61 136.59 72.61 137.11 73.9 137.7 72.59 137.99 72.73 137.33 74.73 137.08 74.79 136.45 73.48 135.86 74.78 135.59 74.78 135 72.74"></polygon>
                <path d="M163.61,73.12 L162.56,73.12 L163.09,74.74 C162.950681,74.8395312 162.769514,74.8591226 162.612139,74.7916759 C162.454763,74.7242292 162.344007,74.579528 162.32,74.41 C162.24,73.63 161.7,72.74 162.6,71.96 L162.77,72.64 L164.01,72.72 L164.01,74.72 L163.75,74.72 L163.61,73.12 Z" id="Shape" fill="#F2459A"></path>
                <path d="M130.53,74.5 C130.566156,74.3835227 130.583045,74.2619219 130.58,74.14 C130.46,73.04 130.74,72.7 131.9,72.63 L132.07,71.75 L132.28,71.75 L132.28,74.75 L130.52,74.5 L130.53,74.5 Z M130.79,73.58 L131.44,74.38 C131.63,74.19 131.96,73.99 131.96,73.8 C131.96,73.61 131.69,73.27 131.53,73 L130.79,73.58 Z" id="Shape" fill="#F0288A"></path>
                <path d="M154.46,82.65 C154.387379,82.7147682 154.323507,82.7887243 154.27,82.87 C154.07,83.2 153.88,83.53 153.69,83.87 C153.52,83.51 153.33,83.16 153.18,82.8 C153.03,82.44 153,82.23 152.92,81.95 L153.16,81.81 L153.78,83.13 L154.29,81.8 L154.52,81.8 L155.09,83.14 L155.6,81.82 L155.9,81.93 L155.3,83.78 C155.14,83.73 154.89,83.72 154.82,83.61 C154.673359,83.3006328 154.552937,82.9795062 154.46,82.65 Z" id="Shape" fill="#F0288A"></path>
                <path d="M156.06,74.66 L156.06,71.76 L156.28,71.76 L156.47,72.62 C157.58,72.8 157.88,73.06 157.81,73.81 C157.74,74.56 157.5,74.68 156.06,74.66 Z M157.62,73.66 L156.82,73.02 C156.67,73.24 156.4,73.48 156.41,73.69 C156.42,73.9 156.69,74.17 156.85,74.41 L157.62,73.66 Z" id="Shape" fill="#F0288A"></path>
                <path d="M162,83.59 C161.475061,84.1045429 160.634939,84.1045429 160.11,83.59 C159.603158,83.1098963 159.491515,82.3449353 159.84,81.74 C160.107071,81.1550153 160.761716,80.8531986 161.38,81.03 C161.61604,81.1077219 161.841193,81.2152577 162.05,81.35 L161.99,81.55 C161.870845,81.5701409 161.749155,81.5701409 161.63,81.55 C161.11,81.35 160.63,81.34 160.35,81.9 C160.190428,82.2944736 160.190428,82.7355264 160.35,83.13 C160.61,83.66 161.13,83.66 161.64,83.39 C161.72,83.39 161.85,83.39 161.95,83.39 L162,83.59 Z" id="Shape" fill="#F0288A"></path>
                <path d="M145.32,58 L145.32,60.72 C143.77,60.8 143.5,60.72 143.47,59.92 C143.44,59.12 143.85,58.71 144.77,58.72 L145.05,57.84 L145.32,58 Z M143.76,59.72 L144.36,60.48 C144.53,60.25 144.8,60.04 144.83,59.8 C144.86,59.56 144.62,59.33 144.5,59.1 L143.76,59.72 Z" id="Shape" fill="#F2459A"></path>
                <path d="M162,83.59 L162,83.35 L163.69,82.35 L162.5,82.22 L162.42,82.01 C162.77,81.95 163.2,81.71 163.47,81.84 C164.33,82.25 163.87,83.07 163.99,83.94 L162,83.59 Z" id="Shape" fill="#F2459A"></path>
                <path d="M157.92,82.83 L156.68,82.94 C156.83,83.55 156.83,83.55 157.8,83.48 C157.704682,83.6815269 157.528653,83.8333998 157.315334,83.8981574 C157.102014,83.9629151 156.871264,83.9345287 156.68,83.82 C156.20031,83.6091576 155.964713,83.0637925 156.14,82.57 C156.169562,82.3362696 156.29265,82.1245207 156.481124,81.9831653 C156.669598,81.8418098 156.907342,81.7829345 157.14,81.82 C157.75,81.87 157.93,82.24 157.92,82.83 Z" id="Shape" fill="#F0288A"></path>
                <path d="M146.84,74.86 C146.27,74.38 145.36,75.34 145.21,74.27 C145.21,74 145.85,73.63 146.31,73.2 L145.31,73.05 L145.26,72.86 C145.607368,72.7430989 145.974307,72.6955327 146.34,72.72 C146.56,72.79 146.75,73.2 146.82,73.49 C146.869251,73.9450513 146.875947,74.4037049 146.84,74.86 Z" id="Shape" fill="#F2459A"></path>
                <path d="M147.65,68.06 C147.99,67.99 148.36,67.81 148.65,67.9 C148.916721,68.0637377 149.101925,68.3324652 149.16,68.64 C149.208188,69.1221323 149.208188,69.6078677 149.16,70.09 C148.54,69.91 147.7,69.9 147.57,69.6 C147.25,68.78 148.3,68.97 148.81,68.43 L147.68,68.27 L147.65,68.06 Z" id="Shape" fill="#F2459A"></path>
                <path d="M151.81,59.79 L150.58,59.86 C150.69,60.49 150.69,60.49 151.66,60.39 C151.57448,60.5926555 151.406374,60.7490621 151.198085,60.8197654 C150.989797,60.8904687 150.761215,60.868718 150.57,60.76 C150.324671,60.6527939 150.132577,60.4516903 150.036719,60.2017091 C149.940862,59.9517279 149.949248,59.6737483 150.06,59.43 C150.253672,59.0642817 150.603325,58.8066429 151.01,58.73 C151.58,58.68 151.87,59.11 151.81,59.79 Z" id="Shape" fill="#F2459A"></path>
                <path d="M167.83,82.83 L166.5,82.9 C166.67,83.76 167.27,83.5 167.8,83.4 C167.47,83.91 167.12,84.04 166.66,83.83 C166.402704,83.742975 166.195628,83.5489091 166.092114,83.2977925 C165.988601,83.0466759 165.998769,82.763059 166.12,82.52 C166.336468,82.1584572 166.703296,81.9126828 167.12,81.85 C167.66,81.79 167.91,82.2 167.83,82.83 Z" id="Shape" fill="#F0288A"></path>
                <path d="M139.69,74.79 C139.662114,74.5309632 139.618702,74.2738341 139.56,74.02 C139.46,73.69 139.33,73.09 139.2,73.09 C138.52,73.09 138.74,73.66 138.7,74.09 L138.64,74.79 L138.32,74.79 L138.2,72.79 C140.12,72.79 140.32,73.03 139.92,74.79 L139.69,74.79 Z" id="Shape" fill="#F2459A"></path>
                <path d="M161.56,74.85 C161.04,74.7 160.31,74.71 160.04,74.36 C159.77,74.01 159.9,73.26 159.85,72.7 L160.26,72.7 C160.267566,73.0586069 160.300987,73.4162012 160.36,73.77 C160.454579,73.9946971 160.582703,74.2037429 160.74,74.39 C160.918003,74.1962839 161.066284,73.977233 161.18,73.74 C161.240603,73.4097364 161.277365,73.0755402 161.29,72.74 L161.56,72.74 L161.56,74.85 Z" id="Shape" fill="#F2459A"></path>
                <path d="M134.78,73.68 C134.802376,73.9587824 134.706982,74.2341957 134.516966,74.4394132 C134.32695,74.6446306 134.059678,74.7608965 133.78,74.76 C133.507911,74.7848952 133.238834,74.6875645 133.045635,74.4943652 C132.852435,74.3011659 132.755105,74.0320885 132.78,73.76 C132.78,73.13 133.04,72.69 133.78,72.68 C134.52,72.67 134.72,73.09 134.78,73.68 Z M134.6,73.78 L133.85,73 C133.64,73.23 133.3,73.45 133.26,73.7 C133.304335,73.991074 133.497832,74.2376877 133.77,74.35 C134,74.39 134.22,74.05 134.6,73.78 Z" id="Shape" fill="#F0288A"></path>
                <path d="M136.16,70 C135.607715,70 135.16,69.5522847 135.16,69 C135.16,68.35 135.43,67.93 136.16,67.9 C136.430303,67.8821181 136.69518,67.9817185 136.886731,68.1732694 C137.078281,68.3648202 137.177882,68.629697 137.16,68.9 C137.188353,69.18207 137.095651,69.4629188 136.904954,69.6726854 C136.714257,69.882452 136.443488,70.0014214 136.16,70 Z M136.94,68.94 L136.15,68.22 C135.97,68.45 135.65,68.68 135.64,68.91 C135.63,69.14 135.96,69.38 136.13,69.62 L136.94,68.94 Z" id="Shape" fill="#F2459A"></path>
                <path d="M150.68,83.57 C150.649381,83.3812336 150.649381,83.1887664 150.68,83 C150.87,82.61 151.01,82.07 151.34,81.9 C151.740578,81.8017441 152.163202,81.9235818 152.45,82.22 C152.654698,82.6185886 152.654698,83.0914114 152.45,83.49 C152.25,83.76 151.66,83.75 151.23,83.81 C151.026892,83.8042851 150.826701,83.7601753 150.64,83.68 C150.642066,83.6401649 150.655996,83.6018574 150.68,83.57 Z M150.93,82.84 L151.72,83.53 C151.91,83.31 152.25,83.09 152.25,82.87 C152.25,82.65 151.93,82.4 151.75,82.17 L150.93,82.84 Z" id="Shape" fill="#F2459A"></path>
                <path d="M147.72,83.92 C146.92,83.85 146.63,83.45 146.65,82.8 C146.61742,82.5260851 146.712252,82.2523567 146.907304,82.0573043 C147.102357,81.8622519 147.376085,81.7674197 147.65,81.8 C148.32,81.8 148.54,82.27 148.56,82.8 C148.631608,83.3397605 148.25822,83.8376109 147.72,83.92 L147.72,83.92 Z M148.44,82.92 L147.66,82.2 C147.46,82.44 147.12,82.66 147.09,82.92 C147.06,83.18 147.41,83.5 147.63,83.55 C147.85,83.6 148.07,83.18 148.44,82.88 L148.44,82.92 Z" id="Shape" fill="#F0288A"></path>
                <path d="M165.45,83.49 C165.08,82.87 163.92,82.96 164.45,82.07 C164.73,81.62 165.24,81.72 165.82,82.14 L164.82,82.22 C164.95,82.82 166.42,82.82 165.51,83.74 C165.15,84.11 164.67,84.02 164.18,83.49 L165.45,83.49 Z" id="Shape" fill="#F2459A"></path>
                <polygon id="Shape" fill="#F0288A" points="164.74 74.74 164.74 71.74 165 71.74 165 74.74"></polygon>
                <path d="M166.81,73.05 L166,73.05 C166.14,73.67 167.59,73.69 166.69,74.59 C166.48,74.79 165.95,74.68 165.57,74.71 L165.57,74.39 L166.51,74.39 C166.41,73.74 164.98,73.83 165.71,72.92 C165.89,72.69 166.45,72.77 166.83,72.71 L166.81,73.05 Z" id="Shape" fill="#F2459A"></path>
                <path d="M140.73,69.94 L140.73,67.85 C141.23,67.95 141.99,67.85 142.18,68.18 C142.37,68.51 142.34,69.33 142.4,69.93 L142.07,69.93 C142.067293,69.5512482 142.03385,69.1733409 141.97,68.8 C141.91,68.58 141.66,68.42 141.5,68.23 C141.35,68.42 141.11,68.6 141.07,68.82 C141.034847,69.1858241 141.034847,69.5541759 141.07,69.92 L140.73,69.94 Z" id="Shape" fill="#F0288A"></path>
                <path d="M154.22,68.28 C153.65,68.28 152.99,68.13 153.04,68.98 C153.09,69.83 153.7,69.53 154.25,69.52 C154.147957,69.7589596 153.93747,69.9344597 153.684057,69.9918736 C153.430644,70.0492875 153.165071,69.9816447 152.97,69.81 C152.483739,69.401044 152.408589,68.6804924 152.8,68.18 C153.18,67.73 153.69,67.74 154.22,68.28 Z" id="Shape" fill="#F2459A"></path>
                <path d="M146.39,83.71 C145.68,84 145.39,83.9 145.39,83.24 C145.39,82.58 144.9,81.79 145.64,81.24 L146.27,82.06 C145.64,82.45 145.63,83.2 146.39,83.71 Z" id="Shape" fill="#F0288A"></path>
                <path d="M142,80.88 C142.54,81.88 141.66,82.99 142.75,83.77 L141.22,83.77 C142.32,83.35 141.59,82.44 141.89,81.69 L141.13,81.94 L141.01,81.76 L142,80.88 Z" id="Shape" fill="#F0288A"></path>
                <path d="M152,74.31 C151.34,74.91 150.84,74.91 150.4,74.43 C150.02054,73.9512626 150.077394,73.2602763 150.53,72.85 C150.93,72.52 151.36,72.58 151.84,73.08 C151.26,73.08 150.62,72.89 150.65,73.74 C150.68,74.59 151.38,74.28 152,74.31 Z" id="Shape" fill="#F2459A"></path>
                <path d="M143,80.66 C143.547748,81.1171482 143.878933,81.7828585 143.913139,82.4954893 C143.947346,83.2081201 143.681445,83.9024905 143.18,84.41 C143.65862,83.1917084 143.593107,81.8268487 143,80.66 Z" id="Shape" fill="#F2459A"></path>
                <path d="M150.68,83.57 C150.669718,83.6059459 150.669718,83.6440541 150.68,83.68 L149.08,83.95 L149.08,81 C149.77,81.71 149.3,82.6 149.57,83.42 L150.68,83.57 Z" id="Shape" fill="#F0288A"></path>
                <path d="M168.92,84.42 C168.434842,83.9508618 168.160896,83.3048841 168.160896,82.63 C168.160896,81.9551159 168.434842,81.3091382 168.92,80.84 C168.445537,81.9861724 168.445537,83.2738276 168.92,84.42 L168.92,84.42 Z" id="Shape" fill="#F2459A"></path>
                <path d="M169.23,80.84 C169.726252,81.3012536 170.013122,81.9448079 170.024444,82.6222238 C170.035766,83.2996397 169.770561,83.9524209 169.29,84.43 C169.725946,83.2690178 169.704499,81.9857658 169.23,80.84 L169.23,80.84 Z" id="Shape" fill="#F2459A"></path>
                <path d="M155.33,70.56 C155.492045,69.940203 155.602423,69.3080376 155.66,68.67 C155.611801,68.0650864 155.50803,67.4658926 155.35,66.88 C156.324737,67.9161256 156.315941,69.5345303 155.33,70.56 Z" id="Shape" fill="#F0288A"></path>
                <path d="M139.69,82.27 L140.34,80.79 L140.69,80.85 C140.076695,81.942581 140.043006,83.2676657 140.6,84.39 L140.24,84.45 L139.7,82.26 L139.69,82.27 Z" id="Shape" fill="#F0288A"></path>
                <path d="M154.41,71.52 L154.41,74.87 C153.908824,73.809567 153.908824,72.580433 154.41,71.52 L154.41,71.52 Z" id="Shape" fill="#F2459A"></path>
                <path d="M130.86,67.92 C130.546514,68.2130184 130.277058,68.5498387 130.06,68.92 C129.979053,69.2740143 129.958765,69.6391978 130,70 L129.66,70 L129.54,67.94 L130.86,67.92 Z" id="Shape" fill="#F2459A"></path>
                <polygon id="Shape" fill="#F2459A" points="152.09 74.85 153.35 71.69 153.69 71.83 152.43 75"></polygon>
                <path d="M137.36,81.26 L138,81.96 C137.85,82.23 137.58,82.5 137.58,82.78 C137.645724,83.1349593 137.778054,83.474267 137.97,83.78 C137.44,84.06 137.19,83.96 137.16,83.29 C137.13,82.62 137.16,81.94 137.16,81.29 L137.36,81.26 Z" id="Shape" fill="#F0288A"></path>
                <path d="M139.69,82.27 L139.69,82.27 C139.11,82.17 138.86,82.44 138.86,83 C138.880004,83.299251 138.835676,83.5993154 138.73,83.88 C138.14,83.31 138.51,82.6 138.42,81.88 C138.8,82.29 139.51,81.25 139.69,82.27 Z" id="Shape" fill="#F2459A"></path>
                <polygon id="Shape" fill="#F2459A" points="158.05 74.83 159.34 71.69 159.66 71.83 158.39 75"></polygon>
                <polygon id="Shape" fill="#F2459A" points="168.76 71.84 167.49 75 167.15 74.86 168.42 71.71"></polygon>
                <path d="M149.73,72.58 L149.73,74.94 C149.248933,74.2268795 149.248933,73.2931205 149.73,72.58 Z" id="Shape" fill="#F2459A"></path>
                <path d="M155.1,72.49 C155.590117,73.2076354 155.590117,74.1523646 155.1,74.87 L155.1,72.49 Z" id="Shape" fill="#F2459A"></path>
                <path d="M151.81,70 L151.81,67.88 C152.25,68.18 152.33,69.14 151.81,70 Z" id="Shape" fill="#F2459A"></path>
                <path d="M159.67,82.09 C158.34,82.18 158.87,83.21 158.67,83.86 L158.46,83.86 L158.46,81.92 L159.51,81.86 L159.67,82.09 Z" id="Shape" fill="#EF2689"></path>
                <polygon id="Shape" fill="#EF2388" points="149.46 57.87 149.46 60.77 149.27 60.77 149.27 57.87"></polygon>
            </g>
        </g>
    </g>
</svg>