<svg xmlns="http://www.w3.org/2000/svg" viewBox="0 0 137.56 94.1"><defs><style>.cls-1{fill:#777;}.cls-2{fill:#e20074;}.cls-3{fill:#666;}</style></defs><title>Asset 20</title><g id="Layer_2" data-name="Layer 2"><g id="Layer_1-2" data-name="Layer 1"><polygon class="cls-1" points="26.18 56.59 13.07 43.42 26.24 30.31 26.27 17.24 6.55 36.87 0 43.39 6.52 49.94 26.15 69.66 26.18 56.59"/><polygon class="cls-1" points="111.49 30.39 124.48 43.66 111.21 56.66 111.08 69.73 130.95 50.27 137.56 43.8 131.09 37.19 111.62 17.32 111.49 30.39"/><path class="cls-2" d="M116,5.8S100.46.46,92.77,14.49C86,26.83,81.48,40.63,75.68,53.47,69.49,67.18,60.14,95.68,41.83,94c-4.39-.39-18.66-6.63-20-11.4a45.48,45.48,0,0,0,11.82,2.44c17.16.74,23.93-21.86,30-34.76q6.63-14.08,12.79-28.4C80,13.84,82.85,4.33,91.63,1.13,99.88-1.86,108.85,1.56,116,5.8Z"/><rect class="cls-3" x="51.61" y="50.36" width="4.17" height="4.17" transform="translate(-16.01 80.28) rotate(-66.1)"/><rect class="cls-3" x="56.34" y="39.69" width="4.17" height="4.17" transform="translate(-3.44 78.26) rotate(-66.1)"/><rect class="cls-3" x="61.07" y="29.01" width="4.17" height="4.17" transform="translate(9.13 76.23) rotate(-66.1)"/></g></g></svg>