<svg xmlns="http://www.w3.org/2000/svg" viewBox="0 0 90 94.79" fill="#ed008c"><title>icon-api</title><g id="Layer_2" data-name="Layer 2"><g id="Layer_1-2" data-name="Layer 1"><g id="layer1"><g id="g3876"><path id="path3825" d="M45,0c-6.8,0-12.31,2.44-12.31,5.44a2.79,2.79,0,0,0,.57,1.63h0c7,5.68,20.54,4.07,23.73-.54v.22a2.66,2.66,0,0,0,.37-1.33V5.38C57.21,2.4,51.72,0,45,0ZM56.91,7.28,56.74,13c-4.41,5.27-18.13,6.26-24.25-.09l.16-5.45-7.31,4.27c-.66,0-1.33-.09-2-.09C16.53,11.6,11,14,11,17a3,3,0,0,0,.91,2c7,5.38,20.27,3.76,23.42-.78l-.16,6.4C30.77,30,17,30.94,10.93,24.6L11,20.08,1.6,25.61,45.34,50.73,89.05,25.46,79,19.77l-.13,4.66c-4.41,5.27-18.13,6.26-24.25-.09l.18-6.23c6.73,6.16,20.77,4.66,24.18,0v0a2.52,2.52,0,0,0,.31-1.18v-.06c-.07-3-5.56-5.38-12.31-5.38-.83,0-1.65,0-2.44.12L56.91,7.28Zm.55,23.45-.16,6.41C52.88,42.4,39.16,43.39,33,37l.16-6.23C40,37,54.19,35.45,57.46,30.72Z"/><path id="path3805" d="M.24,33.56,41,57.73V94.44l-41-23Z"/><path id="path3805-4" d="M90,32.69,49,58.07V94.79l41-23Z"/></g></g></g></g></svg>