<svg xmlns="http://www.w3.org/2000/svg" viewBox="0 0 249.32 93.62"><defs><style>.cls-1{fill:#201c1d;}.cls-2{fill:#f7a80d;}</style></defs><title>logo-aws</title><g id="Layer_2" data-name="Layer 2"><g id="Layer_1-2" data-name="Layer 1"><g id="_Group_" data-name="&lt;Group&gt;"><path id="path243" class="cls-1" d="M80.55,34.34c-4.88,0-10.33,1.88-11.47,8.07a.87.87,0,0,0,.73,1.07l5,.6c.46,0,.78-.53.87-1a3.92,3.92,0,0,1,4.13-3.13,3.34,3.34,0,0,1,2.87,1.33,6.89,6.89,0,0,1,.67,3.8v.73c-3,.34-6.89.55-9.67,1.8a9,9,0,0,0-5.47,8.6c0,5.47,3.35,8.2,7.67,8.2,3.64,0,5.66-.86,8.47-3.8a12.58,12.58,0,0,0,2.93,3.47,1,1,0,0,0,1.2-.13V64c1-.93,2.89-2.63,3.93-3.53a1,1,0,0,0,0-1.4c-.94-1.33-1.93-2.4-1.93-4.87V46c0-3.47.29-6.68-2.2-9.07C86.32,35,83,34.34,80.55,34.34Zm67.21,0c-4.88,0-10.33,1.88-11.47,8.07a.87.87,0,0,0,.73,1.07l5,.6c.46,0,.78-.53.87-1A3.92,3.92,0,0,1,147,39.94a3.34,3.34,0,0,1,2.87,1.33c.71,1.08.6,2.55.6,3.8v.73c-3,.34-6.82.55-9.6,1.8a9,9,0,0,0-5.47,8.6c0,5.47,3.35,8.2,7.67,8.2,3.64,0,5.65-.86,8.47-3.8a12.51,12.51,0,0,0,2.93,3.47,1,1,0,0,0,1.2-.13V64c1-.93,2.89-2.63,3.93-3.53.42-.35.32-.92,0-1.4-.94-1.33-1.93-2.4-1.93-4.87V46c0-3.47.23-6.68-2.27-9.07C153.47,35,150.26,34.34,147.77,34.34ZM110,34.61c-3.15,0-5.49,1.59-6.73,5h-.07V36.07a1,1,0,0,0-.93-.93h-4.8a1,1,0,0,0-1,1v27a1,1,0,0,0,.93.93h5.13a1,1,0,0,0,1-1V48.74c0-3.13-.15-7.4,3.53-7.4s3.13,4.39,3.13,7.4V63.08a1,1,0,0,0,.93,1h5.13a1,1,0,0,0,1-1V48.74a16.44,16.44,0,0,1,.47-5.13,3.46,3.46,0,0,1,3.07-2.27,2.67,2.67,0,0,1,3,2.33,35.69,35.69,0,0,1,.13,5.07V63.08a1,1,0,0,0,.93,1H130a1,1,0,0,0,1-1V46c0-2.9.29-6.19-1.33-8.47a7.48,7.48,0,0,0-13,2.07C115.19,36.2,113.16,34.61,110,34.61Zm87.29,0c-7.42,0-11.54,6.52-11.54,14.94s4.07,15.07,11.54,15.07c7.18,0,11.74-6.56,11.74-14.8C209,41.29,204.85,34.61,197.24,34.61Zm29.27,0c-3.54,0-5.57,1.77-7,5.47h-.07V35.94a1,1,0,0,0-.93-.73h-4.73a1,1,0,0,0-1,.87v27a1,1,0,0,0,.93,1h5.07a1,1,0,0,0,1-1V48.54a12.49,12.49,0,0,1,.87-5.13,3.29,3.29,0,0,1,2.93-2.13c3.54,0,3.2,4.31,3.2,7.27V63.21a1,1,0,0,0,.93.87h5.13a1,1,0,0,0,1-.87v-17c0-2.61,0-6.24-1.33-8.4a6.72,6.72,0,0,0-6-3.2Zm-61.61.47a1,1,0,0,0-.93,1v3.87a1,1,0,0,0,.93,1h8.8L163.64,55.81a4.91,4.91,0,0,0-.67,2.67v3.93c0,.57.62,1.18,1.2.87a19,19,0,0,1,17.8-.07c.63.34,1.27-.3,1.27-.87V58.21a1.76,1.76,0,0,0-.93-1.47,18.3,18.3,0,0,0-9.6-2.13l8.74-12.8a5.42,5.42,0,0,0,1.27-2.4V36.07a.94.94,0,0,0-.93-1Zm32.34,5.07a3.26,3.26,0,0,1,3.4,2.6,25.49,25.49,0,0,1,.73,7.13c0,3.47-.16,9.2-4.13,9.2s-4-7.1-4-10.4S193.46,40.14,197.24,40.14ZM83.28,50v1.13c0,2.05.07,3.78-.93,5.6a4.14,4.14,0,0,1-3.53,2.4c-2,0-3.13-1.59-3.13-3.87C75.68,50.8,79.58,50,83.28,50Zm67.21,0v1.13c0,2.05.07,3.78-.93,5.6a4.14,4.14,0,0,1-3.53,2.4c-2,0-3.13-1.59-3.13-3.87C142.9,50.8,146.79,50,150.5,50Z"/><path id="path257" d="M183.77,64.95v3.87h2.6V64.95Zm-75.42.67V93.15h2.4V90.69a6,6,0,0,0,1.8,2.2,4.1,4.1,0,0,0,2.4.73,5.6,5.6,0,0,0,4.6-2.73c1.32-1.83,2-4.49,2-7.87a15.87,15.87,0,0,0-.87-5.6,7.72,7.72,0,0,0-2.33-3.47,5.26,5.26,0,0,0-3.27-1.2,4.27,4.27,0,0,0-2.33.67,6.15,6.15,0,0,0-1.8,2.07V65.61ZM133,72.08a5.4,5.4,0,0,0-5.8,5.73,5.79,5.79,0,0,0,.6,2.6,4.72,4.72,0,0,0,1.6,1.87A18.24,18.24,0,0,0,133.5,84a9.07,9.07,0,0,1,2.6,1.13,2.18,2.18,0,0,1,.8,1.8,3,3,0,0,1-.93,2.27,3.57,3.57,0,0,1-2.6.87,3.69,3.69,0,0,1-2.73-1,5.08,5.08,0,0,1-1.2-3.13l-2.6.53c.59,4.28,2.72,6.4,6.4,6.4a6,6,0,0,0,4.6-1.73,6.51,6.51,0,0,0,1.73-4.67,6.21,6.21,0,0,0-.53-2.67,4.22,4.22,0,0,0-1.47-1.73,21.14,21.14,0,0,0-4.2-1.73,12.92,12.92,0,0,1-2.8-1.2,2.09,2.09,0,0,1-.8-1.73,2.36,2.36,0,0,1,.8-1.87,3.81,3.81,0,0,1,2.53-.73q3,0,3.33,3.27l2.53-.4a8.18,8.18,0,0,0-.93-3.2,5,5,0,0,0-2-1.8A6.54,6.54,0,0,0,133,72.08Zm15.94,0a6.23,6.23,0,0,0-5.2,2.67c-1.36,1.81-2,4.43-2,7.87s.65,5.91,2,7.67a6.29,6.29,0,0,0,5.27,2.6,6.11,6.11,0,0,0,4.33-1.6,8.8,8.8,0,0,0,2.47-4.8L153.17,86c-.77,2.73-2.18,4.06-4.13,4.07a3.77,3.77,0,0,1-3.13-1.67,9,9,0,0,1-1.47-5.07H155.9v-.93c0-3.37-.67-5.89-2-7.67A5.94,5.94,0,0,0,149,72.08Zm15.8,0a2.37,2.37,0,0,0-1.67.67,8.64,8.64,0,0,0-1.67,2.8V72.48H159.1V92.42h2.6V82a16.69,16.69,0,0,1,.47-4.13,3.42,3.42,0,0,1,1-1.73,2.24,2.24,0,0,1,1.53-.6,3.1,3.1,0,0,1,1.87.73l.87-3.13A4.27,4.27,0,0,0,164.77,72.08Zm31.87,0a6.1,6.1,0,0,0-5.07,2.6c-1.31,1.73-2,4.34-2,7.8s.7,6,2,7.8a5.85,5.85,0,0,0,4.93,2.6A5.66,5.66,0,0,0,200.78,91a9.45,9.45,0,0,0,2.2-5.47l-2.53-.4a6.73,6.73,0,0,1-1.33,3.73,3.24,3.24,0,0,1-2.53,1.2,3.64,3.64,0,0,1-3.13-1.8c-.8-1.21-1.2-3.15-1.2-5.87s.43-4.53,1.27-5.73a3.85,3.85,0,0,1,3.2-1.87,2.88,2.88,0,0,1,2.2,1,6.16,6.16,0,0,1,1.27,3.07l2.53-.53a8,8,0,0,0-2.07-4.73A5.49,5.49,0,0,0,196.64,72.08Zm14.87,0a6.24,6.24,0,0,0-5.2,2.67c-1.36,1.81-2,4.43-2,7.87s.65,5.91,2,7.67a6.29,6.29,0,0,0,5.27,2.6,6.12,6.12,0,0,0,4.33-1.6,8.83,8.83,0,0,0,2.47-4.8L215.71,86c-.77,2.73-2.12,4.06-4.07,4.07a3.89,3.89,0,0,1-3.2-1.67A9,9,0,0,1,207,83.35h11.47v-.93c0-3.37-.67-5.89-2-7.67A5.93,5.93,0,0,0,211.51,72.08Zm15.4,0a5.4,5.4,0,0,0-5.8,5.73,5.77,5.77,0,0,0,.53,2.6,4.69,4.69,0,0,0,1.6,1.87A18.2,18.2,0,0,0,227.32,84,9.85,9.85,0,0,1,230,85.15a2.18,2.18,0,0,1,.8,1.8,3,3,0,0,1-.93,2.27,3.57,3.57,0,0,1-2.6.87,3.69,3.69,0,0,1-2.73-1A5.1,5.1,0,0,1,223.25,86l-2.6.53c.59,4.28,2.72,6.4,6.4,6.4a6.18,6.18,0,0,0,4.67-1.73,6.51,6.51,0,0,0,1.73-4.67,6.21,6.21,0,0,0-.53-2.67,4.36,4.36,0,0,0-1.53-1.73,19.93,19.93,0,0,0-4.13-1.73,14.13,14.13,0,0,1-2.87-1.2,2.09,2.09,0,0,1-.8-1.73,2.41,2.41,0,0,1,.87-1.87,3.81,3.81,0,0,1,2.53-.73q3,0,3.33,3.27l2.53-.4a8.18,8.18,0,0,0-.93-3.2,5,5,0,0,0-2-1.8A6.54,6.54,0,0,0,226.92,72.08Zm-59.48.4,5.8,19.94h2.47l5.8-19.94h-2.67l-3.4,12.2c-.41,1.48-.78,2.75-1,3.8-.28-1.33-.56-2.72-.93-4.07l-3.33-11.94Zm16.34,0V92.42h2.6V72.48Zm-85.49.27a6.08,6.08,0,0,0-5.07,2.73c-1.35,1.81-2.07,4.43-2.07,7.87s.67,5.85,2,7.6a6.36,6.36,0,0,0,5.27,2.67A6,6,0,0,0,102.69,92a8.84,8.84,0,0,0,2.4-4.8l-2.6-.4c-.76,2.73-2.13,4.06-4.07,4.07a3.78,3.78,0,0,1-3.13-1.67,9,9,0,0,1-1.47-5.07h11.34l.07-.93c0-3.36-.68-6-2-7.74A5.94,5.94,0,0,0,98.29,72.75ZM69,73.22l4.67,19.94h2.73l3.07-15.34.53,3.4,2.47,11.94h2.67l4.73-19.94H87.42l-2.6,11.54L84,88.62l-.8-3.87L80.88,73.22H78.22l-2.4,11.67L75,89l-.93-4.27-2.4-11.54Zm166,.2v.93h2.53V81h1V74.35h2.53v-.93Zm7.07,0V81H243V74.55l2.2,6.47h.93l2.2-6.33V81h1v-7.6h-1.4l-1.8,5.33c-.18.53-.31.92-.4,1.2l-.4-1.13-1.8-5.4Zm-93.15,1.4a3.75,3.75,0,0,1,3.2,1.87,7.94,7.94,0,0,1,1.07,3.87h-8.6a6.94,6.94,0,0,1,1.4-4.13A3.68,3.68,0,0,1,148.9,74.82Zm62.55,0a3.76,3.76,0,0,1,3.2,1.87,8,8,0,0,1,1.07,3.87h-8.6a6.92,6.92,0,0,1,1.4-4.13A3.67,3.67,0,0,1,211.45,74.82Zm-113.16.73a3.65,3.65,0,0,1,3.13,1.87,8,8,0,0,1,1.07,3.87H94a7.16,7.16,0,0,1,1.33-4.2A3.6,3.6,0,0,1,98.29,75.55Zm16.54,0a3.5,3.5,0,0,1,2.93,1.87c.79,1.23,1.13,3.12,1.13,5.73a10.74,10.74,0,0,1-1.2,5.73,3.52,3.52,0,0,1-2.87,1.93,3.24,3.24,0,0,1-2.13-.8,5.06,5.06,0,0,1-1.47-2.33,15.5,15.5,0,0,1-.53-4.67A10.11,10.11,0,0,1,112,77.48,3.53,3.53,0,0,1,114.82,75.55Z"/><path id="polygon287" class="cls-2" d="M31.64,54.41,21.7,58.68l9.2,3.93,10.67-3.93ZM16.7,59.75,16.37,79l14.54,6.4V65.41Zm29.87,0-13.14,5v18.8l13.14-5.33Z"/><path id="polygon311" class="cls-2" d="M62.25,0l-10,4.27L61.51,8.2,72.18,4.27ZM48.38,5.67v19.2l12.4,3.6L61.18,11ZM76.12,6.73l-11.74,5V30.61l11.74-5.33Z"/><path id="use3387" class="cls-2" d="M15.27,27,5.33,31.3l9.2,3.93L25.21,31.3ZM.33,32.36,0,51.57,14.54,58V38Zm29.87,0-13.14,5v18.8l13.14-5.33Z"/><path id="use3389" class="cls-2" d="M47.28,26.32l-9.94,4.27,9.2,3.93,10.67-3.93ZM32.34,31.65,32,50.86l14.54,6.4V37.32Zm29.87,0-13.14,5v18.8l13.14-5.33Z"/><path id="use3391" class="cls-2" d="M93.51,0,83.57,4.27l9.2,3.93,10.67-3.93ZM78.57,5.33l-.33,19.2,14.54,6.4V11Zm29.87,0-13.14,5v18.8l13.14-5.33Z"/></g></g></g></svg>