<svg xmlns="http://www.w3.org/2000/svg" viewBox="0 0 100 100" fill="#e5e5e5"><title>icon-web</title><g id="Layer_2" data-name="Layer 2"><g id="Layer_1-2" data-name="Layer 1"><path d="M50,0a50,50,0,1,0,50,50A50,50,0,0,0,50,0ZM84.6,30H69.85A79.42,79.42,0,0,0,63,12.2,40,40,0,0,1,84.6,30ZM50,10.17A69.24,69.24,0,0,1,59.55,30H40.45A69.24,69.24,0,0,1,50,10.17ZM11.3,60a39.11,39.11,0,0,1,0-20H28.18a82.24,82.24,0,0,0-.68,10,77.49,77.49,0,0,0,.7,10Zm4.08,10H30.13A80.09,80.09,0,0,0,37,87.83,40.08,40.08,0,0,1,15.38,70ZM30.13,30H15.38A40.08,40.08,0,0,1,37,12.17,80.09,80.09,0,0,0,30.13,30ZM50,89.83A70.58,70.58,0,0,1,40.45,70h19.1A70.58,70.58,0,0,1,50,89.83ZM61.7,60H38.3a69.48,69.48,0,0,1-.8-10,69.48,69.48,0,0,1,.8-10H61.7a69.48,69.48,0,0,1,.8,10A69.48,69.48,0,0,1,61.7,60ZM63,87.8A79.89,79.89,0,0,0,69.88,70H84.63A40.22,40.22,0,0,1,63,87.8ZM71.8,60a82.22,82.22,0,0,0,.7-10,77.49,77.49,0,0,0-.7-10H88.68A40,40,0,0,1,90,50a38.9,38.9,0,0,1-1.32,10Z"/></g></g></svg>